<svg xmlns="http://www.w3.org/2000/svg" width="576" height="577" fill="none"><mask id="a" width="512" height="513" x="32" y="32" maskUnits="userSpaceOnUse" style="mask-type:alpha"><path fill="#FAC800" d="M543.993 289.808a253.61 253.61 0 0 1-21.166 101.569 254.123 254.123 0 0 1-60.088 84.667 242.893 242.893 0 0 1-18.714 15.814c-2.614 2.052-5.284 4.05-7.981 5.909-2.697 1.858-6.173 4.272-9.316 6.269a376.28 376.28 0 0 1-9.482 5.854 255.353 255.353 0 0 1-30.588 15.175c-3.087 1.277-6.201 2.525-9.371 3.662a233.842 233.842 0 0 1-21.023 6.742 249.932 249.932 0 0 1-11.123 2.774 257.178 257.178 0 0 1-117.117-.662 256.822 256.822 0 0 1-104.621-52.52c-3.448-2.775-6.812-5.882-10.094-8.961a253.73 253.73 0 0 1-30.588-33.874c-2.086-2.774-4.143-5.548-6.118-8.517a252.256 252.256 0 0 1-27.195-51.24 147.766 147.766 0 0 1-2.531-6.742 252.883 252.883 0 0 1-14.738-76.875c0-1.692 0-3.384-.139-5.049v-11.929a252.07 252.07 0 0 1 8.593-58.481 2.294 2.294 0 0 0 0-.416v-.139c.444-1.581.862-3.135 1.362-4.689a258.749 258.749 0 0 1 5.812-17.533C68.393 144.074 108.378 96.62 160.665 66.632a256.341 256.341 0 0 1 172.866-29.916c59.355 10.669 113.024 41.915 151.532 88.224 38.509 46.308 59.38 104.7 58.93 164.868Z"/></mask><g mask="url(#a)"><path fill="#262626" d="M543.993 289.808a253.61 253.61 0 0 1-21.166 101.569 254.123 254.123 0 0 1-60.088 84.667 242.893 242.893 0 0 1-18.714 15.814c-2.614 2.052-5.284 4.05-7.981 5.909-2.697 1.858-6.173 4.272-9.316 6.269a376.28 376.28 0 0 1-9.482 5.854 255.353 255.353 0 0 1-30.588 15.175c-3.087 1.277-6.201 2.525-9.371 3.662a233.842 233.842 0 0 1-21.023 6.742 249.932 249.932 0 0 1-11.123 2.774 257.178 257.178 0 0 1-117.117-.662 256.822 256.822 0 0 1-104.621-52.52c-3.448-2.775-6.812-5.882-10.094-8.961a253.73 253.73 0 0 1-30.588-33.874c-2.086-2.774-4.143-5.548-6.118-8.517a252.256 252.256 0 0 1-27.195-51.24 147.766 147.766 0 0 1-2.531-6.742 252.883 252.883 0 0 1-14.738-76.875c0-1.692 0-3.384-.139-5.049v-11.929a252.07 252.07 0 0 1 8.593-58.481 2.294 2.294 0 0 0 0-.416v-.139c.444-1.581.862-3.135 1.362-4.689a258.749 258.749 0 0 1 5.812-17.533C68.393 144.074 108.378 96.62 160.665 66.632a256.341 256.341 0 0 1 172.866-29.916c59.355 10.669 113.024 41.915 151.532 88.224 38.509 46.308 59.38 104.7 58.93 164.868Z"/><path fill="url(#b)" fill-opacity=".1" d="m62.006 242.183-132.554 103.62a10 10 0 0 0-2.823 12.275L6.542 521.322a10 10 0 0 0 8.55 5.594l499.209 21.545a10 10 0 0 0 10.361-8.805l45.126-378.225c.691-5.79-3.699-10.941-9.526-11.176l-93.2-3.758a10.001 10.001 0 0 0-9.903 6.868l-10.976 33.389a10 10 0 0 1-9.5 6.877h-22.574a10 10 0 0 0-8.949 5.536l-12.152 24.359a10 10 0 0 1-8.948 5.536h-39.34c-5.523 0-10-4.477-10-10v-33.883c0-5.523-4.478-10-10-10h-35.116a10 10 0 0 0-7.887 3.852l-35.995 46.178a9.998 9.998 0 0 1-7.887 3.853h-58.909a10 10 0 0 1-7.148-3.007l-18.65-19.06a10 10 0 0 0-7.148-3.007h-6.241a9.998 9.998 0 0 0-8.488 4.714l-16.596 26.646a10 10 0 0 1-8.488 4.714H68.164a10 10 0 0 0-6.158 2.121Z"/><path stroke="url(#c)" stroke-width="6" d="m20.426 280.062 46.5-40h46.5l21.466-35.522h16l26.534 25.522h66l42-51h52v51h54.619l15.627-37.268h39l11.046-46.602H499.1"/></g><mask id="d" width="512" height="513" x="32" y="32" maskUnits="userSpaceOnUse" style="mask-type:alpha"><path fill="#171717" d="M543.993 289.808a253.61 253.61 0 0 1-21.166 101.569 254.123 254.123 0 0 1-60.088 84.667 242.893 242.893 0 0 1-18.714 15.814c-2.614 2.052-5.284 4.05-7.981 5.909-2.697 1.858-6.173 4.272-9.316 6.27a379.168 379.168 0 0 1-9.482 5.853 255.353 255.353 0 0 1-30.588 15.175c-3.087 1.277-6.201 2.525-9.371 3.662a233.842 233.842 0 0 1-21.023 6.742 249.932 249.932 0 0 1-11.123 2.774 257.178 257.178 0 0 1-117.117-.662 256.822 256.822 0 0 1-104.621-52.52c-3.448-2.775-6.812-5.882-10.094-8.961a253.73 253.73 0 0 1-30.588-33.874c-2.086-2.774-4.143-5.548-6.118-8.517a252.256 252.256 0 0 1-27.195-51.24 147.766 147.766 0 0 1-2.531-6.742 252.883 252.883 0 0 1-14.738-76.875c0-1.692 0-3.384-.139-5.049v-11.929a252.07 252.07 0 0 1 8.593-58.481 2.294 2.294 0 0 0 0-.416v-.139c.444-1.581.862-3.135 1.362-4.689a258.749 258.749 0 0 1 5.812-17.533C68.393 144.074 108.378 96.62 160.665 66.632a256.341 256.341 0 0 1 172.866-29.916c59.355 10.669 113.024 41.915 151.532 88.224 38.509 46.308 59.38 104.7 58.93 164.868Z"/></mask><g mask="url(#d)"><g filter="url(#e)"><rect width="221.702" height="221.824" x="506.434" y="252.106" fill="#404040" rx="12.317" shape-rendering="crispEdges"/><rect width="220.669" height="220.791" x="506.95" y="252.623" stroke="#262626" stroke-width="1.033" rx="11.8" shape-rendering="crispEdges"/><g filter="url(#f)"><rect width="60.923" height="60.923" fill="#E82127" rx="30.462" shape-rendering="crispEdges" transform="matrix(-1 0 0 1 591.99 264.423)"/></g><path fill="#fff" d="M537.52 374.979v-16.37h-5.815v-2.071h13.93v2.071h-5.814v16.37h-2.301Zm11.848.256c-3.821 0-6.121-2.671-6.121-6.85v-.013c0-4.115 2.351-6.939 5.981-6.939 3.629 0 5.84 2.696 5.84 6.684v.818h-9.572c.051 2.735 1.559 4.332 3.923 4.332 1.687 0 2.876-.843 3.259-1.981l.039-.115h2.185l-.026.128c-.434 2.198-2.607 3.936-5.508 3.936Zm-.153-11.834c-1.93 0-3.438 1.316-3.681 3.796h7.272c-.217-2.582-1.649-3.796-3.591-3.796Zm12.449 11.834c-3.132 0-5.023-1.597-5.291-3.974l-.013-.115h2.224l.025.127c.269 1.329 1.253 2.109 3.067 2.109 1.802 0 2.876-.754 2.876-1.955v-.013c0-.959-.499-1.495-2.007-1.866l-2.108-.511c-2.505-.601-3.719-1.764-3.719-3.681v-.013c0-2.287 2.006-3.91 4.882-3.91 2.913 0 4.767 1.7 4.933 3.923l.012.166h-2.121l-.013-.089c-.179-1.291-1.163-2.147-2.811-2.147-1.611 0-2.607.78-2.607 1.955v.013c0 .907.6 1.534 2.07 1.891l2.109.512c2.683.651 3.655 1.712 3.655 3.604v.012c0 2.326-2.199 3.962-5.163 3.962Zm7.221-.256v-18.441h2.224v18.441h-2.224Zm8.743.256c-2.646 0-4.422-1.597-4.422-4.013v-.025c0-2.262 1.764-3.681 4.818-3.86l3.808-.217v-1.112c0-1.623-1.06-2.607-2.913-2.607-1.713 0-2.786.818-3.042 2.006l-.026.115h-2.147l.013-.14c.192-2.186 2.096-3.949 5.227-3.949 3.144 0 5.112 1.7 5.112 4.358v9.188h-2.224v-2.159h-.051c-.779 1.457-2.377 2.415-4.153 2.415Zm-2.147-4.013c0 1.278 1.048 2.083 2.645 2.083 2.096 0 3.706-1.444 3.706-3.374v-1.086l-3.552.217c-1.777.103-2.799.895-2.799 2.135v.025Zm16.373 3.757v-18.441h2.3v18.441h-2.3Zm5.164 0v-13.291h2.224v1.892h.051c.716-1.24 2.07-2.147 4.089-2.147 2.914 0 4.601 1.891 4.601 4.92v8.626h-2.223v-8.23c0-2.16-1.01-3.348-3.055-3.348-2.096 0-3.463 1.495-3.463 3.757v7.821h-2.224Zm18.941.256c-3.77 0-6.16-2.684-6.16-6.914v-.013c0-4.191 2.441-6.875 6.134-6.875 3.31 0 5.266 2.198 5.547 4.473l.013.102h-2.173l-.025-.102c-.333-1.329-1.406-2.505-3.362-2.505-2.313 0-3.859 1.917-3.859 4.933v.013c0 3.092 1.585 4.92 3.885 4.92 1.815 0 2.978-1.022 3.348-2.505l.026-.102h2.185l-.013.089c-.357 2.531-2.543 4.486-5.546 4.486Zm12.578-.256v-18.441h2.3v18.441h-2.3Zm5.164 0v-13.291h2.223v1.892h.052c.715-1.24 2.07-2.147 4.089-2.147 2.914 0 4.601 1.891 4.601 4.92v8.626h-2.224v-8.23c0-2.16-1.009-3.348-3.054-3.348-2.096 0-3.464 1.495-3.464 3.757v7.821h-2.223Zm18.941.256c-3.771 0-6.16-2.684-6.16-6.914v-.013c0-4.191 2.441-6.875 6.134-6.875 3.31 0 5.265 2.198 5.546 4.473l.013.102h-2.172l-.026-.102c-.332-1.329-1.406-2.505-3.361-2.505-2.313 0-3.86 1.917-3.86 4.933v.013c0 3.092 1.585 4.92 3.886 4.92 1.814 0 2.977-1.022 3.348-2.505l.025-.102h2.186l-.013.089c-.358 2.531-2.543 4.486-5.546 4.486Zm-120.336 48.746c-.422 0-.741-.346-.741-.767 0-.448.319-.767.741-.767h1.483a14.205 14.205 0 0 1-.039-1.061c0-.383.013-.754.051-1.112h-1.495c-.422 0-.741-.345-.741-.766 0-.448.319-.767.741-.767h1.713c.894-4.077 3.897-6.595 7.974-6.595 3.425 0 5.943 1.675 7.016 4.371.128.307.179.626.179.882 0 .626-.422 1.048-1.035 1.048-.549 0-.933-.307-1.188-.946-.857-2.121-2.748-3.22-4.972-3.22-2.684 0-4.754 1.687-5.559 4.46h6.85c.434 0 .754.319.754.767a.75.75 0 0 1-.754.766h-7.144c-.026.358-.051.729-.051 1.112 0 .371.013.716.051 1.061h7.144c.434 0 .754.319.754.767 0 .421-.32.767-.754.767h-6.863c.767 2.824 2.85 4.524 5.585 4.524 2.224 0 4.141-.806 4.997-2.927.255-.639.613-.946 1.163-.946.613 0 1.009.396 1.009 1.023 0 .255-.038.575-.166.882-1.137 2.849-3.949 4.102-7.016 4.102-4.128 0-7.118-2.518-7.987-6.658h-1.7Zm25.715 6.632c-.677 0-1.112-.37-1.112-.945 0-.473.103-.678.652-1.253l5.905-6.16c2.479-2.594 3.067-3.578 3.067-5.124 0-1.879-1.444-3.259-3.425-3.259-1.994 0-3.387 1.035-4.013 3.016-.154.473-.409.805-1.035.805-.678 0-1.061-.422-1.061-1.023 0-.166.013-.306.038-.46.269-1.891 2.301-4.345 6.071-4.345 3.322 0 5.725 2.147 5.725 5.125 0 2.019-.92 3.54-4.077 6.773l-4.626 4.754v.052h8.051c.652 0 1.087.408 1.087 1.022 0 .613-.435 1.022-1.087 1.022h-10.16Zm14.455 0c-.677 0-1.111-.37-1.111-.945 0-.473.102-.678.651-1.253l5.905-6.16c2.479-2.594 3.067-3.578 3.067-5.124 0-1.879-1.444-3.259-3.425-3.259-1.994 0-3.387 1.035-4.013 3.016-.153.473-.409.805-1.035.805-.678 0-1.061-.422-1.061-1.023 0-.166.013-.306.038-.46.269-1.891 2.301-4.345 6.071-4.345 3.323 0 5.725 2.147 5.725 5.125 0 2.019-.92 3.54-4.077 6.773l-4.626 4.754v.052h8.051c.652 0 1.087.408 1.087 1.022 0 .613-.435 1.022-1.087 1.022h-10.16Zm19.746.307c-3.897 0-6.683-2.211-6.683-5.291 0-2.3 1.584-4.192 3.961-4.741v-.051c-2.032-.627-3.297-2.186-3.297-4.128 0-2.786 2.556-4.844 6.019-4.844 3.489 0 6.007 2.045 6.007 4.857 0 1.917-1.24 3.463-3.285 4.115v.051c2.39.562 3.975 2.454 3.975 4.741 0 3.093-2.786 5.291-6.697 5.291Zm0-10.94c2.186 0 3.732-1.265 3.732-3.054 0-1.815-1.534-3.08-3.732-3.08-2.198 0-3.731 1.278-3.731 3.08 0 1.789 1.533 3.054 3.731 3.054Zm0 8.934c2.544 0 4.346-1.445 4.346-3.451 0-2.032-1.802-3.463-4.346-3.463-2.53 0-4.345 1.444-4.345 3.463 0 2.006 1.815 3.451 4.345 3.451Zm10.391-1.266c.652 0 1.112.384 1.112 1.01 0 .23-.025.422-.102.703l-1.176 4.396c-.14.55-.434.805-.971.805-.511 0-.907-.294-.907-.805 0-.192.025-.319.038-.396l.907-4.741c.141-.703.499-.972 1.099-.972Zm11.158 3.285c-2.76 0-4.958-1.495-6.096-4.154-.613-1.418-.907-3.08-.907-5.073 0-6.211 2.645-9.854 7.157-9.854 2.364 0 4.422 1.1 5.457 2.902.23.396.332.715.332 1.086 0 .575-.447.984-1.061.984-.46 0-.779-.243-1.188-.895-.882-1.393-2.019-2.045-3.566-2.045-3.041 0-4.792 2.671-4.907 7.477v.166h.038c.754-1.662 2.646-2.991 5.15-2.991 3.515 0 6.122 2.595 6.122 6.096 0 3.643-2.748 6.301-6.531 6.301Zm-.025-2.045c2.351 0 4.217-1.853 4.217-4.179 0-2.415-1.738-4.153-4.179-4.153-2.441 0-4.243 1.738-4.243 4.089 0 2.364 1.841 4.243 4.205 4.243Zm14.992 2.032c-2.697 0-4.972-1.342-5.841-3.425-.166-.396-.268-.754-.268-1.227 0-.652.422-1.073 1.073-1.073.563 0 .869.255 1.074.907.562 1.789 2.006 2.799 4.013 2.799 2.479 0 4.217-1.751 4.217-4.256 0-2.428-1.763-4.153-4.23-4.153-1.265 0-2.441.473-3.208 1.29-.818.869-1.009.984-1.584.984-.716 0-1.112-.524-1.112-1.188 0-.102 0-.179.013-.294l.651-7.31c.115-1.291.716-1.802 2.071-1.802h7.706c.652 0 1.086.409 1.086 1.022 0 .614-.434 1.023-1.086 1.023h-7.719l-.588 6.057h.051c.831-1.124 2.352-1.763 4.154-1.763 3.565 0 6.096 2.517 6.096 6.07 0 3.719-2.71 6.339-6.569 6.339Z"/><path fill="#34CC8D" d="M548.609 455.359c0 .723-.557 1.173-1.408 1.173l-12.743.01c-.851 0-1.398-.45-1.398-1.173 0-.391.176-.704.371-1.124l6.099-12.548c.41-.841.781-1.105 1.299-1.105.518 0 .9.264 1.31 1.105l6.088 12.548c.206.411.382.723.382 1.114Zm12.802.489c-3.293 0-5.199-2.834-5.199-7.291 0-4.417 1.925-7.28 5.199-7.28s5.18 2.843 5.18 7.271c0 4.456-1.896 7.3-5.18 7.3Zm0-1.535c2.199 0 3.411-2.237 3.411-5.756 0-3.469-1.232-5.736-3.411-5.736-2.179 0-3.43 2.287-3.43 5.727 0 3.518 1.221 5.765 3.43 5.765Zm8.488-.967c.498 0 .85.293.85.772 0 .176-.019.323-.078.538l-.899 3.361c-.108.421-.332.616-.743.616-.391 0-.694-.225-.694-.616 0-.146.02-.244.03-.303l.693-3.625c.108-.538.382-.743.841-.743Zm5.272 2.443c-.478 0-.811-.283-.811-.723 0-.195.039-.342.157-.567l5.922-11.385v-.039h-6.851c-.479 0-.83-.303-.83-.782 0-.479.351-.782.83-.782h7.584c.704 0 1.104.391 1.104 1.065 0 .333-.117.606-.381 1.124l-5.932 11.581c-.186.362-.41.508-.792.508Zm14.059.059c-3.294 0-5.199-2.834-5.199-7.291 0-4.417 1.925-7.28 5.199-7.28s5.179 2.843 5.179 7.271c0 4.456-1.896 7.3-5.179 7.3Zm0-1.535c2.199 0 3.41-2.237 3.41-5.756 0-3.469-1.231-5.736-3.41-5.736-2.18 0-3.431 2.287-3.431 5.727 0 3.518 1.222 5.765 3.431 5.765Zm9.592 1.476c-.381 0-.665-.234-.665-.586a.75.75 0 0 1 .157-.469l4.583-6.558 4.456-6.421c.235-.342.401-.42.675-.42.332 0 .625.245.625.577a.717.717 0 0 1-.146.459l-4.447 6.392-4.593 6.616c-.215.312-.372.41-.645.41Zm.146-7.29c-1.72 0-2.756-1.369-2.756-3.577 0-2.199 1.046-3.557 2.756-3.557 1.711 0 2.756 1.348 2.756 3.557 0 2.199-1.036 3.577-2.756 3.577Zm0-1.105c.87 0 1.369-.889 1.369-2.472 0-1.574-.509-2.453-1.369-2.453s-1.368.889-1.368 2.453c0 1.583.499 2.472 1.368 2.472Zm8.874 8.366c-1.72 0-2.756-1.368-2.756-3.577 0-2.199 1.046-3.557 2.756-3.557 1.71 0 2.756 1.348 2.756 3.557 0 2.199-1.036 3.577-2.756 3.577Zm0-1.104c.87 0 1.368-.89 1.368-2.473 0-1.573-.508-2.453-1.368-2.453-.86 0-1.368.889-1.368 2.453 0 1.583.498 2.473 1.368 2.473Z"/></g><rect width="220.669" height="221.452" x="269.854" y="252.293" fill="#404040" rx="11.8"/><rect width="220.669" height="221.452" x="269.854" y="252.293" stroke="#262626" stroke-width="1.033" rx="11.8"/><rect width="61.584" height="61.584" x="293.971" y="264.093" fill="#fff" rx="30.792"/><path fill="#77B900" d="M311.901 293.398s2.923-4.313 8.76-4.76v-1.564c-6.465.519-12.063 5.994-12.063 5.994s3.17 9.166 12.063 10.006v-1.663c-6.526-.821-8.76-8.013-8.76-8.013Zm8.76 4.705v1.523c-4.932-.879-6.301-6.006-6.301-6.006s2.368-2.623 6.301-3.049v1.672l-.008-.001c-2.064-.248-3.676 1.68-3.676 1.68s.903 3.247 3.684 4.181Zm0-13.915v2.886c.19-.015.379-.027.57-.034 7.35-.248 12.139 6.028 12.139 6.028s-5.5 6.688-11.23 6.688a8.427 8.427 0 0 1-1.479-.13v1.785c.395.05.804.079 1.231.079 5.333 0 9.189-2.723 12.923-5.946.619.496 3.154 1.702 3.675 2.23-3.55 2.972-11.825 5.368-16.516 5.368-.452 0-.886-.027-1.313-.068v2.508h20.268v-21.394h-20.268Zm0 6.383v-1.933c.188-.013.377-.023.57-.029 5.286-.166 8.753 4.542 8.753 4.542s-3.745 5.201-7.761 5.201a4.854 4.854 0 0 1-1.562-.249v-5.86c2.057.248 2.471 1.157 3.708 3.219l2.752-2.32s-2.009-2.634-5.394-2.634c-.368 0-.72.026-1.066.063Z"/><path fill="#fff" d="M295.76 375.311v-18.442h2.236l10.148 14.556h.063v-14.556h2.275v18.442h-2.236l-10.147-14.557h-.064v14.557h-2.275Zm23.26 0-6.799-18.442h2.416l5.495 15.681h.051l5.496-15.681h2.415l-6.799 18.442h-2.275Zm10.813 0v-18.442h2.301v18.442h-2.301Zm5.509 0v-18.442h6.199c5.457 0 8.703 3.4 8.703 9.189v.026c0 5.814-3.221 9.227-8.703 9.227h-6.199Zm2.301-2.071h3.744c4.179 0 6.505-2.556 6.505-7.131v-.025c0-4.601-2.326-7.144-6.505-7.144h-3.744v14.3Zm15.094 2.071v-18.442h2.3v18.442h-2.3Zm4.039 0 6.863-18.442h2.275l6.85 18.442h-2.415l-1.866-5.279h-7.425l-1.866 5.279h-2.416Zm7.975-15.681-2.99 8.447h6.032l-2.991-8.447h-.051Zm22.469 15.987c-5.125 0-8.422-3.731-8.422-9.533v-.013c0-5.802 3.285-9.508 8.422-9.508 3.834 0 6.812 2.325 7.515 5.814l.025.128h-2.326l-.089-.281c-.716-2.236-2.531-3.54-5.125-3.54-3.68 0-6.057 2.901-6.057 7.387v.013c0 4.485 2.389 7.412 6.057 7.412 2.582 0 4.371-1.278 5.176-3.706l.038-.115h2.326l-.025.127c-.703 3.528-3.655 5.815-7.515 5.815Zm15.056-.051c-3.693 0-6.16-2.671-6.16-6.901v-.026c0-4.23 2.479-6.875 6.147-6.875s6.16 2.633 6.16 6.875v.026c0 4.243-2.479 6.901-6.147 6.901Zm.013-1.968c2.338 0 3.859-1.815 3.859-4.933v-.026c0-3.118-1.533-4.907-3.885-4.907-2.313 0-3.872 1.802-3.872 4.907v.026c0 3.131 1.546 4.933 3.898 4.933Zm8.014 1.713V362.02h2.223v2.249h.052c.447-1.534 1.597-2.505 3.092-2.505.384 0 .716.064.895.089v2.16c-.179-.064-.652-.128-1.189-.128-1.725 0-2.85 1.202-2.85 3.221v8.205h-2.223Zm7.707 4.472V362.02h2.224v2.249h.051c.831-1.547 2.313-2.505 4.217-2.505 3.4 0 5.649 2.709 5.649 6.901v.013c0 4.192-2.275 6.888-5.61 6.888-1.879 0-3.425-.946-4.256-2.479h-.051v6.696h-2.224Zm6.058-6.185c2.351 0 3.808-1.891 3.808-4.92v-.013c0-3.054-1.457-4.933-3.808-4.933-2.249 0-3.847 1.955-3.847 4.933v.013c0 2.965 1.61 4.92 3.847 4.92ZM295.21 424.311c-.421 0-.741-.345-.741-.767 0-.447.32-.767.741-.767h1.483a14.205 14.205 0 0 1-.039-1.061c0-.383.013-.754.052-1.112h-1.496c-.421 0-.741-.345-.741-.766 0-.448.32-.767.741-.767h1.713c.894-4.077 3.898-6.595 7.974-6.595 3.425 0 5.943 1.675 7.017 4.371.127.307.179.626.179.882 0 .626-.422 1.048-1.036 1.048-.549 0-.933-.307-1.188-.946-.856-2.121-2.748-3.22-4.972-3.22-2.683 0-4.754 1.687-5.559 4.46h6.85c.435 0 .754.319.754.767a.75.75 0 0 1-.754.766h-7.144c-.025.358-.051.729-.051 1.112 0 .371.013.716.051 1.061h7.144c.435 0 .754.32.754.767a.75.75 0 0 1-.754.767h-6.863c.767 2.824 2.85 4.524 5.585 4.524 2.224 0 4.141-.805 4.997-2.927.256-.639.614-.946 1.163-.946.614 0 1.01.397 1.01 1.023 0 .255-.039.575-.166.882-1.138 2.849-3.949 4.102-7.017 4.102-4.127 0-7.118-2.518-7.987-6.658h-1.7Zm30.47 6.862c-.652 0-1.112-.485-1.112-1.188V415.02h-.051l-3.451 2.415c-.255.179-.498.268-.779.268-.537 0-.908-.383-.908-.945 0-.409.154-.678.639-1.023l3.949-2.824c.716-.511 1.023-.639 1.547-.639.792 0 1.278.486 1.278 1.291v16.422c0 .703-.461 1.188-1.112 1.188Zm11.234 0c-.651 0-1.112-.485-1.112-1.188V415.02h-.051l-3.45 2.415c-.256.179-.499.268-.78.268-.537 0-.907-.383-.907-.945 0-.409.153-.678.639-1.023l3.949-2.824c.715-.511 1.022-.639 1.546-.639.792 0 1.278.486 1.278 1.291v16.422c0 .703-.46 1.188-1.112 1.188Zm11.887.077c-4.307 0-6.799-3.706-6.799-9.534 0-5.776 2.517-9.521 6.799-9.521 4.281 0 6.773 3.719 6.773 9.509 0 5.827-2.479 9.546-6.773 9.546Zm0-2.006c2.875 0 4.46-2.927 4.46-7.528 0-4.537-1.61-7.501-4.46-7.501-2.85 0-4.486 2.99-4.486 7.489 0 4.6 1.597 7.54 4.486 7.54Zm10.327-1.266c.652 0 1.112.384 1.112 1.01 0 .23-.026.422-.103.703l-1.175 4.396c-.141.55-.435.805-.972.805-.511 0-.907-.294-.907-.805 0-.191.026-.319.038-.396l.908-4.741c.14-.703.498-.972 1.099-.972Zm10.825 3.272c-3.897 0-6.683-2.211-6.683-5.291 0-2.3 1.584-4.192 3.961-4.741v-.051c-2.032-.626-3.297-2.186-3.297-4.128 0-2.786 2.556-4.844 6.019-4.844 3.489 0 6.007 2.045 6.007 4.857 0 1.917-1.24 3.463-3.284 4.115v.051c2.389.562 3.974 2.454 3.974 4.741 0 3.093-2.786 5.291-6.697 5.291Zm0-10.939c2.186 0 3.732-1.266 3.732-3.055 0-1.815-1.533-3.08-3.732-3.08-2.198 0-3.731 1.278-3.731 3.08 0 1.789 1.533 3.055 3.731 3.055Zm0 8.933c2.544 0 4.346-1.444 4.346-3.451 0-2.032-1.802-3.463-4.346-3.463-2.53 0-4.345 1.444-4.345 3.463 0 2.007 1.815 3.451 4.345 3.451Zm15.657 2.019c-2.761 0-4.959-1.495-6.096-4.154-.614-1.418-.907-3.08-.907-5.073 0-6.211 2.645-9.853 7.156-9.853 2.365 0 4.422 1.099 5.457 2.901.23.396.333.715.333 1.086 0 .575-.448.984-1.061.984-.46 0-.78-.243-1.189-.895-.882-1.393-2.019-2.044-3.565-2.044-3.042 0-4.793 2.671-4.908 7.476v.166h.039c.754-1.661 2.645-2.991 5.15-2.991 3.514 0 6.121 2.595 6.121 6.096 0 3.643-2.747 6.301-6.53 6.301Zm-.026-2.045c2.352 0 4.218-1.853 4.218-4.179 0-2.415-1.738-4.153-4.179-4.153-2.441 0-4.243 1.738-4.243 4.089 0 2.364 1.84 4.243 4.204 4.243Z"/><path fill="#34CC8D" d="M311.513 455.689c0 .723-.557 1.173-1.407 1.173l-12.744.01c-.85 0-1.398-.45-1.398-1.173 0-.391.176-.704.372-1.124l6.098-12.548c.41-.841.782-1.104 1.3-1.104s.899.263 1.309 1.104l6.089 12.548c.205.411.381.723.381 1.114Zm8.669.254c-.518 0-.851-.283-.851-.723 0-.361.078-.518.499-.958l4.515-4.71c1.896-1.984 2.345-2.736 2.345-3.919 0-1.437-1.104-2.492-2.619-2.492-1.524 0-2.59.792-3.069 2.306-.117.362-.312.616-.791.616-.518 0-.811-.322-.811-.782 0-.127.009-.234.029-.352.205-1.446 1.759-3.322 4.642-3.322 2.541 0 4.378 1.641 4.378 3.919 0 1.544-.703 2.707-3.117 5.179l-3.538 3.636v.039h6.157c.498 0 .831.312.831.782 0 .469-.333.781-.831.781h-7.769Zm12.211-2.267c.498 0 .85.293.85.772 0 .176-.02.323-.078.538l-.899 3.361c-.108.421-.333.616-.743.616-.391 0-.694-.225-.694-.616 0-.146.02-.244.029-.302l.694-3.626c.108-.538.381-.743.841-.743Zm9.064 2.502c-2.062 0-3.802-1.026-4.466-2.619a2.276 2.276 0 0 1-.205-.938c0-.499.322-.821.821-.821.43 0 .664.195.821.694.43 1.368 1.534 2.14 3.068 2.14 1.896 0 3.225-1.339 3.225-3.255 0-1.856-1.348-3.176-3.235-3.176-.967 0-1.866.362-2.453.987-.625.665-.772.753-1.211.753-.548 0-.851-.401-.851-.909 0-.078 0-.137.01-.225l.499-5.59c.088-.987.547-1.378 1.583-1.378h5.893c.498 0 .83.313.83.782 0 .469-.332.782-.83.782h-5.903l-.45 4.632h.04c.635-.86 1.798-1.348 3.176-1.348 2.726 0 4.661 1.925 4.661 4.642 0 2.843-2.072 4.847-5.023 4.847Zm12.016 0c-2.062 0-3.802-1.026-4.466-2.619a2.277 2.277 0 0 1-.206-.938c0-.499.323-.821.821-.821.43 0 .665.195.821.694.43 1.368 1.535 2.14 3.069 2.14 1.896 0 3.225-1.339 3.225-3.255 0-1.856-1.349-3.176-3.235-3.176-.967 0-1.866.362-2.453.987-.625.665-.772.753-1.212.753-.547 0-.85-.401-.85-.909 0-.078 0-.137.01-.225l.498-5.59c.088-.987.548-1.378 1.584-1.378h5.893c.498 0 .83.313.83.782 0 .469-.332.782-.83.782h-5.903l-.45 4.632h.039c.636-.86 1.798-1.348 3.176-1.348 2.727 0 4.662 1.925 4.662 4.642 0 2.843-2.072 4.847-5.023 4.847Zm9.25-.059c-.381 0-.665-.234-.665-.586a.75.75 0 0 1 .157-.469l4.583-6.558 4.457-6.42c.234-.343.4-.421.674-.421.332 0 .625.245.625.577a.717.717 0 0 1-.146.459l-4.447 6.392-4.593 6.616c-.215.313-.371.41-.645.41Zm.146-7.29c-1.72 0-2.755-1.368-2.755-3.577 0-2.199 1.045-3.557 2.755-3.557 1.711 0 2.756 1.348 2.756 3.557 0 2.199-1.035 3.577-2.756 3.577Zm0-1.105c.87 0 1.369-.889 1.369-2.472 0-1.574-.509-2.453-1.369-2.453s-1.368.889-1.368 2.453c0 1.583.499 2.472 1.368 2.472Zm8.874 8.366c-1.72 0-2.756-1.368-2.756-3.577 0-2.199 1.046-3.557 2.756-3.557 1.71 0 2.756 1.348 2.756 3.557 0 2.199-1.036 3.577-2.756 3.577Zm0-1.104c.87 0 1.368-.89 1.368-2.473 0-1.573-.508-2.453-1.368-2.453-.86 0-1.368.889-1.368 2.453 0 1.583.498 2.473 1.368 2.473Z"/></g><g filter="url(#g)"><rect width="221.702" height="221.824" x="32" y="251.907" fill="#404040" rx="12.317"/><g filter="url(#h)"><rect width="59.891" height="60.923" x="56.633" y="264.224" fill="#000" rx="29.945" shape-rendering="crispEdges"/><path fill="#fff" d="M97.853 300.843a16.057 16.057 0 0 1-1.556 2.846c-.819 1.187-1.489 2.009-2.005 2.465-.8.749-1.658 1.133-2.577 1.154-.66 0-1.454-.191-2.38-.578-.929-.385-1.782-.576-2.562-.576-.819 0-1.696.191-2.635.576-.94.387-1.698.589-2.277.609-.88.038-1.759-.356-2.635-1.185-.56-.496-1.259-1.347-2.097-2.552-.899-1.287-1.638-2.779-2.217-4.48-.62-1.838-.931-3.618-.931-5.34 0-1.974.419-3.676 1.258-5.102a7.446 7.446 0 0 1 2.637-2.713 6.991 6.991 0 0 1 3.564-1.023c.7 0 1.617.22 2.757.652 1.137.434 1.867.655 2.187.655.24 0 1.05-.258 2.425-.771 1.3-.476 2.397-.673 3.296-.595 2.435.2 4.265 1.176 5.482 2.936-2.178 1.342-3.256 3.223-3.234 5.635.02 1.879.69 3.442 2.006 4.684a6.585 6.585 0 0 0 2.005 1.338c-.16.474-.33.929-.511 1.365Zm-5.586-22.359c0 1.472-.529 2.847-1.583 4.12-1.272 1.513-2.811 2.387-4.48 2.249a4.66 4.66 0 0 1-.033-.558c0-1.413.605-2.926 1.68-4.163.535-.627 1.218-1.148 2.045-1.563.826-.409 1.606-.636 2.34-.674.022.196.031.393.031.589Z"/></g><path fill="#fff" d="m56.952 374.781 6.863-18.441h2.275l6.85 18.441h-2.415l-1.866-5.278h-7.425l-1.866 5.278h-2.416Zm7.975-15.681-2.99 8.448h6.032l-2.991-8.448h-.051Zm9.42 20.154V361.49h2.224v2.249h.05c.831-1.546 2.314-2.504 4.218-2.504 3.4 0 5.649 2.709 5.649 6.901v.013c0 4.191-2.275 6.888-5.61 6.888-1.88 0-3.426-.946-4.256-2.479h-.052v6.696h-2.223Zm6.057-6.185c2.352 0 3.809-1.892 3.809-4.92v-.013c0-3.055-1.457-4.933-3.809-4.933-2.249 0-3.846 1.955-3.846 4.933v.013c0 2.964 1.61 4.92 3.846 4.92Zm7.963 6.185V361.49h2.224v2.249h.051c.83-1.546 2.313-2.504 4.218-2.504 3.399 0 5.648 2.709 5.648 6.901v.013c0 4.191-2.275 6.888-5.61 6.888-1.879 0-3.425-.946-4.256-2.479h-.05v6.696h-2.225Zm6.058-6.185c2.352 0 3.808-1.892 3.808-4.92v-.013c0-3.055-1.457-4.933-3.808-4.933-2.25 0-3.847 1.955-3.847 4.933v.013c0 2.964 1.61 4.92 3.847 4.92Zm8.078 1.712V356.34h2.224v18.441h-2.224Zm10.327.256c-3.821 0-6.121-2.671-6.121-6.85v-.013c0-4.115 2.351-6.939 5.981-6.939 3.629 0 5.84 2.696 5.84 6.683v.818h-9.572c.051 2.735 1.559 4.333 3.923 4.333 1.687 0 2.876-.844 3.259-1.981l.039-.115h2.185l-.026.128c-.434 2.198-2.607 3.936-5.508 3.936Zm-.153-11.834c-1.93 0-3.438 1.316-3.681 3.795h7.272c-.217-2.581-1.649-3.795-3.591-3.795Zm13.076 11.578V356.34h2.3v18.441h-2.3Zm5.164 0V361.49h2.224v1.892h.051c.715-1.24 2.07-2.147 4.089-2.147 2.914 0 4.601 1.891 4.601 4.92v8.626h-2.224v-8.23c0-2.16-1.009-3.348-3.054-3.348-2.096 0-3.463 1.495-3.463 3.757v7.821h-2.224Zm18.941.256c-3.77 0-6.16-2.684-6.16-6.914v-.013c0-4.192 2.441-6.875 6.134-6.875 3.31 0 5.266 2.198 5.547 4.473l.012.102h-2.172l-.026-.102c-.332-1.33-1.405-2.505-3.361-2.505-2.313 0-3.859 1.917-3.859 4.933v.013c0 3.092 1.584 4.92 3.885 4.92 1.815 0 2.978-1.023 3.348-2.505l.026-.102h2.185l-.013.089c-.358 2.531-2.543 4.486-5.546 4.486Zm-91.985 48.744c-.422 0-.742-.345-.742-.766 0-.448.32-.767.742-.767h1.482a14.481 14.481 0 0 1-.038-1.061c0-.383.012-.754.05-1.112h-1.494c-.422 0-.742-.345-.742-.767 0-.447.32-.766.742-.766h1.712c.895-4.077 3.898-6.595 7.975-6.595 3.425 0 5.942 1.674 7.016 4.371.128.307.179.626.179.882 0 .626-.422 1.048-1.035 1.048-.55 0-.933-.307-1.19-.946-.855-2.122-2.747-3.221-4.97-3.221-2.684 0-4.755 1.687-5.56 4.461h6.85c.435 0 .754.319.754.766a.75.75 0 0 1-.754.767h-7.144a15.46 15.46 0 0 0-.05 1.112c0 .371.012.716.05 1.061h7.144c.435 0 .754.319.754.767a.75.75 0 0 1-.754.766h-6.862c.766 2.825 2.85 4.524 5.584 4.524 2.224 0 4.141-.805 4.997-2.926.256-.639.614-.946 1.163-.946.614 0 1.01.396 1.01 1.022 0 .256-.038.576-.166.882-1.138 2.85-3.95 4.103-7.016 4.103-4.128 0-7.119-2.518-7.988-6.659h-1.7Zm25.715 6.633c-.678 0-1.112-.371-1.112-.946 0-.472.102-.677.652-1.252l5.904-6.16c2.48-2.594 3.067-3.578 3.067-5.125 0-1.878-1.444-3.259-3.425-3.259-1.994 0-3.387 1.036-4.013 3.017-.153.472-.409.805-1.035.805-.677 0-1.06-.422-1.06-1.023 0-.166.012-.306.038-.46.268-1.891 2.3-4.345 6.07-4.345 3.323 0 5.725 2.147 5.725 5.125 0 2.019-.92 3.54-4.076 6.773l-4.627 4.754v.051h8.052c.651 0 1.086.409 1.086 1.023 0 .613-.435 1.022-1.086 1.022h-10.16Zm14.455 0c-.678 0-1.112-.371-1.112-.946 0-.472.102-.677.652-1.252l5.904-6.16c2.479-2.594 3.067-3.578 3.067-5.125 0-1.878-1.444-3.259-3.425-3.259-1.993 0-3.386 1.036-4.013 3.017-.153.472-.409.805-1.035.805-.677 0-1.06-.422-1.06-1.023 0-.166.012-.306.038-.46.268-1.891 2.3-4.345 6.07-4.345 3.323 0 5.726 2.147 5.726 5.125 0 2.019-.921 3.54-4.077 6.773l-4.627 4.754v.051h8.052c.652 0 1.086.409 1.086 1.023 0 .613-.434 1.022-1.086 1.022h-10.16Zm19.273.307c-2.939 0-4.856-1.585-5.585-2.952-.217-.397-.307-.703-.307-1.036 0-.587.409-.984 1.036-.984.485 0 .805.23 1.214.895.881 1.393 1.878 2.07 3.667 2.07 3.08 0 4.78-2.709 4.895-7.463v-.217h-.038c-.78 1.827-2.799 3.016-5.15 3.016-3.515 0-6.122-2.595-6.122-6.096 0-3.643 2.748-6.301 6.53-6.301 2.774 0 4.972 1.496 6.096 4.141.614 1.418.908 3.08.908 5.086 0 6.211-2.633 9.841-7.144 9.841Zm.128-8.691c2.441 0 4.255-1.738 4.255-4.089 0-2.364-1.84-4.217-4.217-4.217-2.364 0-4.23 1.84-4.23 4.153 0 2.403 1.776 4.153 4.192 4.153Zm10.583 5.419c.651 0 1.111.384 1.111 1.01 0 .23-.025.421-.102.703l-1.176 4.396c-.14.549-.434.805-.971.805-.511 0-.907-.294-.907-.805 0-.192.025-.32.038-.396l.907-4.742c.141-.702.499-.971 1.1-.971Zm8.755 3.195c-.652 0-1.112-.486-1.112-1.188V414.49h-.051l-3.451 2.416c-.255.179-.498.268-.779.268-.537 0-.908-.383-.908-.946 0-.409.154-.677.639-1.022l3.949-2.824c.716-.511 1.023-.639 1.547-.639.792 0 1.278.485 1.278 1.29v16.423c0 .702-.46 1.188-1.112 1.188Zm11.643.077c-2.747 0-4.741-.984-5.853-2.876-.294-.511-.422-.971-.422-1.469 0-.639.397-1.074 1.061-1.074.524 0 .818.281 1.061.907.613 1.585 1.93 2.518 4.153 2.518 2.429 0 4.052-1.38 4.064-3.31.013-2.275-1.61-3.553-4.204-3.553h-1.47c-.613 0-1.035-.396-1.035-.971s.422-.971 1.035-.971h1.368c2.198 0 3.731-1.355 3.731-3.195 0-1.828-1.15-3.067-3.514-3.067-2.032 0-3.144.856-3.809 2.53-.23.665-.46.907-1.035.907-.652 0-1.022-.383-1.022-1.047 0-.524.115-.985.383-1.483.972-1.84 2.927-2.901 5.483-2.901 3.693 0 5.827 2.121 5.827 4.754 0 2.288-1.597 3.86-3.91 4.345v.051c2.684.23 4.511 1.905 4.511 4.524 0 3.17-2.786 5.381-6.403 5.381Z"/><path fill="#34CC8D" d="M74.175 455.16c0 .723-.557 1.173-1.407 1.173l-12.744.009c-.85 0-1.398-.449-1.398-1.172 0-.391.176-.704.372-1.124l6.098-12.548c.41-.841.782-1.105 1.3-1.105s.899.264 1.31 1.105l6.088 12.548c.205.41.381.723.381 1.114Zm12.803.489c-3.294 0-5.2-2.835-5.2-7.291 0-4.417 1.926-7.281 5.2-7.281 3.273 0 5.18 2.844 5.18 7.271 0 4.457-1.897 7.301-5.18 7.301Zm0-1.535c2.198 0 3.41-2.238 3.41-5.756 0-3.469-1.231-5.737-3.41-5.737-2.18 0-3.43 2.287-3.43 5.727 0 3.519 1.22 5.766 3.43 5.766Zm8.487-.967c.499 0 .85.293.85.772 0 .176-.019.322-.078.537l-.899 3.362c-.107.42-.332.616-.742.616-.391 0-.694-.225-.694-.616 0-.146.02-.244.029-.303l.694-3.625c.107-.538.381-.743.84-.743Zm7.286 2.443c-.498 0-.85-.371-.85-.909v-11.444h-.039l-2.639 1.847a.999.999 0 0 1-.596.205c-.41 0-.694-.293-.694-.723 0-.312.117-.518.489-.782l3.019-2.159c.548-.391.782-.489 1.183-.489.606 0 .977.371.977.987v12.558c0 .538-.352.909-.85.909Zm5.546-.176c-.518 0-.85-.283-.85-.723 0-.362.078-.518.498-.958l4.515-4.71c1.896-1.984 2.346-2.737 2.346-3.919 0-1.437-1.104-2.492-2.619-2.492-1.525 0-2.59.791-3.069 2.306-.117.362-.313.616-.792.616-.517 0-.811-.323-.811-.782 0-.127.01-.235.03-.352.205-1.446 1.759-3.323 4.642-3.323 2.541 0 4.378 1.642 4.378 3.919 0 1.544-.704 2.707-3.118 5.18l-3.537 3.635v.039h6.157c.498 0 .83.313.83.782 0 .469-.332.782-.83.782h-7.77Zm12.925.176c-.381 0-.665-.235-.665-.586a.75.75 0 0 1 .157-.469l4.583-6.558 4.456-6.421c.235-.342.401-.42.675-.42.332 0 .625.244.625.577a.72.72 0 0 1-.146.459l-4.447 6.391-4.593 6.617c-.215.312-.372.41-.645.41Zm.146-7.291c-1.72 0-2.756-1.368-2.756-3.576 0-2.199 1.046-3.558 2.756-3.558 1.711 0 2.756 1.349 2.756 3.558 0 2.198-1.036 3.576-2.756 3.576Zm0-1.104c.87 0 1.369-.889 1.369-2.472 0-1.574-.509-2.453-1.369-2.453s-1.368.889-1.368 2.453c0 1.583.499 2.472 1.368 2.472Zm8.874 8.366c-1.72 0-2.756-1.369-2.756-3.577 0-2.199 1.046-3.557 2.756-3.557 1.71 0 2.756 1.348 2.756 3.557 0 2.199-1.036 3.577-2.756 3.577Zm0-1.105c.87 0 1.368-.889 1.368-2.472 0-1.574-.508-2.453-1.368-2.453-.86 0-1.368.889-1.368 2.453 0 1.583.498 2.472 1.368 2.472Z"/></g><circle cx="501.428" cy="144.777" r="24.66" stroke="#34CC8D" stroke-width="5.284" opacity=".493"/><circle cx="501.428" cy="144.777" r="9.688" fill="#000" stroke="#34CC8D" stroke-width="5.284"/><defs><filter id="e" width="242.353" height="242.476" x="496.108" y="245.911" color-interpolation-filters="sRGB" filterUnits="userSpaceOnUse"><feFlood flood-opacity="0" result="BackgroundImageFix"/><feColorMatrix in="SourceAlpha" result="hardAlpha" values="0 0 0 0 0 0 0 0 0 0 0 0 0 0 0 0 0 0 127 0"/><feOffset dy="4.13"/><feGaussianBlur stdDeviation="5.163"/><feComposite in2="hardAlpha" operator="out"/><feColorMatrix values="0 0 0 0 0 0 0 0 0 0 0 0 0 0 0 0 0 0 0.25 0"/><feBlend in2="BackgroundImageFix" result="effect1_dropShadow_1_40751"/><feBlend in="SourceGraphic" in2="effect1_dropShadow_1_40751" result="shape"/></filter><filter id="f" width="66.867" height="66.867" x="528.095" y="262.64" color-interpolation-filters="sRGB" filterUnits="userSpaceOnUse"><feFlood flood-opacity="0" result="BackgroundImageFix"/><feColorMatrix in="SourceAlpha" result="hardAlpha" values="0 0 0 0 0 0 0 0 0 0 0 0 0 0 0 0 0 0 127 0"/><feOffset dy="1.189"/><feGaussianBlur stdDeviation="1.486"/><feComposite in2="hardAlpha" operator="out"/><feColorMatrix values="0 0 0 0 0 0 0 0 0 0 0 0 0 0 0 0 0 0 0.15 0"/><feBlend in2="BackgroundImageFix" result="effect1_dropShadow_1_40751"/><feBlend in="SourceGraphic" in2="effect1_dropShadow_1_40751" result="shape"/></filter><filter id="g" width="548.732" height="243.501" x="21.674" y="245.712" color-interpolation-filters="sRGB" filterUnits="userSpaceOnUse"><feFlood flood-opacity="0" result="BackgroundImageFix"/><feColorMatrix in="SourceAlpha" result="hardAlpha" values="0 0 0 0 0 0 0 0 0 0 0 0 0 0 0 0 0 0 127 0"/><feOffset dy="4.13"/><feGaussianBlur stdDeviation="5.163"/><feComposite in2="hardAlpha" operator="out"/><feColorMatrix values="0 0 0 0 0 0 0 0 0 0 0 0 0 0 0 0 0 0 0.25 0"/><feBlend in2="BackgroundImageFix" result="effect1_dropShadow_1_40751"/><feBlend in="SourceGraphic" in2="effect1_dropShadow_1_40751" result="shape"/></filter><filter id="h" width="81.789" height="82.822" x="45.684" y="257.654" color-interpolation-filters="sRGB" filterUnits="userSpaceOnUse"><feFlood flood-opacity="0" result="BackgroundImageFix"/><feColorMatrix in="SourceAlpha" result="hardAlpha" values="0 0 0 0 0 0 0 0 0 0 0 0 0 0 0 0 0 0 127 0"/><feOffset dy="4.38"/><feGaussianBlur stdDeviation="5.475"/><feComposite in2="hardAlpha" operator="out"/><feColorMatrix values="0 0 0 0 0 0 0 0 0 0 0 0 0 0 0 0 0 0 0.15 0"/><feBlend in2="BackgroundImageFix" result="effect1_dropShadow_1_40751"/><feBlend in="SourceGraphic" in2="effect1_dropShadow_1_40751" result="shape"/></filter><linearGradient id="b" x1="256.952" x2="256.952" y1="323.318" y2="462.588" gradientUnits="userSpaceOnUse"><stop stop-color="#32CD8C"/><stop offset="1" stop-color="#32CD8C" stop-opacity="0"/></linearGradient><linearGradient id="c" x1="447.999" x2="20.828" y1="209.515" y2="598.368" gradientUnits="userSpaceOnUse"><stop stop-color="#32CD8C"/><stop offset="1"/></linearGradient></defs></svg>