<svg xmlns="http://www.w3.org/2000/svg" width="576" height="576" fill="none"><path fill="#262626" d="M544 288.11c0 2.984-.063 5.977-.189 8.982a253.178 253.178 0 0 1-3.147 31.135 165.703 165.703 0 0 1-1.07 6.303c-.378 2.017-.976 5.168-1.511 7.689a283.697 283.697 0 0 1-5.791 22.059c-.629 2.08-1.322 4.16-2.046 6.303-.22.693-.44 1.418-.692 2.112-.252.756-.535 1.512-.818 2.268-1.039 2.931-2.141 5.799-3.148 8.698a249.487 249.487 0 0 1-5.318 12.29 262.676 262.676 0 0 1-18.412 33.09c-1.102 1.607-2.172 3.151-3.147 4.821-.33.445-.635.908-.913 1.387l-.944 1.292c-1.542 2.143-3.148 4.254-4.658 6.303-1.511 2.048-3.148 4.128-4.847 6.302l-1.511 1.828c-.314.441-.692.851-1.007 1.261-3.525 4.191-7.113 8.288-10.858 12.195-.346.379-.692.725-1.007 1.103a8.93 8.93 0 0 0-.756.788l-1.196 1.198a302.029 302.029 0 0 1-4.532 4.506c-1.384 1.355-3.367 3.151-5.067 4.822a152.258 152.258 0 0 1-6.798 6.05 288.787 288.787 0 0 1-7.648 6.303l-1.416 1.134-2.172 1.671a2.29 2.29 0 0 1-.566.441c-2.612 2.048-5.288 3.971-7.994 5.83a130.434 130.434 0 0 1-5.476 3.75c-2.55 1.702-5.131 3.372-7.711 4.916a63.807 63.807 0 0 1-3.714 2.206l-.567.378a233.144 233.144 0 0 1-13.785 7.5 200.347 200.347 0 0 1-8.718 4.223l-.661.284-.692.315-.787.378a246.522 246.522 0 0 1-38.995 13.74 226.981 226.981 0 0 1-8.309 2.048 340.376 340.376 0 0 1-7.427 1.608 274.458 274.458 0 0 1-16.272 2.647h-.535c-.47.05-.945.05-1.416 0-3.147.441-6.294.756-9.442 1.008l-2.927.252-3.021.252h-2.644c-1.731 0-3.525.189-5.35.221h-8.341c-6.882 0-13.68-.263-20.394-.788l-2.958-.252-3.148-.315a249.124 249.124 0 0 1-35.155-6.145c-2.234-.536-4.469-1.135-6.704-1.734l-2.864-.819h-.157l-.409.378-2.675-.819-2.109-.63a12.613 12.613 0 0 1-1.668-.505c-.409 0-.818-.283-1.227-.409a249.245 249.245 0 0 1-23.164-9.013l-2.046-.882-1.353-.631-.63-.283-1.699-.788-2.298-1.072c-4.186-2.017-8.372-4.159-12.589-6.302a189.602 189.602 0 0 1-12.054-7.091l-.787-.473-.629-.409-.85-.567a8.595 8.595 0 0 1-.882-.568l-.629-.378-.692-.473c-2.329-1.512-4.69-3.151-6.924-4.695l-.535-.347a247.896 247.896 0 0 1-19.262-15c-3.147-2.836-6.578-5.799-9.756-8.792l-1.48-1.387-3.147-3.151-2.077-2.08c-.755-.788-1.511-1.608-2.329-2.395l-1.102-1.229c-.629-.662-1.259-1.324-1.888-2.049l-.346-.378c-3.651-4.002-7.239-8.099-10.67-12.322-.409-.504-.88-1.008-1.227-1.512a241.475 241.475 0 0 1-16.051-22.659c-.378-.567-.724-1.071-1.07-1.638-.346-.567-.504-.757-.724-1.166l-.944-1.544-.944-1.608c-3.148-5.546-6.295-11.187-9.222-17.017-2.329-4.727-4.532-9.454-6.578-14.37-1.825-4.223-3.462-8.54-5.035-12.921v-.472a61.718 61.718 0 0 1-1.008-2.9 249.48 249.48 0 0 1-9.095-33.215c-1.133-5.609-2.046-11.25-2.801-16.986A258.884 258.884 0 0 1 32 293.531v-5.421c0-4.286 0-8.571.346-12.794.284-6.303.787-12.385 1.574-18.467v-.599c0-.756 0-1.576.283-2.332a252.368 252.368 0 0 1 11.236-47.963c.44-1.387.944-2.711 1.448-4.066a251.716 251.716 0 0 1 20.835-44.497 276.34 276.34 0 0 1 7.144-11.345 257.028 257.028 0 0 1 36.603-43.457c4.941-4.664 10.04-9.202 15.327-13.425 5.288-4.222 10.103-7.91 15.359-11.597a246.453 246.453 0 0 1 21.779-13.582c5.571-3.151 11.299-5.987 17.153-8.697l.629-.253c.313-.182.639-.34.976-.472a250.327 250.327 0 0 1 23.227-9.17l1.416-.474c.535-.157.976-.346 1.479-.44a207.134 207.134 0 0 1 15.265-4.444 249.773 249.773 0 0 1 33.392-6.303l3.997-.472 4.753-.442c1.385 0 2.706-.22 4.091-.283l3.903-.252h1.762c3.588-.19 7.176-.252 10.796-.284h11.298c2.046 0 4.092.19 6.295.315 2.895.158 5.728.378 8.592.693a257.402 257.402 0 0 1 42.079 7.69l2.518.724a152.74 152.74 0 0 1 9.064 2.742c3.651 1.166 7.207 2.427 10.764 3.75l.661.252.472.158h.409l5.287 2.08 2.172.945c.54.183 1.066.404 1.574.662a71.053 71.053 0 0 1 4.217 1.828l1.353.63 1.102.504 1.731.82a230.69 230.69 0 0 1 11.519 5.767l1.668.85a284.153 284.153 0 0 1 19.324 11.66 119.762 119.762 0 0 1 4.658 3.152 242.284 242.284 0 0 1 15.391 11.565c4.941 4.034 10.417 8.824 15.358 13.551 1.07 1.009 2.14 2.017 3.148 3.151a199.08 199.08 0 0 1 5.696 5.831l1.322 1.386c2.423 2.584 4.784 5.2 7.05 7.878l1.007 1.166a209.92 209.92 0 0 1 11.834 14.938 293.08 293.08 0 0 1 8.214 11.944 255.306 255.306 0 0 1 18.223 33.246 241.633 241.633 0 0 1 10.795 27.858c1.479 4.759 2.864 9.454 4.092 14.402 1.825 7.059 3.367 14.275 4.532 21.555.409 2.269.787 4.507 1.07 6.775v.284c.472 3.404.881 6.839 1.227 10.274a.711.711 0 0 0 0 .252c1.07 8.414 1.511 16.544 1.511 24.832Z"/><mask id="a" width="512" height="512" x="32" y="32" maskUnits="userSpaceOnUse" style="mask-type:alpha"><path fill="#fff" d="M544 288.11c0 2.984-.063 5.977-.189 8.982a253.178 253.178 0 0 1-3.147 31.135 165.703 165.703 0 0 1-1.07 6.303c-.378 2.017-.976 5.168-1.511 7.689a283.697 283.697 0 0 1-5.791 22.059c-.629 2.08-1.322 4.16-2.046 6.303-.22.693-.44 1.418-.692 2.112-.252.756-.535 1.512-.818 2.268-1.039 2.931-2.141 5.799-3.148 8.698a249.487 249.487 0 0 1-5.318 12.29 262.676 262.676 0 0 1-18.412 33.09c-1.102 1.607-2.172 3.151-3.147 4.821-.33.445-.635.908-.913 1.387l-.944 1.292c-1.542 2.143-3.148 4.254-4.658 6.303-1.511 2.048-3.148 4.128-4.847 6.302l-1.511 1.828c-.314.441-.692.851-1.007 1.261-3.525 4.191-7.113 8.288-10.858 12.195-.346.379-.692.725-1.007 1.103a8.93 8.93 0 0 0-.756.788l-1.196 1.198a302.029 302.029 0 0 1-4.532 4.506c-1.384 1.355-3.367 3.151-5.067 4.822a152.258 152.258 0 0 1-6.798 6.05 288.787 288.787 0 0 1-7.648 6.303l-1.416 1.134-2.172 1.671a2.29 2.29 0 0 1-.566.441c-2.612 2.048-5.288 3.971-7.994 5.83a130.434 130.434 0 0 1-5.476 3.75c-2.55 1.702-5.131 3.372-7.711 4.916a63.807 63.807 0 0 1-3.714 2.206l-.567.378a233.144 233.144 0 0 1-13.785 7.5 200.347 200.347 0 0 1-8.718 4.223l-.661.284-.692.315-.787.378a246.522 246.522 0 0 1-38.995 13.74 226.981 226.981 0 0 1-8.309 2.048 340.376 340.376 0 0 1-7.427 1.608 274.458 274.458 0 0 1-16.272 2.647h-.535c-.47.05-.945.05-1.416 0-3.147.441-6.294.756-9.442 1.008l-2.927.252-3.021.252h-2.644c-1.731 0-3.525.189-5.35.221h-8.341c-6.882 0-13.68-.263-20.394-.788l-2.958-.252-3.148-.315a249.124 249.124 0 0 1-35.155-6.145c-2.234-.536-4.469-1.135-6.704-1.734l-2.864-.819h-.157l-.409.378-2.675-.819-2.109-.63a12.613 12.613 0 0 1-1.668-.505c-.409 0-.818-.283-1.227-.409a249.245 249.245 0 0 1-23.164-9.013l-2.046-.882-1.353-.631-.63-.283-1.699-.788-2.298-1.072c-4.186-2.017-8.372-4.159-12.589-6.302a189.602 189.602 0 0 1-12.054-7.091l-.787-.473-.629-.409-.85-.567a8.595 8.595 0 0 1-.882-.568l-.629-.378-.692-.473c-2.329-1.512-4.69-3.151-6.924-4.695l-.535-.347a247.896 247.896 0 0 1-19.262-15c-3.147-2.836-6.578-5.799-9.756-8.792l-1.48-1.387-3.147-3.151-2.077-2.08c-.755-.788-1.511-1.608-2.329-2.395l-1.102-1.229c-.629-.662-1.259-1.324-1.888-2.049l-.346-.378c-3.651-4.002-7.239-8.099-10.67-12.322-.409-.504-.88-1.008-1.227-1.512a241.475 241.475 0 0 1-16.051-22.659c-.378-.567-.724-1.071-1.07-1.638-.346-.567-.504-.757-.724-1.166l-.944-1.544-.944-1.608c-3.148-5.546-6.295-11.187-9.222-17.017-2.329-4.727-4.532-9.454-6.578-14.37-1.825-4.223-3.462-8.54-5.035-12.921v-.472a61.718 61.718 0 0 1-1.008-2.9 249.48 249.48 0 0 1-9.095-33.215c-1.133-5.609-2.046-11.25-2.801-16.986A258.884 258.884 0 0 1 32 293.531v-5.421c0-4.286 0-8.571.346-12.794.284-6.303.787-12.385 1.574-18.467v-.599c0-.756 0-1.576.283-2.332a252.368 252.368 0 0 1 11.236-47.963c.44-1.387.944-2.711 1.448-4.066a251.716 251.716 0 0 1 20.835-44.497 276.34 276.34 0 0 1 7.144-11.345 257.028 257.028 0 0 1 36.603-43.457c4.941-4.664 10.04-9.202 15.327-13.425 5.288-4.222 10.103-7.91 15.359-11.597a246.453 246.453 0 0 1 21.779-13.582c5.571-3.151 11.299-5.987 17.153-8.697l.629-.253c.313-.182.639-.34.976-.472a250.327 250.327 0 0 1 23.227-9.17l1.416-.474c.535-.157.976-.346 1.479-.44a207.134 207.134 0 0 1 15.265-4.444 249.773 249.773 0 0 1 33.392-6.303l3.997-.472 4.753-.442c1.385 0 2.706-.22 4.091-.283l3.903-.252h1.762c3.588-.19 7.176-.252 10.796-.284h11.298c2.046 0 4.092.19 6.295.315 2.895.158 5.728.378 8.592.693a257.402 257.402 0 0 1 42.079 7.69l2.518.724a152.74 152.74 0 0 1 9.064 2.742c3.651 1.166 7.207 2.427 10.764 3.75l.661.252.472.158h.409l5.287 2.08 2.172.945c.54.183 1.066.404 1.574.662a71.053 71.053 0 0 1 4.217 1.828l1.353.63 1.102.504 1.731.82a230.69 230.69 0 0 1 11.519 5.767l1.668.85a284.153 284.153 0 0 1 19.324 11.66 119.762 119.762 0 0 1 4.658 3.152 242.284 242.284 0 0 1 15.391 11.565c4.941 4.034 10.417 8.824 15.358 13.551 1.07 1.009 2.14 2.017 3.148 3.151a199.08 199.08 0 0 1 5.696 5.831l1.322 1.386c2.423 2.584 4.784 5.2 7.05 7.878l1.007 1.166a209.92 209.92 0 0 1 11.834 14.938 293.08 293.08 0 0 1 8.214 11.944 255.306 255.306 0 0 1 18.223 33.246 241.633 241.633 0 0 1 10.795 27.858c1.479 4.759 2.864 9.454 4.092 14.402 1.825 7.059 3.367 14.275 4.532 21.555.409 2.269.787 4.507 1.07 6.775v.284c.472 3.404.881 6.839 1.227 10.274a.711.711 0 0 0 0 .252c1.07 8.414 1.511 16.544 1.511 24.832Z"/></mask><g mask="url(#a)"><g filter="url(#b)"><path fill="#FAAA00" fill-opacity=".3" d="M354.609 294.171 222.053 177.855l-27.685 207.394 51.72 45.422 109.798-72.61-1.277-63.89Z"/><path fill="#F5F5F5" d="M283.14 478.585 115.347 257.159c-3.16-4.171-2.342-10.117 1.827-13.281l74.178-56.207c4.171-3.16 10.116-2.342 13.28 1.827l167.799 221.424c3.159 4.171 2.341 10.117-1.827 13.281l-74.176 56.212c-4.171 3.159-10.117 2.341-13.281-1.827l-.007-.003Z"/><path fill="#A22FB6" d="M372.425 410.925 204.627 189.5c-3.159-4.171-9.107-4.993-13.28-1.827l-6.039 4.574 179.247 236.535 6.039-4.574a9.474 9.474 0 0 0 1.827-13.281l.004-.002Z"/><path fill="#404040" d="m259.048 333.192-83.531-110.209a1.586 1.586 0 0 0-2.222-.306l-6.464 4.899a1.586 1.586 0 0 0-.305 2.222l83.531 110.209a1.586 1.586 0 0 0 2.222.306l6.463-4.899a1.586 1.586 0 0 0 .306-2.222Zm-78.872-70.751-21.171-27.932a.805.805 0 0 0-1.128-.156l-7.707 5.842a.804.804 0 0 0-.156 1.128l21.171 27.933a.805.805 0 0 0 1.129.155l7.707-5.841a.805.805 0 0 0 .155-1.129Zm26.693 35.215-21.171-27.932a.806.806 0 0 0-1.129-.156l-7.707 5.842a.806.806 0 0 0-.155 1.129l21.171 27.932a.805.805 0 0 0 1.128.156l7.708-5.842a.806.806 0 0 0 .155-1.129Zm-19.188 7.984-44.489-58.698a1.163 1.163 0 0 0-1.629-.224l-7.137 5.41a1.163 1.163 0 0 0-.225 1.629l44.489 58.698a1.164 1.164 0 0 0 1.63.224l7.137-5.41a1.162 1.162 0 0 0 .224-1.629Z"/><path fill="#000" fill-opacity=".25" d="m284.682 283.575-28.984-35.798a6.816 6.816 0 0 0-9.589-1.01l-85.952 69.798 109.535 159.114c.035.057.076.113.111.17.216-.117.425-.252.621-.41l87.307-70.689-73.053-121.173.004-.002Z"/><path fill="#FF7819" d="m365.947 401.237-97.139 78.65a3.97 3.97 0 0 1-5.581-.588L146.755 335.446a3.972 3.972 0 0 1 .588-5.582l97.139-78.65a6.814 6.814 0 0 1 9.589 1.009l112.88 139.426a6.815 6.815 0 0 1-1.009 9.59l.005-.002Z"/><path fill="#fff" d="M184.786 339.602c.214-.228.546-.565.994-1.028.45-.457 1.049-.992 1.799-1.6a11.956 11.956 0 0 1 1.798-1.197 5.555 5.555 0 0 1 1.998-.647c.685-.08 1.377.029 2.083.319.702.292 1.391.859 2.07 1.691.6.742.984 1.446 1.155 2.116.172.67.191 1.302.058 1.891a4.337 4.337 0 0 1-.76 1.649 7.308 7.308 0 0 1-1.309 1.369c-.201.159-.403.314-.619.462a4.463 4.463 0 0 1-.473.295l2.95 3.641c-.227.269-.445.503-.647.706a7.66 7.66 0 0 1-.586.525c-.367.296-.405.357-1.026.703L184.79 339.6l-.004.002Zm6.987 3.092a1.36 1.36 0 0 0 .298-.171c.133-.093.265-.192.402-.303.446-.36.726-.786.832-1.269.106-.483-.019-.989-.379-1.509-.211-.306-.431-.529-.664-.667a1.396 1.396 0 0 0-.715-.207 1.594 1.594 0 0 0-.728.175 3.492 3.492 0 0 0-.706.454c-.064.049-.138.111-.222.177a3.078 3.078 0 0 0-.24.216l2.121 3.099.001.005Zm12.308-.244c-.207.236-.396.444-.579.624a7.01 7.01 0 0 1-.554.498c-.188.15-.414.313-.678.488-.267.171-.227.163-.575.357l-6.237-13.482c.245-.249.475-.477.69-.689.216-.207.444-.413.686-.607.196-.158.421-.326.677-.493.25-.171.542-.361.873-.576l12.857 8.064c-.517.571-.996 1.038-1.447 1.4a7.925 7.925 0 0 1-.652.474c-.226.146-.476.301-.749.453l-2.421-1.629a8.738 8.738 0 0 1-.679.86 6.697 6.697 0 0 1-.734.699c-.242.195-.5.374-.779.538a9.467 9.467 0 0 1-.918.474l1.225 2.55-.006-.003Zm-4.302-9.356 1.899 4.315c.214-.089 1.863-1.256 1.868-1.662l-3.76-2.65-.007-.003Zm11.528-7.756c.582-.179 1.119-.32 1.612-.42a4.552 4.552 0 0 1 1.428-.074c.454.052.894.205 1.32.453.426.248.843.626 1.256 1.134.444.55.751 1.121.914 1.72.162.599.188 1.202.066 1.824-.118.62-.38 1.237-.792 1.851-.407.614-.964 1.209-1.673 1.782-.645.524-1.256.93-1.835 1.23-.578.299-1.242.569-1.993.815-.253-.397-1.038-2.315-.905-2.877 1.291-.363 1.844-.845 2.553-1.417.528-.431.881-.845 1.046-1.248.166-.402.089-.797-.228-1.193a1.174 1.174 0 0 0-.439-.35 1.182 1.182 0 0 0-.497-.101 2.14 2.14 0 0 0-.524.073c-.174.049-.354.1-.53.16l-1.141.38a7.436 7.436 0 0 1-1.415.347 4.382 4.382 0 0 1-1.326-.02 3.568 3.568 0 0 1-1.218-.466c-.389-.234-.761-.574-1.127-1.019-.444-.55-.747-1.111-.904-1.691a3.968 3.968 0 0 1-.089-1.72c.097-.571.329-1.124.687-1.662.359-.538.834-1.046 1.425-1.526a9.735 9.735 0 0 1 1.664-1.091c.58-.295 1.229-.576 1.95-.833.226.364.447.794.662 1.279.214.486.382.976.501 1.462-.364.104-.778.246-1.242.415-.463.169-.97.476-1.513.912a2.98 2.98 0 0 0-.437.432 1.866 1.866 0 0 0-.289.477 1.01 1.01 0 0 0-.063.516c.024.178.107.357.251.531.242.301.525.443.84.431a3.685 3.685 0 0 0 1.008-.196l.989-.312.008-.008Zm8.114-6.932a18.71 18.71 0 0 1 1.674-.424 5.106 5.106 0 0 1 1.499-.083c.485.047.96.193 1.421.434.467.245.928.613 1.399 1.117.504.541.864 1.109 1.076 1.697.213.592.276 1.193.193 1.807-.082.613-.319 1.227-.711 1.84-.391.613-.938 1.205-1.647 1.777-.645.525-1.266.934-1.856 1.232-.589.298-1.272.574-2.043.823-.293-.39-.572-.832-.845-1.318-.274-.487-.529-1-.777-1.538 1.337-.368 2.363-.836 3.072-1.409.528-.431.87-.846 1.021-1.244.151-.397.043-.791-.319-1.178a1.268 1.268 0 0 0-.485-.345 1.342 1.342 0 0 0-.528-.096c-.18.003-.362.028-.542.079-.184.053-.364.104-.551.162l-1.177.388c-.5.171-.986.29-1.464.352a4.845 4.845 0 0 1-1.398-.01 4.23 4.23 0 0 1-1.316-.454c-.425-.232-.842-.563-1.253-1.002-.505-.541-.861-1.1-1.062-1.67a3.747 3.747 0 0 1-.205-1.701c.067-.566.273-1.115.61-1.652.343-.537.809-1.043 1.405-1.524a9.298 9.298 0 0 1 1.68-1.091c.59-.298 1.254-.579 2-.84.263.362.524.784.785 1.264.255.482.463.964.623 1.447-.378.108-.803.248-1.283.418-.478.174-.991.478-1.532.918a2.934 2.934 0 0 0-.432.431 1.581 1.581 0 0 0-.269.475.968.968 0 0 0-.032.511c.04.178.137.352.297.526.277.294.58.435.91.418a4.254 4.254 0 0 0 1.049-.2l1.019-.317-.006-.02Zm.753-7.458c.214-.228.546-.565.994-1.027.45-.458 1.049-.993 1.8-1.596a11.835 11.835 0 0 1 1.799-1.196 5.518 5.518 0 0 1 1.997-.647c.686-.081 1.378.028 2.084.318.701.292 1.39.859 2.069 1.691.6.742.985 1.446 1.156 2.116.171.67.191 1.302.057 1.891a4.322 4.322 0 0 1-.76 1.649 7.303 7.303 0 0 1-1.308 1.369c-.201.159-.404.314-.619.462a4.569 4.569 0 0 1-.473.295l2.945 3.643c-.227.269-.445.503-.647.705a7.476 7.476 0 0 1-.586.526c-.367.296-.498.41-1.115.754l-9.387-10.95-.006-.003Zm7.063 3.035c.062-.022.157-.07.283-.156.125-.085.248-.175.376-.283.416-.339.667-.739.75-1.199.082-.459-.062-.942-.426-1.445-.219-.297-.441-.509-.67-.649a1.505 1.505 0 0 0-.7-.212 1.527 1.527 0 0 0-.698.154c-.228.11-.452.25-.665.419l-.204.166a2.696 2.696 0 0 0-.223.204l2.185 2.993-.008.008Zm6.806-4.284a10.933 10.933 0 0 1-1.593-2.461c-.391-.845-.605-1.687-.637-2.528a5.528 5.528 0 0 1 .481-2.479c.354-.814.947-1.586 1.767-2.314s1.647-1.219 2.474-1.46a5.19 5.19 0 0 1 2.456-.133c.808.154 1.588.488 2.35 1.004s1.476 1.171 2.153 1.966c.672.797 1.201 1.61 1.582 2.443.383.838.589 1.672.618 2.503a5.407 5.407 0 0 1-.491 2.451c-.359.799-.948 1.564-1.769 2.292-.82.729-1.645 1.224-2.473 1.481a4.99 4.99 0 0 1-2.44.16c-.801-.146-1.579-.475-2.331-.979-.753-.503-1.465-1.153-2.137-1.95l-.01.004Zm6.21-5.688c-1.837-2.271-3.165-3.21-4.315-1.72-.93 1.213-.822 2.336 1.019 4.605.922 1.137 1.517 1.833 2.257 2.16.738.321 1.539.127 2.143-.362 1.17-.949.72-2.434-1.099-4.684l-.005.001Zm.176-9.457c.469-.464.9-.899 1.291-1.294.397-.397.831-.79 1.31-1.178a11.797 11.797 0 0 1 1.853-1.225 5.861 5.861 0 0 1 1.996-.668 4.122 4.122 0 0 1 1.991.222c.663.241 1.28.722 1.867 1.441.314.388.551.77.707 1.147.162.381.266.745.318 1.099.052.355.066.691.035 1.005a5.487 5.487 0 0 1-.14.862l5.89 3.197c-.215.244-.464.494-.747.756a14.76 14.76 0 0 1-.778.682 13.16 13.16 0 0 1-.751.555 7.571 7.571 0 0 1-.805.494l-6.245-3.347.078-.192a2.43 2.43 0 0 0 .162-.646 3.641 3.641 0 0 0-.004-.866 4.234 4.234 0 0 0-.223-.945 2.867 2.867 0 0 0-.501-.888c-.423-.52-.874-.78-1.36-.784-.485-.004-.942.168-1.368.511a2.216 2.216 0 0 0-.251.23.78.78 0 0 0-.115.145l7.569 8.61c-.475.54-.892.954-1.246 1.241-.388.313-.654.452-1.27.797l-9.265-10.966.002.005Zm13.228-6.725-2.607 2.112a7.69 7.69 0 0 1-1.14-1.121 7.909 7.909 0 0 1-.834-1.316l8.11-6.243c.22.143.412.285.577.425.165.14.311.287.43.433.232.288.453.685.649 1.193l-2.417 2.281 7.084 8.748c-.475.541-.896.957-1.263 1.253-.388.313-.55.369-1.166.713l-7.423-8.478Zm57.636 82.933c-.965-6.731-3.654-13.229-8.174-18.811-13.909-17.176-39.88-19.278-57.889-4.695-18.008 14.588-21.348 40.425-7.435 57.599 4.52 5.582 10.323 9.565 16.708 11.906a.409.409 0 0 0 .031.075l.066-.039c13.229 4.813 28.957 2.57 41.08-7.246 12.101-9.802 17.565-24.686 15.633-38.605l.087-.088c-.034-.036-.075-.065-.114-.099l.007.003Zm-14.361 32.161a40.23 40.23 0 0 1-2.5 2.41l-11.823-14.596c5.502-4.429 9.932-7.761 13.49-10.268 3.372 8.647 3.765 16.862.833 22.454Zm-29.761 1.016c3.317-3.084 7.692-6.903 13.48-11.616l11.834 14.614a40.947 40.947 0 0 1-3.55 2.467c-6.074 1.703-14.013-.378-21.763-5.46l-.001-.005Zm-13.25-12.144c-2.932-3.62-5.339-7.399-7.211-11.169 4.293-2.971 9.377-6.82 15.169-11.487l7.952 9.819-15.884 12.865-.026-.028Zm-9.947-37.904a39.298 39.298 0 0 1 3.152-2.963l13.169 16.258c-6.081 4.898-10.884 8.492-14.669 11.129-4.112-9.362-4.8-18.407-1.647-24.426l-.005.002Zm31.573.231c-3.245 3.033-7.562 6.806-13.297 11.484l-13.16-16.245a38.513 38.513 0 0 1 2.878-1.944c6.549-1.839 15.268.729 23.579 6.705Zm11.434 10.899.025.028-15.221 12.33-7.949-9.815c4.209-3.432 9.316-7.741 13.739-11.901 3.289 2.609 6.481 5.746 9.407 9.362l-.001-.004Zm-15.569 15.897 7.653 9.447c-5.584 4.547-10.272 8.601-14.01 12.106-3.285-2.397-6.496-5.325-9.481-8.725l15.838-12.828Zm9.606 7.863-7.653-9.448 15.175-12.292c2.698 3.62 4.895 7.359 6.552 11.064-4.864 3.401-9.965 7.368-14.079 10.677l.005-.001Zm9.485-23.328 11.006-8.911a34.438 34.438 0 0 1 5.748 14.447c-2.657.991-6.221 3.09-10.051 5.674-1.743-3.815-4.002-7.596-6.702-11.205l-.001-.005Zm9.504-10.935-11.043 8.945s-.018-.021-.026-.028c-2.922-3.608-6.144-6.814-9.529-9.534 3.586-3.496 6.512-6.776 7.801-9.197a34.3 34.3 0 0 1 12.771 9.785c.004.01.018.021.021.03l.005-.001Zm-15.123-10.747c-.782 1.354-2.709 3.962-7.483 8.588-3.591-2.623-7.327-4.69-11.072-6.084-2.927-1.088-5.738-1.711-8.369-1.89 8.808-3.539 18.437-3.688 26.924-.614Zm-45.112 15.344c-.372 2.612-.345 5.487.114 8.581.584 3.941 1.824 8.012 3.636 12.059-5.492 3.68-8.447 5.043-9.944 5.535-1.238-8.926.913-18.305 6.199-26.177l-.005.002Zm-5.774 28.644c2.405-.701 5.982-2.624 10.615-5.707 1.954 3.886 4.429 7.711 7.355 11.327.003.01.018.021.026.029l-10.765 8.717 1.586 1.957 10.806-8.752c2.973 3.398 6.214 6.396 9.588 8.897-3.659 3.547-6.222 6.458-7.621 8.65-5.604-2.113-10.688-5.645-14.665-10.557a34.367 34.367 0 0 1-6.925-14.561Zm24.037 25.94c1.102-1.569 3.211-4.096 7.265-7.996 3.033 2.031 6.152 3.666 9.279 4.824 2.927 1.089 5.738 1.712 8.371 1.895-8.116 3.26-16.935 3.647-24.91 1.276l-.005.001Zm43.103-16.006c.371-2.613.344-5.488-.113-8.577-.489-3.308-1.442-6.711-2.805-10.113 4.677-3.172 7.582-4.711 9.34-5.451.669 8.306-1.538 16.869-6.422 24.141Z"/></g><path fill="#000" fill-opacity=".25" d="m348.352 384.538-.064-.137a6.856 6.856 0 0 0-1.398-2.036l-68.854-68.695-60.441-79.747 2.133 25.449c.189 1.489-16.776 3.618-16.776 3.618s-4.917.116-6.176 2.114c-1.258 1.998-.673 4.749-.673 4.749l32.687 186.475 10.19 10.164 10.887 10.862 28.875-3.363 69.173-52.426c4.171-3.16 4.993-9.108 1.827-13.281l-8.236-10.869 5.394-5.408a6.818 6.818 0 0 0 1.452-7.469Z"/><path fill="#fff" d="m245.494 466.149-32.137-275.957c-.607-5.199 3.12-9.907 8.319-10.514l92.441-10.765c5.199-.606 9.907 3.121 10.513 8.32l32.137 275.957c.607 5.199-3.12 9.907-8.319 10.514l-92.441 10.765c-5.199.606-9.907-3.121-10.513-8.32Z"/><path fill="#A22FB6" d="m356.766 453.19-32.137-275.957c-.606-5.199-5.312-8.922-10.514-8.32l-7.522.878 34.329 294.786 7.522-.878c5.199-.606 8.922-5.312 8.32-10.514l.002.005Z"/><path fill="#404040" d="m298.537 328.651-15.999-137.36a1.585 1.585 0 0 0-1.758-1.392l-8.056.938a1.586 1.586 0 0 0-1.392 1.759l15.998 137.36c.102.87.889 1.493 1.759 1.391l8.056-.938a1.585 1.585 0 0 0 1.392-1.758Zm-32.008-100.998-4.055-34.813a.805.805 0 0 0-.893-.707l-9.606 1.119a.805.805 0 0 0-.707.893l4.055 34.814a.805.805 0 0 0 .893.707l9.606-1.119a.807.807 0 0 0 .707-.894Zm5.106 43.891-4.055-34.814a.804.804 0 0 0-.893-.706l-9.606 1.118a.807.807 0 0 0-.707.894l4.055 34.814a.804.804 0 0 0 .893.706l9.606-1.118a.806.806 0 0 0 .707-.894Z"/><path fill="#999" d="m279.403 338.221-4.055-34.814a.805.805 0 0 0-.893-.707l-9.606 1.119a.806.806 0 0 0-.707.893l4.055 34.814a.805.805 0 0 0 .893.707l9.606-1.119a.805.805 0 0 0 .707-.893Z"/><path fill="#404040" d="m239.845 269.985-8.519-73.16a1.16 1.16 0 0 1 1.018-1.285l8.903-1.037a1.159 1.159 0 0 1 1.285 1.017l8.518 73.16a1.16 1.16 0 0 1-1.018 1.285l-8.902 1.038a1.158 1.158 0 0 1-1.285-1.018Z"/><path fill="#999" d="m264.242 381.93-8.983-77.129a1.195 1.195 0 0 0-1.324-1.047l-8.835 1.029a1.195 1.195 0 0 0-1.048 1.324l8.983 77.128a1.194 1.194 0 0 0 1.324 1.047l8.836-1.029a1.194 1.194 0 0 0 1.047-1.323Z"/><path fill="#000" fill-opacity=".25" d="M244.442 457.077a3.72 3.72 0 0 0 .441-.044l111.574-17.559-23.595-191.601a6.72 6.72 0 0 0-1.812.034l-108.946 17.334 22.341 191.829-.003.007Z"/><path fill="#000" fill-opacity=".25" d="m221.844 262.579.135 1.637 7.783 9.42 13.988 3.202 91.473-19.673-2.256-19.383c-16.091 8.698-111.118 24.795-111.118 24.795l-.005.002Z"/><g filter="url(#c)"><path fill="#000" d="m362.693 434.845-122.979 22.334a3.962 3.962 0 0 1-4.61-3.195l-33.077-182.117a3.96 3.96 0 0 1 3.195-4.61L328.2 244.923a6.823 6.823 0 0 1 7.93 5.492l32.056 176.505a6.822 6.822 0 0 1-5.491 7.929l-.002-.004Z"/></g><path fill="#fff" d="M233.393 293.781c.296-.093.752-.233 1.365-.419a21.176 21.176 0 0 1 2.344-.537 12.013 12.013 0 0 1 2.152-.186 5.476 5.476 0 0 1 2.065.393c.637.258 1.198.686 1.675 1.28.476.595.81 1.417 1.001 2.472.17.937.173 1.741-.003 2.412-.17.673-.458 1.235-.858 1.688-.4.453-.887.813-1.458 1.079a7.4 7.4 0 0 1-1.804.574 9.942 9.942 0 0 1-.766.107c-.26.027-.445.035-.557.032l.836 4.609c-.33.126-.632.228-.907.306-.27.076-.526.134-.766.179-.462.082-.528.119-1.238.122l-3.081-14.111Zm4.644 6.068c.067.013.182.009.342-.004.158-.018.325-.041.495-.07.568-.103 1.014-.339 1.34-.713.325-.374.454-.872.393-1.505-.04-.37-.124-.67-.261-.906a1.367 1.367 0 0 0-.529-.525 1.59 1.59 0 0 0-.724-.196 3.721 3.721 0 0 0-.839.058c-.077.013-.175.031-.277.051-.106.022-.213.043-.315.074l.375 3.736Zm10.912 5.696c-.293.109-.564.196-.807.271a8.33 8.33 0 0 1-.725.171 7.39 7.39 0 0 1-.832.099c-.316.025-.278.035-.672.035l1.004-14.819c.336-.101.649-.192.94-.272.29-.079.587-.146.893-.205.251-.045.527-.084.832-.11.302-.03.65-.058 1.038-.084l7.405 13.246c-.726.254-1.375.435-1.939.536-.267.047-.529.08-.8.107a13.56 13.56 0 0 1-.877.036l-1.341-2.591c-.347.173-.68.317-1.005.43a6.634 6.634 0 0 1-1.926.358 9.08 9.08 0 0 1-1.033-.024l-.151 2.825-.004-.009Zm.906-10.275-.594 4.698c.233.024 2.238-.204 2.432-.561l-1.843-4.135.005-.002Zm13.652-1.268c.596.123 1.132.261 1.617.408.48.148.911.358 1.289.621.374.265.688.607.945 1.026.252.421.44.956.555 1.596.125.698.121 1.344-.025 1.95a3.989 3.989 0 0 1-.815 1.635c-.401.487-.93.9-1.582 1.243-.651.342-1.428.593-2.325.755-.819.149-1.551.212-2.201.199a14.023 14.023 0 0 1-2.14-.242c-.03-.469.205-2.528.586-2.961 1.31.306 2.023.146 2.92-.017.67-.123 1.178-.321 1.518-.59.341-.27.462-.654.373-1.157a1.148 1.148 0 0 0-.606-.845 2.108 2.108 0 0 0-.492-.187 8.568 8.568 0 0 0-.542-.115l-1.181-.21a7.123 7.123 0 0 1-1.409-.377 4.106 4.106 0 0 1-1.15-.658c-.338-.27-.619-.6-.847-.994-.228-.394-.395-.871-.496-1.435-.125-.697-.121-1.332.019-1.914.14-.581.388-1.097.75-1.549a4.329 4.329 0 0 1 1.4-1.13c.572-.3 1.235-.52 1.985-.653a9.654 9.654 0 0 1 1.981-.156c.653.018 1.352.086 2.112.204.022.429.013.91-.033 1.443a8.633 8.633 0 0 1-.263 1.522 18.428 18.428 0 0 0-1.286-.234c-.489-.072-1.078-.047-1.764.078-.21.037-.405.094-.592.17a1.826 1.826 0 0 0-.481.28 1.057 1.057 0 0 0-.304.419c-.066.17-.076.363-.037.589.071.379.244.642.53.781.283.141.609.244.978.311l1.017.203-.004-.009Zm10.446-2.181c.611.132 1.17.271 1.673.432.5.155.956.371 1.356.645.4.275.748.629 1.04 1.065.292.436.52.985.691 1.65.185.719.225 1.389.129 2.006-.1.618-.327 1.18-.699 1.681-.368.499-.87.922-1.506 1.273-.636.352-1.402.604-2.296.77-.82.149-1.558.21-2.217.189-.66-.02-1.389-.108-2.189-.263a11.676 11.676 0 0 1-.112-1.564c-.005-.559.015-1.135.059-1.721 1.349.321 2.475.401 3.371.239.671-.123 1.172-.323 1.492-.6.321-.278.42-.674.285-1.189a1.328 1.328 0 0 0-.262-.538 1.421 1.421 0 0 0-.418-.338 2.147 2.147 0 0 0-.513-.195c-.181-.043-.372-.082-.557-.123l-1.217-.228a7.94 7.94 0 0 1-1.456-.393 4.615 4.615 0 0 1-1.217-.683 4.17 4.17 0 0 1-.936-1.03c-.261-.406-.468-.898-.619-1.483-.185-.719-.23-1.376-.13-1.972a3.66 3.66 0 0 1 .641-1.593c.328-.464.771-.848 1.329-1.153a6.443 6.443 0 0 1 1.962-.664 9.172 9.172 0 0 1 2.002-.15c.659.021 1.378.097 2.158.222.058.445.083.939.081 1.484a9.376 9.376 0 0 1-.147 1.568c-.38-.089-.824-.171-1.326-.248-.503-.077-1.098-.055-1.784.07-.21.037-.406.095-.588.169a1.56 1.56 0 0 0-.465.289.912.912 0 0 0-.271.431c-.052.175-.049.373.01.606.1.393.297.662.597.805a4.19 4.19 0 0 0 1.014.328l1.048.211-.013-.005Zm4.243-6.179c.296-.093.752-.233 1.365-.419a21.176 21.176 0 0 1 2.344-.537 12.013 12.013 0 0 1 2.152-.186 5.476 5.476 0 0 1 2.065.393c.638.258 1.198.686 1.675 1.28.476.595.81 1.417 1.001 2.472.17.937.173 1.741-.003 2.412-.17.673-.458 1.235-.858 1.688-.4.453-.887.813-1.458 1.079a7.4 7.4 0 0 1-1.804.574 9.942 9.942 0 0 1-.766.107c-.26.027-.445.035-.557.032l.836 4.609c-.33.126-.632.228-.907.306-.27.076-.526.134-.766.179-.462.082-.634.118-1.341.125l-2.978-14.114Zm4.741 6.05c.063.016.173.014.322 0 .149-.014.305-.036.464-.066.527-.096.943-.334 1.24-.711.296-.377.407-.89.333-1.538-.044-.38-.134-.693-.269-.936a1.48 1.48 0 0 0-.508-.552 1.44 1.44 0 0 0-.683-.215 3.126 3.126 0 0 0-.785.044c-.072.011-.158.029-.26.049a3.17 3.17 0 0 0-.295.071l.441 3.854Zm8.021-.491a10.816 10.816 0 0 1-.217-2.92c.062-.929.281-1.77.653-2.521.372-.751.908-1.4 1.612-1.939.702-.544 1.591-.936 2.659-1.184 1.072-.249 2.03-.279 2.874-.089a5.172 5.172 0 0 1 2.216 1.061c.632.522 1.161 1.192 1.58 2.008a10.5 10.5 0 0 1 .94 2.755c.208 1.02.281 1.986.215 2.905-.068.915-.285 1.749-.659 2.495a5.404 5.404 0 0 1-1.609 1.911c-.7.526-1.584.916-2.659 1.161-1.072.249-2.028.284-2.879.114a5.012 5.012 0 0 1-2.219-1.032c-.635-.515-1.159-1.176-1.574-1.983-.419-.804-.727-1.716-.936-2.735l.003-.007Zm8.177-2.011c-.522-2.872-1.232-4.335-2.955-3.577-1.402.615-1.846 1.654-1.321 4.531.259 1.44.449 2.335.942 2.977.492.637 1.285.851 2.053.71 1.485-.27 1.799-1.788 1.283-4.636l-.002-.005Zm4.694-8.2c.631-.183 1.219-.351 1.755-.512a15.839 15.839 0 0 1 1.716-.405 11.664 11.664 0 0 1 2.213-.187c.747.007 1.437.13 2.07.368.629.24 1.175.625 1.642 1.151.463.529.776 1.249.945 2.159.088.487.114.936.071 1.344a4.87 4.87 0 0 1-.245 1.12c-.122.334-.27.637-.448.897a5.445 5.445 0 0 1-.539.691l3.63 5.634c-.309.11-.645.212-1.017.307-.372.096-.71.17-1.011.227-.261.049-.575.09-.929.127a7.683 7.683 0 0 1-.943.051l-3.87-5.934.161-.13c.145-.107.296-.272.455-.49a3.55 3.55 0 0 0 .413-.759c.116-.287.203-.6.258-.937a2.94 2.94 0 0 0-.015-1.02c-.119-.661-.393-1.106-.814-1.343-.426-.234-.909-.304-1.447-.209a2.154 2.154 0 0 0-.334.084.591.591 0 0 0-.171.074l2.502 11.186c-.68.245-1.241.412-1.687.492-.486.088-.79.079-1.498.087l-2.861-14.068-.002-.005Zm14.835.452-3.302.6a7.866 7.866 0 0 1-.463-1.529c-.08-.434-.111-.953-.096-1.554l10.109-1.584c.124.231.224.446.302.648.077.203.135.398.168.588.064.365.065.82-.001 1.356l-3.219.839 2.011 11.076c-.68.245-1.248.409-1.707.496-.487.088-.662.058-1.365.063l-2.437-10.999Zm11.302 98.228c2.383-6.364 3.151-13.359 1.864-20.424-3.951-21.747-25.719-36.064-48.52-31.922-22.802 4.143-38.138 25.202-34.187 46.949 1.285 7.072 4.458 13.347 8.934 18.47.001.027-.008.054-.007.081l.077-.002c9.294 10.576 24.164 16.16 39.512 13.375 15.325-2.787 27.261-13.214 32.259-26.351l.118-.033c-.012-.05-.033-.095-.054-.141l.004-.002Zm-28.043 21.309a38.5 38.5 0 0 1-3.352.912l-3.357-18.48c6.953-1.241 12.437-2.035 16.761-2.528-1.198 9.206-4.796 16.597-10.059 20.094l.007.002Zm-26.59-13.403c4.391-1.113 10.065-2.357 17.404-3.711l3.361 18.501a39.1 39.1 0 0 1-4.303.455c-6.146-1.424-12.111-7.064-16.467-15.243l.005-.002Zm-5.789-17.014c-.831-4.584-1.131-9.054-.963-13.259 5.193-.548 11.498-1.475 18.823-2.788l2.258 12.427-20.108 3.654-.008-.04-.002.006Zm9.482-38.02a39.588 39.588 0 0 1 4.188-1.085l3.74 20.59c-7.685 1.376-13.625 2.216-18.213 2.716.892-10.185 4.631-18.454 10.287-22.217l-.002-.004Zm27.583 15.368c-4.303 1.099-9.903 2.337-17.179 3.683l-3.736-20.57a39.52 39.52 0 0 1 3.46-.323c6.624 1.534 13.039 7.97 17.459 17.207l-.004.003Zm4.796 15.049s.006.025.008.041l-19.273 3.504-2.258-12.428c5.338-.988 11.888-2.318 17.766-3.84 1.632 3.871 2.921 8.153 3.755 12.73l.002-.007Zm-21.291 6.466 2.174 11.961c-7.084 1.307-13.14 2.613-18.106 3.888-1.725-3.678-3.14-7.79-4.127-12.207l20.056-3.646.003.004Zm4.648 11.514-2.174-11.961 19.216-3.494c.628 4.472.754 8.807.433 12.85-5.901.65-12.283 1.674-17.477 2.6l.002.005Zm19.52-15.905 13.933-2.532a34.484 34.484 0 0 1-1.897 15.43c-2.806-.409-6.938-.277-11.54.145.3-4.183.138-8.584-.496-13.043Zm13.588-5.026-13.985 2.54s-.006-.025-.008-.041c-.829-4.568-2.116-8.928-3.778-12.936 4.823-1.342 8.97-2.813 11.261-4.319a34.339 34.339 0 0 1 6.502 14.715c.006.014.001.027.008.041Zm-8.105-16.69c-1.336.817-4.281 2.172-10.69 3.937-1.887-4.025-4.174-7.636-6.785-10.652-2.045-2.363-4.209-4.253-6.429-5.68 9.422 1.125 17.942 5.62 23.909 12.393l-.005.002Zm-46.936-8.211c-1.581 2.114-2.937 4.651-4.022 7.579-1.383 3.732-2.248 7.906-2.602 12.32-6.584.591-9.832.366-11.383.077 3.206-8.425 9.596-15.618 18.009-19.982l-.002.006Zm-18.822 22.35c2.446.543 6.504.574 12.049.09-.152 4.347.182 8.89 1.016 13.467.006.014.006.025.007.041l-13.631 2.475.449 2.479 13.682-2.487c.977 4.41 2.377 8.595 4.139 12.411-4.911 1.356-8.558 2.672-10.84 3.924-3.902-4.547-6.659-10.083-7.791-16.303a34.346 34.346 0 0 1 .92-16.097Zm8.625 34.293c1.719-.851 4.784-2.046 10.212-3.52 1.685 3.236 3.636 6.171 5.821 8.69 2.045 2.363 4.209 4.254 6.429 5.68-8.688-1.039-16.603-4.938-22.46-10.845l-.002-.005Zm45.492 6.662c1.581-2.114 2.937-4.651 4.023-7.578 1.16-3.135 1.956-6.577 2.394-10.214 5.626-.538 8.913-.492 10.81-.294-3.404 7.607-9.451 14.057-17.225 18.09l-.002-.004Z"/><path fill="#2B2C2E" d="m420.869 289.082.531.125a.546.546 0 0 1 .406.657l-7.519 31.884a.546.546 0 0 1-.657.406l-.531-.125 7.77-32.947Zm-157.046 5.224-.53-.125a.546.546 0 0 1-.406-.657l4.678-19.839a.547.547 0 0 1 .657-.406l.531.125-4.93 20.902Zm6.267-26.57-.531-.125a.545.545 0 0 1-.406-.656l4.679-19.839a.546.546 0 0 1 .656-.407l.531.126-4.929 20.901Zm7.1-30.112-.531-.125a.546.546 0 0 1-.405-.657l2.088-8.857a.546.546 0 0 1 .656-.406l.531.125-2.339 9.92Z"/><path fill="#1B336C" fill-opacity=".19" d="M286.611 204.257c2.021-8.572 3.032-12.858 4.976-16.061a23.648 23.648 0 0 1 18.259-11.301c3.731-.31 8.014.7 16.579 2.72l83.183 19.616c8.564 2.02 12.847 3.03 16.047 4.975a23.645 23.645 0 0 1 11.285 18.268c.308 3.734-.702 8.02-2.724 16.592L377.74 478.55c-2.021 8.573-3.032 12.859-4.976 16.062a23.651 23.651 0 0 1-18.259 11.301c-3.731.309-8.014-.701-16.579-2.72l-83.183-19.617c-8.564-2.02-12.847-3.03-16.047-4.974a23.648 23.648 0 0 1-11.285-18.268c-.309-3.734.702-8.02 2.724-16.592l56.476-239.485Z"/><path fill="#262626" d="M285.712 201.489c2.021-8.572 3.032-12.858 4.976-16.061a23.648 23.648 0 0 1 18.259-11.301c3.731-.31 8.014.7 16.578 2.72l83.183 19.616c8.565 2.02 12.848 3.03 16.048 4.974a23.648 23.648 0 0 1 11.285 18.268c.308 3.735-.702 8.021-2.724 16.593l-56.476 239.484c-2.022 8.572-3.032 12.858-4.976 16.061a23.65 23.65 0 0 1-18.259 11.301c-3.732.31-8.014-.7-16.579-2.72l-83.183-19.616c-8.565-2.02-12.847-3.03-16.047-4.974a23.652 23.652 0 0 1-11.286-18.268c-.308-3.735.703-8.021 2.725-16.593l56.476-239.484Z"/><path fill="#262626" fill-rule="evenodd" d="m408.684 197.205-83.466-19.684c-8.461-1.995-12.608-2.968-16.211-2.669a22.92 22.92 0 0 0-17.697 10.953c-1.876 3.092-2.859 7.241-4.856 15.709l-56.543 239.767c-1.997 8.468-2.971 12.619-2.674 16.224a22.924 22.924 0 0 0 10.938 17.706c3.09 1.877 7.235 2.859 15.696 4.854l83.466 19.684c8.46 1.995 12.608 2.968 16.21 2.669a22.92 22.92 0 0 0 17.697-10.953c1.876-3.092 2.859-7.241 4.856-15.709l56.543-239.768c1.997-8.467 2.971-12.618 2.674-16.223a22.921 22.921 0 0 0-10.938-17.706c-3.089-1.877-7.235-2.859-15.695-4.854ZM291 185.616c-1.915 3.154-2.91 7.374-4.9 15.814l-56.543 239.768c-1.991 8.44-2.986 12.66-2.682 16.337a23.284 23.284 0 0 0 11.112 17.987c3.15 1.914 7.367 2.909 15.8 4.898l83.466 19.683c8.433 1.989 12.65 2.983 16.324 2.678a23.285 23.285 0 0 0 17.978-11.127c1.914-3.154 2.909-7.374 4.899-15.814l56.543-239.768c1.991-8.44 2.986-12.66 2.683-16.337a23.29 23.29 0 0 0-11.112-17.987c-3.151-1.915-7.368-2.909-15.801-4.898l-83.466-19.683c-8.433-1.989-12.65-2.983-16.324-2.678A23.283 23.283 0 0 0 291 185.616Z" clip-rule="evenodd"/><path fill="#111413" d="M287.65 201.197c1.866-7.913 2.799-11.869 4.594-14.826a21.826 21.826 0 0 1 16.854-10.431c3.444-.286 7.397.646 15.303 2.51L409 198.401c7.906 1.864 11.859 2.796 14.813 4.591a21.831 21.831 0 0 1 10.418 16.863c.284 3.447-.649 7.403-2.515 15.316l-56.81 240.902c-1.866 7.912-2.799 11.869-4.594 14.825a21.83 21.83 0 0 1-16.854 10.432c-3.444.286-7.397-.646-15.304-2.511l-84.598-19.95c-7.906-1.865-11.859-2.797-14.813-4.592a21.83 21.83 0 0 1-10.418-16.863c-.284-3.446.649-7.403 2.515-15.316l56.81-240.901Z"/><path fill="#2B2C2E" d="m409.418 196.63 2.124.501-.418 1.772-2.124-.501.418-1.772Zm22.548 37.479 1.77.417-.501 2.126-1.77-.418.501-2.125Zm-145.835-34.392 1.769.417-.501 2.126-1.77-.418.502-2.125ZM229.32 440.618l1.77.418-.501 2.125-1.77-.417.501-2.126Zm145.835 34.392 1.77.418-.501 2.125-1.77-.417.501-2.126Zm-123.725 3.358 2.124.501-.417 1.771-2.124-.5.417-1.772Z"/><mask id="d" width="197" height="316" x="233" y="180" maskUnits="userSpaceOnUse" style="mask-type:alpha"><path fill="#fff" d="M408.41 202.412c7.283 1.717 10.925 2.576 13.557 4.381a17.1 17.1 0 0 1 7.268 11.764c.437 3.164-.423 6.809-2.142 14.098l-56.962 241.546c-1.719 7.29-2.578 10.935-4.383 13.57a17.096 17.096 0 0 1-11.758 7.277c-3.162.439-6.803-.42-14.087-2.137l-85.243-20.103c-7.283-1.717-10.925-2.576-13.557-4.381a17.1 17.1 0 0 1-7.268-11.765c-.437-3.163.422-6.808 2.141-14.097l56.963-241.547c1.719-7.289 2.578-10.934 4.383-13.569a17.1 17.1 0 0 1 11.758-7.278c3.162-.438 6.803.421 14.087 2.138l85.243 20.103Z"/></mask><g mask="url(#d)"><path fill="#fff" d="m285.085 167.146 164.654 38.83-71.289 302.298-164.654-38.83z"/><path fill="#F5C836" d="m421.27 204.143 12.208 2.879-69.53 294.836-12.207-2.88z"/><path fill="#F28825" d="m410.171 201.526 12.118 2.858-69.53 294.835-12.117-2.857z"/><path fill="#E13030" d="m398.655 198.811 12.443 2.934-69.53 294.836-12.442-2.934z"/><path fill="#993233" d="m387.41 196.159 12.178 2.872-69.53 294.835-12.177-2.871z"/><path fill="#1D5C84" d="m376.379 193.557 12.017 2.834-69.529 294.836-12.017-2.834z"/><path fill="#2872BC" d="m364.787 190.824 12.42 2.929-69.53 294.836-12.42-2.93z"/><path fill="#3394D7" d="m353.713 188.213 12.303 2.901-69.53 294.836-12.302-2.901z"/><path fill="#3DB8AD" d="m342.433 185.552 12.072 2.847-69.53 294.835-12.071-2.846z"/><path fill="#89CC53" d="m330.605 182.762 12.708 2.997-69.529 294.836-12.708-2.997z"/><path fill="#62B64F" d="m319.878 180.232 12.245 2.888-69.53 294.835-12.244-2.887z"/><path fill="#2F9B47" d="m308.205 177.48 12.729 3.002-69.53 294.835-12.728-3.001z"/><path fill="#238647" d="m298.232 175.128 11.191 2.64-69.53 294.835-11.19-2.64z"/></g><rect width="41.012" height="11.195" x="345.023" y="191.468" fill="#111413" rx="5.597" transform="rotate(13.27 345.023 191.468)"/><path fill="#2B2C2E" fill-rule="evenodd" d="M377.353 207.338a2.546 2.546 0 0 0 1.169-4.956 2.546 2.546 0 0 0-1.169 4.956Z" clip-rule="evenodd"/><path fill="#19191C" fill-rule="evenodd" d="M377.572 206.408a1.59 1.59 0 1 0 .73-3.096 1.59 1.59 0 0 0-.73 3.096Z" clip-rule="evenodd"/><path fill="#2B2C2E" fill-rule="evenodd" d="M378.01 204.55a.32.32 0 0 0 .383-.237.318.318 0 1 0-.383.237Z" clip-rule="evenodd" opacity=".4"/></g><path fill="#fff" d="M295.373 110.141c-1.574-.571-2.512-.925-2.512-.925s-6.062-8.579-11.86-17.004c-5.391-7.848-10.55-15.577-10.324-16.112.454-1.102 12.811-13.94 44.522 18.467a.242.242 0 0 1 .047.072c.578.587 1.173 1.196 1.781 1.837 28.845 30.358-10.975 17.463-21.654 13.665Z"/><path fill="#0080FF" d="M476.29 88.894c-8.626 15.33-26.03 56.076-29.534 55.582-3.502-.479-13.838-11.791-13.976-17.365-.058-2.941-.907-10.898-1.479-18.147-.517-6.543-.814-12.522-.128-13.796.375-.712 3.704-1.482 8.406-2.227 13.065-2.1 36.709-4.047 36.709-4.047h.002Z"/><path fill="#47BFFF" d="M479.747 88.288c.542-5.127-4.764-9.747-19.031-4.416-11.644 4.352-19.146 12.627-17.076 17.669 2.07 5.041 12.826 4.658 24.573.591 12.568-4.353 10.961-8.427 11.534-13.847v.003Z"/><path fill="#0080FF" d="M480.234 90.61c.37-4.54-1.898-8.43-5.065-8.688-3.166-.258-6.033 3.213-6.403 7.753-.369 4.54 1.899 8.43 5.065 8.688 3.167.258 6.034-3.213 6.403-7.753Zm-32.416 5.952c-5.115 1.748-13.259 2.377-16.549 12.404-.517-6.541-.814-12.519-.128-13.792.375-.713 3.705-1.482 8.408-2.227 5.293 1.166 8.269 3.617 8.269 3.617v-.002Z"/><path fill="#FAC800" fill-opacity=".3" d="M315.276 94.585s-.001.018-.022.068c-.219.945-2.497 10.721-4.115 12.516-1.059 1.181-7.932 2.481-15.761 2.98-1.575-.571-2.513-.925-2.513-.925s-6.064-8.575-11.863-16.997c10.935 3.107 26.657 1.98 34.205 2.354l.069.004Z"/><path fill="#fff" d="M541.438 70.886C525.871 86.097 257.859 138.184 257.253 121c-.223-6.528 173.872-78.009 225.87-69.7 3.052.487 5.961.979 8.726 1.46l.007.001c10.468 1.828 18.927 3.626 25.719 5.343 22.004 5.567 26.372 10.326 23.863 12.78v.003Z"/><path fill="#47BFFF" d="m330.906 99.019-.018.015c-1.061.442-34.897 14.756-37.213 14.222-1.134-.249-9.939-2.625-18.859-5.113l-.034-.002c-9.829-2.738-19.805-5.62-19.783-5.945.042-.613 13.456-6.646 18.902-6.656 5.428-.01 57.569 2.503 57.003 3.476l.002.002Z"/><path fill="#fff" d="M455.153 66.526c-.114 1.687-57.57 15.943-60.233 15.952-.911.007-16.985-3.373-37.568-7.877-.102-.024-.186-.047-.255-.051-38.866-8.514-93.664-20.994-93.186-22.453.716-2.213 24.058-8.189 29.354-8.018 5.159.16 153.814 19.678 161.573 22.274.219.066.319.125.315.176v-.003Z"/><path fill="#47BFFF" d="M432.311 63.861c-2.419 1.982-6.157 3.923-11.89 5.92-17.233 5.969-33.016 6.53-36.052-.869-1.681-4.078.929-9.616 6.466-14.817 4.497-4.242 10.932-8.25 18.579-11.112 20.929-7.812 28.71-1.038 27.926 6.477-.578 5.469.35 10.01-5.031 14.399l.002.002Z"/><path fill="#0080FF" d="M438.062 52.878c.542-6.66-2.784-12.365-7.429-12.743-4.645-.379-8.85 4.713-9.392 11.372-.542 6.66 2.784 12.365 7.429 12.743 4.645.379 8.85-4.713 9.392-11.372Z"/><path fill="#2850AF" d="M517.568 57.928c-14.894-1.202-34.95 1.043-35.558-.404-.477-1.136-1.881-5.024 9.828-4.928h.007c10.469 1.825 18.93 3.62 25.723 5.334v-.002Z"/><path fill="#47BFFF" fill-opacity=".3" d="M455.163 66.518c-.115 1.688-57.568 15.946-60.231 15.955-.911.007-16.985-3.375-37.567-7.882 38.155 7.34 82.872-6.08 97.485-8.246.219.067.319.125.315.176l-.002-.003Z"/><path fill="#0080FF" d="m330.908 99.01-.019.015c-1.061.442-34.894 14.762-37.21 14.227-1.135-.249-9.939-2.627-18.858-5.116 29.386 3.599 48.069-8.95 56.087-9.127Z"/><defs><filter id="b" width="277.728" height="321.281" x="105.024" y="177.854" color-interpolation-filters="sRGB" filterUnits="userSpaceOnUse"><feFlood flood-opacity="0" result="BackgroundImageFix"/><feColorMatrix in="SourceAlpha" result="hardAlpha" values="0 0 0 0 0 0 0 0 0 0 0 0 0 0 0 0 0 0 127 0"/><feOffset dy="8.398"/><feGaussianBlur stdDeviation="4.199"/><feComposite in2="hardAlpha" operator="out"/><feColorMatrix values="0 0 0 0 0 0 0 0 0 0 0 0 0 0 0 0 0 0 0.25 0"/><feBlend in2="BackgroundImageFix" result="effect1_dropShadow_6283_398"/><feBlend in="SourceGraphic" in2="effect1_dropShadow_6283_398" result="shape"/></filter><filter id="c" width="183.132" height="229.229" x="193.563" y="244.812" color-interpolation-filters="sRGB" filterUnits="userSpaceOnUse"><feFlood flood-opacity="0" result="BackgroundImageFix"/><feColorMatrix in="SourceAlpha" result="hardAlpha" values="0 0 0 0 0 0 0 0 0 0 0 0 0 0 0 0 0 0 127 0"/><feOffset dy="8.398"/><feGaussianBlur stdDeviation="4.199"/><feComposite in2="hardAlpha" operator="out"/><feColorMatrix values="0 0 0 0 0 0 0 0 0 0 0 0 0 0 0 0 0 0 0.25 0"/><feBlend in2="BackgroundImageFix" result="effect1_dropShadow_6283_398"/><feBlend in="SourceGraphic" in2="effect1_dropShadow_6283_398" result="shape"/></filter></defs></svg>