<svg display="block" role="presentation" viewBox="0 0 48 48" xmlns="http://www.w3.org/2000/svg"><g d="M 0 24 C 0 10.745 10.745 0 24 0 C 37.255 0 48 10.745 48 24 C 48 37.255 37.255 48 24 48 C 10.745 48 0 37.255 0 24 Z M 0 24 C 0 10.745 10.745 0 24 0 C 37.255 0 48 10.745 48 24 C 48 37.255 37.255 48 24 48 C 10.745 48 0 37.255 0 24 Z M 32.21 13.263 L 33.175 16.088 L 36 17.053 L 33.175 18.017 L 32.211 20.842 L 31.246 18.017 L 28.421 17.053 L 31.246 16.088 L 32.211 13.263 Z M 28.217 16.455 C 27.962 16.543 27.791 16.783 27.791 17.052 C 27.791 17.322 27.962 17.562 28.217 17.65 L 30.748 18.515 L 31.613 21.046 C 31.7 21.302 31.941 21.474 32.211 21.474 C 32.481 21.474 32.722 21.302 32.809 21.046 L 33.509 18.994 L 34.517 20.115 C 34.795 20.417 34.811 20.877 34.554 21.197 L 24.133 34.379 C 23.946 34.608 23.664 34.74 23.368 34.737 C 23.072 34.739 22.791 34.608 22.603 34.379 L 12.183 21.197 C 11.926 20.877 11.942 20.417 12.22 20.115 L 16.957 14.843 C 17.144 14.639 17.408 14.524 17.684 14.526 L 29.053 14.526 C 29.329 14.524 29.593 14.639 29.78 14.843 L 30.522 15.668 Z M 29.073 21.557 C 29.585 21.557 30 21.163 30 20.677 C 30 20.192 29.585 19.799 29.073 19.799 L 17.663 19.799 C 17.152 19.799 16.737 20.192 16.737 20.678 C 16.737 21.163 17.152 21.557 17.664 21.557 Z M 30.98 16.179 L 33.026 18.455 L 32.21 20.842 L 31.246 18.017 L 28.421 17.053 L 30.981 16.179 Z M 24 0.5 C 36.979 0.5 47.5 11.021 47.5 24 C 47.5 36.979 36.979 47.5 24 47.5 C 11.021 47.5 0.5 36.979 0.5 24 C 0.5 11.021 11.021 0.5 24 0.5 Z" fill="transparent" height="48px" id="IJH_ES3P6" width="48px"><g d="M 0 24 C 0 10.745 10.745 0 24 0 C 37.255 0 48 10.745 48 24 C 48 37.255 37.255 48 24 48 C 10.745 48 0 37.255 0 24 Z M 0 24 C 0 10.745 10.745 0 24 0 C 37.255 0 48 10.745 48 24 C 48 37.255 37.255 48 24 48 C 10.745 48 0 37.255 0 24 Z M 32.21 13.263 L 33.175 16.088 L 36 17.053 L 33.175 18.017 L 32.211 20.842 L 31.246 18.017 L 28.421 17.053 L 31.246 16.088 L 32.211 13.263 Z M 28.217 16.455 C 27.962 16.543 27.791 16.783 27.791 17.052 C 27.791 17.322 27.962 17.562 28.217 17.65 L 30.748 18.515 L 31.613 21.046 C 31.7 21.302 31.941 21.474 32.211 21.474 C 32.481 21.474 32.722 21.302 32.809 21.046 L 33.509 18.994 L 34.517 20.115 C 34.795 20.417 34.811 20.877 34.554 21.197 L 24.133 34.379 C 23.946 34.608 23.664 34.74 23.368 34.737 C 23.072 34.739 22.791 34.608 22.603 34.379 L 12.183 21.197 C 11.926 20.877 11.942 20.417 12.22 20.115 L 16.957 14.843 C 17.144 14.639 17.408 14.524 17.684 14.526 L 29.053 14.526 C 29.329 14.524 29.593 14.639 29.78 14.843 L 30.522 15.668 Z M 29.073 21.557 C 29.585 21.557 30 21.163 30 20.677 C 30 20.192 29.585 19.799 29.073 19.799 L 17.663 19.799 C 17.152 19.799 16.737 20.192 16.737 20.678 C 16.737 21.163 17.152 21.557 17.664 21.557 Z M 30.98 16.179 L 33.026 18.455 L 32.21 20.842 L 31.246 18.017 L 28.421 17.053 L 30.981 16.179 Z" fill="transparent" height="48px" id="b56UqmhEu" width="48px"><path d="M 0 24 C 0 10.745 10.745 0 24 0 C 37.255 0 48 10.745 48 24 C 48 37.255 37.255 48 24 48 C 10.745 48 0 37.255 0 24 Z" fill="transparent" height="48px" id="N4R36K8Kt" width="48px"/><path d="M 0 24 C 0 10.745 10.745 0 24 0 C 37.255 0 48 10.745 48 24 C 48 37.255 37.255 48 24 48 C 10.745 48 0 37.255 0 24 Z" fill="rgb(0, 46, 39)" height="48px" id="goKrXnskQ" width="48px"/><path d="M 3.789 0 L 4.754 2.825 L 7.579 3.79 L 4.754 4.754 L 3.79 7.579 L 2.825 4.754 L 0 3.79 L 2.825 2.825 L 3.79 0 Z" fill="rgb(0, 255, 213)" height="7.578999999999999px" id="mJuKVlYPP" transform="translate(28.421 13.263)" width="7.5789999999999935px"/><path d="M 16.217 1.929 C 15.962 2.017 15.791 2.257 15.791 2.527 C 15.791 2.796 15.962 3.036 16.217 3.124 L 18.748 3.989 L 19.613 6.52 C 19.7 6.776 19.94 6.948 20.211 6.948 C 20.481 6.948 20.721 6.776 20.809 6.52 L 21.509 4.468 L 22.517 5.589 C 22.795 5.891 22.811 6.351 22.554 6.671 L 12.133 19.853 C 11.945 20.082 11.664 20.214 11.368 20.211 C 11.072 20.213 10.791 20.082 10.603 19.853 L 0.183 6.671 C -0.074 6.351 -0.059 5.891 0.22 5.589 L 4.957 0.317 C 5.143 0.113 5.407 -0.002 5.684 0 L 17.053 0 C 17.329 -0.002 17.593 0.113 17.78 0.317 L 18.522 1.142 Z M 17.073 7.031 C 17.585 7.031 18 6.637 18 6.151 C 18 5.666 17.585 5.273 17.073 5.273 L 5.663 5.273 C 5.152 5.273 4.737 5.666 4.737 6.152 C 4.737 6.637 5.152 7.031 5.664 7.031 Z" fill="rgb(0, 255, 213)" height="20.21106632611442px" id="mB_TATqEh" transform="translate(12 14.526)" width="22.73636437406164px"/><path d="M 2.559 0 L 4.605 2.276 L 3.789 4.663 L 2.825 1.838 L 0 0.874 L 2.56 0 Z" fill="rgb(0, 255, 213)" height="4.663px" id="Hhuulheq0" transform="translate(28.421 16.179)" width="4.605px"/></g><path d="M 23.5 0 C 36.479 0 47 10.521 47 23.5 C 47 36.479 36.479 47 23.5 47 C 10.521 47 0 36.479 0 23.5 C 0 10.521 10.521 0 23.5 0 Z" fill="transparent" height="47px" id="COSOUy_EF" stroke-dasharray="" stroke-linecap="butt" stroke-linejoin="miter" stroke-miterlimit="10" stroke-width="1" stroke="rgb(0, 255, 213)" transform="translate(0.5 0.5)" width="47px"/></g></svg>