<svg display="block" role="presentation" viewBox="0 0 48 48" xmlns="http://www.w3.org/2000/svg"><g d="M 0 24 C 0 10.745 10.745 0 24 0 C 37.255 0 48 10.745 48 24 C 48 37.255 37.255 48 24 48 C 10.745 48 0 37.255 0 24 Z M 0 24 C 0 10.745 10.745 0 24 0 C 37.255 0 48 10.745 48 24 C 48 37.255 37.255 48 24 48 C 10.745 48 0 37.255 0 24 Z M 32.21 13.263 L 33.175 16.088 L 36 17.053 L 33.175 18.017 L 32.211 20.842 L 31.246 18.017 L 28.421 17.053 L 31.246 16.088 L 32.211 13.263 Z M 18.316 24.632 L 19.28 27.456 L 22.105 28.421 L 19.28 29.386 L 18.316 32.211 L 17.351 29.386 L 14.526 28.421 L 17.351 27.456 Z M 29.78 14.843 L 30.522 15.668 L 28.217 16.455 C 27.962 16.543 27.791 16.783 27.791 17.052 C 27.791 17.322 27.962 17.562 28.217 17.65 L 30.748 18.515 L 31.613 21.046 C 31.701 21.301 31.941 21.472 32.21 21.472 C 32.48 21.472 32.72 21.301 32.808 21.046 L 33.509 18.994 L 34.517 20.115 C 34.795 20.417 34.811 20.877 34.554 21.197 L 24.133 34.38 C 23.946 34.609 23.664 34.741 23.368 34.738 C 23.072 34.741 22.791 34.609 22.604 34.38 L 19.558 30.527 L 19.778 29.884 L 22.309 29.02 C 22.565 28.933 22.737 28.692 22.737 28.422 C 22.737 28.152 22.565 27.911 22.309 27.824 L 19.778 26.96 L 18.914 24.428 C 18.827 24.172 18.586 24 18.316 24 C 18.046 24 17.805 24.172 17.718 24.428 L 16.854 26.96 L 16.763 26.991 L 12.183 21.198 C 11.926 20.878 11.942 20.418 12.22 20.116 L 16.957 14.844 C 17.144 14.641 17.408 14.526 17.684 14.527 L 29.053 14.527 C 29.333 14.527 29.6 14.643 29.78 14.844 Z M 29.074 19.799 L 17.664 19.799 C 17.152 19.799 16.737 20.192 16.737 20.677 C 16.737 21.163 17.152 21.557 17.663 21.557 L 29.073 21.557 C 29.585 21.557 30 21.163 30 20.678 C 30 20.192 29.585 19.799 29.074 19.799 Z M 19.092 29.937 L 17.178 27.516 L 17.351 27.456 L 18.316 24.632 L 19.28 27.456 L 22.105 28.421 L 19.28 29.386 L 19.092 29.936 Z M 33.026 18.455 L 30.98 16.18 L 28.421 17.054 L 31.246 18.018 L 32.211 20.843 L 33.026 18.456 Z M 24 0.5 C 36.979 0.5 47.5 11.021 47.5 24 C 47.5 36.979 36.979 47.5 24 47.5 C 11.021 47.5 0.5 36.979 0.5 24 C 0.5 11.021 11.021 0.5 24 0.5 Z" fill="transparent" height="48px" id="Y9NIDT_yP" width="48px"><g d="M 0 24 C 0 10.745 10.745 0 24 0 C 37.255 0 48 10.745 48 24 C 48 37.255 37.255 48 24 48 C 10.745 48 0 37.255 0 24 Z M 0 24 C 0 10.745 10.745 0 24 0 C 37.255 0 48 10.745 48 24 C 48 37.255 37.255 48 24 48 C 10.745 48 0 37.255 0 24 Z M 32.21 13.263 L 33.175 16.088 L 36 17.053 L 33.175 18.017 L 32.211 20.842 L 31.246 18.017 L 28.421 17.053 L 31.246 16.088 L 32.211 13.263 Z M 18.316 24.632 L 19.28 27.456 L 22.105 28.421 L 19.28 29.386 L 18.316 32.211 L 17.351 29.386 L 14.526 28.421 L 17.351 27.456 Z M 29.78 14.843 L 30.522 15.668 L 28.217 16.455 C 27.962 16.543 27.791 16.783 27.791 17.052 C 27.791 17.322 27.962 17.562 28.217 17.65 L 30.748 18.515 L 31.613 21.046 C 31.701 21.301 31.941 21.472 32.21 21.472 C 32.48 21.472 32.72 21.301 32.808 21.046 L 33.509 18.994 L 34.517 20.115 C 34.795 20.417 34.811 20.877 34.554 21.197 L 24.133 34.38 C 23.946 34.609 23.664 34.741 23.368 34.738 C 23.072 34.741 22.791 34.609 22.604 34.38 L 19.558 30.527 L 19.778 29.884 L 22.309 29.02 C 22.565 28.933 22.737 28.692 22.737 28.422 C 22.737 28.152 22.565 27.911 22.309 27.824 L 19.778 26.96 L 18.914 24.428 C 18.827 24.172 18.586 24 18.316 24 C 18.046 24 17.805 24.172 17.718 24.428 L 16.854 26.96 L 16.763 26.991 L 12.183 21.198 C 11.926 20.878 11.942 20.418 12.22 20.116 L 16.957 14.844 C 17.144 14.641 17.408 14.526 17.684 14.527 L 29.053 14.527 C 29.333 14.527 29.6 14.643 29.78 14.844 Z M 29.074 19.799 L 17.664 19.799 C 17.152 19.799 16.737 20.192 16.737 20.677 C 16.737 21.163 17.152 21.557 17.663 21.557 L 29.073 21.557 C 29.585 21.557 30 21.163 30 20.678 C 30 20.192 29.585 19.799 29.074 19.799 Z M 19.092 29.937 L 17.178 27.516 L 17.351 27.456 L 18.316 24.632 L 19.28 27.456 L 22.105 28.421 L 19.28 29.386 L 19.092 29.936 Z M 33.026 18.455 L 30.98 16.18 L 28.421 17.054 L 31.246 18.018 L 32.211 20.843 L 33.026 18.456 Z" fill="transparent" height="48px" id="urRMYSAft" width="48px"><path d="M 0 24 C 0 10.745 10.745 0 24 0 C 37.255 0 48 10.745 48 24 C 48 37.255 37.255 48 24 48 C 10.745 48 0 37.255 0 24 Z" fill="transparent" height="48px" id="p5wAMZDSv" width="48px"/><path d="M 0 24 C 0 10.745 10.745 0 24 0 C 37.255 0 48 10.745 48 24 C 48 37.255 37.255 48 24 48 C 10.745 48 0 37.255 0 24 Z" fill="rgb(0, 23, 46)" height="48px" id="cS9HsS6DE" width="48px"/><path d="M 17.684 0 L 18.649 2.825 L 21.474 3.79 L 18.649 4.754 L 17.685 7.579 L 16.72 4.754 L 13.895 3.79 L 16.72 2.825 L 17.685 0 Z M 3.79 11.369 L 4.754 14.193 L 7.579 15.158 L 4.754 16.123 L 3.79 18.948 L 2.825 16.123 L 0 15.158 L 2.825 14.193 Z" fill="rgb(0, 128, 255)" height="18.948000434875492px" id="n7H9WrkPO" transform="translate(14.526 13.263)" width="21.474000457763673px"/><path d="M 17.78 0.316 L 18.522 1.141 L 16.217 1.928 C 15.962 2.016 15.791 2.256 15.791 2.526 C 15.791 2.795 15.962 3.035 16.217 3.123 L 18.748 3.988 L 19.613 6.519 C 19.701 6.774 19.941 6.945 20.21 6.945 C 20.48 6.945 20.72 6.774 20.808 6.519 L 21.509 4.467 L 22.517 5.588 C 22.795 5.89 22.811 6.35 22.554 6.67 L 12.133 19.853 C 11.945 20.082 11.664 20.214 11.368 20.211 C 11.072 20.214 10.791 20.082 10.604 19.853 L 7.558 16 L 7.778 15.357 L 10.309 14.493 C 10.564 14.406 10.736 14.165 10.736 13.895 C 10.736 13.625 10.564 13.384 10.309 13.297 L 7.778 12.433 L 6.914 9.901 C 6.826 9.645 6.586 9.474 6.316 9.474 C 6.045 9.474 5.805 9.645 5.718 9.901 L 4.854 12.433 L 4.763 12.464 L 0.183 6.671 C -0.074 6.351 -0.059 5.891 0.22 5.589 L 4.957 0.317 C 5.144 0.114 5.408 -0.001 5.684 0 L 17.053 0 C 17.333 0 17.6 0.116 17.78 0.317 Z M 17.074 5.272 L 5.664 5.272 C 5.152 5.272 4.737 5.665 4.737 6.15 C 4.737 6.636 5.152 7.03 5.663 7.03 L 17.073 7.03 C 17.585 7.03 18 6.636 18 6.151 C 18 5.665 17.585 5.272 17.074 5.272 Z" fill="rgb(0, 128, 255)" height="20.211061157997033px" id="DGPdqmDpe" transform="translate(12 14.527)" width="22.73636437406164px"/><path d="M 1.914 13.757 L 0 11.336 L 0.173 11.276 L 1.138 8.452 L 2.102 11.276 L 4.927 12.241 L 2.102 13.206 L 1.914 13.756 Z M 15.848 2.275 L 13.802 0 L 11.243 0.874 L 14.068 1.838 L 15.033 4.663 L 15.848 2.276 Z" fill="rgb(0, 128, 255)" height="13.756999664306637px" id="GTxBOF9ze" transform="translate(17.178 16.18)" width="15.848000030517575px"/></g><path d="M 23.5 0 C 36.479 0 47 10.521 47 23.5 C 47 36.479 36.479 47 23.5 47 C 10.521 47 0 36.479 0 23.5 C 0 10.521 10.521 0 23.5 0 Z" fill="transparent" height="47px" id="GZ3Vw2A6B" stroke-dasharray="" stroke-linecap="butt" stroke-linejoin="miter" stroke-miterlimit="10" stroke-width="1" stroke="rgb(0, 128, 255)" transform="translate(0.5 0.5)" width="47px"/></g></svg>