<svg xmlns="http://www.w3.org/2000/svg" width="576" height="576" fill="none"><circle cx="288" cy="288" r="256" fill="#fff" fill-opacity=".1"/><g filter="url(#a)"><rect width="450" height="332" x="63" y="122" fill="#404040" rx="14.407"/><path stroke="#373737" stroke-width="2.401" d="M177.021 340.297h60.394m90.591 0H388.4"/><circle cx="282.709" cy="340.295" r="45.295" fill="#000"/><path fill="#fff" d="M283 358c-3.925 0-6.238-.781-8.399-2.394-2.161-1.612-1.551-2.992-.738-3.756.772-.725 3.485-.762 3.765-4.36-.355-.261-2.266-3.444-2.552-5.849a21.37 21.37 0 0 0-.069-.524c-1.868-.036-2.254-1.013-2.83-2.863-.505-1.625.077-2.517 1.656-3.361a135.95 135.95 0 0 1-.672-4.233c-.444-3.073.903-5.162 2.821-6.517-.446-.237-.476-.274-.605-.547 1.108-.054 3.206-1.478 7.05-1.579.2-.011.392-.017.573-.017 3.482 0 10.791 2.058 9.839 8.66a135.95 135.95 0 0 1-.672 4.233c1.579.844 2.161 1.736 1.656 3.361-.576 1.85-.962 2.827-2.83 2.863a21.37 21.37 0 0 0-.069.524c-.286 2.405-2.098 5.536-2.552 5.849.28 3.598 2.993 3.635 3.765 4.36.813.764 1.51 2.144-.738 3.756-2.248 1.613-4.474 2.394-8.399 2.394Z"/><circle cx="142.295" cy="340.295" r="44.295" fill="#0C1834" stroke="#0080FF" stroke-width="2"/><path fill="#fff" d="m137.915 341.306 1.776 1.462a4.1 4.1 0 0 0 5.213 0l1.776-1.462 10.704 10.704h-30.173l10.704-10.704Zm-2.725-2.245-11.26-9.273a4.673 4.673 0 0 0-1.547 3.479v14.057c0 1.258.496 2.4 1.302 3.241l11.505-11.504Zm25.72 11.504-11.505-11.504 11.261-9.273a4.676 4.676 0 0 1 1.546 3.479v14.057a4.67 4.67 0 0 1-1.302 3.241Zm-32.918-21.984h28.611l-13.933 11.474a.586.586 0 0 1-.745 0l-13.933-11.474Z"/><circle cx="433.692" cy="340.295" r="45.295" fill="#000"/><path fill="#fff" d="M433.692 323.005c6.832 0 12.37 5.538 12.37 12.37 0 10.581-11.093 21.85-11.093 21.85-.713.792-1.838.78-2.531.026 0 0-.218-.221-.593-.631l-.358-.396c-2.691-3.016-10.165-12.173-10.165-20.849 0-6.832 5.538-12.37 12.37-12.37Zm0 7.872a4.498 4.498 0 1 0 0 8.996 4.498 4.498 0 0 0 0-8.996Z"/><path fill="#fff" d="M433.692 323.005c6.832 0 12.37 5.538 12.37 12.37 0 10.581-11.093 21.85-11.093 21.85-.713.792-1.838.78-2.531.026 0 0-.218-.221-.593-.631l-.358-.396c-2.691-3.016-10.165-12.173-10.165-20.849 0-6.832 5.538-12.37 12.37-12.37Zm0 7.872a4.498 4.498 0 1 0 0 8.996 4.498 4.498 0 0 0 0-8.996ZM239.324 194l-8.806-25.365h4.939l6.434 20.531h.087l6.452-20.531h4.939L244.562 194h-5.238Zm22.216.369c-1.828 0-3.416-.387-4.764-1.16-1.347-.785-2.396-1.898-3.146-3.34-.738-1.453-1.108-3.181-1.108-5.185v-.036c0-1.992.375-3.709 1.125-5.15.75-1.453 1.799-2.566 3.147-3.34 1.348-.785 2.924-1.178 4.728-1.178 1.817 0 3.399.393 4.746 1.178 1.36.774 2.415 1.881 3.165 3.322.75 1.442 1.125 3.165 1.125 5.168v.036c0 2.015-.375 3.75-1.125 5.203-.739 1.441-1.782 2.549-3.129 3.322-1.348.773-2.936 1.16-4.764 1.16Zm.018-3.533c.925 0 1.728-.24 2.408-.721.679-.48 1.201-1.177 1.564-2.092.375-.925.563-2.039.563-3.339v-.036c0-1.289-.188-2.39-.563-3.304-.375-.914-.908-1.612-1.599-2.092-.68-.481-1.483-.721-2.409-.721-.902 0-1.699.24-2.39.721-.68.48-1.213 1.178-1.6 2.092-.375.914-.562 2.015-.562 3.304v.036c0 1.3.187 2.414.562 3.339.387.915.92 1.612 1.6 2.092.691.481 1.5.721 2.426.721Zm20.123 3.533c-1.863 0-3.468-.392-4.816-1.178-1.336-.785-2.361-1.898-3.076-3.339-.715-1.442-1.072-3.147-1.072-5.116v-.017c0-1.957.357-3.662 1.072-5.115.726-1.465 1.74-2.602 3.041-3.411 1.312-.808 2.859-1.213 4.641-1.213 1.769 0 3.298.393 4.587 1.178 1.301.774 2.297 1.863 2.989 3.27.703 1.406 1.054 3.047 1.054 4.922v1.406h-15.222v-2.918h13.131l-2.11 2.724v-1.687c0-1.219-.187-2.232-.562-3.041-.375-.809-.891-1.412-1.547-1.811-.656-.41-1.412-.615-2.268-.615-.867 0-1.64.211-2.32.633-.668.41-1.195 1.025-1.582 1.846-.375.82-.563 1.816-.563 2.988v1.687c0 1.137.188 2.11.563 2.918.387.797.932 1.413 1.635 1.846.703.422 1.541.633 2.513.633.727 0 1.366-.111 1.916-.334.551-.234 1.002-.533 1.354-.896.363-.364.615-.756.756-1.178l.035-.123h4.078l-.035.193a6.966 6.966 0 0 1-.844 2.109c-.41.68-.961 1.295-1.652 1.846-.692.551-1.512.99-2.461 1.319-.949.316-2.027.474-3.235.474Zm11.335-.369v-18.633h4.36v3.217h.105c.281-1.125.791-2.004 1.53-2.637.75-.644 1.664-.967 2.742-.967a5.489 5.489 0 0 1 1.388.176v3.955a3.4 3.4 0 0 0-.755-.175 7.095 7.095 0 0 0-1.038-.071c-.82 0-1.529.17-2.127.51a3.251 3.251 0 0 0-1.371 1.459c-.316.645-.474 1.43-.474 2.355V194h-4.36Zm17.977 6.205c-.176 0-.369-.006-.58-.017a14.875 14.875 0 0 1-.51-.036v-3.427h.281c.094.011.194.017.299.017.902 0 1.541-.17 1.916-.51.387-.328.58-.92.58-1.775v-19.09h4.36v19.16c0 1.899-.528 3.317-1.582 4.254-1.055.949-2.643 1.424-4.764 1.424Zm4.166-27.51c-.68 0-1.26-.234-1.74-.703a2.3 2.3 0 0 1-.703-1.687c0-.668.234-1.231.703-1.688a2.398 2.398 0 0 1 1.74-.703c.691 0 1.271.234 1.74.703.469.457.703 1.02.703 1.688a2.3 2.3 0 0 1-.703 1.687c-.469.469-1.049.703-1.74.703Zm14.218 21.674c-1.864 0-3.469-.392-4.817-1.178-1.336-.785-2.361-1.898-3.076-3.339-.715-1.442-1.072-3.147-1.072-5.116v-.017c0-1.957.357-3.662 1.072-5.115.727-1.465 1.74-2.602 3.041-3.411 1.313-.808 2.859-1.213 4.641-1.213 1.769 0 3.298.393 4.588 1.178 1.3.774 2.296 1.863 2.988 3.27.703 1.406 1.055 3.047 1.055 4.922v1.406h-15.223v-2.918h13.131l-2.11 2.724v-1.687c0-1.219-.187-2.232-.562-3.041-.375-.809-.891-1.412-1.547-1.811-.656-.41-1.412-.615-2.268-.615-.867 0-1.64.211-2.32.633-.668.41-1.195 1.025-1.582 1.846-.375.82-.562 1.816-.562 2.988v1.687c0 1.137.187 2.11.562 2.918.387.797.932 1.413 1.635 1.846.703.422 1.541.633 2.513.633.727 0 1.366-.111 1.916-.334.551-.234 1.002-.533 1.354-.896.363-.364.615-.756.756-1.178l.035-.123h4.078l-.035.193a6.966 6.966 0 0 1-.844 2.109c-.41.68-.961 1.295-1.652 1.846-.692.551-1.512.99-2.461 1.319-.949.316-2.027.474-3.234.474Zm-187.983 43c-1.84 0-3.434-.392-4.781-1.178-1.348-.785-2.391-1.904-3.129-3.357-.727-1.453-1.09-3.176-1.09-5.168v-.018c0-1.98.369-3.691 1.107-5.132.739-1.454 1.776-2.573 3.112-3.358 1.347-.785 2.923-1.178 4.728-1.178 1.641 0 3.059.317 4.254.95 1.195.621 2.133 1.447 2.812 2.478a7.062 7.062 0 0 1 1.161 3.41v.123h-4.114l-.035-.14a4.16 4.16 0 0 0-1.283-2.303c-.668-.644-1.582-.967-2.742-.967-.914 0-1.717.252-2.408.756-.68.492-1.207 1.195-1.582 2.109-.375.915-.563 2.01-.563 3.288v.017c0 1.289.188 2.391.563 3.305.386.914.919 1.617 1.599 2.109.692.481 1.494.721 2.408.721 1.114 0 2.01-.299 2.69-.897.691-.609 1.137-1.4 1.336-2.373l.035-.158h4.131l-.018.123a7.239 7.239 0 0 1-1.23 3.481c-.703 1.031-1.647 1.851-2.83 2.461-1.184.597-2.561.896-4.131.896Zm19.192 0c-1.828 0-3.416-.387-4.764-1.16-1.347-.785-2.396-1.898-3.146-3.34-.738-1.453-1.107-3.181-1.107-5.185v-.036c0-1.992.375-3.709 1.125-5.15.75-1.453 1.798-2.566 3.146-3.34 1.348-.785 2.924-1.178 4.729-1.178 1.816 0 3.398.393 4.746 1.178 1.359.774 2.414 1.881 3.164 3.322.75 1.442 1.125 3.165 1.125 5.168v.036c0 2.015-.375 3.75-1.125 5.203-.739 1.441-1.782 2.549-3.129 3.322-1.348.773-2.936 1.16-4.764 1.16Zm.018-3.533c.925 0 1.728-.24 2.408-.721.68-.48 1.201-1.177 1.564-2.092.375-.925.563-2.039.563-3.339v-.036c0-1.289-.188-2.39-.563-3.304-.375-.914-.908-1.612-1.599-2.092-.68-.481-1.483-.721-2.408-.721-.903 0-1.7.24-2.391.721-.68.48-1.213 1.178-1.6 2.092-.375.914-.562 2.015-.562 3.304v.036c0 1.3.187 2.414.562 3.339.387.915.92 1.612 1.6 2.092.691.481 1.5.721 2.426.721ZM172.536 237v-18.633h4.36v2.918h.105a5.682 5.682 0 0 1 2.145-2.408c.961-.598 2.144-.897 3.55-.897 2.051 0 3.633.622 4.747 1.864 1.125 1.242 1.687 2.941 1.687 5.097V237h-4.377v-11.18c0-1.324-.31-2.343-.932-3.058-.621-.727-1.552-1.09-2.795-1.09-.832 0-1.558.193-2.179.58a3.774 3.774 0 0 0-1.442 1.582c-.339.668-.509 1.453-.509 2.355V237h-4.36Zm27.138.369c-1.934 0-3.375-.422-4.324-1.265-.938-.844-1.407-2.227-1.407-4.149v-10.213h-2.636v-3.375h2.636v-4.728h4.448v4.728h3.463v3.375h-3.463v9.862c0 .902.199 1.529.597 1.88.411.34 1.008.51 1.793.51.223 0 .416-.006.58-.017.176-.024.34-.041.493-.053v3.287c-.258.035-.575.07-.95.105-.363.036-.773.053-1.23.053Zm10.561-.053c-1.23 0-2.32-.234-3.269-.703-.938-.48-1.67-1.142-2.197-1.986-.516-.856-.774-1.834-.774-2.936v-.035c0-1.113.276-2.062.826-2.847.563-.797 1.371-1.424 2.426-1.881 1.055-.469 2.332-.75 3.832-.844l7.119-.439v2.9l-6.504.404c-1.078.071-1.904.328-2.478.774-.574.445-.861 1.037-.861 1.775v.018c0 .761.287 1.365.861 1.81.586.434 1.359.651 2.32.651.844 0 1.594-.17 2.25-.51a4.058 4.058 0 0 0 1.582-1.389c.387-.586.58-1.248.58-1.986v-5.59c0-.938-.299-1.676-.896-2.215-.586-.551-1.436-.826-2.549-.826-1.031 0-1.857.223-2.479.668-.621.433-1.007.996-1.16 1.687l-.035.159h-4.043l.018-.211a5.652 5.652 0 0 1 1.107-2.953c.645-.879 1.535-1.571 2.672-2.075 1.148-.504 2.508-.756 4.078-.756 1.559 0 2.906.258 4.043.774 1.149.516 2.033 1.236 2.654 2.162.633.926.95 2.016.95 3.27V237h-4.36v-2.865h-.105a5.963 5.963 0 0 1-1.371 1.687 6.072 6.072 0 0 1-1.934 1.108 6.731 6.731 0 0 1-2.303.386Zm21.97.053c-1.84 0-3.434-.392-4.781-1.178-1.348-.785-2.391-1.904-3.129-3.357-.727-1.453-1.09-3.176-1.09-5.168v-.018c0-1.98.369-3.691 1.107-5.132.739-1.454 1.776-2.573 3.112-3.358 1.347-.785 2.924-1.178 4.728-1.178 1.641 0 3.059.317 4.254.95 1.196.621 2.133 1.447 2.813 2.478a7.072 7.072 0 0 1 1.16 3.41v.123h-4.113l-.036-.14a4.153 4.153 0 0 0-1.283-2.303c-.668-.644-1.582-.967-2.742-.967-.914 0-1.717.252-2.408.756-.68.492-1.207 1.195-1.582 2.109-.375.915-.563 2.01-.563 3.288v.017c0 1.289.188 2.391.563 3.305.387.914.92 1.617 1.599 2.109.692.481 1.495.721 2.409.721 1.113 0 2.009-.299 2.689-.897.691-.609 1.137-1.4 1.336-2.373l.035-.158h4.131l-.018.123a7.239 7.239 0 0 1-1.23 3.481c-.703 1.031-1.646 1.851-2.83 2.461-1.184.597-2.561.896-4.131.896Zm17.856 0c-1.933 0-3.375-.422-4.324-1.265-.937-.844-1.406-2.227-1.406-4.149v-10.213h-2.637v-3.375h2.637v-4.728h4.447v4.728h3.463v3.375h-3.463v9.862c0 .902.199 1.529.598 1.88.41.34 1.008.51 1.793.51.223 0 .416-.006.58-.017a8.71 8.71 0 0 1 .492-.053v3.287c-.258.035-.574.07-.949.105-.363.036-.774.053-1.231.053Zm13.357 6.152c-1.641 0-3.076-.228-4.307-.685-1.219-.445-2.191-1.061-2.918-1.846-.726-.785-1.178-1.664-1.353-2.636l-.035-.159h4.289l.07.141c.234.539.715.984 1.441 1.336.739.363 1.67.545 2.795.545 1.43 0 2.526-.352 3.287-1.055.762-.703 1.143-1.646 1.143-2.83v-2.689h-.088a5.437 5.437 0 0 1-1.371 1.722 6.207 6.207 0 0 1-1.986 1.125 7.22 7.22 0 0 1-2.461.405c-1.559 0-2.918-.381-4.078-1.143-1.149-.762-2.04-1.84-2.672-3.234-.621-1.407-.932-3.077-.932-5.01v-.018c0-1.969.316-3.656.949-5.062.645-1.418 1.547-2.514 2.707-3.287 1.16-.774 2.526-1.161 4.096-1.161.879 0 1.687.153 2.426.458a5.904 5.904 0 0 1 1.933 1.23 6.373 6.373 0 0 1 1.371 1.863h.106v-3.164h4.377v18.106c0 1.406-.358 2.636-1.072 3.691-.715 1.066-1.729 1.893-3.041 2.479-1.313.586-2.871.878-4.676.878Zm-.123-10.001c.914 0 1.711-.241 2.39-.721.68-.492 1.207-1.184 1.582-2.074.387-.891.581-1.934.581-3.129v-.018c0-1.207-.194-2.25-.581-3.129-.386-.89-.919-1.576-1.599-2.056-.68-.481-1.471-.721-2.373-.721-.938 0-1.752.24-2.444.721-.691.48-1.224 1.16-1.599 2.039-.375.879-.563 1.927-.563 3.146v.018c0 1.218.188 2.273.563 3.164.375.879.908 1.558 1.599 2.039.692.48 1.506.721 2.444.721Zm20.809 3.849c-1.863 0-3.468-.392-4.816-1.178-1.336-.785-2.361-1.898-3.076-3.339-.715-1.442-1.073-3.147-1.073-5.116v-.017c0-1.957.358-3.662 1.073-5.115.726-1.465 1.74-2.602 3.041-3.411 1.312-.808 2.859-1.213 4.64-1.213 1.77 0 3.299.393 4.588 1.178 1.301.774 2.297 1.863 2.989 3.27.703 1.406 1.054 3.047 1.054 4.922v1.406h-15.222v-2.918h13.13l-2.109 2.724v-1.687c0-1.219-.187-2.232-.562-3.041-.375-.809-.891-1.412-1.547-1.811-.657-.41-1.412-.615-2.268-.615-.867 0-1.641.211-2.32.633-.668.41-1.196 1.025-1.582 1.846-.375.82-.563 1.816-.563 2.988v1.687c0 1.137.188 2.11.563 2.918.386.797.931 1.413 1.634 1.846.704.422 1.542.633 2.514.633.727 0 1.365-.111 1.916-.334.551-.234 1.002-.533 1.354-.896.363-.364.615-.756.756-1.178l.035-.123h4.078l-.035.193a6.992 6.992 0 0 1-.844 2.109c-.41.68-.961 1.295-1.652 1.846-.692.551-1.512.99-2.461 1.319-.95.316-2.028.474-3.235.474Zm19.738 6.152c-1.641 0-3.077-.228-4.307-.685-1.219-.445-2.192-1.061-2.918-1.846-.727-.785-1.178-1.664-1.354-2.636l-.035-.159h4.289l.071.141c.234.539.714.984 1.441 1.336.738.363 1.67.545 2.795.545 1.43 0 2.525-.352 3.287-1.055s1.143-1.646 1.143-2.83v-2.689h-.088a5.437 5.437 0 0 1-1.371 1.722 6.201 6.201 0 0 1-1.987 1.125c-.75.27-1.57.405-2.461.405-1.558 0-2.918-.381-4.078-1.143-1.148-.762-2.039-1.84-2.672-3.234-.621-1.407-.931-3.077-.931-5.01v-.018c0-1.969.316-3.656.949-5.062.645-1.418 1.547-2.514 2.707-3.287 1.16-.774 2.525-1.161 4.096-1.161.879 0 1.687.153 2.425.458a5.908 5.908 0 0 1 1.934 1.23 6.373 6.373 0 0 1 1.371 1.863h.106v-3.164h4.377v18.106c0 1.406-.358 2.636-1.073 3.691-.715 1.066-1.728 1.893-3.041 2.479-1.312.586-2.871.878-4.675.878Zm-.124-10.001c.915 0 1.711-.241 2.391-.721.68-.492 1.207-1.184 1.582-2.074.387-.891.58-1.934.58-3.129v-.018c0-1.207-.193-2.25-.58-3.129-.387-.89-.92-1.576-1.599-2.056-.68-.481-1.471-.721-2.374-.721-.937 0-1.751.24-2.443.721-.691.48-1.224 1.16-1.599 2.039-.375.879-.563 1.927-.563 3.146v.018c0 1.218.188 2.273.563 3.164.375.879.908 1.558 1.599 2.039.692.48 1.506.721 2.443.721Zm20.81 3.849c-1.863 0-3.469-.392-4.816-1.178-1.336-.785-2.362-1.898-3.077-3.339-.714-1.442-1.072-3.147-1.072-5.116v-.017c0-1.957.358-3.662 1.072-5.115.727-1.465 1.741-2.602 3.041-3.411 1.313-.808 2.86-1.213 4.641-1.213 1.77 0 3.299.393 4.588 1.178 1.301.774 2.297 1.863 2.988 3.27.703 1.406 1.055 3.047 1.055 4.922v1.406h-15.223v-2.918h13.131l-2.109 2.724v-1.687c0-1.219-.188-2.232-.563-3.041-.375-.809-.89-1.412-1.547-1.811-.656-.41-1.412-.615-2.267-.615-.867 0-1.641.211-2.321.633-.667.41-1.195 1.025-1.582 1.846-.375.82-.562 1.816-.562 2.988v1.687c0 1.137.187 2.11.562 2.918.387.797.932 1.413 1.635 1.846.703.422 1.541.633 2.514.633.726 0 1.365-.111 1.916-.334.551-.234 1.002-.533 1.353-.896.364-.364.616-.756.756-1.178l.035-.123h4.079l-.036.193a6.963 6.963 0 0 1-.843 2.109 6.979 6.979 0 0 1-1.653 1.846c-.691.551-1.511.99-2.461 1.319-.949.316-2.027.474-3.234.474Zm15.659-.369-6.592-18.633h4.659l4.324 14.572h.105l4.324-14.572h4.553L345.004 237h-4.817Zm21.038.369c-1.863 0-3.469-.392-4.816-1.178-1.336-.785-2.362-1.898-3.076-3.339-.715-1.442-1.073-3.147-1.073-5.116v-.017c0-1.957.358-3.662 1.073-5.115.726-1.465 1.74-2.602 3.041-3.411 1.312-.808 2.859-1.213 4.64-1.213 1.77 0 3.299.393 4.588 1.178 1.301.774 2.297 1.863 2.988 3.27.704 1.406 1.055 3.047 1.055 4.922v1.406h-15.223v-2.918h13.131l-2.109 2.724v-1.687c0-1.219-.188-2.232-.563-3.041-.375-.809-.89-1.412-1.546-1.811-.657-.41-1.413-.615-2.268-.615-.867 0-1.641.211-2.32.633-.668.41-1.196 1.025-1.582 1.846-.375.82-.563 1.816-.563 2.988v1.687c0 1.137.188 2.11.563 2.918.386.797.931 1.413 1.634 1.846.704.422 1.541.633 2.514.633.727 0 1.365-.111 1.916-.334.551-.234 1.002-.533 1.354-.896.363-.364.615-.756.755-1.178l.036-.123h4.078l-.035.193a6.992 6.992 0 0 1-.844 2.109c-.41.68-.961 1.295-1.653 1.846-.691.551-1.511.99-2.46 1.319-.95.316-2.028.474-3.235.474ZM372.56 237v-18.633h4.359v2.918h.106a5.68 5.68 0 0 1 2.144-2.408c.961-.598 2.145-.897 3.551-.897 2.051 0 3.633.622 4.746 1.864 1.125 1.242 1.688 2.941 1.688 5.097V237h-4.377v-11.18c0-1.324-.311-2.343-.932-3.058-.621-.727-1.553-1.09-2.795-1.09-.832 0-1.558.193-2.179.58a3.774 3.774 0 0 0-1.442 1.582c-.34.668-.51 1.453-.51 2.355V237h-4.359Zm27.507.369c-1.629 0-3.024-.24-4.184-.721-1.148-.48-2.051-1.154-2.707-2.021-.644-.879-1.037-1.893-1.178-3.041l-.017-.158h4.307l.035.158c.164.809.55 1.435 1.16 1.881.621.445 1.488.668 2.601.668.715 0 1.325-.088 1.829-.264.503-.176.89-.433 1.16-.773.281-.34.422-.739.422-1.196v-.017c0-.551-.188-.996-.563-1.336-.375-.352-1.049-.639-2.021-.861l-3.094-.686c-1.184-.27-2.174-.639-2.971-1.107-.797-.469-1.394-1.049-1.793-1.741-.398-.703-.597-1.517-.597-2.443v-.018c0-1.136.31-2.132.931-2.988.621-.855 1.494-1.523 2.619-2.004 1.125-.48 2.432-.721 3.92-.721 1.547 0 2.871.258 3.973.774 1.101.516 1.951 1.207 2.549 2.074.609.867.937 1.84.984 2.918l.018.193h-4.078l-.018-.14a2.75 2.75 0 0 0-1.02-1.846c-.586-.492-1.388-.738-2.408-.738-.644 0-1.207.094-1.687.281-.469.188-.832.451-1.09.791-.246.34-.369.738-.369 1.195v.018c0 .352.088.668.263.949.176.281.457.528.844.739.387.199.902.374 1.547.527l3.094.685c1.933.434 3.31 1.055 4.131 1.864.82.797 1.23 1.869 1.23 3.216v.018c0 1.172-.334 2.203-1.002 3.094-.668.879-1.594 1.564-2.777 2.056-1.172.481-2.52.721-4.043.721Zm18.222-.369v-18.633h4.377V237h-4.377Zm2.18-21.305c-.68 0-1.254-.234-1.723-.703a2.304 2.304 0 0 1-.703-1.687c0-.668.235-1.231.703-1.688.469-.469 1.043-.703 1.723-.703.691 0 1.272.234 1.74.703.469.457.703 1.02.703 1.688a2.3 2.3 0 0 1-.703 1.687c-.468.469-1.049.703-1.74.703ZM426.513 237v-18.633h4.359v2.918h.106a5.68 5.68 0 0 1 2.144-2.408c.961-.598 2.145-.897 3.551-.897 2.051 0 3.633.622 4.746 1.864 1.125 1.242 1.688 2.941 1.688 5.097V237h-4.377v-11.18c0-1.324-.311-2.343-.932-3.058-.621-.727-1.553-1.09-2.795-1.09-.832 0-1.558.193-2.179.58a3.767 3.767 0 0 0-1.442 1.582c-.34.668-.51 1.453-.51 2.355V237h-4.359Z"/></g><defs><filter id="a" width="482" height="364" x="47" y="122" color-interpolation-filters="sRGB" filterUnits="userSpaceOnUse"><feFlood flood-opacity="0" result="BackgroundImageFix"/><feColorMatrix in="SourceAlpha" result="hardAlpha" values="0 0 0 0 0 0 0 0 0 0 0 0 0 0 0 0 0 0 127 0"/><feOffset dy="16"/><feGaussianBlur stdDeviation="8"/><feComposite in2="hardAlpha" operator="out"/><feColorMatrix values="0 0 0 0 0 0 0 0 0 0 0 0 0 0 0 0 0 0 0.1 0"/><feBlend in2="BackgroundImageFix" result="effect1_dropShadow_1766_27612"/><feBlend in="SourceGraphic" in2="effect1_dropShadow_1766_27612" result="shape"/></filter></defs></svg>