<svg xmlns="http://www.w3.org/2000/svg" width="576" height="576" fill="none"><g clip-path="url(#a)"><circle cx="288" cy="288" r="256" fill="#fff" fill-opacity=".1"/><g filter="url(#b)"><path fill="#4B3300" d="M265.609 109H64.793C55.518 109 48 116.513 48 125.781v78.313c0 9.268 7.519 16.781 16.793 16.781h200.816c9.275 0 16.793-7.513 16.793-16.781v-78.313c0-9.268-7.518-16.781-16.793-16.781Z"/></g><path fill="#FAAA00" fill-rule="evenodd" d="m73.57 143.36-.473-1.376h-2.142a.818.818 0 1 1 0-1.636h2.65a.819.819 0 0 1 .849.548l.355 1.031 7.46-.068 7.91.072a.87.87 0 0 1 .867.953.864.864 0 0 1-.04.355l-3.485 10.529a.873.873 0 0 1-.853.597H77.87a.873.873 0 0 1-.853-.597L73.57 143.36Zm4.247 2.833h9.434a.818.818 0 1 0 0-1.636h-9.434a.818.818 0 1 0 0 1.636Zm1.197 3.96h7.04a.819.819 0 0 0 0-1.637h-7.04a.819.819 0 0 0 0 1.637Zm6.09 8.13a1.244 1.244 0 1 1 0-2.488 1.244 1.244 0 0 1 0 2.488Zm-5.14 0a1.244 1.244 0 1 1 0-2.489 1.244 1.244 0 0 1 0 2.489Z" clip-rule="evenodd"/><path fill="#FAAA00" d="M99.474 156v-16.751h6.687c3.575 0 5.758 1.985 5.758 5.224v.023c0 2.252-1.208 4.074-3.158 4.783l3.657 6.721h-3.413l-3.297-6.269h-3.239V156h-2.995Zm2.995-8.637h3.378c1.893 0 3.007-1.045 3.007-2.844v-.023c0-1.753-1.184-2.821-3.065-2.821h-3.32v5.688Zm16.914 8.881c-3.691 0-5.92-2.45-5.92-6.362v-.011c0-3.878 2.263-6.432 5.781-6.432 3.517 0 5.7 2.473 5.7 6.188v.929h-8.614c.046 2.159 1.231 3.436 3.111 3.436 1.44 0 2.38-.766 2.659-1.591l.023-.081h2.705l-.035.128c-.383 1.892-2.194 3.796-5.41 3.796Zm-.104-10.541c-1.533 0-2.682 1.033-2.914 2.926h5.769c-.209-1.951-1.323-2.926-2.855-2.926ZM126.94 156v-16.751h2.891v9.554h.058l4.597-5.108h3.343l-4.875 5.293 5.073 7.012h-3.332l-3.889-5.294-.975 1.022V156h-2.891Zm17.03.244c-3.691 0-5.92-2.45-5.92-6.362v-.011c0-3.878 2.264-6.432 5.781-6.432s5.7 2.473 5.7 6.188v.929h-8.614c.047 2.159 1.231 3.436 3.111 3.436 1.44 0 2.38-.766 2.659-1.591l.023-.081h2.705l-.035.128c-.383 1.892-2.194 3.796-5.41 3.796Zm-.104-10.541c-1.533 0-2.682 1.033-2.914 2.926h5.769c-.208-1.951-1.323-2.926-2.855-2.926ZM151.4 156v-12.305h2.89v1.927h.058c.639-1.324 1.893-2.183 3.762-2.183 2.704 0 4.248 1.742 4.248 4.597V156h-2.89v-7.383c0-1.753-.813-2.74-2.461-2.74-1.66 0-2.717 1.208-2.717 2.984V156h-2.89Zm14.812-14.07c-.905 0-1.613-.719-1.613-1.578a1.59 1.59 0 0 1 1.613-1.591 1.585 1.585 0 1 1 0 3.169ZM164.761 156v-12.305h2.891V156h-2.891Zm5.352 0v-12.305h2.89v1.927h.058c.639-1.324 1.893-2.183 3.762-2.183 2.704 0 4.248 1.742 4.248 4.597V156h-2.89v-7.383c0-1.753-.813-2.74-2.461-2.74-1.66 0-2.717 1.208-2.717 2.984V156h-2.89Zm18.829 4.307c-3.262 0-5.317-1.486-5.665-3.413l-.023-.105h2.844l.035.093c.313.708 1.3 1.242 2.809 1.242 1.881 0 2.914-.998 2.914-2.565v-1.776h-.058c-.685 1.312-2.078 2.147-3.843 2.147-3.088 0-5.073-2.368-5.073-6.199v-.011c0-3.889 2.009-6.281 5.12-6.281 1.741 0 3.088.929 3.784 2.345h.07v-2.089h2.89v11.957c0 2.786-2.24 4.655-5.804 4.655Zm-.081-6.606c1.799 0 3.006-1.52 3.006-3.912v-.011c0-2.38-1.218-3.901-3.006-3.901-1.858 0-3.03 1.498-3.03 3.889v.012c0 2.426 1.172 3.923 3.03 3.923Zm13.663 2.543c-3.691 0-5.92-2.45-5.92-6.362v-.011c0-3.878 2.263-6.432 5.781-6.432 3.517 0 5.7 2.473 5.7 6.188v.929h-8.614c.047 2.159 1.231 3.436 3.111 3.436 1.44 0 2.38-.766 2.659-1.591l.023-.081h2.705l-.035.128c-.383 1.892-2.194 3.796-5.41 3.796Zm-.104-10.541c-1.533 0-2.682 1.033-2.914 2.926h5.769c-.208-1.951-1.323-2.926-2.855-2.926ZM209.954 156v-12.305h2.89v1.927h.058c.639-1.324 1.893-2.183 3.762-2.183 2.704 0 4.248 1.742 4.248 4.597V156h-2.89v-7.383c0-1.753-.813-2.74-2.461-2.74-1.66 0-2.717 1.208-2.717 2.984V156h-2.89Z"/><path fill="#fff" d="M66.119 184.42c-.451 0-.793-.369-.793-.819 0-.478.342-.82.793-.82h1.585a15.313 15.313 0 0 1-.04-1.133c0-.41.013-.806.054-1.188h-1.6c-.45 0-.792-.369-.792-.82 0-.478.342-.819.793-.819h1.831c.957-4.357 4.168-7.047 8.528-7.047 3.662 0 6.355 1.789 7.502 4.671.137.327.192.669.192.942 0 .669-.451 1.12-1.107 1.12-.588 0-.998-.328-1.271-1.011-.916-2.267-2.938-3.441-5.316-3.441-2.87 0-5.084 1.802-5.945 4.766h7.325c.465 0 .806.341.806.819 0 .451-.341.82-.806.82h-7.64c-.027.382-.054.778-.054 1.188 0 .396.014.765.055 1.133h7.639c.465 0 .806.342.806.82 0 .45-.341.819-.806.819h-7.339c.82 3.018 3.048 4.834 5.972 4.834 2.378 0 4.428-.86 5.344-3.127.273-.683.656-1.01 1.244-1.01.656 0 1.08.423 1.08 1.092 0 .273-.042.615-.179.942-1.216 3.046-4.222 4.384-7.502 4.384-4.414 0-7.612-2.69-8.542-7.115H66.12Zm28.009 7.088c-.725 0-1.19-.396-1.19-1.011 0-.505.11-.724.698-1.338l6.314-6.583c2.651-2.772 3.28-3.823 3.28-5.476 0-2.007-1.545-3.482-3.663-3.482-2.132 0-3.622 1.106-4.291 3.223-.164.505-.438.86-1.107.86-.724 0-1.134-.451-1.134-1.093 0-.177.013-.327.04-.491.287-2.021 2.46-4.643 6.492-4.643 3.553 0 6.122 2.294 6.122 5.476 0 2.158-.984 3.783-4.359 7.238l-4.947 5.08v.055h8.61c.696 0 1.161.437 1.161 1.092 0 .656-.465 1.093-1.161 1.093H94.128Zm16.505-3.168c.697 0 1.189.409 1.189 1.078 0 .246-.027.451-.109.751l-1.257 4.698c-.151.588-.465.861-1.039.861-.547 0-.97-.314-.97-.861 0-.204.027-.341.041-.423l.97-5.067c.15-.751.533-1.037 1.175-1.037Zm11.832 3.496c-4.168 0-7.147-2.363-7.147-5.654 0-2.458 1.694-4.48 4.236-5.067v-.055c-2.173-.669-3.526-2.335-3.526-4.411 0-2.977 2.733-5.175 6.437-5.175 3.731 0 6.423 2.185 6.423 5.189 0 2.049-1.326 3.701-3.512 4.397v.055c2.555.601 4.25 2.622 4.25 5.067 0 3.305-2.979 5.654-7.161 5.654Zm0-11.691c2.337 0 3.991-1.352 3.991-3.263 0-1.94-1.64-3.292-3.991-3.292s-3.991 1.366-3.991 3.292c0 1.911 1.64 3.263 3.991 3.263Zm0 9.547c2.72 0 4.646-1.544 4.646-3.688 0-2.171-1.926-3.701-4.646-3.701-2.706 0-4.647 1.543-4.647 3.701 0 2.144 1.941 3.688 4.647 3.688Zm10.984 1.816c-.724 0-1.189-.396-1.189-1.011 0-.505.11-.724.697-1.338l6.314-6.583c2.651-2.772 3.28-3.823 3.28-5.476 0-2.007-1.544-3.482-3.663-3.482-2.132 0-3.621 1.106-4.291 3.223-.164.505-.437.86-1.107.86-.724 0-1.134-.451-1.134-1.093 0-.177.014-.327.041-.491.287-2.021 2.46-4.643 6.491-4.643 3.554 0 6.123 2.294 6.123 5.476 0 2.158-.984 3.783-4.36 7.238l-4.947 5.08v.055h8.61c.697 0 1.162.437 1.162 1.092 0 .656-.465 1.093-1.162 1.093h-10.865Zm17.298.246c-.669 0-1.134-.396-1.134-1.011 0-.273.055-.478.219-.792l8.282-15.91v-.055h-9.58c-.67 0-1.162-.423-1.162-1.092s.492-1.093 1.162-1.093h10.604c.984 0 1.545.547 1.545 1.489 0 .464-.164.847-.533 1.57l-8.296 16.184c-.259.505-.574.71-1.107.71Zm11.408-.11a1.54 1.54 0 0 1-1.558-1.556 1.54 1.54 0 0 1 1.558-1.557 1.54 1.54 0 0 1 1.558 1.557c0 .874-.683 1.556-1.558 1.556Zm10.152-6.915c-1.91 0-3.296-.684-4.069-1.998-.204-.355-.293-.674-.293-1.02 0-.444.276-.746.738-.746.364 0 .568.195.737.63.426 1.101 1.341 1.749 2.887 1.749 1.688 0 2.816-.959 2.825-2.299.009-1.58-1.12-2.468-2.923-2.468h-1.021c-.427 0-.72-.275-.72-.675 0-.399.293-.674.72-.674h.95c1.528 0 2.594-.941 2.594-2.219 0-1.27-.799-2.131-2.443-2.131-1.412 0-2.185.595-2.647 1.758-.16.461-.32.63-.719.63-.454 0-.711-.266-.711-.728 0-.364.08-.683.266-1.03.675-1.278 2.035-2.015 3.811-2.015 2.567 0 4.051 1.474 4.051 3.303 0 1.588-1.111 2.68-2.718 3.018v.035c1.865.16 3.135 1.323 3.135 3.143 0 2.201-1.936 3.737-4.45 3.737Zm6.338-.213c-.471 0-.773-.258-.773-.657 0-.329.071-.471.453-.87l4.104-4.279c1.723-1.802 2.132-2.485 2.132-3.559 0-1.305-1.004-2.264-2.381-2.264-1.386 0-2.354.719-2.789 2.095-.107.328-.284.559-.72.559-.47 0-.737-.293-.737-.71 0-.115.009-.213.027-.319.186-1.314 1.599-3.019 4.219-3.019 2.31 0 3.98 1.492 3.98 3.56 0 1.402-.64 2.459-2.834 4.705l-3.216 3.302v.035h5.597c.453 0 .755.284.755.711 0 .426-.302.71-.755.71h-7.062Z"/><g filter="url(#c)"><path fill="#4C0D19" d="M511.207 109H310.391c-9.275 0-16.793 7.513-16.793 16.781v78.313c0 9.268 7.518 16.781 16.793 16.781h200.816c9.275 0 16.793-7.513 16.793-16.781v-78.313c0-9.268-7.518-16.781-16.793-16.781Z"/></g><path fill="#FF2D55" fill-rule="evenodd" d="M329.426 139.476c-.614 0-1.203.244-1.639.678l-9.628 9.622a1.158 1.158 0 0 0 0 1.637l5.732 5.728a1.16 1.16 0 0 0 1.639 0l9.632-9.626a2.31 2.31 0 0 0 .679-1.626l.024-5.25a1.158 1.158 0 0 0-1.158-1.163h-5.281Zm4.128 3.472a1.158 1.158 0 1 0 .002-2.316 1.158 1.158 0 0 0-.002 2.316Z" clip-rule="evenodd"/><path fill="#FF2D55" d="M351.36 157.29c-3.843 0-6.373-1.811-6.571-4.817l-.011-.175h2.867l.023.14c.221 1.439 1.695 2.333 3.796 2.333 2.113 0 3.437-.94 3.437-2.38v-.011c0-1.254-.871-1.927-3.03-2.38l-1.8-.371c-3.297-.685-4.922-2.218-4.922-4.714v-.011c.012-2.949 2.601-4.945 6.211-4.945 3.657 0 6.048 1.927 6.222 4.794l.012.197h-2.868l-.023-.139c-.197-1.463-1.486-2.333-3.366-2.333-1.962.011-3.181.928-3.181 2.263v.012c0 1.184.917 1.88 2.937 2.298l1.811.372c3.482.72 5.003 2.136 5.003 4.748v.011c0 3.123-2.461 5.108-6.547 5.108Zm8.579-.29v-16.751h2.89v6.512h.07c.638-1.474 1.95-2.322 3.796-2.322 2.647 0 4.342 1.927 4.342 4.899V157h-2.891v-7.093c0-1.892-.952-3.03-2.612-3.03-1.637 0-2.705 1.242-2.705 3.03V157h-2.89Zm18.875.244c-3.622 0-5.955-2.415-5.955-6.397v-.023c0-3.947 2.368-6.385 5.944-6.385 3.587 0 5.967 2.415 5.967 6.385v.023c0 3.994-2.345 6.397-5.956 6.397Zm.012-2.334c1.822 0 2.995-1.485 2.995-4.063v-.023c0-2.565-1.184-4.04-3.018-4.04-1.8 0-2.995 1.486-2.995 4.04v.023c0 2.589 1.172 4.063 3.018 4.063Zm7.801 6.153v-16.368h2.89v2.124h.059c.708-1.474 2.054-2.38 3.819-2.38 3.123 0 5.096 2.438 5.096 6.408v.012c0 3.947-1.973 6.385-5.061 6.385-1.753 0-3.158-.882-3.854-2.322h-.059v6.141h-2.89Zm5.909-6.257c1.846 0 3.006-1.521 3.006-3.947v-.012c0-2.461-1.16-3.97-3.006-3.97-1.788 0-3.042 1.556-3.042 3.97v.012c0 2.403 1.254 3.947 3.042 3.947Zm7.812 6.257v-16.368h2.891v2.124h.058c.708-1.474 2.055-2.38 3.819-2.38 3.123 0 5.096 2.438 5.096 6.408v.012c0 3.947-1.973 6.385-5.061 6.385-1.753 0-3.158-.882-3.854-2.322h-.058v6.141h-2.891Zm5.909-6.257c1.846 0 3.007-1.521 3.007-3.947v-.012c0-2.461-1.161-3.97-3.007-3.97-1.788 0-3.041 1.556-3.041 3.97v.012c0 2.403 1.253 3.947 3.041 3.947Zm9.345-11.876c-.905 0-1.613-.719-1.613-1.578a1.59 1.59 0 0 1 1.613-1.591 1.585 1.585 0 1 1 0 3.169ZM414.151 157v-12.305h2.891V157h-2.891Zm5.352 0v-12.305h2.89v1.927h.058c.639-1.324 1.892-2.183 3.761-2.183 2.705 0 4.249 1.742 4.249 4.597V157h-2.89v-7.383c0-1.753-.813-2.74-2.461-2.74-1.66 0-2.717 1.208-2.717 2.984V157h-2.89Zm18.829 4.307c-3.262 0-5.317-1.486-5.665-3.413l-.023-.105h2.844l.035.093c.313.708 1.3 1.242 2.809 1.242 1.88 0 2.914-.998 2.914-2.565v-1.776h-.058c-.685 1.312-2.078 2.147-3.843 2.147-3.088 0-5.073-2.368-5.073-6.199v-.011c0-3.889 2.008-6.281 5.12-6.281 1.741 0 3.087.929 3.784 2.345h.07v-2.089h2.89v11.957c0 2.786-2.24 4.655-5.804 4.655Zm-.081-6.606c1.799 0 3.006-1.52 3.006-3.912v-.011c0-2.38-1.219-3.901-3.006-3.901-1.858 0-3.03 1.498-3.03 3.889v.012c0 2.426 1.172 3.923 3.03 3.923Z"/><path fill="#fff" d="M311.716 184.42c-.451 0-.792-.369-.792-.819 0-.478.341-.82.792-.82h1.585c-.026-.369-.04-.751-.04-1.133 0-.41.014-.806.054-1.188h-1.599c-.451 0-.792-.369-.792-.82 0-.478.341-.819.792-.819h1.832c.956-4.357 4.167-7.047 8.528-7.047 3.662 0 6.355 1.789 7.502 4.67.137.328.192.67.192.943 0 .669-.452 1.12-1.107 1.12-.588 0-.998-.328-1.272-1.011-.915-2.267-2.938-3.441-5.315-3.441-2.87 0-5.084 1.802-5.945 4.766h7.325c.464 0 .806.341.806.819 0 .451-.342.82-.806.82h-7.64c-.028.382-.054.778-.054 1.188 0 .396.014.764.054 1.133h7.64c.464 0 .806.342.806.82 0 .45-.342.819-.806.819h-7.339c.82 3.018 3.048 4.834 5.971 4.834 2.379 0 4.428-.86 5.345-3.127.273-.683.655-1.011 1.242-1.011.657 0 1.081.424 1.081 1.093 0 .273-.041.615-.178.942-1.216 3.046-4.223 4.384-7.502 4.384-4.415 0-7.613-2.69-8.542-7.115h-1.818Zm33.667 7.416c-2.883 0-5.316-1.434-6.246-3.66-.177-.424-.286-.806-.286-1.311 0-.697.45-1.148 1.147-1.148.602 0 .929.274 1.149.97.6 1.912 2.145 2.991 4.291 2.991 2.652 0 4.51-1.871 4.51-4.548 0-2.595-1.886-4.438-4.524-4.438-1.352 0-2.61.505-3.43 1.379-.875.929-1.079 1.052-1.695 1.052-.765 0-1.188-.56-1.188-1.27 0-.11 0-.192.012-.315l.697-7.811c.124-1.38.766-1.926 2.214-1.926h8.241c.697 0 1.162.437 1.162 1.093 0 .655-.465 1.092-1.162 1.092h-8.253l-.629 6.474h.055c.887-1.202 2.513-1.885 4.44-1.885 3.814 0 6.52 2.69 6.52 6.487 0 3.974-2.898 6.774-7.025 6.774Zm20.017-.082c-.697 0-1.188-.519-1.188-1.27v-3.073h-8.542c-.874 0-1.42-.546-1.42-1.393 0-.628.136-1.052.588-1.857 1.42-2.541 4.14-6.556 6.914-10.53 1.107-1.598 1.749-2.076 2.828-2.076 1.313 0 2.01.67 2.01 1.94v11.758h1.804c.656 0 1.147.423 1.147 1.079 0 .655-.491 1.079-1.147 1.079h-1.804v3.073c0 .751-.493 1.27-1.19 1.27Zm-1.188-6.501v-11.321h-.042c-3.648 5.217-5.862 8.467-7.461 11.266v.055h7.503Zm9.837 6.501c-.671 0-1.135-.396-1.135-1.011 0-.273.054-.478.218-.792l8.282-15.91v-.055h-9.579c-.67 0-1.162-.423-1.162-1.092s.492-1.093 1.162-1.093h10.605c.983 0 1.543.546 1.543 1.489 0 .464-.164.847-.533 1.57l-8.294 16.183c-.261.506-.574.711-1.107.711Zm11.408-.11a1.54 1.54 0 0 1-1.559-1.556 1.54 1.54 0 0 1 1.559-1.557c.874 0 1.557.682 1.557 1.557 0 .874-.683 1.556-1.557 1.556Zm10.145-6.915c-1.874 0-3.455-.933-4.059-2.379a2.077 2.077 0 0 1-.187-.853c0-.452.293-.745.746-.745.391 0 .605.177.746.63.392 1.243 1.395 1.944 2.791 1.944 1.722 0 2.93-1.216 2.93-2.956 0-1.686-1.226-2.885-2.94-2.885-.879 0-1.696.329-2.229.897-.569.603-.703.683-1.102.683-.498 0-.772-.364-.772-.825 0-.071 0-.125.008-.205l.454-5.077c.079-.897.496-1.252 1.438-1.252h5.357c.452 0 .754.284.754.71 0 .427-.302.711-.754.711h-5.365l-.409 4.207h.035c.578-.781 1.635-1.225 2.887-1.225 2.479 0 4.238 1.749 4.238 4.217 0 2.583-1.884 4.403-4.567 4.403Zm10.034.009c-1.918 0-3.447-1.039-4.237-2.885-.427-.986-.631-2.14-.631-3.525 0-4.314 1.838-6.844 4.974-6.844 1.643 0 3.074.764 3.793 2.016.161.275.231.497.231.754 0 .4-.311.684-.738.684-.319 0-.541-.169-.825-.622-.613-.968-1.404-1.42-2.479-1.42-2.114 0-3.33 1.855-3.41 5.193v.115h.026c.524-1.154 1.839-2.077 3.58-2.077 2.442 0 4.254 1.802 4.254 4.234 0 2.53-1.908 4.377-4.538 4.377Zm-.018-1.421c1.634 0 2.932-1.287 2.932-2.902 0-1.678-1.209-2.885-2.905-2.885-1.697 0-2.949 1.207-2.949 2.84 0 1.642 1.279 2.947 2.922 2.947Z"/><g filter="url(#d)"><path fill="#3C1040" d="M265.609 232.062H64.793c-9.275 0-16.793 7.514-16.793 16.782v78.312c0 9.268 7.519 16.782 16.793 16.782h200.816c9.275 0 16.793-7.514 16.793-16.782v-78.312c0-9.268-7.518-16.782-16.793-16.782Z"/></g><path fill="#C834D6" d="M79.409 279.776c1.466 1.119 3.036 1.66 5.7 1.66 2.665 0 4.175-.541 5.7-1.66 1.527-1.119 1.054-2.076.502-2.606-.131-.124-.344-.22-.593-.332-.748-.336-1.82-.818-1.963-2.691.308-.217 1.538-2.388 1.733-4.055.014-.122.03-.244.047-.364 1.267-.025 1.529-.702 1.92-1.986.343-1.126-.052-1.745-1.124-2.33.14-.808.292-1.767.457-2.935.646-4.578-4.315-6.006-6.679-6.006-.122 0-.253.004-.388.012-1.719.047-2.923.49-3.76.799-.433.159-.769.284-1.025.296.087.189.107.214.41.379-1.301.94-2.215 2.389-1.915 4.52.165 1.168.318 2.127.457 2.935-1.072.585-1.467 1.204-1.124 2.33.39 1.284.653 1.961 1.92 1.986.017.12.033.242.047.364.194 1.667 1.491 3.875 1.732 4.055-.142 1.873-1.214 2.355-1.962 2.691-.25.112-.462.208-.593.332-.552.53-.966 1.487.5 2.606Z"/><path fill="#C834D6" d="M74.936 277.653a5.358 5.358 0 0 1-1.557-.843c-1.056-.806-.758-1.495-.36-1.877.094-.09.247-.159.427-.239.538-.242 1.31-.59 1.413-1.937-.174-.13-1.108-1.72-1.248-2.92-.01-.089-.021-.176-.033-.263-.913-.018-1.102-.505-1.383-1.429-.247-.811.037-1.257.81-1.678a71.877 71.877 0 0 1-.33-2.113c-.216-1.534.442-2.578 1.38-3.254l.245-.168c.537-.372.996-.691 2.011-.827-.32.725-.453 1.586-.31 2.603.165 1.168.318 2.127.457 2.935-1.072.585-1.467 1.204-1.123 2.33.39 1.284.652 1.961 1.92 1.986.017.12.032.242.047.363.194 1.669 1.49 3.875 1.732 4.057-.065.918-.589 1.235-1.148 1.573-.313.192-.639.389-.9.704-.726.872-1.025 1.212-1.532 1.135a5.386 5.386 0 0 1-.518-.138Zm20.541 0c-.128.043-.3.089-.518.138-.507.077-.807-.263-1.532-1.135-.262-.315-.587-.512-.9-.704-.56-.338-1.083-.655-1.148-1.573.241-.182 1.538-2.388 1.732-4.057.014-.121.03-.243.047-.363 1.268-.025 1.53-.702 1.92-1.986.343-1.126-.052-1.745-1.124-2.33.14-.808.292-1.767.457-2.935.144-1.017.01-1.878-.31-2.603 1.016.136 1.475.455 2.012.827l.246.168c.937.676 1.595 1.72 1.378 3.254-.118.84-.228 1.531-.328 2.113.771.421 1.056.867.809 1.678-.282.924-.47 1.411-1.383 1.429l-.034.263c-.14 1.2-1.073 2.79-1.247 2.92.103 1.347.875 1.695 1.413 1.937.18.08.333.149.427.239.397.382.695 1.071-.36 1.877a5.358 5.358 0 0 1-1.558.843Zm19.357.637c-4.887 0-7.929-3.32-7.929-8.729v-.012c0-5.317 3.042-8.59 7.871-8.59 3.97 0 6.547 2.298 7.186 5.386l.046.186h-3.041l-.035-.128c-.638-1.799-2.09-2.844-4.144-2.844-3.019 0-4.829 2.205-4.829 5.967v.011c0 3.843 1.892 6.153 4.91 6.153 2.531 0 4.272-1.556 4.33-3.901l.012-.255h-4.156v-2.333h7.081v1.811c0 4.55-2.716 7.278-7.302 7.278Zm14.871-.046c-3.692 0-5.921-2.45-5.921-6.362v-.011c0-3.878 2.264-6.432 5.782-6.432 3.517 0 5.699 2.473 5.699 6.188v.929h-8.613c.046 2.159 1.23 3.436 3.111 3.436 1.439 0 2.38-.766 2.658-1.591l.023-.081h2.705l-.035.128c-.383 1.892-2.194 3.796-5.409 3.796Zm-.105-10.541c-1.532 0-2.681 1.033-2.913 2.926h5.769c-.209-1.951-1.323-2.926-2.856-2.926ZM136.891 278v-1.753l6.408-8.265v-.058h-6.35v-2.229h9.646v1.904l-6.152 8.114v.058h6.257V278h-9.809Zm15.578.209c-2.461 0-4.121-1.521-4.121-3.715v-.023c0-2.182 1.695-3.494 4.679-3.68l3.215-.197v-.848c0-1.242-.812-1.996-2.275-1.996-1.37 0-2.206.638-2.391 1.544l-.024.104h-2.681l.011-.139c.174-2.183 2.067-3.82 5.189-3.82 3.077 0 5.062 1.626 5.062 4.098V278h-2.891v-1.892h-.069c-.709 1.288-2.078 2.101-3.704 2.101Zm-1.242-3.831c0 1.01.836 1.625 2.101 1.625 1.66 0 2.914-1.103 2.914-2.565v-.929l-2.809.174c-1.428.093-2.206.708-2.206 1.683v.012ZM161.466 278v-12.305h2.891v1.973h.058c.522-1.346 1.787-2.229 3.413-2.229 1.718 0 2.96.906 3.413 2.485h.069c.592-1.533 2.055-2.485 3.831-2.485 2.426 0 4.017 1.649 4.017 4.11V278h-2.891v-7.731c0-1.521-.789-2.392-2.206-2.392-1.393 0-2.344 1.033-2.344 2.519V278h-2.81v-7.882c0-1.382-.836-2.241-2.182-2.241-1.393 0-2.368 1.091-2.368 2.589V278h-2.891Zm25.423.244c-3.692 0-5.92-2.45-5.92-6.362v-.011c0-3.878 2.263-6.432 5.781-6.432 3.517 0 5.7 2.473 5.7 6.188v.929h-8.614c.046 2.159 1.23 3.436 3.111 3.436 1.44 0 2.38-.766 2.658-1.591l.024-.081h2.704l-.034.128c-.383 1.892-2.194 3.796-5.41 3.796Zm-.104-10.541c-1.533 0-2.682 1.033-2.914 2.926h5.769c-.209-1.951-1.323-2.926-2.855-2.926ZM194.319 278v-12.305h2.89v1.927h.058c.639-1.324 1.892-2.183 3.761-2.183 2.705 0 4.249 1.742 4.249 4.597V278h-2.89v-7.383c0-1.753-.813-2.74-2.461-2.74-1.661 0-2.717 1.208-2.717 2.984V278h-2.89Zm13.361 0v-16.751h2.891V278h-2.891Zm6.884-14.07c-.905 0-1.614-.719-1.614-1.578 0-.883.709-1.591 1.614-1.591a1.585 1.585 0 1 1 0 3.169ZM213.113 278v-12.305h2.89V278h-2.89Zm6.861-14.07c-.894 0-1.614-.719-1.614-1.578 0-.883.72-1.591 1.614-1.591a1.59 1.59 0 0 1 1.613 1.591c0 .859-.708 1.578-1.613 1.578Zm-2.752 18.168c-.243 0-.545-.012-.719-.035v-2.264c.116 0 .243.012.383.012 1.195 0 1.648-.372 1.648-1.509v-12.607h2.891v12.653c0 2.496-1.405 3.75-4.203 3.75Zm6.78-4.098v-16.751h2.89v9.554h.058l4.597-5.108h3.344l-4.876 5.293 5.073 7.012h-3.332l-3.888-5.294-.976 1.022V278h-2.89Zm21.766.244c-3.227 0-5.073-1.533-5.328-3.819l-.012-.105h2.844l.023.105c.221 1.056 1.022 1.683 2.485 1.683 1.404 0 2.252-.569 2.252-1.475v-.011c0-.743-.43-1.161-1.707-1.451l-2.043-.453c-2.356-.522-3.54-1.672-3.54-3.494v-.012c0-2.252 1.961-3.773 4.933-3.773 3.065 0 4.853 1.684 4.957 3.808l.012.128h-2.694l-.011-.093c-.128-.987-.917-1.707-2.264-1.707-1.277 0-2.078.592-2.078 1.498v.012c0 .708.476 1.172 1.753 1.462l2.055.453c2.542.569 3.529 1.567 3.529 3.355v.011c0 2.322-2.148 3.878-5.166 3.878Zm7.012 3.819v-16.368h2.89v2.124h.058c.708-1.474 2.055-2.38 3.82-2.38 3.122 0 5.096 2.438 5.096 6.408v.012c0 3.947-1.974 6.385-5.062 6.385-1.753 0-3.157-.882-3.854-2.322h-.058v6.141h-2.89Zm5.908-6.257c1.846 0 3.007-1.521 3.007-3.947v-.012c0-2.461-1.161-3.97-3.007-3.97-1.787 0-3.041 1.556-3.041 3.97v.012c0 2.403 1.254 3.947 3.041 3.947Zm9.38 2.38a1.67 1.67 0 0 1-1.683-1.684c0-.928.743-1.671 1.683-1.671.941 0 1.672.743 1.672 1.671a1.66 1.66 0 0 1-1.672 1.684Zm4.957 0a1.67 1.67 0 0 1-1.683-1.684c0-.928.743-1.671 1.683-1.671.929 0 1.672.743 1.672 1.671 0 .941-.743 1.684-1.672 1.684Zm4.957 0a1.67 1.67 0 0 1-1.683-1.684c0-.928.743-1.671 1.683-1.671.929 0 1.672.743 1.672 1.671 0 .941-.743 1.684-1.672 1.684Z"/><path fill="#fff" d="M66.119 308.882c-.451 0-.793-.37-.793-.82 0-.478.342-.819.793-.819h1.585c-.027-.37-.04-.751-.04-1.135 0-.409.013-.805.054-1.187h-1.6c-.45 0-.792-.369-.792-.819 0-.479.342-.82.793-.82h1.831c.957-4.357 4.168-7.047 8.528-7.047 3.662 0 6.355 1.789 7.502 4.671.137.327.192.669.192.941 0 .67-.451 1.121-1.107 1.121-.588 0-.998-.328-1.271-1.012-.916-2.266-2.938-3.44-5.316-3.44-2.87 0-5.084 1.803-5.945 4.766h7.325c.465 0 .806.341.806.82 0 .45-.341.819-.806.819h-7.64a16.69 16.69 0 0 0-.054 1.187c0 .396.014.765.055 1.135h7.639c.465 0 .806.341.806.819 0 .45-.341.82-.806.82h-7.339c.82 3.017 3.048 4.834 5.972 4.834 2.378 0 4.428-.862 5.344-3.128.273-.683.656-1.01 1.244-1.01.656 0 1.08.422 1.08 1.092 0 .273-.042.614-.179.943-1.216 3.044-4.222 4.384-7.502 4.384-4.414 0-7.612-2.691-8.542-7.115H66.12Zm28.009 7.087c-.725 0-1.19-.396-1.19-1.011 0-.505.11-.723.698-1.339l6.314-6.582c2.651-2.772 3.28-3.823 3.28-5.476 0-2.007-1.545-3.482-3.663-3.482-2.132 0-3.622 1.106-4.291 3.223-.164.505-.438.86-1.107.86-.724 0-1.134-.45-1.134-1.092 0-.178.013-.329.04-.492.287-2.021 2.46-4.643 6.492-4.643 3.553 0 6.122 2.293 6.122 5.476 0 2.158-.984 3.783-4.359 7.238l-4.947 5.079v.056h8.61c.696 0 1.161.437 1.161 1.093 0 .655-.465 1.092-1.161 1.092H94.128Zm16.505-3.169c.697 0 1.189.41 1.189 1.08 0 .246-.027.45-.109.75l-1.257 4.698c-.151.587-.465.861-1.039.861-.547 0-.97-.314-.97-.861 0-.204.027-.341.041-.422l.97-5.067c.15-.752.533-1.039 1.175-1.039Zm11.586 3.496c-2.938 0-5.07-1.052-6.259-3.072-.314-.547-.451-1.038-.451-1.571 0-.682.424-1.147 1.134-1.147.561 0 .875.301 1.134.97.656 1.693 2.064 2.69 4.442 2.69 2.597 0 4.332-1.475 4.346-3.536.014-2.432-1.722-3.797-4.496-3.797h-1.572c-.656 0-1.107-.424-1.107-1.038 0-.615.451-1.039 1.107-1.039h1.462c2.351 0 3.991-1.447 3.991-3.413 0-1.953-1.23-3.278-3.758-3.278-2.173 0-3.362.916-4.073 2.704-.246.711-.492.969-1.107.969-.697 0-1.093-.409-1.093-1.12 0-.559.123-1.051.41-1.583 1.038-1.967 3.129-3.1 5.863-3.1 3.949 0 6.231 2.267 6.231 5.08 0 2.445-1.708 4.124-4.181 4.643v.055c2.869.246 4.824 2.034 4.824 4.834 0 3.387-2.98 5.749-6.847 5.749Zm12.488-.081c-.67 0-1.135-.396-1.135-1.011 0-.273.055-.478.219-.792l8.282-15.91v-.054h-9.58c-.67 0-1.162-.424-1.162-1.094 0-.668.492-1.092 1.162-1.092h10.605c.984 0 1.544.547 1.544 1.489 0 .465-.164.846-.533 1.571l-8.295 16.182c-.26.505-.575.711-1.107.711Zm18.733.081c-3.144 0-5.193-1.693-5.973-3.153-.232-.424-.327-.753-.327-1.107 0-.629.437-1.051 1.107-1.051.519 0 .86.244 1.298.955.943 1.489 2.009 2.212 3.922 2.212 3.294 0 5.111-2.895 5.234-7.975v-.232h-.041c-.833 1.953-2.993 3.223-5.507 3.223-3.759 0-6.546-2.773-6.546-6.514 0-3.893 2.938-6.733 6.983-6.733 2.966 0 5.316 1.598 6.519 4.424.656 1.516.97 3.292.97 5.436 0 6.637-2.815 10.515-7.639 10.515Zm.136-9.286c2.611 0 4.551-1.857 4.551-4.37 0-2.527-1.968-4.507-4.51-4.507-2.528 0-4.523 1.966-4.523 4.439 0 2.567 1.899 4.438 4.482 4.438Zm11.613 9.096a1.541 1.541 0 0 1-1.558-1.558 1.54 1.54 0 0 1 1.558-1.556c.875 0 1.558.682 1.558 1.556a1.54 1.54 0 0 1-1.558 1.558Zm12.466-6.97c-.453 0-.773-.337-.773-.825v-1.997h-5.552c-.568 0-.924-.355-.924-.906 0-.409.089-.684.382-1.207.924-1.652 2.692-4.261 4.495-6.844.72-1.039 1.137-1.35 1.839-1.35.853 0 1.306.435 1.306 1.26v7.644h1.172c.427 0 .746.276.746.701 0 .426-.319.702-.746.702h-1.172v1.997c0 .488-.32.825-.773.825Zm-.773-4.225v-7.358h-.027c-2.371 3.39-3.81 5.503-4.85 7.322v.036h4.877Zm8.47 4.278c-2.71 0-4.646-1.535-4.646-3.675 0-1.597 1.101-2.911 2.754-3.293v-.035c-1.413-.435-2.292-1.518-2.292-2.867 0-1.935 1.776-3.365 4.184-3.365 2.425 0 4.175 1.421 4.175 3.373 0 1.332-.862 2.406-2.283 2.859v.035c1.662.391 2.763 1.704 2.763 3.293 0 2.149-1.937 3.675-4.655 3.675Zm0-7.598c1.519 0 2.594-.879 2.594-2.121 0-1.261-1.066-2.14-2.594-2.14-1.528 0-2.594.888-2.594 2.14 0 1.242 1.066 2.121 2.594 2.121Zm0 6.205c1.767 0 3.02-1.004 3.02-2.397 0-1.411-1.253-2.405-3.02-2.405-1.759 0-3.02 1.003-3.02 2.405 0 1.393 1.261 2.397 3.02 2.397Z"/><g filter="url(#e)"><path fill="#00264C" d="M511.207 232.062H310.391c-9.275 0-16.793 7.514-16.793 16.782v78.312c0 9.268 7.518 16.782 16.793 16.782h200.816c9.275 0 16.793-7.514 16.793-16.782v-78.312c0-9.268-7.518-16.782-16.793-16.782Z"/></g><path fill="#0080FF" fill-rule="evenodd" d="M325.221 263.617a9.222 9.222 0 0 1 1.962-.21c4.558 0 8.253 3.303 8.253 7.378 0 .287-.018.569-.055.846-.063.56-.204 1.436-.421 2.632a360.482 360.482 0 0 1-.982 5.106 1.738 1.738 0 0 1-1.705 1.398h-.312a1.623 1.623 0 0 1-1.619-1.732l.101-1.47a9.091 9.091 0 0 1-3.26.598 9.27 9.27 0 0 1-1.06-.061l-.098 1.086a1.738 1.738 0 0 1-1.73 1.579h-.151a1.556 1.556 0 0 1-1.554-1.648l.012-.182a3.632 3.632 0 0 0-1.172-2.863 7.452 7.452 0 0 1-1.768-2.251h-.73c-.96 0-1.738-.778-1.738-1.736v-1.737c0-.958.778-1.735 1.738-1.735h.363c.539-1.569 1.648-2.916 3.111-3.847v-1.87c0-.48.389-.867.869-.867.231 0 .452.091.614.253l1.332 1.333Zm-2.38 6.733a1.303 1.303 0 1 0 0-2.606 1.303 1.303 0 0 0 0 2.606Zm13.029-3.433a1.302 1.302 0 1 1-.001-2.605 1.302 1.302 0 0 1 .001 2.605Z" clip-rule="evenodd"/><path fill="#0080FF" d="M351.36 279.29c-3.843 0-6.373-1.811-6.571-4.817l-.011-.175h2.867l.023.14c.221 1.439 1.695 2.333 3.796 2.333 2.113 0 3.437-.94 3.437-2.38v-.011c0-1.254-.871-1.927-3.03-2.38l-1.8-.371c-3.297-.685-4.922-2.218-4.922-4.714v-.011c.012-2.949 2.601-4.945 6.211-4.945 3.657 0 6.048 1.927 6.222 4.794l.012.197h-2.868l-.023-.139c-.197-1.463-1.486-2.333-3.366-2.333-1.962.011-3.181.928-3.181 2.263v.012c0 1.184.917 1.88 2.937 2.298l1.811.372c3.482.72 5.003 2.136 5.003 4.748v.011c0 3.123-2.461 5.108-6.547 5.108Zm8.497 3.773v-16.368h2.891v2.124h.058c.708-1.474 2.055-2.38 3.819-2.38 3.123 0 5.096 2.438 5.096 6.408v.012c0 3.947-1.973 6.385-5.061 6.385-1.753 0-3.157-.882-3.854-2.322h-.058v6.141h-2.891Zm5.909-6.257c1.846 0 3.007-1.521 3.007-3.947v-.012c0-2.461-1.161-3.97-3.007-3.97-1.788 0-3.041 1.556-3.041 3.97v.012c0 2.403 1.253 3.947 3.041 3.947Zm11.446 2.403c-2.461 0-4.121-1.521-4.121-3.715v-.023c0-2.182 1.695-3.494 4.679-3.68l3.215-.197v-.848c0-1.242-.812-1.996-2.275-1.996-1.37 0-2.206.638-2.392 1.544l-.023.104h-2.681l.011-.139c.174-2.183 2.067-3.82 5.189-3.82 3.077 0 5.062 1.626 5.062 4.098V279h-2.891v-1.892h-.07c-.708 1.288-2.077 2.101-3.703 2.101Zm-1.242-3.831c0 1.01.836 1.625 2.101 1.625 1.66 0 2.914-1.103 2.914-2.565v-.929l-2.809.174c-1.428.093-2.206.708-2.206 1.683v.012Zm13.873 3.831c-2.462 0-4.122-1.521-4.122-3.715v-.023c0-2.182 1.695-3.494 4.679-3.68l3.215-.197v-.848c0-1.242-.812-1.996-2.275-1.996-1.37 0-2.206.638-2.391 1.544l-.024.104h-2.681l.011-.139c.175-2.183 2.067-3.82 5.19-3.82 3.076 0 5.061 1.626 5.061 4.098V279h-2.891v-1.892h-.069c-.708 1.288-2.078 2.101-3.703 2.101Zm-1.243-3.831c0 1.01.836 1.625 2.102 1.625 1.66 0 2.913-1.103 2.913-2.565v-.929l-2.809.174c-1.428.093-2.206.708-2.206 1.683v.012ZM398.839 279v-12.305h2.891v2.124h.058c.383-1.486 1.404-2.38 2.821-2.38.36 0 .696.058.917.117v2.611c-.244-.092-.685-.162-1.173-.162-1.636 0-2.623 1.033-2.623 2.856V279h-2.891Zm13.257 4.307c-3.262 0-5.316-1.486-5.665-3.413l-.023-.105h2.844l.035.093c.313.708 1.3 1.242 2.809 1.242 1.881 0 2.914-.998 2.914-2.565v-1.776h-.058c-.685 1.312-2.078 2.147-3.842 2.147-3.088 0-5.073-2.368-5.073-6.199v-.011c0-3.889 2.008-6.281 5.119-6.281 1.741 0 3.088.929 3.784 2.345h.07v-2.089h2.891v11.957c0 2.786-2.241 4.655-5.805 4.655Zm-.081-6.606c1.799 0 3.007-1.52 3.007-3.912v-.011c0-2.38-1.219-3.901-3.007-3.901-1.857 0-3.03 1.498-3.03 3.889v.012c0 2.426 1.173 3.923 3.03 3.923Zm13.663 2.543c-3.691 0-5.92-2.45-5.92-6.362v-.011c0-3.878 2.264-6.432 5.781-6.432 3.518 0 5.7 2.473 5.7 6.188v.929h-8.614c.047 2.159 1.231 3.436 3.111 3.436 1.44 0 2.38-.766 2.659-1.591l.023-.081h2.705l-.035.128c-.383 1.892-2.194 3.796-5.41 3.796Zm-.104-10.541c-1.532 0-2.682 1.033-2.914 2.926h5.77c-.209-1.951-1.324-2.926-2.856-2.926ZM433.189 279v-16.751h2.891V279h-2.891Zm9.926.244c-3.112 0-5.085-2.438-5.085-6.397v-.011c0-3.97 1.985-6.397 5.073-6.397 1.741 0 3.146.894 3.842 2.369h.07v-6.559h2.891V279h-2.891v-2.09h-.07c-.696 1.452-2.054 2.334-3.83 2.334Zm.87-2.438c1.788 0 3.03-1.544 3.03-3.959v-.011c0-2.403-1.254-3.959-3.03-3.959-1.846 0-3.006 1.509-3.006 3.959v.011c0 2.45 1.149 3.959 3.006 3.959Z"/><path fill="#fff" d="M314.696 314.816c-.669 0-1.134-.395-1.134-1.011 0-.272.055-.478.218-.791l8.282-15.91v-.055h-9.58c-.669 0-1.162-.423-1.162-1.093 0-.669.493-1.092 1.162-1.092h10.605c.983 0 1.545.546 1.545 1.489 0 .464-.164.846-.534 1.57l-8.295 16.183c-.259.505-.574.71-1.107.71Zm19.239.082c-2.884 0-5.317-1.434-6.246-3.66-.177-.424-.287-.806-.287-1.31 0-.697.451-1.149 1.148-1.149.602 0 .929.274 1.147.971.602 1.912 2.147 2.99 4.292 2.99 2.651 0 4.511-1.87 4.511-4.548 0-2.594-1.887-4.437-4.525-4.437-1.353 0-2.609.505-3.43 1.379-.874.928-1.08 1.051-1.694 1.051-.766 0-1.19-.559-1.19-1.269 0-.11 0-.192.014-.315l.697-7.812c.123-1.379.766-1.925 2.214-1.925h8.241c.697 0 1.162.437 1.162 1.092 0 .656-.465 1.093-1.162 1.093h-8.255l-.628 6.474h.054c.889-1.203 2.515-1.885 4.442-1.885 3.813 0 6.519 2.69 6.519 6.487 0 3.973-2.897 6.773-7.024 6.773Zm12.364-.082c-.532 0-.929-.328-.929-.819 0-.246.068-.45.219-.656l6.41-9.164 6.231-8.972c.328-.477.56-.588.943-.588.465 0 .875.343.875.807a1 1 0 0 1-.206.642l-6.217 8.931-6.424 9.246c-.301.436-.519.573-.902.573Zm.205-10.187c-2.405 0-3.854-1.913-3.854-5 0-3.072 1.463-4.97 3.854-4.97 2.392 0 3.854 1.884 3.854 4.97 0 3.074-1.448 5-3.854 5Zm0-1.544c1.217 0 1.913-1.243 1.913-3.456 0-2.198-.71-3.427-1.913-3.427s-1.913 1.243-1.913 3.427c0 2.213.697 3.456 1.913 3.456Zm12.409 11.69c-2.406 0-3.854-1.912-3.854-4.998 0-3.073 1.462-4.971 3.854-4.971 2.392 0 3.854 1.884 3.854 4.971 0 3.073-1.448 4.998-3.854 4.998Zm0-1.543c1.216 0 1.913-1.243 1.913-3.455 0-2.199-.711-3.428-1.913-3.428S357 307.592 357 309.777c0 2.212.697 3.455 1.913 3.455Z"/><g filter="url(#f)"><path fill="#0E433C" d="M265.609 355.125H64.793c-9.275 0-16.793 7.513-16.793 16.781v78.313C48 459.487 55.519 467 64.793 467h200.816c9.275 0 16.793-7.513 16.793-16.781v-78.313c0-9.268-7.518-16.781-16.793-16.781Z"/></g><path fill="#2DE0C7" fill-rule="evenodd" d="M88.562 385.2c.846-.281 1.499-.228 1.957.159.389.459.427 1.063.16 1.955-.269.892-.759 1.604-1.429 2.274l-2.13 2.127 2.025 8.795a.58.58 0 0 1-.256.621l-1.604 1.011-.03.017a.58.58 0 0 1-.788-.23l-3.394-6.171-3.425 3.422.701 2.563a.402.402 0 0 1-.106.41l-1.27 1.268a.413.413 0 0 1-.303.119h-.027a.477.477 0 0 1-.317-.172l-2.5-3.329-3.333-2.498c-.097-.062-.154-.162-.171-.303a.452.452 0 0 1 .118-.331l1.27-1.282a.417.417 0 0 1 .304-.119.29.29 0 0 1 .106.014l2.566.699 3.425-3.422-6.28-3.62a.58.58 0 0 1-.115-.917l1.431-1.396a.576.576 0 0 1 .54-.148l8.484 2.026 2.116-2.114a5.772 5.772 0 0 1 2.275-1.428Z" clip-rule="evenodd"/><path fill="#2DE0C7" d="M99.474 403v-16.751h6.687c3.575 0 5.758 1.985 5.758 5.224v.023c0 2.252-1.208 4.074-3.158 4.783l3.657 6.721h-3.413l-3.297-6.269h-3.239V403h-2.995Zm2.995-8.637h3.378c1.893 0 3.007-1.045 3.007-2.844v-.023c0-1.753-1.184-2.821-3.065-2.821h-3.32v5.688Zm16.914 8.881c-3.691 0-5.92-2.45-5.92-6.362v-.011c0-3.878 2.263-6.432 5.781-6.432 3.517 0 5.7 2.473 5.7 6.188v.929h-8.614c.046 2.159 1.231 3.436 3.111 3.436 1.44 0 2.38-.766 2.659-1.591l.023-.081h2.705l-.035.128c-.383 1.892-2.194 3.796-5.41 3.796Zm-.104-10.541c-1.533 0-2.682 1.033-2.914 2.926h5.769c-.209-1.951-1.323-2.926-2.855-2.926Zm9.066-3.773c-.905 0-1.614-.719-1.614-1.578 0-.883.709-1.591 1.614-1.591a1.585 1.585 0 1 1 0 3.169ZM126.894 403v-12.305h2.89V403h-2.89Zm5.108 0v-1.753l6.408-8.265v-.058h-6.35v-2.229h9.647v1.904l-6.153 8.114v.058h6.257V403h-9.809Zm17.03.244c-3.692 0-5.921-2.45-5.921-6.362v-.011c0-3.878 2.264-6.432 5.781-6.432 3.518 0 5.7 2.473 5.7 6.188v.929h-8.613c.046 2.159 1.23 3.436 3.111 3.436 1.439 0 2.379-.766 2.658-1.591l.023-.081h2.705l-.035.128c-.383 1.892-2.194 3.796-5.409 3.796Zm-.105-10.541c-1.532 0-2.681 1.033-2.914 2.926h5.77c-.209-1.951-1.324-2.926-2.856-2.926ZM156.461 403v-12.305h2.891v1.927h.058c.638-1.324 1.892-2.183 3.761-2.183 2.705 0 4.249 1.742 4.249 4.597V403h-2.891v-7.383c0-1.753-.812-2.74-2.461-2.74-1.66 0-2.716 1.208-2.716 2.984V403h-2.891Z"/><path fill="#fff" d="M73.239 439.817c-.465 0-.82-.327-.82-.818v-1.762c-2.788-.246-5.194-1.667-5.836-4.083a2.384 2.384 0 0 1-.082-.616c0-.654.465-1.106 1.12-1.106.561 0 .985.287 1.217.971.45 1.407 1.49 2.471 3.58 2.703v-6.514l-.314-.081c-3.403-.82-5.234-2.336-5.234-5.026 0-2.937 2.31-4.877 5.548-5.163v-1.761c0-.492.356-.819.82-.819.465 0 .82.327.82.819v1.748c2.72.245 4.907 1.761 5.535 4.084.055.204.082.409.082.614 0 .655-.465 1.106-1.12 1.106-.643 0-1.025-.382-1.217-.969-.601-1.585-1.653-2.473-3.28-2.691v6.213l.424.097c3.512.846 5.48 2.293 5.48 5.161 0 3.291-2.678 5.081-5.904 5.327v1.748c0 .491-.355.818-.82.818Zm-3.991-16.496c0 1.339.82 2.376 3.17 2.95v-5.804c-2.077.273-3.17 1.529-3.17 2.854Zm4.892 5.681-.082-.014v6.132c2.542-.192 3.526-1.434 3.526-3.004 0-1.503-.738-2.458-3.444-3.114Zm20.835 8.877c-.697 0-1.19-.519-1.19-1.27v-15.992h-.054l-3.69 2.581c-.273.19-.533.287-.833.287-.574 0-.97-.41-.97-1.011 0-.437.163-.723.683-1.092l4.222-3.018c.766-.547 1.094-.684 1.654-.684.847 0 1.367.52 1.367 1.38v17.549c0 .751-.492 1.27-1.19 1.27Zm7.294-3.415c.697 0 1.189.41 1.189 1.08 0 .246-.027.45-.109.751l-1.257 4.697c-.151.587-.465.861-1.039.861-.547 0-.97-.314-.97-.861 0-.204.027-.341.041-.422l.97-5.067c.15-.752.533-1.039 1.175-1.039Zm12.105 3.496c-2.883 0-5.316-1.433-6.245-3.66-.178-.423-.287-.805-.287-1.31 0-.696.451-1.148 1.148-1.148.601 0 .929.274 1.148.97.601 1.912 2.145 2.99 4.291 2.99 2.651 0 4.51-1.869 4.51-4.547 0-2.595-1.886-4.438-4.524-4.438-1.353 0-2.61.505-3.43 1.379-.875.929-1.08 1.052-1.695 1.052-.765 0-1.189-.56-1.189-1.27 0-.109 0-.192.014-.315l.697-7.811c.123-1.379.765-1.926 2.214-1.926h8.241c.697 0 1.161.438 1.161 1.092 0 .656-.464 1.094-1.161 1.094h-8.255l-.628 6.473h.054c.889-1.202 2.515-1.885 4.442-1.885 3.813 0 6.519 2.691 6.519 6.487 0 3.973-2.898 6.773-7.025 6.773Zm16.096 0c-2.939 0-5.071-1.052-6.259-3.072-.315-.547-.451-1.038-.451-1.571 0-.682.423-1.146 1.134-1.146.56 0 .875.3 1.134.969.656 1.693 2.064 2.69 4.442 2.69 2.596 0 4.332-1.475 4.345-3.536.014-2.432-1.722-3.797-4.496-3.797h-1.571c-.656 0-1.107-.424-1.107-1.038 0-.615.451-1.039 1.107-1.039h1.462c2.351 0 3.991-1.447 3.991-3.413 0-1.953-1.23-3.278-3.759-3.278-2.173 0-3.362.916-4.072 2.704-.246.711-.492.969-1.107.969-.697 0-1.093-.409-1.093-1.12 0-.559.123-1.051.41-1.583 1.038-1.967 3.129-3.1 5.862-3.1 3.95 0 6.232 2.267 6.232 5.08 0 2.445-1.708 4.124-4.182 4.643v.055c2.87.246 4.824 2.034 4.824 4.834 0 3.387-2.979 5.749-6.846 5.749Zm16.683 0c-4.606 0-7.271-3.96-7.271-10.188 0-6.172 2.693-10.173 7.271-10.173 4.578 0 7.243 3.974 7.243 10.159 0 6.229-2.651 10.202-7.243 10.202Zm0-2.144c3.075 0 4.769-3.127 4.769-8.044 0-4.848-1.722-8.015-4.769-8.015-3.048 0-4.797 3.195-4.797 8.001 0 4.917 1.708 8.058 4.797 8.058Zm11.339 1.954a1.54 1.54 0 0 1-1.557-1.558c0-.874.683-1.556 1.557-1.556.875 0 1.558.682 1.558 1.556a1.54 1.54 0 0 1-1.558 1.558Zm7.059-6.97c-.436 0-.738-.257-.738-.656 0-.177.036-.312.142-.516l5.384-10.341v-.035h-6.227c-.436 0-.756-.276-.756-.711 0-.435.32-.71.756-.71h6.893c.639 0 1.004.355 1.004.968 0 .302-.107.551-.347 1.021l-5.392 10.519c-.169.328-.373.461-.719.461Zm11.658.053c-2.993 0-4.725-2.573-4.725-6.621 0-4.012 1.75-6.614 4.725-6.614 2.976 0 4.708 2.583 4.708 6.605 0 4.047-1.723 6.63-4.708 6.63Zm0-1.393c1.999 0 3.101-2.033 3.101-5.228 0-3.151-1.12-5.211-3.101-5.211-1.981 0-3.118 2.077-3.118 5.202 0 3.196 1.111 5.237 3.118 5.237Z"/><g filter="url(#g)"><path fill="#0F2B15" d="M511.207 355.125H310.391c-9.275 0-16.793 7.513-16.793 16.781v78.313c0 9.268 7.518 16.781 16.793 16.781h200.816c9.275 0 16.793-7.513 16.793-16.781v-78.313c0-9.268-7.518-16.781-16.793-16.781Z"/></g><path fill="#329146" fill-rule="evenodd" d="M336.208 391.821h-.34a8.99 8.99 0 0 0-6.223-6.218v-.339a.819.819 0 0 0-.82-.819h-3.282a.819.819 0 0 0-.82.819v.339a8.99 8.99 0 0 0-6.223 6.218h-.34a.82.82 0 0 0-.82.821v3.278a.82.82 0 0 0 .82.821h.34a8.99 8.99 0 0 0 6.223 6.219v.338c0 .454.367.82.82.82h3.282a.82.82 0 0 0 .82-.82v-.338a8.99 8.99 0 0 0 6.223-6.219h.34a.82.82 0 0 0 .82-.821v-3.278a.82.82 0 0 0-.82-.821Zm-9.025 5.74a3.285 3.285 0 0 1-3.281-3.28 3.284 3.284 0 0 1 3.281-3.279 3.284 3.284 0 0 1 3.282 3.279 3.285 3.285 0 0 1-3.282 3.28Zm6.96-5.74h-2.703a4.943 4.943 0 0 0-1.795-1.792v-2.701a7.346 7.346 0 0 1 4.498 4.493Zm-9.42-4.493v2.701a4.935 4.935 0 0 0-1.795 1.792h-2.703a7.346 7.346 0 0 1 4.498-4.493Zm-4.498 9.413h2.703a4.938 4.938 0 0 0 1.795 1.793v2.7a7.344 7.344 0 0 1-4.498-4.493Zm9.42 4.493v-2.7a4.946 4.946 0 0 0 1.795-1.793h2.703a7.344 7.344 0 0 1-4.498 4.493Z" clip-rule="evenodd"/><path fill="#329146" d="M345.474 403v-16.751h2.694l8.16 11.736h.07v-11.736h2.972V403h-2.67l-8.184-11.783h-.058V403h-2.984Zm22.01.244c-3.622 0-5.955-2.415-5.955-6.397v-.023c0-3.947 2.368-6.385 5.944-6.385 3.587 0 5.967 2.415 5.967 6.385v.023c0 3.994-2.345 6.397-5.956 6.397Zm.012-2.334c1.822 0 2.995-1.485 2.995-4.063v-.023c0-2.565-1.184-4.04-3.018-4.04-1.8 0-2.995 1.486-2.995 4.04v.023c0 2.589 1.172 4.063 3.018 4.063Zm13.245 2.334c-3.622 0-5.955-2.415-5.955-6.397v-.023c0-3.947 2.368-6.385 5.944-6.385 3.587 0 5.967 2.415 5.967 6.385v.023c0 3.994-2.345 6.397-5.956 6.397Zm.012-2.334c1.823 0 2.995-1.485 2.995-4.063v-.023c0-2.565-1.184-4.04-3.018-4.04-1.8 0-2.995 1.486-2.995 4.04v.023c0 2.589 1.172 4.063 3.018 4.063Zm12.375 2.334c-3.111 0-5.085-2.438-5.085-6.397v-.011c0-3.97 1.985-6.397 5.073-6.397 1.741 0 3.146.894 3.843 2.369h.069v-6.559h2.891V403h-2.891v-2.09h-.069c-.697 1.452-2.055 2.334-3.831 2.334Zm.87-2.438c1.788 0 3.03-1.544 3.03-3.959v-.011c0-2.403-1.253-3.959-3.03-3.959-1.845 0-3.006 1.509-3.006 3.959v.011c0 2.45 1.149 3.959 3.006 3.959Zm9.148 2.194v-10.076h-1.683v-2.229h1.683v-1.173c0-2.403 1.138-3.517 3.808-3.517.568 0 1.184.046 1.544.116v2.02a6.292 6.292 0 0 0-.871-.058c-1.126 0-1.648.522-1.648 1.521v1.091h2.472v2.229h-2.414V403h-2.891Zm11.678.244c-3.622 0-5.955-2.415-5.955-6.397v-.023c0-3.947 2.368-6.385 5.944-6.385 3.587 0 5.967 2.415 5.967 6.385v.023c0 3.994-2.345 6.397-5.956 6.397Zm.012-2.334c1.822 0 2.995-1.485 2.995-4.063v-.023c0-2.565-1.184-4.04-3.018-4.04-1.8 0-2.995 1.486-2.995 4.04v.023c0 2.589 1.172 4.063 3.018 4.063Zm7.801 2.09v-12.305h2.89v1.927h.059c.638-1.324 1.892-2.183 3.761-2.183 2.705 0 4.249 1.742 4.249 4.597V403h-2.891v-7.383c0-1.753-.813-2.74-2.461-2.74-1.66 0-2.717 1.208-2.717 2.984V403h-2.89Zm17.854.244c-3.111 0-5.085-2.438-5.085-6.397v-.011c0-3.97 1.986-6.397 5.073-6.397 1.742 0 3.146.894 3.843 2.369h.07v-6.559h2.89V403h-2.89v-2.09h-.07c-.697 1.452-2.055 2.334-3.831 2.334Zm.871-2.438c1.787 0 3.03-1.544 3.03-3.959v-.011c0-2.403-1.254-3.959-3.03-3.959-1.846 0-3.007 1.509-3.007 3.959v.011c0 2.45 1.149 3.959 3.007 3.959Zm13.152 2.438c-3.227 0-5.073-1.533-5.328-3.819l-.012-.105h2.844l.024.105c.22 1.056 1.021 1.683 2.484 1.683 1.405 0 2.252-.569 2.252-1.475v-.011c0-.743-.43-1.161-1.707-1.451l-2.043-.453c-2.356-.522-3.54-1.672-3.54-3.494v-.012c0-2.252 1.962-3.773 4.933-3.773 3.065 0 4.853 1.684 4.957 3.808l.012.128h-2.693l-.012-.093c-.128-.987-.917-1.707-2.264-1.707-1.277 0-2.078.592-2.078 1.498v.012c0 .708.476 1.172 1.753 1.462l2.055.453c2.542.569 3.529 1.567 3.529 3.355v.011c0 2.322-2.147 3.878-5.166 3.878Z"/><path fill="#fff" d="M311.716 430.546c-.451 0-.792-.37-.792-.82 0-.478.341-.819.792-.819h1.585c-.026-.37-.04-.751-.04-1.135 0-.409.014-.805.054-1.187h-1.599c-.451 0-.792-.369-.792-.819 0-.479.341-.82.792-.82h1.832c.956-4.357 4.167-7.047 8.528-7.047 3.662 0 6.355 1.789 7.502 4.671.137.328.192.669.192.941 0 .67-.452 1.121-1.107 1.121-.588 0-.998-.328-1.272-1.012-.915-2.266-2.938-3.44-5.315-3.44-2.87 0-5.084 1.803-5.945 4.766h7.325c.464 0 .806.341.806.82 0 .45-.342.819-.806.819h-7.64a16.12 16.12 0 0 0-.054 1.187c0 .396.014.765.054 1.135h7.64c.464 0 .806.341.806.819 0 .45-.342.82-.806.82h-7.339c.82 3.017 3.048 4.834 5.971 4.834 2.379 0 4.428-.861 5.345-3.128.273-.683.655-1.01 1.242-1.01.657 0 1.081.422 1.081 1.092 0 .273-.041.614-.178.943-1.216 3.044-4.223 4.384-7.502 4.384-4.415 0-7.613-2.691-8.542-7.115h-1.818Zm33.667 7.414c-4.167 0-7.147-2.362-7.147-5.654 0-2.457 1.695-4.479 4.236-5.066v-.055c-2.173-.668-3.526-2.335-3.526-4.411 0-2.977 2.734-5.175 6.437-5.175 3.731 0 6.423 2.184 6.423 5.189 0 2.049-1.325 3.701-3.512 4.397v.055c2.555.601 4.25 2.622 4.25 5.066 0 3.306-2.979 5.654-7.161 5.654Zm0-11.689c2.337 0 3.991-1.353 3.991-3.264 0-1.94-1.64-3.291-3.991-3.291s-3.99 1.365-3.99 3.291c0 1.911 1.639 3.264 3.99 3.264Zm0 9.545c2.719 0 4.646-1.542 4.646-3.687 0-2.171-1.927-3.701-4.646-3.701-2.706 0-4.646 1.543-4.646 3.701 0 2.145 1.94 3.687 4.646 3.687Zm11.368-1.352c.696 0 1.188.41 1.188 1.08 0 .246-.027.45-.11.751l-1.256 4.697c-.151.587-.465.861-1.039.861-.547 0-.971-.314-.971-.861 0-.204.028-.341.042-.422l.97-5.067c.15-.752.533-1.039 1.176-1.039Zm11.585 3.496c-2.938 0-5.07-1.052-6.259-3.072-.315-.547-.451-1.038-.451-1.571 0-.682.423-1.146 1.134-1.146.561 0 .874.3 1.135.969.656 1.693 2.062 2.69 4.441 2.69 2.596 0 4.331-1.475 4.345-3.536.014-2.432-1.721-3.797-4.496-3.797h-1.571c-.657 0-1.107-.424-1.107-1.038 0-.615.45-1.039 1.107-1.039h1.462c2.351 0 3.991-1.447 3.991-3.413 0-1.953-1.23-3.278-3.759-3.278-2.173 0-3.361.916-4.072 2.704-.246.711-.493.969-1.107.969-.697 0-1.093-.409-1.093-1.12 0-.559.123-1.051.41-1.583 1.039-1.967 3.129-3.1 5.862-3.1 3.949 0 6.232 2.267 6.232 5.08 0 2.445-1.707 4.124-4.182 4.643v.055c2.871.246 4.824 2.034 4.824 4.834 0 3.387-2.979 5.749-6.846 5.749Zm16.56 0c-2.883 0-5.317-1.433-6.246-3.66-.178-.423-.287-.805-.287-1.31 0-.696.452-1.148 1.149-1.148.6 0 .929.274 1.148.97.601 1.912 2.145 2.99 4.29 2.99 2.652 0 4.511-1.869 4.511-4.547 0-2.595-1.887-4.438-4.523-4.438-1.354 0-2.612.505-3.432 1.379-.874.929-1.079 1.052-1.694 1.052-.765 0-1.189-.56-1.189-1.27 0-.109 0-.192.014-.315l.697-7.811c.123-1.379.764-1.926 2.214-1.926h8.24c.697 0 1.161.438 1.161 1.092 0 .656-.464 1.094-1.161 1.094h-8.254l-.628 6.473h.054c.888-1.202 2.515-1.885 4.442-1.885 3.812 0 6.519 2.691 6.519 6.487 0 3.973-2.899 6.773-7.025 6.773Zm16.587.014c-2.951 0-5.302-1.597-6.519-4.439-.656-1.515-.969-3.29-.969-5.421 0-6.637 2.828-10.529 7.653-10.529 2.527 0 4.727 1.175 5.834 3.1.247.424.356.765.356 1.161 0 .614-.478 1.051-1.134 1.051-.492 0-.834-.26-1.271-.956-.943-1.488-2.159-2.184-3.813-2.184-3.252 0-5.125 2.854-5.248 7.989v.177h.041c.806-1.776 2.829-3.196 5.508-3.196 3.757 0 6.546 2.773 6.546 6.515 0 3.892-2.938 6.732-6.984 6.732Zm-.027-2.184c2.515 0 4.509-1.98 4.509-4.467 0-2.58-1.858-4.439-4.468-4.439s-4.537 1.859-4.537 4.371c0 2.527 1.968 4.535 4.496 4.535Zm11.463 1.98a1.54 1.54 0 0 1-1.558-1.558c0-.874.683-1.556 1.558-1.556s1.557.682 1.557 1.556a1.54 1.54 0 0 1-1.557 1.558Zm9.273-6.917c-2.709 0-4.646-1.535-4.646-3.675 0-1.597 1.101-2.911 2.754-3.293v-.035c-1.412-.435-2.292-1.518-2.292-2.867 0-1.935 1.777-3.365 4.184-3.365 2.425 0 4.176 1.421 4.176 3.373 0 1.332-.862 2.406-2.284 2.859v.035c1.661.391 2.762 1.704 2.762 3.293 0 2.149-1.936 3.675-4.654 3.675Zm0-7.598c1.52 0 2.594-.879 2.594-2.121 0-1.261-1.066-2.14-2.594-2.14-1.528 0-2.593.888-2.593 2.14 0 1.242 1.065 2.121 2.593 2.121Zm0 6.205c1.767 0 3.02-1.004 3.02-2.397 0-1.411-1.253-2.405-3.02-2.405-1.759 0-3.02 1.003-3.02 2.405 0 1.393 1.261 2.397 3.02 2.397Zm10.3 1.403c-1.919 0-3.447-1.039-4.238-2.885-.425-.986-.63-2.14-.63-3.524 0-4.314 1.839-6.844 4.974-6.844 1.644 0 3.075.764 3.794 2.015.159.274.231.497.231.754 0 .4-.311.684-.738.684-.32 0-.541-.169-.825-.621-.613-.968-1.404-1.421-2.479-1.421-2.114 0-3.332 1.856-3.412 5.192v.116h.027c.525-1.153 1.839-2.078 3.58-2.078 2.443 0 4.255 1.803 4.255 4.235 0 2.53-1.91 4.377-4.539 4.377Zm-.019-1.421c1.635 0 2.932-1.286 2.932-2.903 0-1.677-1.207-2.885-2.905-2.885-1.696 0-2.949 1.208-2.949 2.842 0 1.641 1.28 2.946 2.922 2.946Z"/></g><defs><filter id="b" width="282.402" height="159.875" x="24" y="109" color-interpolation-filters="sRGB" filterUnits="userSpaceOnUse"><feFlood flood-opacity="0" result="BackgroundImageFix"/><feColorMatrix in="SourceAlpha" result="hardAlpha" values="0 0 0 0 0 0 0 0 0 0 0 0 0 0 0 0 0 0 127 0"/><feOffset dy="24"/><feGaussianBlur stdDeviation="12"/><feComposite in2="hardAlpha" operator="out"/><feColorMatrix values="0 0 0 0 0 0 0 0 0 0 0 0 0 0 0 0 0 0 0.15 0"/><feBlend in2="BackgroundImageFix" result="effect1_dropShadow_4944_171751"/><feBlend in="SourceGraphic" in2="effect1_dropShadow_4944_171751" result="shape"/></filter><filter id="c" width="282.402" height="159.875" x="269.598" y="109" color-interpolation-filters="sRGB" filterUnits="userSpaceOnUse"><feFlood flood-opacity="0" result="BackgroundImageFix"/><feColorMatrix in="SourceAlpha" result="hardAlpha" values="0 0 0 0 0 0 0 0 0 0 0 0 0 0 0 0 0 0 127 0"/><feOffset dy="24"/><feGaussianBlur stdDeviation="12"/><feComposite in2="hardAlpha" operator="out"/><feColorMatrix values="0 0 0 0 0 0 0 0 0 0 0 0 0 0 0 0 0 0 0.15 0"/><feBlend in2="BackgroundImageFix" result="effect1_dropShadow_4944_171751"/><feBlend in="SourceGraphic" in2="effect1_dropShadow_4944_171751" result="shape"/></filter><filter id="d" width="282.402" height="159.875" x="24" y="232.062" color-interpolation-filters="sRGB" filterUnits="userSpaceOnUse"><feFlood flood-opacity="0" result="BackgroundImageFix"/><feColorMatrix in="SourceAlpha" result="hardAlpha" values="0 0 0 0 0 0 0 0 0 0 0 0 0 0 0 0 0 0 127 0"/><feOffset dy="24"/><feGaussianBlur stdDeviation="12"/><feComposite in2="hardAlpha" operator="out"/><feColorMatrix values="0 0 0 0 0 0 0 0 0 0 0 0 0 0 0 0 0 0 0.15 0"/><feBlend in2="BackgroundImageFix" result="effect1_dropShadow_4944_171751"/><feBlend in="SourceGraphic" in2="effect1_dropShadow_4944_171751" result="shape"/></filter><filter id="e" width="282.402" height="159.875" x="269.598" y="232.062" color-interpolation-filters="sRGB" filterUnits="userSpaceOnUse"><feFlood flood-opacity="0" result="BackgroundImageFix"/><feColorMatrix in="SourceAlpha" result="hardAlpha" values="0 0 0 0 0 0 0 0 0 0 0 0 0 0 0 0 0 0 127 0"/><feOffset dy="24"/><feGaussianBlur stdDeviation="12"/><feComposite in2="hardAlpha" operator="out"/><feColorMatrix values="0 0 0 0 0 0 0 0 0 0 0 0 0 0 0 0 0 0 0.15 0"/><feBlend in2="BackgroundImageFix" result="effect1_dropShadow_4944_171751"/><feBlend in="SourceGraphic" in2="effect1_dropShadow_4944_171751" result="shape"/></filter><filter id="f" width="282.402" height="159.875" x="24" y="355.125" color-interpolation-filters="sRGB" filterUnits="userSpaceOnUse"><feFlood flood-opacity="0" result="BackgroundImageFix"/><feColorMatrix in="SourceAlpha" result="hardAlpha" values="0 0 0 0 0 0 0 0 0 0 0 0 0 0 0 0 0 0 127 0"/><feOffset dy="24"/><feGaussianBlur stdDeviation="12"/><feComposite in2="hardAlpha" operator="out"/><feColorMatrix values="0 0 0 0 0 0 0 0 0 0 0 0 0 0 0 0 0 0 0.15 0"/><feBlend in2="BackgroundImageFix" result="effect1_dropShadow_4944_171751"/><feBlend in="SourceGraphic" in2="effect1_dropShadow_4944_171751" result="shape"/></filter><filter id="g" width="282.402" height="159.875" x="269.598" y="355.125" color-interpolation-filters="sRGB" filterUnits="userSpaceOnUse"><feFlood flood-opacity="0" result="BackgroundImageFix"/><feColorMatrix in="SourceAlpha" result="hardAlpha" values="0 0 0 0 0 0 0 0 0 0 0 0 0 0 0 0 0 0 127 0"/><feOffset dy="24"/><feGaussianBlur stdDeviation="12"/><feComposite in2="hardAlpha" operator="out"/><feColorMatrix values="0 0 0 0 0 0 0 0 0 0 0 0 0 0 0 0 0 0 0.15 0"/><feBlend in2="BackgroundImageFix" result="effect1_dropShadow_4944_171751"/><feBlend in="SourceGraphic" in2="effect1_dropShadow_4944_171751" result="shape"/></filter><clipPath id="a"><path fill="#fff" d="M32 32h512v512H32z"/></clipPath></defs></svg>