<svg display="block" role="presentation" viewBox="0 0 48 48" xmlns="http://www.w3.org/2000/svg"><g d="M 0 24 C 0 10.745 10.745 0 24 0 C 37.255 0 48 10.745 48 24 C 48 37.255 37.255 48 24 48 C 10.745 48 0 37.255 0 24 Z M 0 24 C 0 10.745 10.745 0 24 0 C 37.255 0 48 10.745 48 24 C 48 37.255 37.255 48 24 48 C 10.745 48 0 37.255 0 24 Z M 32.21 13.263 L 33.175 16.088 L 36 17.053 L 33.175 18.017 L 32.211 20.842 L 31.246 18.017 L 28.421 17.053 L 31.246 16.088 L 32.211 13.263 Z M 18.316 24.632 L 19.28 27.456 L 22.105 28.421 L 19.28 29.386 L 18.316 32.211 L 17.351 29.386 L 14.526 28.421 L 17.351 27.456 Z M 14.526 14.526 L 15.169 16.41 L 17.053 17.053 L 15.169 17.696 L 14.526 19.579 L 13.883 17.696 L 12 17.053 L 13.883 16.41 Z M 33.474 27.158 L 33.795 28.099 L 34.737 28.421 L 33.795 28.743 L 33.474 29.684 L 33.152 28.743 L 32.211 28.421 L 33.152 28.099 Z M 29.684 32.21 L 30.006 33.152 L 30.947 33.474 L 30.006 33.795 L 29.684 34.737 L 29.363 33.795 L 28.421 33.474 L 29.363 33.152 L 29.684 32.211 Z M 13.929 19.783 C 14.017 20.038 14.257 20.209 14.527 20.209 C 14.796 20.209 15.036 20.038 15.124 19.783 L 15.667 18.193 L 17.257 17.65 C 17.512 17.562 17.683 17.322 17.683 17.052 C 17.683 16.783 17.512 16.543 17.257 16.455 L 15.919 15.998 L 16.957 14.843 C 17.144 14.639 17.408 14.524 17.684 14.526 L 29.053 14.526 C 29.329 14.524 29.593 14.639 29.78 14.843 L 30.522 15.668 L 28.217 16.455 C 27.962 16.543 27.791 16.783 27.791 17.052 C 27.791 17.322 27.962 17.562 28.217 17.65 L 30.748 18.515 L 31.613 21.046 C 31.7 21.302 31.941 21.474 32.211 21.474 C 32.481 21.474 32.722 21.302 32.809 21.046 L 33.509 18.994 L 34.517 20.115 C 34.795 20.417 34.811 20.877 34.554 21.197 L 24.133 34.379 C 23.946 34.608 23.664 34.74 23.368 34.737 C 23.072 34.74 22.791 34.608 22.604 34.379 L 19.558 30.526 L 19.778 29.883 L 22.309 29.019 C 22.565 28.932 22.737 28.691 22.737 28.421 C 22.737 28.151 22.565 27.91 22.309 27.823 L 19.778 26.959 L 18.913 24.427 C 18.825 24.172 18.585 24.001 18.316 24.001 C 18.046 24.001 17.806 24.172 17.718 24.427 L 16.853 26.959 L 16.763 26.99 L 12.183 21.197 C 11.927 20.877 11.942 20.418 12.22 20.116 L 13.54 18.646 Z M 29.073 21.556 C 29.585 21.556 30 21.163 30 20.678 C 30 20.192 29.585 19.799 29.073 19.799 L 17.663 19.799 C 17.152 19.799 16.737 20.192 16.737 20.678 C 16.737 21.163 17.152 21.557 17.664 21.557 L 29.074 21.557 Z M 14.024 18.107 L 15.46 16.509 L 17.053 17.053 L 15.169 17.696 L 14.526 19.579 Z M 17.178 27.516 L 19.092 29.936 L 19.28 29.386 L 22.105 28.421 L 19.28 27.456 L 18.316 24.632 L 17.351 27.456 Z M 30.98 16.179 L 33.026 18.455 L 32.21 20.842 L 31.246 18.017 L 28.421 17.053 L 30.981 16.179 Z M 24 0.5 C 36.979 0.5 47.5 11.021 47.5 24 C 47.5 36.979 36.979 47.5 24 47.5 C 11.021 47.5 0.5 36.979 0.5 24 C 0.5 11.021 11.021 0.5 24 0.5 Z" fill="transparent" height="48px" id="TRSuIykpC" width="48px"><g d="M 0 24 C 0 10.745 10.745 0 24 0 C 37.255 0 48 10.745 48 24 C 48 37.255 37.255 48 24 48 C 10.745 48 0 37.255 0 24 Z M 0 24 C 0 10.745 10.745 0 24 0 C 37.255 0 48 10.745 48 24 C 48 37.255 37.255 48 24 48 C 10.745 48 0 37.255 0 24 Z M 32.21 13.263 L 33.175 16.088 L 36 17.053 L 33.175 18.017 L 32.211 20.842 L 31.246 18.017 L 28.421 17.053 L 31.246 16.088 L 32.211 13.263 Z M 18.316 24.632 L 19.28 27.456 L 22.105 28.421 L 19.28 29.386 L 18.316 32.211 L 17.351 29.386 L 14.526 28.421 L 17.351 27.456 Z M 14.526 14.526 L 15.169 16.41 L 17.053 17.053 L 15.169 17.696 L 14.526 19.579 L 13.883 17.696 L 12 17.053 L 13.883 16.41 Z M 33.474 27.158 L 33.795 28.099 L 34.737 28.421 L 33.795 28.743 L 33.474 29.684 L 33.152 28.743 L 32.211 28.421 L 33.152 28.099 Z M 29.684 32.21 L 30.006 33.152 L 30.947 33.474 L 30.006 33.795 L 29.684 34.737 L 29.363 33.795 L 28.421 33.474 L 29.363 33.152 L 29.684 32.211 Z M 13.929 19.783 C 14.017 20.038 14.257 20.209 14.527 20.209 C 14.796 20.209 15.036 20.038 15.124 19.783 L 15.667 18.193 L 17.257 17.65 C 17.512 17.562 17.683 17.322 17.683 17.052 C 17.683 16.783 17.512 16.543 17.257 16.455 L 15.919 15.998 L 16.957 14.843 C 17.144 14.639 17.408 14.524 17.684 14.526 L 29.053 14.526 C 29.329 14.524 29.593 14.639 29.78 14.843 L 30.522 15.668 L 28.217 16.455 C 27.962 16.543 27.791 16.783 27.791 17.052 C 27.791 17.322 27.962 17.562 28.217 17.65 L 30.748 18.515 L 31.613 21.046 C 31.7 21.302 31.941 21.474 32.211 21.474 C 32.481 21.474 32.722 21.302 32.809 21.046 L 33.509 18.994 L 34.517 20.115 C 34.795 20.417 34.811 20.877 34.554 21.197 L 24.133 34.379 C 23.946 34.608 23.664 34.74 23.368 34.737 C 23.072 34.74 22.791 34.608 22.604 34.379 L 19.558 30.526 L 19.778 29.883 L 22.309 29.019 C 22.565 28.932 22.737 28.691 22.737 28.421 C 22.737 28.151 22.565 27.91 22.309 27.823 L 19.778 26.959 L 18.913 24.427 C 18.825 24.172 18.585 24.001 18.316 24.001 C 18.046 24.001 17.806 24.172 17.718 24.427 L 16.853 26.959 L 16.763 26.99 L 12.183 21.197 C 11.927 20.877 11.942 20.418 12.22 20.116 L 13.54 18.646 Z M 29.073 21.556 C 29.585 21.556 30 21.163 30 20.678 C 30 20.192 29.585 19.799 29.073 19.799 L 17.663 19.799 C 17.152 19.799 16.737 20.192 16.737 20.678 C 16.737 21.163 17.152 21.557 17.664 21.557 L 29.074 21.557 Z M 14.024 18.107 L 15.46 16.509 L 17.053 17.053 L 15.169 17.696 L 14.526 19.579 Z M 17.178 27.516 L 19.092 29.936 L 19.28 29.386 L 22.105 28.421 L 19.28 27.456 L 18.316 24.632 L 17.351 27.456 Z M 30.98 16.179 L 33.026 18.455 L 32.21 20.842 L 31.246 18.017 L 28.421 17.053 L 30.981 16.179 Z" fill="transparent" height="48px" id="dcDQlELDo" width="48px"><path d="M 0 24 C 0 10.745 10.745 0 24 0 C 37.255 0 48 10.745 48 24 C 48 37.255 37.255 48 24 48 C 10.745 48 0 37.255 0 24 Z" fill="transparent" height="48px" id="bvMbrzxtF" width="48px"/><path d="M 0 24 C 0 10.745 10.745 0 24 0 C 37.255 0 48 10.745 48 24 C 48 37.255 37.255 48 24 48 C 10.745 48 0 37.255 0 24 Z" fill="rgb(46, 0, 31)" height="48px" id="lHnPEPL_X" width="48px"/><path d="M 20.21 0 L 21.175 2.825 L 24 3.79 L 21.175 4.754 L 20.211 7.579 L 19.246 4.754 L 16.421 3.79 L 19.246 2.825 L 20.211 0 Z M 6.316 11.369 L 7.28 14.193 L 10.105 15.158 L 7.28 16.123 L 6.316 18.948 L 5.351 16.123 L 2.526 15.158 L 5.351 14.193 Z M 2.526 1.263 L 3.169 3.147 L 5.053 3.79 L 3.169 4.433 L 2.526 6.316 L 1.883 4.433 L 0 3.79 L 1.883 3.147 Z M 21.474 13.895 L 21.795 14.836 L 22.737 15.158 L 21.795 15.48 L 21.474 16.421 L 21.152 15.48 L 20.211 15.158 L 21.152 14.836 Z M 17.684 18.947 L 18.006 19.889 L 18.947 20.211 L 18.006 20.532 L 17.684 21.474 L 17.363 20.532 L 16.421 20.211 L 17.363 19.889 L 17.684 18.948 Z" fill="rgb(255, 0, 170)" height="21.47400050354004px" id="YRmXT7CKC" transform="translate(12 13.263)" width="23.99999952697754px"/><path d="M 1.928 5.257 C 2.016 5.512 2.256 5.683 2.526 5.683 C 2.795 5.683 3.035 5.512 3.123 5.257 L 3.666 3.667 L 5.256 3.124 C 5.511 3.036 5.682 2.796 5.682 2.527 C 5.682 2.257 5.511 2.017 5.256 1.929 L 3.918 1.472 L 4.956 0.317 C 5.143 0.113 5.407 -0.002 5.683 0 L 17.052 0 C 17.328 -0.002 17.593 0.113 17.779 0.317 L 18.521 1.142 L 16.216 1.929 C 15.961 2.017 15.79 2.257 15.79 2.527 C 15.79 2.796 15.961 3.036 16.216 3.124 L 18.747 3.989 L 19.612 6.52 C 19.7 6.776 19.94 6.948 20.21 6.948 C 20.48 6.948 20.721 6.776 20.808 6.52 L 21.508 4.468 L 22.516 5.589 C 22.794 5.891 22.81 6.351 22.553 6.671 L 12.132 19.853 C 11.945 20.082 11.663 20.214 11.367 20.211 C 11.071 20.214 10.791 20.082 10.603 19.853 L 7.557 16 L 7.777 15.357 L 10.308 14.493 C 10.564 14.406 10.736 14.165 10.736 13.895 C 10.736 13.625 10.564 13.384 10.308 13.297 L 7.777 12.433 L 6.912 9.901 C 6.824 9.646 6.584 9.475 6.315 9.475 C 6.045 9.475 5.805 9.646 5.717 9.901 L 4.852 12.433 L 4.762 12.464 L 0.182 6.671 C -0.074 6.351 -0.058 5.892 0.219 5.59 L 1.539 4.12 Z M 17.072 7.03 C 17.584 7.03 17.999 6.637 17.999 6.152 C 17.999 5.666 17.584 5.273 17.072 5.273 L 5.662 5.273 C 5.151 5.273 4.736 5.666 4.736 6.152 C 4.736 6.637 5.151 7.031 5.663 7.031 L 17.073 7.031 Z" fill="rgb(255, 0, 170)" height="20.211066326114416px" id="uncG7bBPE" transform="translate(12.001 14.526)" width="22.735935725383072px"/><path d="M 0 1.928 L 1.436 0.33 L 3.029 0.874 L 1.145 1.517 L 0.502 3.4 Z M 3.154 11.337 L 5.068 13.757 L 5.256 13.207 L 8.081 12.242 L 5.256 11.277 L 4.292 8.453 L 3.327 11.277 Z M 16.956 0 L 19.002 2.276 L 18.186 4.663 L 17.222 1.838 L 14.397 0.874 L 16.957 0 Z" fill="rgb(255, 0, 170)" height="13.757000068664553px" id="aQuSfla9J" transform="translate(14.024 16.179)" width="19.002000312805176px"/></g><path d="M 23.5 0 C 36.479 0 47 10.521 47 23.5 C 47 36.479 36.479 47 23.5 47 C 10.521 47 0 36.479 0 23.5 C 0 10.521 10.521 0 23.5 0 Z" fill="transparent" height="47px" id="Ob45ZTcOG" stroke-dasharray="" stroke-linecap="butt" stroke-linejoin="miter" stroke-miterlimit="10" stroke-width="1" stroke="rgb(255, 0, 170)" transform="translate(0.5 0.5)" width="47px"/></g></svg>