<svg xmlns="http://www.w3.org/2000/svg" width="576" height="576" fill="none"><ellipse cx="288" cy="289.18" fill="#262626" rx="256" ry="254.82"/><path fill="#0080FF" fill-opacity=".3" d="m69.18 352.975-4.767-4.769 91.132-89.993 82.371 62.759L347.102 185.08l80.491 52.455 62.34-65.425 4.928 4.604-66.225 69.537-80.093-52.19L239.06 330.314l-82.94-63.195-86.94 85.856Z"/><path fill="#0080FF" fill-opacity=".3" d="M74.696 361.635c7.605-3.451 10.955-12.378 7.483-19.937-3.472-7.56-12.451-10.89-20.055-7.439-7.605 3.452-10.955 12.378-7.483 19.938 3.472 7.56 12.451 10.89 20.055 7.438Z"/><path fill="#0080FF" d="M76.294 349.063c-.62 4.328-4.646 7.339-8.999 6.723-4.353-.617-7.381-4.619-6.762-8.947.62-4.328 4.646-7.338 9-6.722 4.353.616 7.38 4.618 6.761 8.946Z"/><path fill="#0080FF" fill-opacity=".3" d="M163.697 276.946c6.683-4.992 8.03-14.425 3.008-21.069-5.021-6.644-14.509-7.983-21.192-2.991-6.683 4.992-8.03 14.425-3.009 21.069 5.021 6.644 14.51 7.983 21.193 2.991Z"/><path fill="#0080FF" d="M157.735 272.22c4.039-1.726 5.906-6.38 4.17-10.396-1.736-4.016-6.418-5.872-10.458-4.146-4.039 1.726-5.906 6.381-4.17 10.397 1.736 4.016 6.418 5.872 10.458 4.145Z"/><path fill="#0080FF" fill-opacity=".3" d="M252.319 324.239c2.911-7.79-1.081-16.451-8.917-19.345-7.836-2.894-16.549 1.075-19.46 8.865-2.911 7.79 1.082 16.451 8.918 19.345 7.836 2.894 16.548-1.075 19.459-8.865Z"/><path fill="#2850AF" fill-opacity=".3" d="M246.003 320.081c-.62 4.328-4.646 7.338-8.999 6.722-4.353-.616-7.381-4.619-6.762-8.946.62-4.328 4.646-7.339 8.999-6.723 4.354.617 7.382 4.619 6.762 8.947Z"/><path fill="#0080FF" fill-opacity=".3" d="M362.597 195.668c2.643-7.884-1.644-16.405-9.574-19.032-7.931-2.628-16.502 1.634-19.145 9.518-2.643 7.884 1.644 16.406 9.575 19.033 7.93 2.627 16.502-1.634 19.144-9.519Z"/><path fill="#0080FF" d="M354.519 195.787a7.882 7.882 0 0 0-1.385-11.107c-3.468-2.687-8.471-2.07-11.173 1.377a7.883 7.883 0 0 0 1.385 11.108c3.468 2.687 8.471 2.07 11.173-1.378Z"/><path fill="#0080FF" fill-opacity=".3" d="M432.533 254.854c8.124-1.961 13.11-10.098 11.137-18.174-1.973-8.075-10.157-13.032-18.28-11.071-8.124 1.961-13.11 10.098-11.137 18.173 1.973 8.076 10.157 13.033 18.28 11.072Z"/><path fill="#0080FF" d="M436.699 242.028c.989-4.259-1.682-8.509-5.966-9.492-4.284-.983-8.559 1.672-9.548 5.931-.989 4.259 1.682 8.509 5.966 9.492 4.284.983 8.559-1.672 9.548-5.931Z"/><path fill="#0080FF" fill-opacity=".3" d="M499.511 188.105c6.683-4.992 8.03-14.425 3.009-21.069-5.022-6.644-14.51-7.983-21.193-2.991-6.683 4.992-8.03 14.425-3.009 21.069 5.022 6.644 14.51 7.983 21.193 2.991Z"/><path fill="#0080FF" d="M493.181 183.549c4.129-1.503 6.25-6.049 4.739-10.153-1.512-4.105-6.084-6.214-10.213-4.711-4.129 1.503-6.25 6.049-4.738 10.153 1.511 4.105 6.084 6.214 10.212 4.711Z"/><ellipse cx="294.5" cy="460.5" fill="#00264C" rx="92.5" ry="31.5"/><path fill="#E33095" d="m264.921 442.785-6.942 22.508c-.141.463-.314.909-.511 1.332-1.952 4.497-6.438 7.474-11.46 7.474h-12.624c-5.966 0-11.106-4.183-12.287-10.004l-6.918-34.292 27.122 6.934 23.62 6.04v.008Z"/><path fill="#440E2D" d="m264.921 442.785-6.941 22.508c-.142.462-.315.909-.512 1.332-10.964-7.599-17.914-16.319-17.914-16.319l1.747-13.569 23.62 6.04v.008Z"/><path fill="#E33095" d="m325.006 442.785 6.942 22.508c.142.463.315.909.512 1.332 1.952 4.497 6.438 7.474 11.46 7.474h12.624c5.966 0 11.106-4.183 12.286-10.004l6.919-34.292-27.123 6.934-23.62 6.04v.008Z"/><path fill="#440E2D" d="m325.007 442.785 6.942 22.508c.141.462.314.909.511 1.332 10.964-7.599 17.914-16.319 17.914-16.319l-1.747-13.569-23.62 6.04v.008Z"/><path fill="#E33095" d="M409.751 350.237c0 63.098-51.396 114.257-114.787 114.257-63.39 0-114.794-51.159-114.794-114.257 0-63.099 46.673-109.416 105.916-113.936a115.097 115.097 0 0 1 8.878-.337c1.984 0 3.951.047 5.919.148.354.024.716.04 1.063.071 60.132 3.58 107.805 53.282 107.805 114.054Z"/><path fill="#440E2D" d="M294.956 381.206c27.151 0 49.161-18.169 49.161-40.582s-22.01-40.582-49.161-40.582c-27.15 0-49.16 18.169-49.16 40.582s22.01 40.582 49.16 40.582Z"/><path fill="#E33095" d="M294.956 370.52c24.295 0 43.99-16.254 43.99-36.305 0-20.05-19.695-36.305-43.99-36.305-24.294 0-43.989 16.255-43.989 36.305 0 20.051 19.695 36.305 43.989 36.305Z"/><path fill="#440E2D" d="M278.869 343.829c-2.959 0-5.368-2.39-5.368-5.343v-17.087c0-2.946 2.401-5.343 5.368-5.343 2.96 0 5.368 2.389 5.368 5.343v17.087c0 2.945-2.4 5.343-5.368 5.343Zm36.473-22.423c0-2.951-2.402-5.343-5.364-5.343-2.963 0-5.364 2.392-5.364 5.343v17.079c0 2.951 2.401 5.343 5.364 5.343 2.962 0 5.364-2.392 5.364-5.343v-17.079Z"/><path fill="#fff" d="M298.176 304.311c0 1.771-4.801 3.205-10.728 3.205-5.926 0-10.728-1.434-10.728-3.205 0-1.77 4.802-3.204 10.728-3.204 5.927 0 10.728 1.434 10.728 3.204Zm17.063 2.225c-.323 1.74-3.416 2.633-6.91 1.99-3.495-.642-6.069-2.569-5.746-4.309.323-1.739 3.416-2.632 6.91-1.99 3.495.643 6.069 2.57 5.746 4.309Z"/><path fill="#440E2D" d="M224.777 324.419c4.81-1.13 7.789-5.928 6.654-10.716-1.136-4.788-5.956-7.753-10.766-6.623s-7.789 5.928-6.654 10.716c1.136 4.788 5.955 7.753 10.766 6.623Zm149.139-2.39a8.879 8.879 0 0 0 0-12.598c-3.495-3.478-9.161-3.478-12.656 0a8.879 8.879 0 0 0 0 12.598c3.495 3.479 9.161 3.479 12.656 0Z"/><path fill="#E33095" d="M250.974 259.71s-23.226-20.346-48.373-21.153c-2.55-.079-4.809 1.653-5.376 4.129-2.015 8.798-5.139 30.499 6.131 51.652 5.644 10.6 47.626-34.628 47.626-34.628h-.008Zm87.972 0s23.226-20.346 48.373-21.153c2.55-.079 4.809 1.653 5.376 4.129 2.015 8.798 5.14 30.499-6.131 51.652-5.644 10.6-47.626-34.628-47.626-34.628h.008Z"/><path fill="#440E2D" d="M298.585 259.459h-7.257c-2.637 0-4.691-2.295-4.4-4.896l-.85-18.254a90.39 90.39 0 0 1 2.96-.188c1.96-.102 3.935-.149 5.919-.149 1.983 0 3.951.047 5.918.149.354.023.717.039 1.063.07l1.039 18.372c.299 2.601-1.763 4.896-4.4 4.896h.008Z"/><path fill="#fff" d="M380.102 245.968c.81 1.896-2.063 4.936-6.423 6.785-4.36 1.849-8.555 1.81-9.366-.094-.811-1.896 2.062-4.936 6.422-6.785 4.361-1.849 8.556-1.81 9.367.094Zm-155.416 4.192c-.724 1.935-4.911 2.17-9.35.525-4.447-1.646-7.462-4.544-6.737-6.479.724-1.935 4.911-2.171 9.35-.525 4.447 1.645 7.461 4.544 6.737 6.479Z"/><path fill="#440E2D" d="M367.588 261.747c13.199-4.419 18.567-6.558 19.638-2.28 1.07 4.269-1.071 16.374-3.22 19.225l-16.418-16.938v-.007Zm-145.255 0c-13.199-4.419-18.567-6.558-19.637-2.28-1.071 4.269 1.07 16.374 3.219 19.225l16.418-16.938v-.007Z"/><path fill="#FF7819" d="M279.854 101.523c7.871 2.076 17.333 11.684 23.693 25.031 6.36 13.347 7.808 26.618 4.366 33.848l1.063 2.234-11.227 5.121c-8.366 3.821-21.557-7.105-30.025-24.864-8.467-17.759-8.548-34.661-.174-38.486l11.228-5.122 1.063 2.234.013.004Z"/><path fill="#FF7819" d="M280.263 108.128c-6.366 2.91-6.141 15.791.133 28.948 6.264 13.161 16.195 21.606 22.56 18.695 6.365-2.91 6.443-15.936.179-29.097-6.265-13.161-16.512-21.466-22.868-18.56l-.004.014Z"/><path fill="#FAAA00" d="M278.67 137.847c8.47 17.781 21.683 28.711 30.073 24.872 8.459-3.862 8.564-21.234.238-38.725-8.326-17.492-21.986-28.567-30.444-24.704-8.391 3.838-8.328 20.772.133 38.557Z"/></svg>