<svg display="block" role="presentation" viewBox="0 0 48 48" xmlns="http://www.w3.org/2000/svg"><g d="M 0 24 C 0 10.745 10.745 0 24 0 C 37.255 0 48 10.745 48 24 C 48 37.255 37.255 48 24 48 C 10.745 48 0 37.255 0 24 Z M 0 24 C 0 10.745 10.745 0 24 0 C 37.255 0 48 10.745 48 24 C 48 37.255 37.255 48 24 48 C 10.745 48 0 37.255 0 24 Z M 30.768 13.667 C 30.571 13.452 30.292 13.331 30 13.333 L 18 13.333 C 17.703 13.333 17.422 13.456 17.232 13.667 L 12.232 19.233 C 11.938 19.551 11.921 20.037 12.193 20.375 L 23.193 34.289 C 23.383 34.526 23.682 34.667 24 34.667 C 24.318 34.667 24.618 34.527 24.807 34.289 L 35.807 20.375 C 36.079 20.037 36.062 19.551 35.768 19.233 Z M 31 19.827 C 31 20.339 30.562 20.754 30.022 20.754 L 17.978 20.754 C 17.438 20.754 17 20.339 17 19.826 C 17 19.314 17.438 18.899 17.978 18.899 L 30.022 18.899 C 30.562 18.899 31 19.314 31 19.826 Z M 24 0.5 C 36.979 0.5 47.5 11.021 47.5 24 C 47.5 36.979 36.979 47.5 24 47.5 C 11.021 47.5 0.5 36.979 0.5 24 C 0.5 11.021 11.021 0.5 24 0.5 Z" fill="transparent" height="48px" id="pAOgL9cCW" width="48px"><g d="M 0 24 C 0 10.745 10.745 0 24 0 C 37.255 0 48 10.745 48 24 C 48 37.255 37.255 48 24 48 C 10.745 48 0 37.255 0 24 Z M 0 24 C 0 10.745 10.745 0 24 0 C 37.255 0 48 10.745 48 24 C 48 37.255 37.255 48 24 48 C 10.745 48 0 37.255 0 24 Z M 30.768 13.667 C 30.571 13.452 30.292 13.331 30 13.333 L 18 13.333 C 17.703 13.333 17.422 13.456 17.232 13.667 L 12.232 19.233 C 11.938 19.551 11.921 20.037 12.193 20.375 L 23.193 34.289 C 23.383 34.526 23.682 34.667 24 34.667 C 24.318 34.667 24.618 34.527 24.807 34.289 L 35.807 20.375 C 36.079 20.037 36.062 19.551 35.768 19.233 Z M 31 19.827 C 31 20.339 30.562 20.754 30.022 20.754 L 17.978 20.754 C 17.438 20.754 17 20.339 17 19.826 C 17 19.314 17.438 18.899 17.978 18.899 L 30.022 18.899 C 30.562 18.899 31 19.314 31 19.826 Z" fill="transparent" height="48px" id="d1p_VfUOq" width="48px"><path d="M 0 24 C 0 10.745 10.745 0 24 0 C 37.255 0 48 10.745 48 24 C 48 37.255 37.255 48 24 48 C 10.745 48 0 37.255 0 24 Z" fill="transparent" height="48px" id="pQ54a6E2W" width="48px"/><path d="M 0 24 C 0 10.745 10.745 0 24 0 C 37.255 0 48 10.745 48 24 C 48 37.255 37.255 48 24 48 C 10.745 48 0 37.255 0 24 Z" fill="rgb(0, 35, 46)" height="48px" id="rUafycdLK" width="48px"/><path d="M 18.768 0.334 C 18.571 0.119 18.292 -0.002 18 0 L 6 0 C 5.703 0 5.422 0.123 5.232 0.334 L 0.232 5.9 C -0.062 6.218 -0.078 6.704 0.193 7.042 L 11.193 20.956 C 11.383 21.193 11.682 21.334 12 21.334 C 12.318 21.334 12.618 21.194 12.807 20.956 L 23.807 7.042 C 24.079 6.704 24.062 6.218 23.768 5.9 Z M 19 6.494 C 19 7.006 18.562 7.421 18.022 7.421 L 5.978 7.421 C 5.438 7.421 5 7.006 5 6.493 C 5 5.981 5.438 5.566 5.978 5.566 L 18.022 5.566 C 18.562 5.566 19 5.981 19 6.493 Z" fill="rgb(0, 191, 255)" height="21.33402649271921px" id="ZyJ8kfYPu" transform="translate(12 13.333)" width="24.00032750369086px"/></g><path d="M 23.5 0 C 36.479 0 47 10.521 47 23.5 C 47 36.479 36.479 47 23.5 47 C 10.521 47 0 36.479 0 23.5 C 0 10.521 10.521 0 23.5 0 Z" fill="transparent" height="47px" id="xUppOXuMm" stroke-dasharray="" stroke-linecap="butt" stroke-linejoin="miter" stroke-miterlimit="10" stroke-width="1" stroke="rgb(0, 191, 255)" transform="translate(0.5 0.5)" width="47px"/></g></svg>