<svg xmlns="http://www.w3.org/2000/svg" width="576" height="576" fill="none"><g clip-path="url(#a)"><circle cx="288" cy="288" r="256" fill="#fff" fill-opacity=".1"/><g filter="url(#b)"><path fill="#00264C" d="M367.115 448c51.555 0 93.35-4.661 93.35-10.396 0-5.736-41.795-10.397-93.35-10.397-51.555 0-93.35 4.661-93.35 10.397 0 5.735 41.795 10.396 93.35 10.396Z"/><path fill="#FAAA00" d="m517.913 239.888-12.715 6.628c-4.244 2.182-8.422 4.529-12.749 6.33-4.326 1.851-8.834 2.909-13.475 2.876-4.624.033-9.264-.777-13.921-1.653-4.673-.892-9.445-1.867-14.333-2.247-.38-.034-.776-.017-1.156-.05 5.598-5.504 13.458-8.793 21.434-8.876 4.542-.05 9.099 1.223 13.822 1.521 4.624.314 9.892-.661 13.046-4.413.28-.331-.066-.595-.347-.298-3.138 3.455-8.174 4.165-12.616 3.686-4.558-.463-9.05-1.934-13.872-2.083-9.214-.281-18.511 3.488-24.968 10.314-3.336-.099-6.688-.066-10.024.232-5.862.562-11.658 1.785-17.306 3.537.017-.017.033-.05.05-.066a29.149 29.149 0 0 0 1.767-3.323c7.398-15.851 14.267-20.247 26.57-23.074a16.323 16.323 0 0 0 4.145-1.57c.181.066.38.099.611.05 4.723-.959 9.412-1.818 14.086-1.62 4.624.182 9.33 1.488 12.88 4.479 1.784 1.471 3.402 3.455 5.813 4.595 1.205.562 2.609.777 3.914.496 1.321-.248 2.477-.859 3.517-1.537 2.064-1.389 3.864-2.926 5.978-4.066a33.708 33.708 0 0 1 6.572-2.876c.413-.132.297-.562-.132-.446a34.722 34.722 0 0 0-6.804 2.644c-2.196 1.074-4.177 2.612-6.176 3.835-1.981 1.256-4.326 1.801-6.275.711-1.981-1.009-3.484-2.943-5.317-4.612-3.782-3.454-8.884-5.074-13.838-5.471-3.336-.264-6.639-.016-9.892.397a39.406 39.406 0 0 0 2.675-2.562v-.033c3.287-1.256 4.971-4.347 5.929-6.909.198-.595.413-1.157.611-1.67a.25.25 0 0 1 .066-.132c.627-1.735 1.321-3.355 2.295-4.826a9.86 9.86 0 0 1 .661-.959c1.651-2.231 3.715-4.149 6.143-5.52 2.328-1.405 5.218-2.1 8.025-3.488 5.549-2.793 9.479-7.372 13.822-11.272l12.88-12.099c.397-.364.033-.761-.363-.397l-13.376 11.537c-4.491 3.752-8.702 8.115-13.821 10.413-2.56 1.157-5.516 1.719-8.307 3.223-1.866.992-3.567 2.198-5.069 3.702 2.576-8.495 4.755-17.107 6.473-25.801.049-.231-.182-.297-.248-.049-2.312 9.619-5.201 19.09-8.554 28.379-1.866 2.364-3.088 5.322-4.095 7.785a21.58 21.58 0 0 1-.793 1.637l-.033.033c-.792.991-1.717 2-2.757 2.958-.595.562-1.222 1.058-1.883 1.57a23.303 23.303 0 0 1-10.602 4.529c-.924.133-1.833.364-2.757.628.578-2.528.528-5.074.429-7.355-.182-3.818-.694-7.454-.182-10.843.942-6.875 5.747-12.793 10.866-17.999 10.734-10.281 21.088-21.339 29.741-33.537.38-.545-.165-.958-.578-.43-9.149 11.818-19.717 22.231-30.946 32.149-2.031 1.917-3.98 4-5.813 6.214-.297-1.867-1.04-3.57-1.833-5.074-1.139-2.165-2.394-4.132-3.27-6.198-1.932-4-.28-8.893-1.717-13.851-.314-.975-.76-1.851-1.255-2.678 2.675-3.289 5.185-6.611 7.91-9.669 4.079-4.595 8.95-8.578 13.557-12.991 9.215-8.81 17.075-18.777 24.853-28.678.694-.876-.198-1.619-.941-.776-8.174 9.586-16.398 19.156-25.778 27.421-3.319 2.925-6.836 5.718-10.221 8.743.313-1.256.677-2.529 1.023-3.851.578-2.331 1.173-4.942.479-7.587-.313-1.322-1.04-2.512-1.453-3.421-.429-.909-.446-1.802-.165-2.793.495-1.719 1.783-3.157 2.939-4.926.066-.033.149-.05.215-.116 4.128-4.181 6.011-9.636 8.802-14.346 2.642-4.81 7.051-8.661 12.451-10.116.231-.066.181-.314-.066-.264-5.516 1.223-10.288 5.041-13.194 9.867-2.411 3.736-4.277 7.818-6.92 11.173.017-.363.066-.743.017-1.09-.132-1.29-.528-2.447-.875-3.587-.76-2.215-1.09-4.463-.809-6.76.495-4.546 3.088-8.959 7.084-11.388.347-.215.148-.612-.231-.397-4.228 2.347-7.151 6.826-7.877 11.652-.413 2.397-.132 4.992.561 7.273.644 2.264 1.156 4.529.05 6.33-1.057 1.819-3.072 3.521-3.947 6.083-.479 1.256-.479 2.893.066 4.149.528 1.256 1.024 2.148 1.222 3.14.842 4.165-1.899 8.43-2.642 13.471-.017.198.033.364.066.512-.264.281-.562.529-.842.827-2.791 2.876-5.318 5.9-7.861 8.826-1.767-1.835-3.748-3.405-5.416-5.124-3.336-3.256-5.185-7.719-6.556-12.214-.132-.397-.545-.281-.446.132 1.189 4.545 2.89 9.239 6.259 12.793 1.701 1.868 3.633 3.587 5.268 5.438-1.272 1.421-2.543 2.826-3.881 4.149-4.954 5.14-11.18 8.512-17.752 11.718-1.123-4.595-3.352-6.099-3.352-6.099s.76 2.562 1.618 6.942c-4.112 1.984-8.323 3.967-12.418 6.314-.545.314-1.057.661-1.585.992-.215-.446-.446-.876-.628-1.339-.875-2.066-1.436-4.314-1.073-6.545.049-.397-.363-.496-.429-.083-.479 2.331.016 4.727.825 6.876.182.512.413.992.628 1.488-3.402 2.132-6.721 4.595-9.595 7.652-.016-2.595-.693-5.9-1.717-9.57v-.132c.165-1.322.33-2.628.462-3.95.628-5.455.397-10.975 1.305-15.752.462-2.397 1.255-4.595 2.609-6.215 1.305-1.669 3.22-2.363 5.912-3.256 1.271-.463 2.725-.992 4.128-1.934 1.42-.958 2.56-2.43 3.22-3.983.066-.165.133-.347.166-.513l12.533-3.52c2.279-.678 4.69-1.438 6.622-3.289.958-.926 1.668-2.232 1.8-3.587.149-1.372-.165-2.612-.429-3.736-1.156-4.347-.314-9.024 1.469-13.206 1.817-4.215 4.558-8.016 7.299-11.752.248-.33-.099-.595-.363-.281-2.89 3.637-5.813 7.322-7.86 11.603-2.015 4.232-3.138 9.19-2.098 13.967.232 1.14.43 2.231.281 3.174-.148.958-.644 1.785-1.387 2.462-1.503 1.356-3.699 2.033-5.862 2.562l-11.411 2.711c.165-1.984-.165-3.917-.611-5.702-.76-2.761-1.816-5.19-2.312-7.587-.545-2.397-.314-4.727.496-7.074 1.651-4.694 5.201-8.876 7.992-13.504 5.747-9.174 10.37-18.975 13.723-29.19.33-.925-.628-1.223-.991-.33a134.183 134.183 0 0 1-14.681 28.247c-2.889 4.397-6.671 8.347-8.867 13.735-1.09 2.661-1.47 5.818-.941 8.711.511 2.892 1.502 5.421 2.031 7.851.561 2.364.594 4.859-.265 6.678-.792 1.834-2.493 2.661-5.02 3.388-1.255.397-2.625.76-4.078 1.405-1.437.661-2.857 1.636-3.947 2.859-2.229 2.43-3.319 5.422-3.996 8.215-.628 2.76-.925 5.454-1.156 8.049-3.088-8.181-6.242-15.024-6.242-15.024s-1.123-4.892-1.668-12.099v-.05c8.867-6.198 13.805-17.123 12.765-27.652-.232-2.727-1.14-5.256-1.14-7.702-.099-2.463 1.288-4.595 2.841-6.727 3.104-4.33 5.135-9.405 5.862-14.628.082-.463-.397-.53-.496-.083a32.225 32.225 0 0 1-6.291 14.033c-1.586 1.967-3.386 4.446-3.386 7.372-.082 2.826.744 5.371.826 7.884.562 9.272-3.947 18.611-11.245 23.983-.199-3.835-.199-8.165.165-12.611.099-.926.198-1.885.264-2.794.165-2.264.215-4.512.165-6.777 0-1.603-.066-3.256-.198-4.859-.231-2.826-.595-5.62-.661-8.347-.165-2.727.562-5.388 1.107-8.082 2.592-10.91 5.565-21.835 8.356-32.744.082-.495-.397-.628-.529-.165-3.22 10.81-6.605 21.537-9.693 32.446l-1.057 4.198c-.33 1.422-.396 2.893-.463 4.347-.066 2.893.199 5.752.298 8.512.066 1.405.066 2.827.033 4.199a66.955 66.955 0 0 1-.859 9.966c-.033 1.091-.033 2.232-.033 3.422-.083 10.33.33 24.462 2.923 34.462 4.574 17.619 5.631 11.636 4.937 24.33a109.008 109.008 0 0 1-.264 3.455c.033.033 0 .066 0 .099-.066.892-.165 1.735-.231 2.562v.033c-.958 9.272-2.328 16.214-.561 27.321 2.113 13.372-13.03-10.594-10.899-19.718 1.37-6.083-6.011-13.504-13.442-23.405l-.017-.033c7.844-6.297 10.47-17.008 8.389-26.049-.677-3.173-1.833-6.182-3.27-9.024.991-1.538 2.61-2.777 3.98-4.347 1.651-1.852 2.444-4.414 2.196-6.843-.165-2.529-1.932-4.446-2.179-6.661-.248-2.265 1.09-4.397 2.378-6.281.115-.165-.05-.298-.182-.132-1.354 1.834-2.857 3.933-2.708 6.462.231 2.496 1.882 4.413 1.899 6.678.132 2.231-.677 4.463-2.213 6.049-1.139 1.256-2.659 2.281-3.864 3.736a39.828 39.828 0 0 0-1.519-2.546c-1.222-1.884-2.395-3.619-2.775-5.371-.396-1.719.033-3.604.859-5.571.776-1.95 1.949-3.966 2.593-6.28.396-1.108.66-2.248.858-3.405.265-1.141.314-2.298.43-3.455.313-4.628-.265-9.157-.942-13.57-.66-4.43-1.469-8.793-1.733-13.19-.265-4.38.049-8.842 1.651-12.925.264-.744-.479-1.09-.793-.33-1.849 4.181-2.361 8.81-2.262 13.321.082 4.513.727 8.975 1.205 13.389.496 4.413.859 8.826.38 13.09-.132 1.058-.231 2.132-.528 3.157-.215 1.042-.479 2.066-.892 3.025-.611 2-1.783 3.818-2.758 5.967-.974 2.082-1.816 4.71-1.321 7.421.496 2.661 1.899 4.727 2.989 6.612 2.18 3.685 3.749 7.669 4.459 11.784.693 4.116.479 8.298-.908 12.083-1.272 3.587-3.534 6.777-6.441 8.942-2.691-3.901-5.218-8.198-7.117-12.859-2.824-7.008-4.459-11.736-5.383-14.959v-.066a.88.88 0 0 0 .099-.397c.231-6.611-2.89-11.966-2.923-17.388-.132-5.322 3.187-10.842 3.253-16.991.132-3.025-.231-6.083-1.156-8.975-.925-2.893-2.328-5.521-3.881-8.017-3.005-4.991-6.655-9.735-7.744-15.454-.099-.496-.628-.43-.562.1.892 5.95 4.442 10.941 7.2 15.983 1.404 2.528 2.692 5.123 3.451 7.851.71 2.727.942 5.553.677 8.38-.198 2.826-.941 5.487-1.932 8.247-.924 2.728-1.932 5.653-1.998 8.876-.066 4.281 1.173 8.215 1.833 11.934.165.826.297 1.669.363 2.463-.165-.099-.33-.232-.495-.364v-.033c-1.866-1.636-3.385-3.785-4.244-6.182-.578-1.537-.842-3.157-.908-4.826-.066-1.669.033-3.554-.727-5.322-1.618-3.587-5.152-5.025-7.86-7.008-2.923-1.835-4.657-4.893-6.011-8.083-.116-.264-.413-.165-.281.132 1.173 3.19 2.89 6.546 5.846 8.579 2.725 2.099 6.044 3.785 7.183 6.81.595 1.487.463 3.157.463 4.925-.033 1.769.198 3.62.792 5.322a16.749 16.749 0 0 0 6.242 8.579c.033 0 .1.033.133.066.066.33.132.694.231 1.091 2.361 10.413 8.603 32.115 22.062 47.156 0 0 3.154.363 3.517 15.52.33 15.124 9.594 22.611 13.723 27.454 4.475 5.289-1.404 27.487-1.404 27.487s-17.24-4.925-20.229-17.95c-3.352-14.595-35.025-36.297-35.025-36.297s-.297-.314-.826-.793c-.495-.645-.957-1.289-1.354-2-1.833-3.256-2.196-7.421-2.642-11.735l-2.741-25.818-.677-6.446c-.231-2.165-.512-4.265-.38-6.248.099-2.016.793-3.719 1.949-5.537 1.139-1.769 2.345-3.901 2.757-6.182.925-4.611-.363-9.041-1.568-13.157-1.189-4.148-2.609-8.264-2.494-12.528 0-.744-.792-.827-.842-.033-.281 4.462 1.007 8.743 2.031 12.925 1.057 4.149 2.015 8.43 1.04 12.38-.462 1.983-1.469 3.653-2.741 5.454-1.255 1.752-2.378 4.133-2.543 6.48-.248 2.33-.016 4.562.116 6.694l.413 6.479 1.684 25.9c.132 1.802.231 3.719.462 5.653 0 0-.016-.016-.016-.033-1.222-1.322-2.494-2.76-3.815-4.248v-.033c-.842-1.025-1.701-2.033-2.559-3.091l-.033-.066c-5.351-6.644-9.991-13.834-9.529-18.512.43-4.363-.462-7.719-1.667-10.165 0 0 0-.033-.033-.099-.033-.083-.083-.149-.133-.232-.033-.082-.016-.165-.066-.231-.082-.132-.198-.264-.28-.397l-.05-.099a9.954 9.954 0 0 0-1.222-1.735v-.033a9.333 9.333 0 0 0-.941-1.091c-.099-.132-.231-.232-.33-.331l-.1-.099s-.033-.017-.049-.033a28.226 28.226 0 0 0-3.914-3.537c-1.321-.975-2.559-1.818-3.484-2.794-.925-.958-1.569-2.165-2.064-3.537-.975-2.727-1.305-6-2.312-9.14-.974-3.124-2.229-6.132-3.798-8.975-6.325-11.405-16.134-19.933-25.712-28.148-.429-.364-.809.066-.396.463 9.231 8.578 18.594 17.503 24.192 28.693a45.65 45.65 0 0 1 3.253 8.661c.826 2.942.991 6.066 1.982 9.388.512 1.637 1.305 3.323 2.527 4.711.908 1.025 1.882 1.802 2.807 2.546-.017 0-.033 0-.066-.017a131.187 131.187 0 0 0-7.53-1.802c-2.032-5.933-6.457-10.214-9.297-15.289-1.52-2.661-2.527-5.586-2.378-8.677.082-1.537-.116-3.289-1.008-4.645-.842-1.371-2.014-2.462-3.17-3.504-.198-.181-.397.033-.198.215 1.106 1.075 2.196 2.198 2.939 3.521.793 1.322.892 2.826.743 4.38-.264 3.19.677 6.396 2.13 9.206 2.593 5.008 6.474 9.322 8.241 14.347-.083-.016-.182-.049-.281-.066-2.923-.661-6.044-.859-8.488-1.802-2.428-.958-3.963-3.289-5.119-5.95-1.173-2.595-2.097-5.62-4.129-8.082-1.948-2.529-4.673-4.149-7.365-5.455-5.416-2.595-11.295-3.983-15.902-7.719-.396-.33-.793.066-.363.43 4.574 4.083 10.552 5.719 15.671 8.446 2.559 1.389 5.037 3.025 6.638 5.322 1.718 2.199 2.461 5.058 3.584 7.851.561 1.405 1.222 2.86 2.196 4.182.958 1.323 2.328 2.496 3.848 3.157 3.088 1.356 6.011 1.554 8.834 2.331 5.235 1.272 10.404 2.777 15.44 4.611.611.81 1.255 1.603 1.767 2.479.182.298.43.463.694.562v.05c.495 1.603.726 3.587.495 6.05-.198 2.099 1.635 7.751 4.855 14.363-3.468-2-7.183-3.62-11.031-4.76a37.293 37.293 0 0 0-4.888-1.157 21.404 21.404 0 0 0-6.473-5.058c-1.486-.744-2.972-1.306-4.343-2.033-1.371-.711-2.609-1.686-3.831-2.711-1.239-1.008-2.477-2.082-3.881-2.942a18.487 18.487 0 0 0-4.508-1.967c-3.121-.925-6.358-1.19-9.561-1.438-.281-.016-.314.265-.033.314 3.187.38 6.39.777 9.379 1.802 3.072.959 5.549 2.859 7.894 5.091 1.189 1.074 2.46 2.165 3.897 3.008 1.437.843 2.939 1.471 4.293 2.231 1.586.876 3.022 2 4.31 3.273-5.647-.793-11.311-.793-16.728-1.389-3.979-.462-7.844-1.223-11.493-2.727-3.649-1.52-7.134-3.586-10.536-5.719-6.803-4.281-13.805-9.239-22.078-10.462-.76-.099-.826.628-.132.793 7.976 1.504 14.548 6.579 21.22 11.14 3.352 2.298 6.836 4.562 10.634 6.314 3.782 1.802 7.96 2.794 12.022 3.389 8.191 1.223 16.332 1.256 23.73 3.851 6.655 2.297 12.831 6.149 17.801 11.107.033.033.066.033.033.066 4.03 6.248 9 12.264 14.45 16.149.099.099.231.165.363.264 0 0 0 .033.066.033a.3.3 0 0 0 .116.083 23.863 23.863 0 0 0 5.994 4.628c.016 0 .033.033.066.049.033.067.099.067.132.1 8.372 6.909 16.712 15.553 21.534 22.231.016 0 .016 0 .016.016a26.24 26.24 0 0 0-3.402-1.554c-3.038-1.157-6.39-1.619-9.594-1.504-3.204.133-6.193.777-9.016 1.422-2.824.644-5.532 1.306-8.158 1.587-1.849.181-3.682.181-5.416-.067-1.932-.991-3.964-1.9-6.11-2.644a20.235 20.235 0 0 1-2.114-2.05c-1.899-1.983-4.046-4.71-7.596-5.851-1.734-.529-3.435-.512-4.938-.43l-2.444.149-13.144-5.735-7.299-3.19c-2.461-1.075-4.905-1.934-5.417-4.199-.627-2.214.149-5.09-.759-7.884-.826-2.743-2.51-4.942-4.046-7.074l-9.347-12.909c-.28-.38-.693-.099-.429.298l8.818 13.272c1.47 2.198 2.956 4.397 3.584 6.81.71 2.364-.199 4.942.429 7.934.314 1.504 1.387 2.925 2.625 3.735 1.222.843 2.478 1.356 3.65 1.951l7.167 3.471 7.563 3.669c-1.239 0-2.461-.05-3.699-.116-5.615-.33-11.213-1.272-16.464-3.239a40.68 40.68 0 0 1-7.497-3.736c-2.361-1.454-4.541-3.388-7.101-4.942-5.202-3.322-11.477-3.355-17.141-3.173-1.024.033-1.024 1.09.017 1.107 5.68.05 11.592.38 16.15 3.603 2.312 1.537 4.409 3.537 6.87 5.207 2.427 1.702 5.053 3.124 7.777 4.281 5.45 2.297 11.295 3.537 17.141 4.115 2.923.298 5.862.414 8.785.397 2.94.05 5.978-.38 7.943.347 1.338.463 2.51 1.504 3.683 2.777-1.14 0-2.279.116-3.418.364-2.131.462-4.079 1.504-5.714 2.644-3.253 2.364-5.895 4.81-8.983 6.843-3.039 2.033-6.276 3.735-9.743 4.413-7.002 1.405-14.516-1.471-22.178-1.504-7.629-.281-15.176.661-22.64 1.603-.677.083-.594.777.066.728 7.514-.645 15.044-1.257 22.492-.678 3.715.264 7.332.975 11.064 1.719 3.715.694 7.645 1.322 11.642.677 8.042-1.289 14.366-6.793 20.228-10.875 2.923-1.984 6.077-2.496 9.43-1.802.71.149 1.403.364 2.113.595.298.281.578.562.909.827 1.321 1.057 2.856 1.851 4.409 2.413 6.357 2.198 12.798.826 18.33-.215 5.631-1.141 10.717-1.554 15.357.496 4.624 1.9 8.554 5.586 10.569 9.999.165.331.396.595.66.81 0 .017 0 .033.017.05.016 0 .033 0 .033.033 2.196 6.446 6.737 13.768 13.854 17.851 9.859 5.62 13.376 40.131 1.784 53.189h-.017s-22.739 21.983-29.228 35.057a176.023 176.023 0 0 0-10.652 14.892c-5.515 8.43-9.594 17.802-12.104 27.554-1.701.297-3.038 1.124-4.128 1.785a77.147 77.147 0 0 0-4.062 2.826 63.051 63.051 0 0 0-7.349 6.562 61.258 61.258 0 0 0-11.08 16.082l.924.48.942.479a59.076 59.076 0 0 1 11.427-14.793 58.267 58.267 0 0 1 7.266-5.802c1.585-1.008 3.451-2.281 5.02-2.991-1.552 7.652-2.163 15.487-1.635 23.255l1.552-.082 1.569-.083c-.314-8.049.628-16.049 2.543-23.785a45.75 45.75 0 0 1 6.572 9.637c-1.106 4.71-1.899 9.47-2.295 14.28l1.817.182 1.832.182c.331-2.711.826-5.405 1.404-8.083a44.117 44.117 0 0 1 1.685 6.695l.809-.116.809-.116c-.396-3.52-1.222-6.975-2.395-10.347a98.107 98.107 0 0 1 9.116-22.941c2.791 5.917 4.871 12.181 6.242 18.611-1.024 6.132-2.048 12.214-3.6 18.148l1.321.38 1.338.38c.941-3.107 1.734-6.231 2.46-9.355.248 2.645.396 5.306.396 7.984l1.206.033 1.205.033c.248-5.521-.115-11.058-.941-16.529 1.073-5.058 2.13-10.099 3.534-14.991 2.13-7.719 5.383-15.19 10.403-20.942 2.131-1.405 4.013-1.785 5.021.049.743 1.339-.595 4.893-1.123 10.612-3.65 6.248-6.721 12.743-9.281 19.471-2.989 8.165-5.499 16.71-5.466 25.635h2.13c.281-8.38 3.039-16.611 6.292-24.429a129.423 129.423 0 0 1 6.275-12.71c.165 2.115.512 4.413 1.057 6.892-1.321 3.587-3.072 7.24-4.029 11.107a68.846 68.846 0 0 0-2.576 18.595h.759l.76.033a66.087 66.087 0 0 1 3.253-17.95c.545-1.702 1.189-3.355 1.882-5.008a163.193 163.193 0 0 0 2.692 26.743l1.453-.248 1.47-.248c-1.536-10.727-1.916-21.603-1.272-32.379.661-2.513 1.421-5.273 2.246-7.736 5.086 10.876 6.87 23.735 12.683 34.975l.842-.397.859-.413c-3.122-6.942-4.938-14.363-6.837-21.867-1.437-5.637-3.088-11.455-5.78-16.86.661-1.355 1.305-2.281 1.916-2.528 2.559-1.025 4.376 1.768 6.044 5.206 4.194 12.463 5.961 25.95 7.579 39.222l1.156-.115 1.173-.116c-1.305-15.719-2.675-32.032-8.472-47.222-.743-5.306-.446-9.405 2.725-7.884 2.378 1.14 4.789 2.595 7.068 4.099.677.777 1.321 1.587 1.965 2.396-.76 14-1.338 28.43 2.081 42.314-.033.248-.083.495-.099.743l.28.033c.099.43.182.877.298 1.306l.924-.231.908-.232c-.049-.198-.066-.396-.115-.595l.215.033c1.189-8.462 3.253-16.776 6.043-24.826 2.577 6.463 4.377 13.24 5.632 20.165-.413.827-.843 1.653-1.255 2.48l.611.314.594.314c.149-.265.297-.546.446-.81.115.76.264 1.504.363 2.264l1.387-.165 1.371-.182a125.924 125.924 0 0 0-.793-6.033c1.42-2.446 2.907-4.81 4.525-7.074.974 2.727 1.882 5.487 2.659 8.297-.991 1.819-1.85 3.703-2.51 5.653l.445.165.43.166c.578-1.488 1.288-2.926 2.064-4.314.743 2.826 1.42 5.669 1.949 8.545l1.7-.281 1.701-.281a125.564 125.564 0 0 0-2.477-12.347c.248-.314.479-.644.727-.958 1.519-1.951 3.484-3.587 5.202-5.554.545 5.95.875 11.95 1.123 17.95l1.585-.05 1.569-.049c-.149-9.636-.397-19.322-1.619-29.024-.545-4.248-1.321-8.513-2.394-12.711 2.213 1.322 4.359 2.76 6.39 4.364 3.716 2.975 7.283 6.264 9.727 10.165 1.354 2.148 2.394 4.446 3.22 6.843-5.615 5.14-9.71 11.851-11.642 19.107l.462.132.463.132c2.097-6.744 6.093-12.826 11.328-17.438 1.75 6 2.328 12.546 2.791 18.959l1.222-.066 1.205-.066c-.347-9.769-.677-20.265-5.928-29.521-2.642-4.595-6.341-8.247-10.156-11.586a64.963 64.963 0 0 0-10.981-7.521c-1.074-3.124-2.312-6.198-3.815-9.173-1.75-3.603-3.93-6.926-6.324-10.066-4.013-6.281-9.942-14.562-17.802-22.776-6.721-7.042-9.495-8.81-9.495-17.967 0 0 2.46-15.52.693-25.702-1.75-10.231-1.75-20.446 1.767-24.661 2.494-3.008 12.848-7.867 21.319-16.098 7.712-3.885 16.117-6.48 24.754-7.67 4.607-.628 9.264-.81 13.921-.611 4.656.181 9.297.925 14.053 1.636 4.739.694 9.594 1.339 14.548 1.124 4.937-.165 9.858-1.537 14.234-3.636 4.409-2.066 8.472-4.579 12.633-6.926l12.435-7.14c.743-.43.313-1.207-.446-.81h.016l.017-.017v-.016Zm-196.064 177.93a48.566 48.566 0 0 0-6.539-9.636c2.213-7.52 5.499-14.727 9.627-21.404 2.13 2.809 4.112 5.718 5.862 8.793a105.574 105.574 0 0 0-8.95 22.264v-.017Zm11.394-26.545c-1.684-3.024-3.517-5.95-5.565-8.76 5.764-8.446 12.27-16.446 19.536-23.537 4.029-2.743 7.679-4.594 9.115-3.553 2.807 2.049-8.108 13.752-14.3 23.404-3.237 3.934-6.16 8.116-8.786 12.463v-.017Zm15.556-2.793c-2.807 5.24-4.591 10.81-5.928 16.38-.545 2.281-.991 4.562-1.437 6.843a88.341 88.341 0 0 0-5.268-14.678c.314-.512.611-1.041.942-1.57 3.831-5.983 8.273-11.537 13.276-16.529 3.683-2.396 7.58-4.413 9.198-3.454-4.475 3.537-8.174 8.049-10.783 12.992v.016Zm45.924 38.76c-1.206-10.199-.611-20.562.33-30.909 1.503 2.248 2.857 4.612 4.095 7.025.347.661.644 1.322.958 2a135.24 135.24 0 0 0-5.383 21.884Zm7.365-27.322c-4.244-8.694-10.172-16.744-17.868-22.958-.181-.959-.099-1.786.314-2.43a120.076 120.076 0 0 1 18.611 22.594c-.38.926-.694 1.868-1.057 2.794Zm8.157 26.181c-1.238-7.223-3.121-14.363-5.911-21.223.446-1.157.957-2.297 1.453-3.438a123.383 123.383 0 0 1 8.554 17.951 77.946 77.946 0 0 0-4.079 6.71h-.017Zm16.58-8.033c-1.585 2.529-4.112 4.661-6.044 7.322-.033.033-.05.066-.083.116a130.863 130.863 0 0 0-2.377-7.868c1.139-1.305 2.328-2.561 3.632-3.685 1.255-1.108 2.593-2.1 3.997-2.876.346 2.33.644 4.661.891 6.991h-.016Zm-10.387-36.429c.33.579.677 1.157.991 1.769 1.734 3.206 3.088 6.595 4.293 10.066l-.165.347c.116.049.231.115.347.165 1.569 4.645 2.741 9.454 3.583 14.363-1.932 1.042-3.616 2.414-5.135 3.852a41.522 41.522 0 0 0-2.874 3.041 127.57 127.57 0 0 0-9.016-19.62 130.914 130.914 0 0 1 7.976-13.966v-.017Zm-11.559-14.479c3.121 3.124 6.044 6.364 8.57 9.851a132.285 132.285 0 0 0-7.646 14.099 122.979 122.979 0 0 0-6.952-10.115c-2.378-4.347-6.027-10.397-11.196-17.488 0 0-6.341-9.867 3.517-5.636 3.65 1.57 8.736 5.256 13.707 9.273v.016Zm5.3-131.865s-2.46 11.967 1.404 14.793c0 0-22.161 25.719-22.161 8.281 0-1.785 3.501-11.438 1.404-23.074-1.371-7.471-3.336-17.289-3.997-25.752a23.553 23.553 0 0 1 2.857-6.876c2.378-3.818 5.879-7.057 9.826-9.867.726 1.851 1.288 3.752 1.304 5.669.017 2.149-.644 4.446-.462 6.893.231 4.842 2.526 9.305 5.466 12.958 2.114 2.694 4.772 4.826 6.704 7.223a86.943 86.943 0 0 1-2.345 9.752Zm2.89-12.892c-1.932-1.901-4.029-3.504-5.614-5.455-2.907-3.306-5.153-7.339-5.549-11.702-.264-2.149.297-4.38.198-6.81-.115-2.215-.842-4.297-1.717-6.215.661-.462 1.321-.942 1.998-1.372 3.286-2.082 6.804-3.933 10.354-5.818 1.453 9.339 2.527 22.942.33 37.372Zm3.914 8.644c3.22-10.777.892-33.057-2.229-47.09a338.345 338.345 0 0 0 4.045-2.198c5.565-3.091 11.18-6.909 15.573-11.785a94.271 94.271 0 0 0 3.187-3.67c.297.596.561 1.207.726 1.868 1.156 4.215-.759 9.24 1.222 14.198 1.718 4.595 5.02 8.579 4.525 12.595-.066.331.116.595.347.744-2.081 3.008-3.765 6.43-4.426 10.181-.743 4.017-.314 7.901-.297 11.521.049 3.603-.281 7.107-2.097 9.372-.099.099-.099.248-.149.363l-.099.05c-10.172 5.752-18.33 16.892-18.33 16.892s-6.919 3.488-1.998-13.057v.016Z"/><path fill="#329146" d="M359.996 58.173c.463 3.884 3.154 19.818 16.217 17.058a1.96 1.96 0 0 0 1.535-1.537c2.791-13.058-13.111-15.802-17.009-16.281-.462-.05-.809.297-.743.76Zm-23.318 1.654c.562 3.884 2.081 19.966-11.245 20.693-.81.05-1.536-.38-1.899-1.09-6.061-11.901 8.586-18.661 12.219-20.132.43-.182.859.066.925.529Z"/><path fill="#329146" d="M312.885 62.076c-1.255 2.926-5.829 15.273 4.508 18.645a1.578 1.578 0 0 0 1.701-.463c7.283-8.083-2.824-16.496-5.367-18.413-.297-.231-.677-.116-.825.231h-.017Zm93.048-2.845c-1.453 3.637-8.174 18.33-20.08 12.281a1.971 1.971 0 0 1-1.09-1.884c.677-13.339 16.761-11.868 20.641-11.322.463.066.711.495.529.925Z"/><path fill="#329146" d="M384.202 51.03c-2.543 1.901-12.666 10.298-5.416 18.397a1.603 1.603 0 0 0 1.717.463c10.337-3.356 5.796-15.702 4.541-18.628-.149-.347-.528-.446-.826-.215h-.016v-.016Z"/><path fill="#34CC8D" d="M373.818 48.223c-1.965 2.496-9.577 13.24-.479 19.173a1.595 1.595 0 0 0 1.784 0c9.115-5.917 1.536-16.66-.429-19.173a.541.541 0 0 0-.876 0Z"/><path fill="#329146" d="M356.99 196.898c.528 4.495 3.649 22.925 18.759 19.735a2.301 2.301 0 0 0 1.783-1.785c3.22-15.107-15.176-18.281-19.667-18.826-.545-.067-.941.347-.875.876Zm-62.7-72.955c.462 3.884 3.17 19.818 16.233 17.057a1.98 1.98 0 0 0 1.535-1.537c2.791-13.074-13.128-15.801-17.009-16.281-.462-.049-.809.298-.759.761Zm-6.556-23.027c.462 3.885 3.154 19.818 16.216 17.075a1.965 1.965 0 0 0 1.536-1.538c2.79-13.057-13.129-15.801-17.009-16.28-.463-.05-.809.297-.743.76v-.017Zm90.424 69.256c-.528 4.496-3.649 22.925-18.759 19.735a2.3 2.3 0 0 1-1.783-1.785c-3.237-15.107 15.175-18.281 19.667-18.826.529-.066.941.33.875.876Zm-60.325 58.627c1.668 4.198 9.446 21.189 23.218 14.198.826-.414 1.305-1.257 1.272-2.182-.793-15.438-19.404-13.719-23.879-13.091-.528.083-.809.562-.611 1.075Z"/><path fill="#329146" d="M353.803 210.371c.661 4.479 2.395 23.091-13.012 23.917a2.27 2.27 0 0 1-2.18-1.256c-7.018-13.768 9.925-21.587 14.136-23.272.495-.199.99.082 1.056.611Zm5.876-68.346c.545 3.884 2.064 19.966-11.262 20.694a1.933 1.933 0 0 1-1.883-1.091c-6.077-11.901 8.587-18.661 12.22-20.132.43-.182.859.066.925.529Zm-6.569-19.718c.561 3.884 2.064 19.966-11.262 20.694a1.93 1.93 0 0 1-1.883-1.091c-6.077-11.901 8.587-18.661 12.22-20.132.429-.165.859.066.925.529Zm-.002-26.32c.561 3.868 2.064 19.967-11.262 20.694-.81.05-1.52-.38-1.883-1.091-6.077-11.9 8.587-18.677 12.22-20.132.429-.165.859.067.925.53Zm-6.571-19.717c.562 3.869 2.065 19.968-11.262 20.695-.809.05-1.519-.38-1.882-1.091-6.077-11.9 8.587-18.677 12.22-20.132.429-.182.858.066.924.529ZM300.45 226.257c2.328 3.14 12.633 15.586 22.574 6.661a1.993 1.993 0 0 0 .561-2.116c-4.112-12.71-19.271-7.124-22.854-5.586-.43.181-.562.661-.281 1.024v.017Zm-19.721-16.45c2.345 3.141 12.633 15.587 22.574 6.661a1.992 1.992 0 0 0 .561-2.115c-4.111-12.711-19.254-7.124-22.854-5.587-.429.182-.562.661-.281 1.025v.016Zm-22.984-16.427c2.328 3.141 12.632 15.587 22.574 6.661a1.991 1.991 0 0 0 .561-2.115c-4.112-12.711-19.271-7.124-22.855-5.587-.429.182-.561.661-.28 1.025v.016Z"/><path fill="#329146" d="M333.292 199.938c2.328 3.141 12.632 15.587 22.573 6.661.595-.545.81-1.339.562-2.099-4.112-12.711-19.271-7.124-22.855-5.587-.429.182-.561.661-.28 1.025Zm-9.857-19.719c2.345 3.141 12.633 15.587 22.574 6.661a1.99 1.99 0 0 0 .561-2.115c-4.111-12.711-19.254-7.124-22.854-5.587-.429.182-.562.661-.281 1.025v.016Zm-9.858-23.006c2.345 3.14 12.633 15.586 22.574 6.661a1.993 1.993 0 0 0 .561-2.116c-4.112-12.71-19.255-7.124-22.854-5.586-.43.181-.562.661-.281 1.024v.017Zm0-19.737c2.345 3.14 12.633 15.586 22.574 6.661a1.993 1.993 0 0 0 .561-2.116c-4.112-12.711-19.255-7.124-22.854-5.587-.43.182-.562.661-.281 1.025v.017Zm-6.573-19.733c2.345 3.141 12.649 15.587 22.574 6.661.611-.545.826-1.339.578-2.099-4.112-12.71-19.271-7.124-22.871-5.587-.43.182-.545.662-.281 1.025Zm-3.286-19.72c2.344 3.14 12.649 15.586 22.573 6.661a1.97 1.97 0 0 0 .578-2.116c-4.112-12.71-19.271-7.123-22.871-5.586-.429.181-.545.66-.264 1.024h-.016v.017Zm-6.557-16.448c2.328 3.14 12.632 15.587 22.573 6.661.595-.545.81-1.339.562-2.099-4.112-12.71-19.271-7.124-22.871-5.587-.413.182-.545.662-.264 1.025Z"/><path fill="#329146" d="M333.31 196.882c1.536 3.603 7.167 18.743-5.532 22.892a1.962 1.962 0 0 1-2.097-.562c-8.95-9.917 3.468-20.264 6.589-22.611.38-.281.859-.149 1.04.281Zm-9.859-19.716c1.552 3.603 7.166 18.743-5.516 22.892a1.989 1.989 0 0 1-2.114-.562c-8.933-9.917 3.468-20.264 6.606-22.611.363-.281.842-.149 1.024.281Zm-16.413-6.58c1.536 3.603 7.167 18.743-5.532 22.892a1.96 1.96 0 0 1-2.097-.562c-8.95-9.917 3.468-20.264 6.589-22.611.379-.281.858-.149 1.04.281Zm-6.574-23.025c1.536 3.603 7.167 18.743-5.532 22.892a1.96 1.96 0 0 1-2.097-.562c-8.951-9.917 3.467-20.264 6.588-22.611.38-.281.859-.149 1.041.281Zm-9.857-19.72c1.536 3.604 7.167 18.744-5.532 22.892a1.97 1.97 0 0 1-2.097-.562c-8.95-9.917 3.468-20.264 6.605-22.611.364-.281.842-.148 1.024.281Zm-9.858-16.446c1.552 3.603 7.167 18.743-5.516 22.892a1.995 1.995 0 0 1-2.113-.562c-8.934-9.917 3.484-20.264 6.605-22.611.38-.281.842-.149 1.024.281Zm-13.13-16.425c1.536 3.603 7.167 18.743-5.532 22.891a1.96 1.96 0 0 1-2.097-.562c-8.95-9.917 3.468-20.264 6.589-22.61.38-.282.858-.15 1.04.28Zm-17.847 48.442c3.072 2.429 16.233 11.784 23.532.578a2.01 2.01 0 0 0 0-2.182c-7.266-11.206-20.444-1.884-23.532.529-.363.298-.363.777 0 1.075Zm-9.865-16.445c3.072 2.43 16.249 11.785 23.532.579a1.946 1.946 0 0 0 0-2.182c-7.25-11.206-20.444-1.884-23.532.529-.363.281-.363.777 0 1.074Zm-16.411-13.159c3.072 2.43 16.233 11.785 23.515.579a1.978 1.978 0 0 0 .017-2.182c-7.266-11.207-20.46-1.884-23.532.529-.363.281-.363.777 0 1.074Zm36.558 41.704c2.411 3.074 11.774 16.248.578 23.553a1.94 1.94 0 0 1-2.18 0c-11.196-7.272-1.882-20.462.529-23.553a.648.648 0 0 1 1.057 0h.016Z"/><path fill="#329146" d="M246.911 148.933c2.427 3.074 11.774 16.248.577 23.553a1.942 1.942 0 0 1-2.179 0c-11.196-7.272-1.883-20.462.528-23.553.297-.364.776-.364 1.074 0Zm-16.43-6.579c2.427 3.074 11.774 16.247.594 23.553a1.942 1.942 0 0 1-2.179 0c-11.196-7.273-1.883-20.462.528-23.553a.648.648 0 0 1 1.057 0Z"/><path fill="#329146" d="M219.416 141.414c3.6 1.537 18.726 7.173 22.871-5.521.248-.76.033-1.57-.561-2.116-9.908-8.942-20.246 3.471-22.591 6.612-.28.38-.148.843.281 1.025Zm-22.986 29.584c3.583 1.538 18.726 7.174 22.871-5.537.247-.76.033-1.57-.562-2.099-9.908-8.958-20.245 3.471-22.59 6.612-.281.38-.149.843.264 1.024h.017Zm32.845 23.007c3.583 1.537 18.726 7.173 22.871-5.521a2 2 0 0 0-.562-2.115c-9.908-8.942-20.245 3.471-22.59 6.611-.281.38-.149.843.281 1.025Zm-19.721-9.853c3.6 1.537 18.743 7.173 22.871-5.521.264-.76.049-1.57-.562-2.116-9.908-8.958-20.229 3.471-22.59 6.612-.281.38-.149.843.281 1.025Zm35.158-95.814c3.121 2.347 15.572 12.645 6.654 22.595a2.024 2.024 0 0 1-2.113.578c-12.699-4.115-7.118-19.289-5.582-22.892.182-.43.661-.562 1.041-.28Zm-10.499 148.646c3.881.562 19.948 2.082 20.675-11.273.05-.81-.38-1.521-1.09-1.884-11.889-6.083-18.66 8.595-20.113 12.231-.182.43.066.859.528.926Zm-16.418-6.582c3.865.561 19.949 2.082 20.659-11.273a1.933 1.933 0 0 0-1.09-1.884c-11.89-6.083-18.644 8.595-20.114 12.231a.667.667 0 0 0 .545.926Zm55.456-17.321c3.632 1.454 18.313 8.182 12.269 20.099a1.981 1.981 0 0 1-1.899 1.091c-13.326-.695-11.857-16.777-11.295-20.661.049-.463.479-.711.925-.529Zm-19.719-6.581c3.633 1.455 18.313 8.182 12.269 20.099-.363.711-1.073 1.141-1.882 1.091-13.327-.678-11.857-16.777-11.312-20.661.066-.463.496-.71.925-.529Z"/><path fill="#329146" d="M237.121 196.634c3.633 1.454 18.313 8.181 12.269 20.098a1.978 1.978 0 0 1-1.899 1.091c-13.326-.694-11.857-16.776-11.295-20.66.066-.463.479-.711.925-.529Zm68.642 73.867c3.765-1.041 19.09-6.132 14.384-18.644-.281-.76-.942-1.256-1.751-1.289-13.326-.777-13.607 15.388-13.491 19.305.016.463.413.76.858.628Zm-19.7 0c3.765-1.041 19.09-6.132 14.383-18.644-.297-.76-.957-1.256-1.767-1.289-13.326-.777-13.607 15.388-13.491 19.305.016.463.413.76.875.628Zm-22.999 6.58c3.765-1.041 19.09-6.132 14.383-18.644a1.96 1.96 0 0 0-1.75-1.289c-13.326-.777-13.607 15.388-13.491 19.305.016.463.412.76.858.628Zm-26.276 0c3.765-1.041 19.089-6.132 14.383-18.644a1.963 1.963 0 0 0-1.75-1.289c-13.327-.777-13.624 15.388-13.492 19.305.017.463.413.76.859.628Z"/><path fill="#329146" d="M220.354 277.081c3.765-1.041 19.106-6.132 14.383-18.644-.28-.76-.941-1.24-1.75-1.289-13.326-.777-13.607 15.388-13.491 19.305.016.463.412.76.858.628Zm23.319-41.028c3.913-.133 20.063.115 19.32 13.454-.049.81-.528 1.471-1.288 1.752-12.484 4.744-17.603-10.578-18.66-14.347-.132-.446.165-.843.628-.859Zm-19.699 0c3.897-.133 20.047.115 19.304 13.454-.033.81-.529 1.471-1.288 1.752-12.468 4.744-17.603-10.578-18.66-14.347-.116-.446.165-.843.627-.859h.017Z"/><path fill="#329146" d="M207.546 236.053c3.913-.133 20.064.115 19.32 13.454-.049.81-.528 1.471-1.288 1.752-12.484 4.744-17.603-10.578-18.66-14.347-.132-.446.165-.843.628-.859Zm52.559-3.287c3.914-.133 20.048.115 19.321 13.454a2.01 2.01 0 0 1-1.288 1.768c-12.484 4.744-17.62-10.578-18.677-14.346-.115-.447.166-.843.644-.86v-.016Zm231.945 46.59c-3.782-1.041-19.09-6.132-14.384-18.644.281-.761.942-1.24 1.751-1.289 13.326-.777 13.607 15.388 13.491 19.305-.016.463-.412.76-.858.628Zm22.989-6.557c-3.765-1.041-19.089-6.132-14.383-18.644a1.94 1.94 0 0 1 1.75-1.29c13.327-.776 13.624 15.389 13.492 19.306-.017.463-.413.76-.859.628Z"/><path fill="#329146" d="M528.184 266.217c-3.781-1.041-19.089-6.132-14.383-18.644.281-.761.941-1.257 1.751-1.29 13.326-.776 13.623 15.389 13.491 19.306-.016.463-.413.76-.859.628ZM439.491 202.5c-4.195 1.669-21.171 9.471-14.185 23.239.412.827 1.255 1.306 2.179 1.273 15.424-.794 13.707-19.405 13.079-23.884-.083-.529-.578-.81-1.073-.612v-.016Zm86.232 18.217c-3.616 1.454-18.313 8.181-12.269 20.098a1.978 1.978 0 0 0 1.899 1.091c13.326-.677 11.856-16.776 11.295-20.66-.066-.463-.479-.711-.925-.529Zm-19.7 6.562c-3.633 1.454-18.313 8.181-12.269 20.098a1.969 1.969 0 0 0 1.882 1.091c13.343-.694 11.857-16.776 11.312-20.66-.066-.463-.496-.711-.925-.529Zm-19.716 3.286c-3.633 1.455-18.313 8.182-12.269 20.099a1.953 1.953 0 0 0 1.899 1.091c13.326-.678 11.856-16.777 11.295-20.661-.066-.463-.479-.711-.925-.529Z"/><path fill="#329146" d="M469.892 230.565c-3.633 1.455-18.313 8.182-12.269 20.099a1.929 1.929 0 0 0 1.882 1.091c13.327-.678 11.857-16.777 11.312-20.661-.066-.463-.495-.711-.925-.529Zm-15.256 24.381c-4.476.645-23.07 2.397-23.912-13.024a2.274 2.274 0 0 1 1.255-2.182c13.756-7.025 21.583 9.95 23.268 14.148.198.496-.083.992-.628 1.075h.017v-.017Zm-6.343 20.498c-4.475.644-23.069 2.396-23.895-13.025a2.273 2.273 0 0 1 1.255-2.182c13.739-7.024 21.567 9.951 23.251 14.149.198.496-.083.992-.611 1.074v-.016Zm45.049-54.084c-3.864.561-19.948 2.082-20.658-11.273a1.93 1.93 0 0 1 1.09-1.884c11.873-6.083 18.643 8.595 20.113 12.231a.667.667 0 0 1-.545.926Zm16.43-13.142c-3.88.562-19.948 2.083-20.674-11.272a1.983 1.983 0 0 1 1.089-1.884c11.89-6.083 18.661 8.594 20.114 12.231.181.43-.066.859-.529.925Zm16.414-13.156c-3.864.562-19.948 2.082-20.659-11.273-.049-.81.364-1.521 1.09-1.901 11.874-6.082 18.644 8.595 20.114 12.231a.667.667 0 0 1-.545.926v.017Z"/><path fill="#329146" d="M532.761 181.909c-3.864.562-19.948 2.083-20.658-11.272-.05-.81.363-1.521 1.09-1.901 11.873-6.083 18.643 8.595 20.113 12.231a.667.667 0 0 1-.545.926v.016Zm-65.691 36.162c-3.88.562-19.948 2.083-20.675-11.272a1.984 1.984 0 0 1 1.09-1.884c11.89-6.083 18.66 8.595 20.114 12.231.181.43-.066.859-.529.925Zm9.857-16.43c-3.881.562-19.949 2.083-20.675-11.272a1.986 1.986 0 0 1 1.09-1.885c11.889-6.082 18.66 8.595 20.113 12.232.182.429-.066.859-.528.925Zm66.729 32.084c-2.922-1.257-15.241-5.835-18.627 4.495a1.638 1.638 0 0 0 .463 1.719c8.075 7.289 16.48-2.826 18.396-5.371a.548.548 0 0 0-.232-.843ZM474.898 99.612c-3.138 2.347-15.572 12.644-6.655 22.594a2 2 0 0 0 2.097.579c12.699-4.116 7.117-19.289 5.582-22.892-.182-.43-.661-.562-1.024-.281Zm-13.149 23.006c-3.137 2.347-15.572 12.645-6.655 22.595.545.595 1.338.81 2.114.562 12.699-4.116 7.101-19.289 5.565-22.892-.182-.43-.644-.562-1.024-.281v.016Z"/><path fill="#329146" d="M448.606 132.487c-3.121 2.347-15.572 12.644-6.655 22.594.545.595 1.338.81 2.114.562 12.699-4.115 7.117-19.289 5.582-22.875-.182-.43-.661-.562-1.041-.281Zm-16.413 9.866c-3.138 2.347-15.572 12.645-6.655 22.595a1.96 1.96 0 0 0 2.097.562c12.699-4.116 7.117-19.289 5.582-22.876-.182-.429-.661-.562-1.024-.281Zm-19.72 13.158c-3.138 2.347-15.572 12.644-6.655 22.595.545.595 1.338.81 2.114.562 12.699-4.116 7.117-19.289 5.581-22.876-.181-.43-.66-.562-1.04-.281Zm22.608 44c-4.162 1.785-21.666 8.297-26.455-6.397a2.308 2.308 0 0 1 .661-2.446c11.46-10.347 23.399 4.016 26.107 7.636.331.43.182.975-.313 1.19v.017Zm13.314-14.4c-3.6 1.538-18.726 7.174-22.871-5.52a2.002 2.002 0 0 1 .561-2.116c9.909-8.942 20.246 3.471 22.591 6.612.281.38.148.843-.281 1.024Zm19.694-16.441c-3.583 1.537-18.726 7.173-22.871-5.521a2.002 2.002 0 0 1 .562-2.116c9.908-8.942 20.245 3.471 22.59 6.612.281.38.149.843-.264 1.025h-.017Zm16.437-16.432c-3.6 1.538-18.726 7.174-22.871-5.52a2.002 2.002 0 0 1 .561-2.116c9.908-8.942 20.246 3.471 22.591 6.612.28.363.148.843-.281 1.024Zm6.569 32.873c-3.599 1.537-18.742 7.173-22.871-5.521-.264-.76-.049-1.57.562-2.115 9.908-8.942 20.229 3.471 22.59 6.611.264.38.149.843-.281 1.025Zm13.128-13.156c-3.583 1.537-18.726 7.173-22.871-5.521a1.998 1.998 0 0 1 .562-2.115c9.908-8.959 20.245 3.471 22.59 6.611.281.364.149.843-.281 1.025Zm-6.553-36.164c-3.6 1.537-18.743 7.174-22.888-5.537a1.945 1.945 0 0 1 .578-2.099c9.908-8.958 20.229 3.471 22.591 6.612.264.38.148.843-.281 1.024Zm9.855-13.14c-3.6 1.537-18.743 7.173-22.888-5.521a2 2 0 0 1 .562-2.115c9.908-8.942 20.245 3.471 22.59 6.611.281.38.149.843-.281 1.025h.017Zm-2.212-25.834c-3.154-.463-16.233-1.686-16.827 9.173-.033.661.313 1.24.891 1.537 9.677 4.959 15.193-6.991 16.365-9.95.149-.347-.049-.694-.429-.76Zm-13.144-6.577c-3.137-.463-16.232-1.686-16.81 9.174a1.6 1.6 0 0 0 .875 1.537c9.677 4.942 15.192-7.008 16.381-9.95.132-.348-.066-.695-.446-.76Zm-39.616-1.886c-2.427 3.074-11.774 16.247-.594 23.553a1.943 1.943 0 0 0 2.18 0c11.212-7.273 1.899-20.462-.529-23.553a.648.648 0 0 0-1.057 0Zm-9.861 19.72c-2.427 3.074-11.774 16.247-.594 23.553a1.97 1.97 0 0 0 2.196 0c11.196-7.273 1.882-20.463-.529-23.553-.297-.364-.776-.364-1.073 0Z"/><path fill="#329146" d="M429.549 114.652c-2.411 3.074-11.774 16.248-.578 23.553a1.94 1.94 0 0 0 2.18 0c11.196-7.272 1.882-20.462-.529-23.553-.28-.364-.776-.364-1.073 0Zm83.178 36.597c-3.072 2.43-16.25 11.785-23.532.579a2.01 2.01 0 0 1 0-2.182c7.266-11.206 20.444-1.884 23.532.529.363.281.363.777 0 1.074Z"/><path fill="#329146" d="M427.319 138.087c-3.071 2.43-16.232 11.785-23.531.579a2.007 2.007 0 0 1 0-2.182c7.266-11.206 20.443-1.884 23.531.529.364.281.364.777 0 1.074Zm89.521 75.852c-3.171.381-16.134 2.579-13.888 13.223a1.588 1.588 0 0 0 1.255 1.257c10.635 2.28 12.864-10.695 13.244-13.851.05-.381-.231-.662-.611-.612v-.017Zm0-55.901c-3.171.38-16.134 2.579-13.888 13.223a1.586 1.586 0 0 0 1.255 1.256c10.635 2.281 12.864-10.694 13.244-13.851.05-.38-.231-.661-.611-.611v-.017Zm-42.704-75.62c-3.171.38-16.134 2.578-13.888 13.222a1.587 1.587 0 0 0 1.255 1.257c10.635 2.28 12.864-10.695 13.244-13.851a.53.53 0 0 0-.611-.612v-.016Zm-86.249 78.415c-.661 4.479-2.411 23.09 13.013 23.916a2.268 2.268 0 0 0 2.179-1.256c7.035-13.768-9.924-21.586-14.135-23.272-.496-.198-.991.083-1.057.612Zm7.313-51.881c-.561 3.868-2.081 19.967 11.246 20.678.809.049 1.519-.381 1.899-1.091 6.06-11.901-8.587-18.661-12.22-20.132-.429-.166-.859.066-.925.529v.016Zm3.27-23.026c-.545 3.884-2.064 19.967 11.262 20.694.809.05 1.519-.38 1.882-1.091 6.077-11.9-8.587-18.66-12.22-20.132-.429-.181-.858.066-.924.53Zm6.576-16.432c-.545 3.868-2.064 19.966 11.262 20.694a1.984 1.984 0 0 0 1.883-1.091c6.076-11.9-8.587-18.661-12.22-20.132-.43-.165-.859.066-.925.529Zm-49.261 42.743c-.561 3.867-2.081 19.966 11.246 20.694a1.982 1.982 0 0 0 1.899-1.091c6.077-11.901-8.587-18.678-12.22-20.132-.43-.182-.859.066-.925.529Zm0-26.311c-.561 3.884-2.081 19.967 11.246 20.694.809.05 1.535-.38 1.899-1.091 6.077-11.9-8.587-18.66-12.22-20.132-.43-.181-.859.066-.925.53Z"/><path fill="#329146" d="M359.073 72.782c-.561 3.884-2.081 19.967 11.246 20.694.809.05 1.519-.364 1.899-1.09 6.06-11.901-8.604-18.678-12.22-20.133-.446-.181-.875.066-.925.53Zm55.15 131.95c-1.684 4.198-9.462 21.189-23.217 14.198-.843-.43-1.322-1.256-1.272-2.182.793-15.438 19.387-13.719 23.878-13.091.529.083.81.562.611 1.075Zm-16.409-69.038c-1.684 4.198-9.462 21.19-23.234 14.198a2.287 2.287 0 0 1-1.255-2.182c.792-15.437 19.387-13.718 23.862-13.09.528.082.825.562.627 1.074Zm34.395-27.141c-1.437 3.636-8.174 18.33-20.08 12.28a2 2 0 0 1-1.09-1.884c.694-13.339 16.761-11.867 20.642-11.322.462.066.71.496.528.926Zm9.857-19.721c-1.454 3.636-8.174 18.33-20.081 12.281a1.975 1.975 0 0 1-1.09-1.885c.694-13.338 16.762-11.867 20.642-11.322.463.066.71.496.529.926Zm-39.419-13.156c-1.454 3.636-8.174 18.33-20.081 12.28a2.001 2.001 0 0 1-1.09-1.883c.694-13.339 16.762-11.868 20.642-11.322.463.066.71.495.529.925Zm-3.285 19.72c-1.454 3.637-8.175 18.331-20.081 12.281a1.975 1.975 0 0 1-1.09-1.884c.694-13.339 16.761-11.868 20.642-11.322.463.066.71.496.529.925Z"/><path fill="#329146" d="M396.074 111.843c-1.436 3.636-8.174 18.33-20.08 12.28a2 2 0 0 1-1.09-1.884c.694-13.338 16.778-11.867 20.642-11.322.462.066.71.496.545.926h-.017Zm30.835-37.803c-2.543 1.901-12.666 10.298-5.416 18.397.445.479 1.089.66 1.717.463 10.337-3.356 5.796-15.703 4.541-18.628a.53.53 0 0 0-.826-.232h-.016Z"/><path fill="#34CC8D" d="M375.486 114.687c.463 3.885 3.154 19.818 16.216 17.075.793-.166 1.371-.761 1.553-1.538 2.774-13.074-13.129-15.801-17.009-16.28-.463-.05-.809.297-.76.76v-.017Zm9.858-26.313c.462 3.884 3.154 19.818 16.216 17.074a1.96 1.96 0 0 0 1.536-1.537c2.791-13.074-13.112-15.802-17.009-16.28-.462-.05-.809.297-.743.76v-.017Zm48.053-3.723c-.462 3.885-3.154 19.835-16.216 17.058a1.98 1.98 0 0 1-1.552-1.537c-2.791-13.075 13.128-15.802 17.009-16.281.462-.05.809.297.759.76Zm-6.569 29.587c-.463 3.884-3.154 19.817-16.217 17.057a1.96 1.96 0 0 1-1.535-1.537c-2.791-13.074 13.111-15.801 16.992-16.281.462-.049.809.298.76.761ZM309.15 164.386c2.708 3.62 14.614 18.033 26.108 7.702a2.29 2.29 0 0 0 .66-2.429c-4.756-14.694-22.277-8.232-26.438-6.463-.495.215-.644.76-.33 1.19Zm-2.638-59.04c2.345 3.14 12.633 15.586 22.574 6.661a1.975 1.975 0 0 0 .562-2.099c-4.112-12.71-19.255-7.124-22.855-5.587-.429.182-.561.661-.281 1.025Zm57.099 39.847c1.783 4.165 8.273 21.686-6.391 26.479-.891.281-1.816.049-2.444-.645-10.337-11.471 4.013-23.421 7.63-26.148.429-.331.99-.182 1.205.314Zm-14.382-56.062c1.536 3.604 7.167 18.744-5.532 22.892a1.969 1.969 0 0 1-2.097-.561c-8.95-9.918 3.468-20.265 6.605-22.612.364-.28.842-.148 1.024.281Zm-35.654-17.519c-.462 3.157-1.701 16.247 9.165 16.842a1.602 1.602 0 0 0 1.536-.892c4.937-9.686-7.002-15.19-9.958-16.38-.347-.149-.694.066-.743.43ZM281.789 206.25c4.162 1.785 21.666 8.297 26.455-6.397a2.334 2.334 0 0 0-.644-2.446c-11.461-10.347-23.416 4.017-26.125 7.636-.33.43-.181.976.314 1.19v.017Zm-19.849-30.856c3.599 1.538 18.726 7.174 22.871-5.537.247-.76.049-1.57-.562-2.099-9.908-8.958-20.229 3.471-22.59 6.612-.281.38-.149.843.281 1.024Zm51.405 15.388c3.633 2.711 18 14.628 7.696 26.132a2.287 2.287 0 0 1-2.428.661c-14.697-4.76-8.223-22.297-6.456-26.462.214-.496.759-.645 1.188-.331Zm-22.822-58.59c3.121 2.347 15.572 12.645 6.655 22.595a1.996 1.996 0 0 1-2.114.562c-12.699-4.116-7.117-19.289-5.581-22.876.181-.43.66-.562 1.04-.281Zm-37.681-17.173c1.189 2.958 6.671 14.925 16.348 9.999.594-.297.925-.876.892-1.537-.562-10.859-13.64-9.669-16.794-9.206a.534.534 0 0 0-.446.744Zm43.463 163.265c3.22-3.174 15.869-16.925 4.112-26.925a2.287 2.287 0 0 0-2.51-.314c-13.904 6.694-5.152 23.206-2.824 27.09.264.463.826.529 1.222.149Zm-38.328 4.791c2.79-2.743 13.722-14.627 3.55-23.288a1.96 1.96 0 0 0-2.163-.281c-12.022 5.785-4.442 20.065-2.444 23.421.231.396.726.463 1.057.132v.016Zm-5.468-52.622c3.88-2.33 20.344-11.14 27.065 2.777a2.296 2.296 0 0 1-.314 2.496c-9.957 11.801-23.729-.827-26.916-4.05-.38-.38-.298-.942.165-1.223Zm45.976 0c3.88-2.33 20.361-11.14 27.082 2.777a2.3 2.3 0 0 1-.314 2.496c-9.974 11.801-23.73-.827-26.917-4.05-.38-.38-.297-.942.149-1.223Zm-70.813-.365c3.352-2.017 17.603-9.636 23.416 2.396a1.969 1.969 0 0 1-.281 2.166c-8.62 10.198-20.526-.711-23.267-3.504-.331-.331-.265-.827.132-1.058Zm-17.27 36.047c3.171.033 16.316-.512 15.424-11.355a1.606 1.606 0 0 0-1.073-1.405c-10.255-3.603-14.119 8.975-14.895 12.066-.083.363.148.694.528.694h.016ZM500.158 276.8c-2.79-2.744-13.722-14.628-3.55-23.289a1.96 1.96 0 0 1 2.163-.281c12.039 5.785 4.459 20.066 2.461 23.421-.248.397-.743.463-1.074.133v.016Zm-1.088-39.49c-3.881-2.331-20.345-11.141-27.082 2.776-.396.843-.281 1.802.314 2.496 9.974 11.802 23.729-.826 26.917-4.049.379-.38.313-.942-.149-1.223Zm37.967-23.369c-3.353-2.016-17.587-9.636-23.4 2.397a1.962 1.962 0 0 0 .264 2.165c8.62 10.198 20.527-.71 23.268-3.504.33-.33.264-.81-.132-1.058Zm.857 32.755c-3.187.033-16.315-.513-15.44-11.356a1.604 1.604 0 0 1 1.09-1.405c10.255-3.603 14.102 8.975 14.878 12.066a.535.535 0 0 1-.528.695Zm-76.755-56.16c-3.616 2.711-17.999 14.628-7.695 26.132a2.304 2.304 0 0 0 2.444.661c14.68-4.76 8.224-22.297 6.457-26.462-.215-.496-.76-.645-1.206-.331Zm19.569-22.383c-3.137 2.347-15.572 12.644-6.655 22.594.545.595 1.338.81 2.114.562 12.699-4.115 7.101-19.289 5.582-22.875-.198-.43-.661-.562-1.041-.281Zm-13.521 67.009c-4.162 1.785-21.666 8.297-26.455-6.396-.297-.893-.049-1.819.644-2.43 11.46-10.347 23.416 4.016 26.124 7.636.331.43.182.975-.313 1.19Zm36.292-24.249c-3.6 1.537-18.726 7.173-22.871-5.521a2.002 2.002 0 0 1 .561-2.116c9.908-8.941 20.229 3.471 22.591 6.612.264.364.148.843-.281 1.025Zm14.22-42.263c-3.154-.462-16.232-1.686-16.827 9.174a1.615 1.615 0 0 0 .892 1.537c9.677 4.942 15.192-6.992 16.365-9.95.148-.347-.05-.695-.43-.761Zm-108.23-18.659c-1.8 4.165-8.289 21.685 6.375 26.479.891.281 1.816.049 2.444-.645 10.337-11.471-4.013-23.421-7.63-26.148-.429-.331-.99-.182-1.189.314Zm40.688-42.893c-1.552 3.603-7.166 18.744 5.516 22.892.76.248 1.569.033 2.114-.562 8.933-9.917-3.485-20.264-6.606-22.611-.363-.281-.842-.149-1.024.281ZM438.07 188.14c-2.708 3.636-14.614 18.016-26.108 7.702a2.29 2.29 0 0 1-.66-2.429c4.756-14.694 22.277-8.232 26.438-6.463.495.215.644.76.33 1.19Zm25.684-29.42c-2.328 3.14-12.633 15.586-22.574 6.661a1.974 1.974 0 0 1-.561-2.099c4.112-12.711 19.271-7.124 22.871-5.587.413.182.545.661.264 1.025Zm23.723-54.151c-2.956 1.174-14.895 6.661-9.99 16.364.297.578.891.925 1.535.892 10.866-.562 9.661-13.653 9.215-16.81a.532.532 0 0 0-.76-.429v-.017Zm-28.732 158.115c-4.145 1.785-21.649 8.297-26.455-6.397a2.282 2.282 0 0 1 .661-2.43c11.46-10.347 23.399 4.017 26.124 7.637.314.429.165.975-.33 1.19Zm-48.634 11.337c.809-4.463 5.003-22.661 19.899-18.595a2.265 2.265 0 0 1 1.667 1.885c2.329 15.272-16.216 17.355-20.74 17.636-.529.033-.909-.397-.826-.926Z"/></g><g filter="url(#c)"><rect width="427" height="72" x="75" y="160" fill="#404040" rx="16" shape-rendering="crispEdges"/><path stroke="#0080FF" stroke-width="1.228" d="M115 176.614c10.707 0 19.386 8.679 19.386 19.386 0 10.707-8.679 19.386-19.386 19.386-10.707 0-19.386-8.679-19.386-19.386 0-10.707 8.679-19.386 19.386-19.386Z"/><path fill="#fff" d="m154.934 205 6.293-16.91h2.085l6.282 16.91h-2.215l-1.711-4.84h-6.809l-1.711 4.84h-2.214Zm7.312-14.379-2.742 7.746h5.531l-2.742-7.746h-.047ZM171.088 205v-16.91h2.039V205h-2.039Zm4.659 0v-16.91h2.039V205h-2.039Zm9.568.234c-3.504 0-5.613-2.449-5.613-6.281v-.012c0-3.773 2.156-6.363 5.484-6.363s5.356 2.473 5.356 6.129v.75h-8.778c.047 2.508 1.43 3.973 3.598 3.973 1.547 0 2.637-.774 2.988-1.817l.035-.105h2.004l-.023.117c-.398 2.016-2.391 3.609-5.051 3.609Zm-.14-10.851c-1.77 0-3.153 1.207-3.375 3.48h6.668c-.2-2.367-1.512-3.48-3.293-3.48Zm17.93 10.851c-1.746 0-3.106-.879-3.868-2.296h-.046V205h-2.039v-16.91h2.039v6.762h.046c.762-1.407 2.18-2.274 3.903-2.274 3.058 0 5.144 2.473 5.144 6.317v.011c0 3.844-2.062 6.328-5.179 6.328Zm-.399-1.804c2.156 0 3.492-1.723 3.492-4.524v-.011c0-2.778-1.336-4.512-3.492-4.512-2.051 0-3.527 1.793-3.527 4.512v.011c0 2.731 1.465 4.524 3.527 4.524Zm12.405 1.804c-3.504 0-5.613-2.449-5.613-6.281v-.012c0-3.773 2.156-6.363 5.484-6.363s5.355 2.473 5.355 6.129v.75h-8.777c.047 2.508 1.43 3.973 3.598 3.973 1.547 0 2.636-.774 2.988-1.817l.035-.105h2.004l-.023.117c-.399 2.016-2.391 3.609-5.051 3.609Zm-.141-10.851c-1.769 0-3.152 1.207-3.375 3.48h6.668c-.199-2.367-1.512-3.48-3.293-3.48Zm11.772 10.851c-3.117 0-5.18-2.484-5.18-6.328v-.011c0-3.844 2.086-6.317 5.145-6.317 1.722 0 3.14.867 3.902 2.274h.047v-6.762h2.039V205h-2.039v-2.062h-.047c-.762 1.417-2.121 2.296-3.867 2.296Zm.398-1.804c2.063 0 3.528-1.793 3.528-4.524v-.011c0-2.719-1.477-4.512-3.528-4.512-2.156 0-3.492 1.734-3.492 4.512v.011c0 2.801 1.336 4.524 3.492 4.524Zm8.069 1.57v-12.188h2.039v2.063h.047c.41-1.406 1.465-2.297 2.836-2.297.351 0 .656.059.82.082v1.981c-.164-.059-.598-.118-1.09-.118-1.582 0-2.613 1.102-2.613 2.954V205h-2.039Zm8.315-14.25a1.28 1.28 0 0 1-1.278-1.277c0-.715.574-1.278 1.278-1.278.714 0 1.277.563 1.277 1.278 0 .703-.563 1.277-1.277 1.277Zm-1.02 14.25v-12.188h2.039V205h-2.039Zm5.701-14.25a1.28 1.28 0 0 1-1.277-1.277c0-.715.574-1.278 1.277-1.278.715 0 1.278.563 1.278 1.278 0 .703-.563 1.277-1.278 1.277Zm-2.753 18.363c-.129 0-.258 0-.387-.011v-1.793h.316c1.324 0 1.805-.411 1.805-1.77v-12.727h2.039v12.704c0 2.472-1.172 3.597-3.773 3.597Zm9.744-4.113-4.488-12.188h2.144l3.363 10.02h.047l3.375-10.02h2.121L257.282 205h-2.086Zm12.475.234c-3.504 0-5.613-2.449-5.613-6.281v-.012c0-3.773 2.156-6.363 5.484-6.363s5.355 2.473 5.355 6.129v.75h-8.777c.047 2.508 1.43 3.973 3.598 3.973 1.547 0 2.636-.774 2.988-1.817l.035-.105h2.004l-.023.117c-.399 2.016-2.391 3.609-5.051 3.609Zm-.141-10.851c-1.769 0-3.152 1.207-3.375 3.48h6.668c-.199-2.367-1.512-3.48-3.293-3.48ZM274.72 205v-12.188h2.039v1.735h.047c.656-1.137 1.898-1.969 3.75-1.969 2.672 0 4.219 1.734 4.219 4.512V205h-2.04v-7.547c0-1.98-.925-3.07-2.8-3.07-1.922 0-3.176 1.371-3.176 3.445V205h-2.039Z"/><path fill="#0080FF" d="M469.782 206.537c-5.675 0-10.393-4.718-10.393-10.394 0-5.686 4.708-10.394 10.383-10.394 5.686 0 10.404 4.708 10.404 10.394 0 5.676-4.708 10.394-10.394 10.394Zm0-1.733a8.622 8.622 0 0 0 8.662-8.661 8.643 8.643 0 0 0-8.672-8.661c-4.809 0-8.641 3.851-8.641 8.661a8.62 8.62 0 0 0 8.651 8.661Zm-.091-12.289a1.324 1.324 0 0 1-1.325-1.334c0-.744.591-1.335 1.325-1.335.744 0 1.324.591 1.324 1.335 0 .743-.58 1.334-1.324 1.334Zm-1.692 9.232c-.418 0-.744-.305-.744-.723 0-.398.326-.713.744-.713h1.264v-4.667h-1.09c-.418 0-.744-.306-.744-.724 0-.397.326-.713.744-.713h1.915c.52 0 .795.367.795.917v5.187h1.264c.417 0 .743.315.743.713 0 .418-.326.723-.743.723h-4.148Z"/></g><g filter="url(#d)"><rect width="427" height="72" x="75" y="248" fill="#404040" rx="16" shape-rendering="crispEdges"/><path fill="#34CC8D" d="M135 284c0 11.046-8.954 20-20 20s-20-8.954-20-20 8.954-20 20-20 20 8.954 20 20Z"/><path fill="#fff" fill-rule="evenodd" d="M122.746 276.574a1.724 1.724 0 0 1 2.438 2.438l-12.414 12.414a1.724 1.724 0 0 1-2.438 0l-5.517-5.517a1.724 1.724 0 1 1 2.438-2.439l4.298 4.298 11.195-11.194Z" clip-rule="evenodd"/><path fill="#fff" d="M163.371 293.281c-4.723 0-7.746-3.433-7.746-8.824v-.012c0-5.285 3.023-8.636 7.746-8.636 3.891 0 6.223 2.238 7.008 5.226l.059.223h-2.215l-.047-.129c-.785-2.145-2.426-3.375-4.805-3.375-3.48 0-5.59 2.519-5.59 6.691v.012c0 4.254 2.145 6.879 5.59 6.879 3 0 5.063-1.945 5.063-4.781v-.305h-4.77v-1.852h6.879v1.606c0 4.57-2.66 7.277-7.172 7.277Zm9.323-.281v-12.188h2.039v2.063h.047c.41-1.406 1.464-2.297 2.835-2.297.352 0 .657.059.821.082v1.981c-.164-.059-.598-.118-1.09-.118-1.582 0-2.613 1.102-2.613 2.954V293h-2.039Zm11.631.234c-3.387 0-5.649-2.449-5.649-6.328v-.023c0-3.879 2.274-6.305 5.637-6.305 3.363 0 5.648 2.414 5.648 6.305v.023c0 3.891-2.273 6.328-5.636 6.328Zm.011-1.804c2.145 0 3.539-1.664 3.539-4.524v-.023c0-2.86-1.406-4.5-3.562-4.5-2.121 0-3.551 1.652-3.551 4.5v.023c0 2.871 1.418 4.524 3.574 4.524Zm12.464 1.804c-3.504 0-5.614-2.449-5.614-6.281v-.012c0-3.773 2.156-6.363 5.485-6.363 3.328 0 5.355 2.473 5.355 6.129v.75h-8.777c.047 2.508 1.429 3.973 3.597 3.973 1.547 0 2.637-.774 2.989-1.817l.035-.105h2.004l-.024.117c-.398 2.016-2.39 3.609-5.05 3.609Zm-.141-10.851c-1.77 0-3.152 1.207-3.375 3.48h6.668c-.199-2.367-1.512-3.48-3.293-3.48Zm7.19 10.617v-12.188h2.039v1.735h.047c.656-1.137 1.898-1.969 3.75-1.969 2.671 0 4.218 1.734 4.218 4.512V293h-2.039v-7.547c0-1.98-.926-3.07-2.801-3.07-1.921 0-3.175 1.371-3.175 3.445V293h-2.039Zm17.431.234c-3.503 0-5.613-2.449-5.613-6.281v-.012c0-3.773 2.156-6.363 5.485-6.363 3.328 0 5.355 2.473 5.355 6.129v.75h-8.777c.047 2.508 1.429 3.973 3.597 3.973 1.547 0 2.637-.774 2.989-1.817l.035-.105h2.004l-.024.117c-.398 2.016-2.39 3.609-5.051 3.609Zm-.14-10.851c-1.77 0-3.153 1.207-3.375 3.48h6.668c-.199-2.367-1.512-3.48-3.293-3.48Zm17.93 10.851c-1.746 0-3.105-.879-3.867-2.296h-.047V293h-2.039v-16.91h2.039v6.762h.047c.762-1.407 2.179-2.274 3.902-2.274 3.059 0 5.145 2.473 5.145 6.317v.011c0 3.844-2.063 6.328-5.18 6.328Zm-.398-1.804c2.156 0 3.492-1.723 3.492-4.524v-.011c0-2.778-1.336-4.512-3.492-4.512-2.051 0-3.528 1.793-3.528 4.512v.011c0 2.731 1.465 4.524 3.528 4.524Zm12.404 1.804c-3.504 0-5.613-2.449-5.613-6.281v-.012c0-3.773 2.156-6.363 5.484-6.363s5.356 2.473 5.356 6.129v.75h-8.778c.047 2.508 1.43 3.973 3.598 3.973 1.547 0 2.637-.774 2.988-1.817l.035-.105h2.004l-.023.117c-.399 2.016-2.391 3.609-5.051 3.609Zm-.141-10.851c-1.769 0-3.152 1.207-3.375 3.48h6.668c-.199-2.367-1.511-3.48-3.293-3.48Zm11.772 10.851c-3.117 0-5.18-2.484-5.18-6.328v-.011c0-3.844 2.086-6.317 5.145-6.317 1.723 0 3.141.867 3.902 2.274h.047v-6.762h2.039V293h-2.039v-2.062h-.047c-.761 1.417-2.121 2.296-3.867 2.296Zm.399-1.804c2.062 0 3.527-1.793 3.527-4.524v-.011c0-2.719-1.477-4.512-3.527-4.512-2.157 0-3.493 1.734-3.493 4.512v.011c0 2.801 1.336 4.524 3.493 4.524Zm8.068 1.57v-12.188h2.039v2.063h.047c.41-1.406 1.465-2.297 2.836-2.297.352 0 .656.059.82.082v1.981c-.164-.059-.597-.118-1.089-.118-1.582 0-2.614 1.102-2.614 2.954V293h-2.039Zm8.315-14.25a1.28 1.28 0 0 1-1.277-1.277c0-.715.574-1.278 1.277-1.278.715 0 1.277.563 1.277 1.278 0 .703-.562 1.277-1.277 1.277Zm-1.02 14.25v-12.188h2.039V293h-2.039Zm5.702-14.25a1.28 1.28 0 0 1-1.278-1.277c0-.715.575-1.278 1.278-1.278.715 0 1.277.563 1.277 1.278 0 .703-.562 1.277-1.277 1.277Zm-2.754 18.363c-.129 0-.258 0-.387-.011v-1.793h.317c1.324 0 1.804-.411 1.804-1.77v-12.727h2.039v12.704c0 2.472-1.172 3.597-3.773 3.597Zm9.744-4.113-4.488-12.188h2.145l3.363 10.02h.047l3.375-10.02h2.121L293.247 293h-2.086Zm12.475.234c-3.504 0-5.613-2.449-5.613-6.281v-.012c0-3.773 2.156-6.363 5.484-6.363s5.356 2.473 5.356 6.129v.75h-8.778c.047 2.508 1.43 3.973 3.598 3.973 1.547 0 2.637-.774 2.988-1.817l.035-.105h2.004l-.023.117c-.399 2.016-2.391 3.609-5.051 3.609Zm-.141-10.851c-1.769 0-3.152 1.207-3.375 3.48h6.668c-.199-2.367-1.511-3.48-3.293-3.48Zm7.19 10.617v-12.188h2.039v1.735h.047c.656-1.137 1.899-1.969 3.75-1.969 2.672 0 4.219 1.734 4.219 4.512V293h-2.039v-7.547c0-1.98-.926-3.07-2.801-3.07-1.922 0-3.176 1.371-3.176 3.445V293h-2.039Z"/><path fill="#0080FF" d="M469.782 294.537c-5.675 0-10.393-4.718-10.393-10.394 0-5.686 4.708-10.394 10.383-10.394 5.686 0 10.404 4.708 10.404 10.394 0 5.676-4.708 10.394-10.394 10.394Zm0-1.733a8.622 8.622 0 0 0 8.662-8.661 8.643 8.643 0 0 0-8.672-8.661c-4.809 0-8.641 3.851-8.641 8.661a8.62 8.62 0 0 0 8.651 8.661Zm-.091-12.289a1.324 1.324 0 0 1-1.325-1.334c0-.744.591-1.335 1.325-1.335.744 0 1.324.591 1.324 1.335 0 .743-.58 1.334-1.324 1.334Zm-1.692 9.232c-.418 0-.744-.305-.744-.723 0-.398.326-.713.744-.713h1.264v-4.667h-1.09c-.418 0-.744-.306-.744-.724 0-.397.326-.713.744-.713h1.915c.52 0 .795.367.795.917v5.187h1.264c.417 0 .743.315.743.713 0 .418-.326.723-.743.723h-4.148Z"/></g><g filter="url(#e)"><rect width="427" height="80" x="75" y="336" fill="#404040" rx="16"/><rect width="40" height="40" x="95" y="355.5" fill="#0080FF" rx="20"/><path fill="#fff" fill-rule="evenodd" d="M126.035 367.224v16.552a2.759 2.759 0 0 1-2.759 2.759h-16.552a2.758 2.758 0 0 1-2.758-2.759l-.002-3.8c.692-.722 1.725-1.387 3.109-1.98.632-.271 1.237-.44 2.057-.558l.366-.047.587-.06.665-.051.756-.046 1.255-.066c2.893-.174 4.499-.533 6.165-1.63 2.256-1.486 4.594-4.421 7.064-8.817.031.162.047.331.047.503Zm-2.759-2.758c.506 0 .979.136 1.387.373l-.115.212-.564 1.01c-2.243 3.928-4.324 6.515-6.199 7.749-1.062.7-2.158 1.024-3.958 1.201l-.397.036-.807.056-1.692.092-.784.054c-1.721.136-2.733.349-3.889.845-.866.371-1.631.777-2.294 1.218l.002-10.088a2.758 2.758 0 0 1 2.758-2.758h16.552Z" clip-rule="evenodd"/><path fill="#fff" d="m159.905 373.5-4.654-13.431h2.616l3.406 10.871h.047l3.416-10.871h2.615l-4.663 13.431h-2.783Zm11.682.195c-2.96 0-4.747-1.963-4.747-5.1v-.01c0-3.108 1.815-5.156 4.635-5.156s4.57 1.983 4.57 4.961v.745h-6.906c.037 1.731.986 2.755 2.494 2.755 1.154 0 1.908-.615 2.132-1.275l.018-.066h2.169l-.028.103c-.307 1.517-1.759 3.043-4.337 3.043Zm-.084-8.451c-1.229 0-2.15.828-2.337 2.346h4.626c-.167-1.564-1.061-2.346-2.289-2.346Zm6.041 8.256v-9.866h2.317v1.703h.047c.307-1.191 1.126-1.908 2.262-1.908.288 0 .558.046.735.093v2.094c-.196-.074-.549-.13-.94-.13-1.313 0-2.104.828-2.104 2.29v5.724h-2.317Zm9.847.195c-2.494 0-4.077-1.954-4.077-5.128v-.009c0-3.184 1.592-5.129 4.068-5.129 1.396 0 2.522.717 3.081 1.899h.056v-5.259h2.317V373.5h-2.317v-1.675h-.056c-.559 1.163-1.648 1.87-3.072 1.87Zm.698-1.954c1.434 0 2.43-1.238 2.43-3.174v-.009c0-1.927-1.006-3.174-2.43-3.174-1.48 0-2.41 1.21-2.41 3.174v.009c0 1.964.921 3.174 2.41 3.174Zm7.921-9.522a1.28 1.28 0 0 1-1.294-1.266c0-.707.568-1.275 1.294-1.275a1.272 1.272 0 1 1 0 2.541Zm-1.163 11.281v-9.866h2.317v9.866h-2.317Zm8.628.195c-2.96 0-4.747-1.963-4.747-5.1v-.01c0-3.108 1.815-5.156 4.635-5.156 2.821 0 4.571 1.983 4.571 4.961v.745h-6.907c.037 1.731.987 2.755 2.495 2.755 1.154 0 1.908-.615 2.131-1.275l.019-.066h2.168l-.027.103c-.308 1.517-1.76 3.043-4.338 3.043Zm-.084-8.451c-1.228 0-2.15.828-2.336 2.346h4.626c-.167-1.564-1.061-2.346-2.29-2.346Zm6.041 8.256v-9.866h2.318v1.545h.046c.512-1.061 1.517-1.75 3.016-1.75 2.169 0 3.407 1.396 3.407 3.686v6.385h-2.318v-5.92c0-1.405-.651-2.196-1.973-2.196-1.331 0-2.178.968-2.178 2.392v5.724h-2.318Zm14.316.195c-2.495 0-4.077-1.954-4.077-5.128v-.009c0-3.184 1.591-5.129 4.067-5.129 1.396 0 2.523.717 3.081 1.899h.056v-5.259h2.318V373.5h-2.318v-1.675h-.056c-.558 1.163-1.647 1.87-3.071 1.87Zm.698-1.954c1.433 0 2.429-1.238 2.429-3.174v-.009c0-1.927-1.005-3.174-2.429-3.174-1.48 0-2.411 1.21-2.411 3.174v.009c0 1.964.921 3.174 2.411 3.174Zm11.029 1.954c-2.96 0-4.747-1.963-4.747-5.1v-.01c0-3.108 1.815-5.156 4.636-5.156 2.82 0 4.57 1.983 4.57 4.961v.745h-6.907c.038 1.731.987 2.755 2.495 2.755 1.154 0 1.908-.615 2.131-1.275l.019-.066h2.169l-.028.103c-.307 1.517-1.759 3.043-4.338 3.043Zm-.083-8.451c-1.229 0-2.15.828-2.337 2.346h4.626c-.167-1.564-1.061-2.346-2.289-2.346Zm9.857 8.256v-9.866h2.317v1.703h.047c.307-1.191 1.126-1.908 2.262-1.908.288 0 .558.046.735.093v2.094c-.196-.074-.549-.13-.94-.13-1.313 0-2.104.828-2.104 2.29v5.724h-2.317Zm10.517.195c-2.959 0-4.747-1.963-4.747-5.1v-.01c0-3.108 1.815-5.156 4.636-5.156 2.82 0 4.57 1.983 4.57 4.961v.745h-6.907c.038 1.731.987 2.755 2.495 2.755 1.154 0 1.908-.615 2.131-1.275l.019-.066h2.169l-.028.103c-.307 1.517-1.759 3.043-4.338 3.043Zm-.083-8.451c-1.229 0-2.15.828-2.337 2.346h4.626c-.167-1.564-1.061-2.346-2.289-2.346Zm6.04 8.256v-9.866h2.318v1.545h.047c.512-1.061 1.517-1.75 3.015-1.75 2.169 0 3.407 1.396 3.407 3.686v6.385h-2.318v-5.92c0-1.405-.651-2.196-1.973-2.196-1.331 0-2.178.968-2.178 2.392v5.724h-2.318Zm14.316.195c-2.066 0-3.044-.837-3.044-2.866v-5.408h-1.396v-1.787h1.396v-2.504h2.355v2.504h1.834v1.787h-1.834v5.212c0 .968.428 1.275 1.275 1.275.224 0 .4-.028.559-.037v1.741c-.27.037-.68.083-1.145.083Zm6.888 0c-2.96 0-4.747-1.963-4.747-5.1v-.01c0-3.108 1.815-5.156 4.635-5.156s4.57 1.983 4.57 4.961v.745h-6.906c.037 1.731.986 2.755 2.494 2.755 1.154 0 1.908-.615 2.132-1.275l.018-.066h2.169l-.028.103c-.307 1.517-1.759 3.043-4.337 3.043Zm-.084-8.451c-1.229 0-2.15.828-2.336 2.346h4.626c-.168-1.564-1.061-2.346-2.29-2.346Z"/><path fill="#B4B4B8" d="M158.594 392.5v-9.118h-3.238v-1.153h7.758v1.153h-3.238v9.118h-1.282Zm7.051.142c-2.057 0-3.431-1.487-3.431-3.843v-.014c0-2.356 1.381-3.83 3.424-3.83 2.042 0 3.43 1.466 3.43 3.83v.014c0 2.363-1.381 3.843-3.423 3.843Zm.007-1.096c1.302 0 2.149-1.01 2.149-2.747v-.014c0-1.737-.854-2.734-2.163-2.734-1.289 0-2.157 1.004-2.157 2.734v.014c0 1.744.861 2.747 2.171 2.747Zm7.299 1.096c-1.359 0-2.029-.612-2.029-2.028v-4.491h-1.081v-1.025h1.081v-2.001h1.282v2.001h1.409v1.025h-1.409v4.484c0 .79.348 1.01 1.01 1.01.15 0 .292-.021.399-.028v1.004c-.157.021-.42.049-.662.049Zm5.431-.142v-7.402h1.238v1.053h.029c.399-.69 1.153-1.196 2.278-1.196 1.622 0 2.562 1.054 2.562 2.741v4.804h-1.238v-4.584c0-1.203-.563-1.865-1.702-1.865-1.167 0-1.929.833-1.929 2.093v4.356h-1.238Zm10.438.142c-1.623 0-2.562-1.053-2.562-2.74v-4.804h1.238v4.583c0 1.203.563 1.865 1.701 1.865 1.168 0 1.929-.833 1.929-2.092v-4.356h1.239v7.402h-1.239v-1.053h-.028c-.399.69-1.153 1.195-2.278 1.195Zm11.004 0c-1.359 0-2.028-.612-2.028-2.028v-4.491h-1.082v-1.025h1.082v-2.001h1.281v2.001h1.409v1.025h-1.409v4.484c0 .79.349 1.01 1.011 1.01.149 0 .292-.021.398-.028v1.004c-.156.021-.42.049-.662.049Zm5.072 0c-2.057 0-3.431-1.487-3.431-3.843v-.014c0-2.356 1.381-3.83 3.424-3.83 2.042 0 3.43 1.466 3.43 3.83v.014c0 2.363-1.38 3.843-3.423 3.843Zm.007-1.096c1.302 0 2.149-1.01 2.149-2.747v-.014c0-1.737-.854-2.734-2.163-2.734-1.289 0-2.157 1.004-2.157 2.734v.014c0 1.744.861 2.747 2.171 2.747Zm7.94 1.096c-2.128 0-3.41-1.487-3.41-3.815v-.007c0-2.292 1.31-3.865 3.332-3.865 2.021 0 3.252 1.502 3.252 3.723v.455h-5.331c.029 1.524.869 2.413 2.185 2.413.94 0 1.602-.47 1.815-1.103l.022-.064h1.217l-.014.071c-.242 1.224-1.452 2.192-3.068 2.192Zm-.086-6.591c-1.074 0-1.914.733-2.049 2.114h4.05c-.121-1.437-.919-2.114-2.001-2.114Zm8.015 6.449v-10.271h1.239v4.05h.028c.399-.833 1.203-1.324 2.306-1.324 1.573 0 2.648 1.217 2.648 3.011v4.534h-1.238v-4.32c0-1.339-.684-2.129-1.837-2.129-1.146 0-1.907.869-1.907 2.129v4.32h-1.239Zm11.065.142c-2.129 0-3.41-1.487-3.41-3.815v-.007c0-2.292 1.31-3.865 3.331-3.865 2.022 0 3.253 1.502 3.253 3.723v.455h-5.331c.028 1.524.868 2.413 2.185 2.413.94 0 1.602-.47 1.815-1.103l.022-.064h1.217l-.015.071c-.242 1.224-1.452 2.192-3.067 2.192Zm-.086-6.591c-1.075 0-1.914.733-2.05 2.114h4.05c-.121-1.437-.918-2.114-2-2.114Zm8.417 6.591c-1.06 0-1.886-.533-2.349-1.395h-.028v1.253h-1.239v-10.271h1.239v4.107h.028c.463-.854 1.324-1.381 2.37-1.381 1.858 0 3.125 1.502 3.125 3.837v.007c0 2.334-1.253 3.843-3.146 3.843Zm-.242-1.096c1.31 0 2.121-1.046 2.121-2.747v-.007c0-1.687-.811-2.741-2.121-2.741-1.246 0-2.142 1.089-2.142 2.741v.007c0 1.658.889 2.747 2.142 2.747Zm8.755-7.701a.778.778 0 0 1-.776-.776c0-.434.349-.776.776-.776a.77.77 0 0 1 .776.776.774.774 0 0 1-.776.776Zm-1.673 11.153c-.078 0-.156 0-.235-.007v-1.089h.193c.804 0 1.096-.249 1.096-1.075v-7.729h1.238v7.715c0 1.502-.712 2.185-2.292 2.185Zm7.25-2.356c-2.128 0-3.41-1.487-3.41-3.815v-.007c0-2.292 1.31-3.865 3.332-3.865 2.021 0 3.252 1.502 3.252 3.723v.455h-5.331c.029 1.524.868 2.413 2.185 2.413.94 0 1.602-.47 1.815-1.103l.022-.064h1.217l-.014.071c-.242 1.224-1.452 2.192-3.068 2.192Zm-.086-6.591c-1.074 0-1.914.733-2.05 2.114h4.05c-.121-1.437-.918-2.114-2-2.114Zm7.531 2.748v-.854h1.402a7.664 7.664 0 0 1-.021-.577v-.014c0-.214.007-.42.028-.619h-1.409v-.855h1.545c.569-2.398 2.555-3.501 4.825-3.501.484 0 1.118.064 1.388.156v1.153c-.284-.071-.904-.128-1.388-.128-1.651 0-2.975.74-3.466 2.32h3.829v.855h-4c-.021.206-.035.42-.035.64v.014c0 .193.007.378.028.556h4.007v.854h-3.85c.477 1.623 1.815 2.37 3.487 2.37.484 0 1.104-.043 1.388-.128v1.153c-.27.1-.904.157-1.388.157-2.291 0-4.284-1.125-4.84-3.552h-1.53Zm15.318 3.701v-8.911h-.029l-2.719 1.893v-1.288l2.733-1.965h1.253V392.5h-1.238Zm4.067 0v-.883l3.616-3.772c1.388-1.445 1.708-2 1.708-2.854v-.014c-.007-1.047-.797-1.801-1.914-1.801-1.281 0-2.235.882-2.235 1.986v.035h-1.239v-.043c0-1.779 1.538-3.096 3.452-3.096 1.858 0 3.218 1.246 3.218 2.854v.015c0 1.124-.52 1.971-2.406 3.9l-2.442 2.506v.028h5.018v1.139h-6.776Zm13.008 0v-2.135h-5.16v-1.161l4.505-6.975h1.894v7.011h1.452v1.125h-1.452v2.135h-1.239Zm-3.893-3.26h3.893v-5.915h-.043l-3.85 5.887v.028Zm7.52 5.274.626-3.48h1.295l-1.039 3.48h-.882Zm7.285-1.843c-2.121 0-3.495-1.182-3.63-2.805l-.007-.085h1.231l.007.071c.107 1.011 1.032 1.708 2.399 1.708 1.345 0 2.263-.754 2.263-1.843v-.014c0-1.26-.904-1.965-2.342-1.965h-1.288v-1.082h1.232c1.224 0 2.078-.754 2.078-1.779v-.014c0-1.075-.705-1.694-1.957-1.694-1.211 0-2.072.64-2.179 1.679l-.007.072h-1.231l.007-.072c.164-1.672 1.488-2.79 3.41-2.79 1.957 0 3.245 1.089 3.245 2.648v.014c0 1.267-.897 2.136-2.178 2.406v.029c1.495.128 2.513 1.06 2.513 2.519v.014c0 1.716-1.509 2.983-3.566 2.983Zm5.391-.171v-.883l3.616-3.772c1.388-1.445 1.709-2 1.709-2.854v-.014c-.008-1.047-.798-1.801-1.915-1.801-1.281 0-2.235.882-2.235 1.986v.035h-1.239v-.043c0-1.779 1.538-3.096 3.453-3.096 1.857 0 3.217 1.246 3.217 2.854v.015c0 1.124-.52 1.971-2.406 3.9l-2.441 2.506v.028h5.018v1.139h-6.777Zm13.752 0-2.726-7.402h1.303l2.042 6.085h.029l2.05-6.085h1.288l-2.719 7.402h-1.267Zm7.947.142c-2.128 0-3.409-1.487-3.409-3.815v-.007c0-2.292 1.309-3.865 3.331-3.865 2.021 0 3.253 1.502 3.253 3.723v.455h-5.332c.029 1.524.869 2.413 2.186 2.413.939 0 1.601-.47 1.815-1.103l.021-.064h1.217l-.014.071c-.242 1.224-1.452 2.192-3.068 2.192Zm-.085-6.591c-1.075 0-1.915.733-2.05 2.114h4.05c-.121-1.437-.918-2.114-2-2.114Zm4.737 6.449v-7.402h1.238v1.252h.029c.249-.854.889-1.395 1.722-1.395.214 0 .399.036.498.05v1.203c-.099-.036-.363-.071-.662-.071-.961 0-1.587.669-1.587 1.793v4.57h-1.238Zm7.149.142c-1.893 0-3.146-1.509-3.146-3.843v-.007c0-2.335 1.267-3.837 3.125-3.837 1.046 0 1.908.527 2.37 1.381h.029v-4.107h1.238V392.5h-1.238v-1.253h-.029c-.462.862-1.288 1.395-2.349 1.395Zm.242-1.096c1.253 0 2.143-1.089 2.143-2.747v-.007c0-1.652-.897-2.741-2.143-2.741-1.309 0-2.121 1.054-2.121 2.741v.007c0 1.701.812 2.747 2.121 2.747Zm5.969-7.701a.778.778 0 0 1-.776-.776c0-.434.349-.776.776-.776a.77.77 0 0 1 .776.776.774.774 0 0 1-.776.776Zm-.62 8.655v-7.402h1.239v7.402h-1.239Zm6.196.142c-2.128 0-3.409-1.487-3.409-3.815v-.007c0-2.292 1.31-3.865 3.331-3.865 2.022 0 3.253 1.502 3.253 3.723v.455h-5.331c.028 1.524.868 2.413 2.185 2.413.94 0 1.601-.47 1.815-1.103l.021-.064h1.217l-.014.071c-.242 1.224-1.452 2.192-3.068 2.192Zm-.085-6.591c-1.075 0-1.915.733-2.05 2.114h4.05c-.121-1.437-.918-2.114-2-2.114Zm4.737 6.449v-7.402h1.238v1.053h.029c.399-.69 1.153-1.196 2.278-1.196 1.622 0 2.562 1.054 2.562 2.741v4.804h-1.238v-4.584c0-1.203-.563-1.865-1.702-1.865-1.167 0-1.929.833-1.929 2.093v4.356h-1.238Zm10.694.142c-1.893 0-3.146-1.509-3.146-3.843v-.007c0-2.335 1.267-3.837 3.125-3.837 1.046 0 1.908.527 2.37 1.381h.029v-4.107h1.238V392.5h-1.238v-1.253h-.029c-.462.862-1.288 1.395-2.349 1.395Zm.242-1.096c1.253 0 2.143-1.089 2.143-2.747v-.007c0-1.652-.897-2.741-2.143-2.741-1.309 0-2.121 1.054-2.121 2.741v.007c0 1.701.812 2.747 2.121 2.747Z"/><path fill="#0080FF" d="M419.113 378.414v-1.289h2.116a11.592 11.592 0 0 1-.032-.87v-.022c0-.322.011-.633.043-.934h-2.127v-1.289h2.331c.859-3.62 3.856-5.285 7.283-5.285.731 0 1.687.096 2.095.236v1.74c-.43-.107-1.364-.193-2.095-.193-2.492 0-4.49 1.117-5.231 3.502h5.779v1.289h-6.037a9.428 9.428 0 0 0-.054.967v.021c0 .29.011.569.043.838h6.048v1.289h-5.812c.72 2.449 2.74 3.577 5.264 3.577.731 0 1.665-.064 2.095-.193v1.74c-.408.15-1.364.236-2.095.236-3.459 0-6.467-1.697-7.305-5.36h-2.309ZM437.4 384v-1.332l5.457-5.693c2.095-2.181 2.578-3.019 2.578-4.308v-.021c-.01-1.58-1.203-2.718-2.889-2.718-1.934 0-3.373 1.332-3.373 2.997v.054h-1.869v-.065c0-2.685 2.32-4.673 5.209-4.673 2.804 0 4.856 1.88 4.856 4.308v.021c0 1.698-.784 2.976-3.631 5.887l-3.684 3.781v.043h7.573V384H437.4Zm17.689.258c-2.965 0-5.081-1.848-5.306-4.372l-.011-.118h1.901l.011.086c.193 1.536 1.568 2.707 3.427 2.707 2.105 0 3.566-1.461 3.566-3.545v-.022c-.011-2.041-1.482-3.502-3.534-3.502-1.053 0-1.955.312-2.643.935a3.844 3.844 0 0 0-.73.913h-1.708l.795-8.841h8.873v1.719h-7.283l-.527 5.21h.043c.731-1.042 2.02-1.601 3.524-1.601 2.975 0 5.124 2.159 5.124 5.135v.021c-.011 3.105-2.299 5.275-5.522 5.275Zm6.646 2.782.946-5.253h1.955l-1.569 5.253h-1.332Zm9.039-9.888c-1.688 0-3.478-1.168-3.478-4.564v-.012c0-3.085 1.314-4.888 3.554-4.888 1.556 0 2.717.889 3.022 2.222l.019.082h-1.162l-.025-.07c-.273-.755-.927-1.225-1.866-1.225-1.708 0-2.381 1.657-2.431 3.58-.007.064-.007.127-.007.197h.026c.368-.812 1.307-1.473 2.551-1.473 1.746 0 3.041 1.289 3.041 3.028v.013c0 1.803-1.371 3.11-3.244 3.11Zm-2.101-3.123c0 1.175.914 2.108 2.089 2.108 1.168 0 2.094-.914 2.094-2.07v-.012c0-1.194-.869-2.051-2.075-2.051-1.2 0-2.108.851-2.108 2.019v.006ZM479.239 377v-1.904h-4.602v-1.035l4.018-6.221h1.688v6.253h1.295v1.003h-1.295V377h-1.104Zm-3.472-2.907h3.472v-5.275h-.038l-3.434 5.249v.026Z"/></g></g><defs><filter id="b" width="396.001" height="448" x="172" y="48" color-interpolation-filters="sRGB" filterUnits="userSpaceOnUse"><feFlood flood-opacity="0" result="BackgroundImageFix"/><feColorMatrix in="SourceAlpha" result="hardAlpha" values="0 0 0 0 0 0 0 0 0 0 0 0 0 0 0 0 0 0 127 0"/><feOffset dy="24"/><feGaussianBlur stdDeviation="12"/><feComposite in2="hardAlpha" operator="out"/><feColorMatrix values="0 0 0 0 0 0 0 0 0 0 0 0 0 0 0 0 0 0 0.15 0"/><feBlend in2="BackgroundImageFix" result="effect1_dropShadow_1_41705"/><feBlend in="SourceGraphic" in2="effect1_dropShadow_1_41705" result="shape"/></filter><filter id="c" width="475" height="120" x="51" y="160" color-interpolation-filters="sRGB" filterUnits="userSpaceOnUse"><feFlood flood-opacity="0" result="BackgroundImageFix"/><feColorMatrix in="SourceAlpha" result="hardAlpha" values="0 0 0 0 0 0 0 0 0 0 0 0 0 0 0 0 0 0 127 0"/><feOffset dy="24"/><feGaussianBlur stdDeviation="12"/><feComposite in2="hardAlpha" operator="out"/><feColorMatrix values="0 0 0 0 0 0 0 0 0 0 0 0 0 0 0 0 0 0 0.15 0"/><feBlend in2="BackgroundImageFix" result="effect1_dropShadow_1_41705"/><feBlend in="SourceGraphic" in2="effect1_dropShadow_1_41705" result="shape"/></filter><filter id="d" width="475" height="120" x="51" y="248" color-interpolation-filters="sRGB" filterUnits="userSpaceOnUse"><feFlood flood-opacity="0" result="BackgroundImageFix"/><feColorMatrix in="SourceAlpha" result="hardAlpha" values="0 0 0 0 0 0 0 0 0 0 0 0 0 0 0 0 0 0 127 0"/><feOffset dy="24"/><feGaussianBlur stdDeviation="12"/><feComposite in2="hardAlpha" operator="out"/><feColorMatrix values="0 0 0 0 0 0 0 0 0 0 0 0 0 0 0 0 0 0 0.15 0"/><feBlend in2="BackgroundImageFix" result="effect1_dropShadow_1_41705"/><feBlend in="SourceGraphic" in2="effect1_dropShadow_1_41705" result="shape"/></filter><filter id="e" width="475" height="128" x="51" y="336" color-interpolation-filters="sRGB" filterUnits="userSpaceOnUse"><feFlood flood-opacity="0" result="BackgroundImageFix"/><feColorMatrix in="SourceAlpha" result="hardAlpha" values="0 0 0 0 0 0 0 0 0 0 0 0 0 0 0 0 0 0 127 0"/><feOffset dy="24"/><feGaussianBlur stdDeviation="12"/><feComposite in2="hardAlpha" operator="out"/><feColorMatrix values="0 0 0 0 0 0 0 0 0 0 0 0 0 0 0 0 0 0 0.15 0"/><feBlend in2="BackgroundImageFix" result="effect1_dropShadow_1_41705"/><feBlend in="SourceGraphic" in2="effect1_dropShadow_1_41705" result="shape"/></filter><clipPath id="a"><path fill="#fff" d="M32 32h512v512H32z"/></clipPath></defs></svg>