<?xml version="1.0" encoding="UTF-8"?>
<svg id="Layer_2" data-name="Layer 2" xmlns="http://www.w3.org/2000/svg" viewBox="0 0 30.89 11.23">
  <defs>
    <style>
      .cls-1 {
        fill: #fff;
      }
    </style>
  </defs>
  <g id="Layer_1-2" data-name="Layer 1">
    <g>
      <path class="cls-1" d="M6.37,3.97c-.28-.5-.67-.88-1.16-1.15-.49-.27-1.04-.41-1.67-.41-.53,0-1,.12-1.43.35-.24.13-.44.31-.62.52V0H0v8.9h1.43v-.85c.19.23.4.43.66.58.43.24.92.35,1.45.35.62,0,1.18-.14,1.67-.41.49-.27.87-.65,1.16-1.15.28-.49.43-1.07.43-1.73s-.14-1.23-.43-1.73ZM5.02,6.76c-.17.31-.39.54-.68.71-.28.16-.61.25-.98.25s-.67-.08-.96-.25c-.29-.16-.52-.4-.68-.71-.17-.31-.25-.66-.25-1.06s.08-.76.25-1.06c.17-.3.4-.53.68-.7.29-.16.61-.25.96-.25s.69.08.98.25.51.4.68.7c.17.3.25.65.25,1.06s-.08.75-.25,1.06Z"/>
      <path class="cls-1" d="M12.92,2.5v3.24c0,.42-.07.78-.22,1.07-.14.29-.35.5-.61.65-.26.14-.57.22-.92.22-.47,0-.84-.14-1.1-.43-.26-.28-.4-.71-.4-1.28v-3.47h-1.51v3.66c0,.64.12,1.17.35,1.59.24.42.56.73.98.94.42.2.9.31,1.44.31.5,0,.95-.11,1.37-.34.28-.15.5-.37.7-.61v.86h1.43V2.5h-1.5Z"/>
      <path class="cls-1" d="M22.35,3.64c-.24-.42-.55-.72-.95-.92-.4-.2-.85-.3-1.37-.3-.56,0-1.05.11-1.48.34-.29.15-.52.37-.71.61v-.86h-1.43v6.41h1.49v-3.24c0-.43.07-.79.22-1.07.15-.28.36-.5.63-.64.27-.14.58-.22.94-.22.49,0,.86.14,1.13.42.26.28.4.7.4,1.27v3.48h1.5v-3.67c0-.65-.12-1.18-.35-1.6Z"/>
      <path class="cls-1" d="M29.46,2.5v.87c-.19-.24-.41-.45-.67-.6-.42-.24-.91-.35-1.47-.35-.62,0-1.17.14-1.66.41-.49.27-.87.66-1.15,1.15-.28.5-.42,1.07-.42,1.73s.14,1.24.42,1.73c.28.49.66.87,1.15,1.15.49.27,1.04.41,1.66.41.54,0,1.03-.12,1.45-.35.24-.13.44-.31.62-.53v3.12h1.5V2.5h-1.43ZM29.16,6.76c-.17.3-.4.54-.68.71s-.61.25-.97.25-.67-.08-.96-.25-.52-.4-.68-.71-.25-.66-.25-1.06.08-.76.25-1.06c.17-.3.4-.53.68-.7s.61-.25.96-.25.68.08.97.25.52.4.68.7c.17.3.25.65.25,1.06s-.08.75-.25,1.06Z"/>
    </g>
  </g>
</svg>