<svg width="305" height="60" viewBox="0 0 305 60" fill="none" xmlns="http://www.w3.org/2000/svg">
<path d="M33.3226 7.62939e-06V43.0503H42.882V7.62939e-06H33.3226Z" fill="white"/>
<path d="M0 0.000167634V43.0505H16.4428C24.8995 43.0505 30.2707 36.0452 30.2707 29.2505C30.2707 25.015 29.2684 21.2763 23.8397 19.139L23.8669 19.1175C23.8678 19.1169 23.8691 19.1166 23.8702 19.1157C28.8026 16.2664 29.8438 10.7615 27.5451 6.08201C25.2464 1.40249 22.0099 0 16.7778 0L0 0.000167634ZM11.1527 9.48094H14.8834C17.5971 9.48094 18.5616 11.466 18.4203 13.081C18.279 14.6959 17.0184 15.9412 15.5976 15.9412H11.1527V9.48094ZM11.1527 25.4219H15.415C19.7231 25.4219 20.1156 26.9438 20.1156 29.5407C20.1156 31.9845 19.248 33.3721 15.7496 33.5697H11.1527V25.4219Z" fill="white"/>
<path d="M137.747 9.5469C134.27 9.64985 130.809 11.3201 128.966 14.5142V10.4033H120.077V43.0503H129.888V23.1654C130.712 20.0494 132.027 18.4284 135.267 18.4284C138.042 18.4284 139.461 20.1364 140.119 22.1582V43.0503H149.811V22.903C150.417 20.0842 152.212 18.5286 155.204 18.3924C158.185 18.2567 159.672 20.2065 160.159 23.1729V43.0503H169.636V22.9571C169.636 20.2385 170.219 14.4035 164.404 11.0444C158.589 7.68526 150.385 10.4696 147.297 15.3012C145.649 11.3271 141.688 9.43023 137.747 9.5469Z" fill="white"/>
<path d="M173.66 7.62939e-06V43.0503H183.352V39.7185C185.152 42.1148 187.859 43.6773 192.047 43.6773C201.511 43.6774 209.183 36.0011 209.182 26.5319C209.182 17.0629 201.51 9.59428 192.047 9.59443C188.798 9.59446 186.146 11.0283 184.063 13.2945V7.62939e-06H173.66ZM191.218 18.3738C195.71 18.3738 199.352 22.0925 199.352 26.6799C199.352 31.2671 195.71 34.9857 191.218 34.9856C187.517 34.9829 184.284 32.4292 183.352 28.7717V24.6054C184.278 20.9409 187.512 18.3786 191.218 18.3738Z" fill="white"/>
<path d="M100.447 9.59443C98.21 9.59445 95.9952 10.0353 93.9288 10.8917C91.8624 11.7481 89.9848 13.0034 88.4032 14.5859C86.8217 16.1684 85.5671 18.047 84.7112 20.1146C83.8553 22.1822 83.4148 24.3982 83.4148 26.6361C83.4149 31.1557 85.2093 35.4902 88.4034 38.686C91.5975 41.8819 95.9296 43.6773 100.447 43.6773C102.683 43.6774 104.898 43.2366 106.965 42.3802C109.031 41.5239 110.909 40.2686 112.49 38.6862C114.072 37.1037 115.326 35.2251 116.182 33.1576C117.038 31.09 117.479 28.874 117.479 26.6361C117.479 24.3981 117.038 22.1821 116.183 20.1145C115.327 18.0469 114.072 16.1682 112.49 14.5857C110.909 13.0033 109.031 11.748 106.965 10.8916C104.898 10.0352 102.683 9.59439 100.447 9.59443ZM100.447 18.4879C101.516 18.4878 102.575 18.6986 103.563 19.1081C104.551 19.5176 105.449 20.1177 106.205 20.8744C106.961 21.631 107.561 22.5293 107.971 23.5179C108.38 24.5065 108.59 25.566 108.59 26.6361C108.59 28.7971 107.732 30.8695 106.205 32.3975C104.678 33.9255 102.606 34.7839 100.447 34.7839C98.287 34.7838 96.2157 33.9254 94.6886 32.3974C93.1614 30.8694 92.3034 28.797 92.3034 26.6361C92.3033 24.4751 93.1612 22.4026 94.6884 20.8745C96.2156 19.3464 98.2869 18.4879 100.447 18.4879Z" fill="white"/>
<path d="M63.4478 9.59443C61.2112 9.59445 58.9964 10.0353 56.93 10.8917C54.8635 11.7481 52.9859 13.0034 51.4044 14.5859C49.8228 16.1684 48.5683 18.047 47.7124 20.1146C46.8565 22.1822 46.4159 24.3982 46.416 26.6361C46.416 31.1557 48.2105 35.4902 51.4045 38.686C54.5986 41.8819 58.9307 43.6773 63.4478 43.6773C65.6845 43.6774 67.8993 43.2366 69.9658 42.3802C72.0322 41.5239 73.9098 40.2686 75.4914 38.6862C77.073 37.1037 78.3276 35.2251 79.1836 33.1576C80.0395 31.09 80.4801 28.874 80.4801 26.6361C80.4802 24.3981 80.0396 22.1821 79.1837 20.1145C78.3277 18.0469 77.0732 16.1682 75.4916 14.5857C73.91 13.0033 72.0323 11.748 69.9659 10.8916C67.8994 10.0352 65.6846 9.59439 63.4478 9.59443ZM63.4478 18.4879C64.5173 18.4878 65.5763 18.6986 66.5643 19.1081C67.5524 19.5176 68.4502 20.1177 69.2064 20.8744C69.9626 21.631 70.5625 22.5293 70.9717 23.5179C71.381 24.5065 71.5916 25.566 71.5916 26.6361C71.5915 28.7971 70.7335 30.8695 69.2062 32.3975C67.679 33.9255 65.6076 34.7839 63.4478 34.7839C61.2881 34.7838 59.2169 33.9254 57.6897 32.3974C56.1626 30.8694 55.3046 28.797 55.3045 26.6361C55.3045 24.4751 56.1624 22.4026 57.6896 20.8745C59.2167 19.3464 61.2881 18.4879 63.4478 18.4879Z" fill="white"/>
<path d="M229.142 9.59443C219.654 9.59451 211.962 17.2243 211.962 26.6361C211.962 36.0477 219.654 43.6772 229.142 43.6773C236.555 43.6774 242.87 39.0198 245.278 32.4945H234.851C234.302 34.5441 232.191 35.8222 229.439 35.8222C225.851 35.822 222.617 32.8904 221.42 29.4384H246.092C247.072 15.4453 236.49 9.81605 229.142 9.59443ZM229.477 17.6071C232.822 17.607 235.517 20.0676 236.703 23.1638H221.699C223.077 20.0682 226.134 17.6072 229.477 17.6071Z" fill="white"/>
<path d="M268.609 11.386C266.587 10.8441 262.282 11.0894 259.037 14.3362V10.4033H250.149V43.0503H259.96L259.645 26.3536C259.645 19.2863 265.117 19.9385 268.609 19.9385V11.386Z" fill="white"/>
<path d="M305 40.5331V10.7124H295.308V14.0442C293.508 11.6479 290.801 10.0854 286.613 10.0854C277.149 10.0853 269.477 17.7616 269.477 27.2308C269.477 36.6998 277.149 44.1684 286.613 44.1683C289.862 44.1682 293.555 41.6013 294.596 40.4682C296.179 46.3775 293.462 51.6372 288.382 51.6372C287.127 51.6372 285.201 51.7776 282.026 48.6013H271.674C271.674 54.3473 280.419 59.9997 288.639 59.9997C303.315 59.9997 305 47.7115 305 40.5331ZM287.442 35.3889C282.95 35.389 279.308 31.6701 279.308 27.0828C279.308 22.4956 282.95 18.7771 287.442 18.7771C291.143 18.7798 294.375 21.3335 295.308 24.991V29.1573C294.382 32.8218 291.148 35.3841 287.442 35.3889Z" fill="white"/>
</svg>
