<svg width="193" height="60" viewBox="0 0 193 60" fill="none" xmlns="http://www.w3.org/2000/svg">
<g clip-path="url(#clip0_1_15)">
<path fill-rule="evenodd" clip-rule="evenodd" d="M14.9603 60H19.4499V36H14.9603V60ZM31.4178 59.64H35.4389V44.4975L52.3648 60V36.36H48.3549V51.2437L31.4178 36V59.64ZM61.5445 53.8275C63.7331 55.5338 66.3601 56.52 69.1764 56.52C71.9197 56.52 73.8441 55.575 73.8441 53.4881C73.8441 51.6694 72.6167 50.9569 70.4675 50.16L66.9879 48.9506C63.7799 47.8106 61.3403 46.1456 61.3403 42.3187C61.3403 38.2256 65.0335 36 69.45 36C72.1558 36 74.6217 36.6806 76.5479 37.8862V41.9456C74.5448 40.4644 72.3525 39.4444 69.5362 39.4444C67.1115 39.4444 65.2996 40.35 65.2996 42.2381C65.2996 43.9444 66.437 44.6269 68.4401 45.3131L72.3169 46.6744C76.0739 47.9962 77.7977 50.0456 77.7977 53.4169C77.7977 57.6581 74.0689 60 69.1764 60C65.961 60 63.2272 59.1 61.5445 57.9637V53.8275ZM88.2722 60H92.7599V36H88.2722V60ZM113.814 56.3681C118.873 56.3681 121.577 53.1206 121.577 47.9944C121.577 42.8306 118.871 39.5944 113.814 39.5944H108.811V56.3681H113.814ZM104.726 36H113.964C121.075 36 125.673 40.6875 125.673 47.9944C125.673 55.3069 121.075 60 113.964 60H104.726V36ZM148.117 36V39.5944H137.255V45.3694H146.997V48.9225H137.253V56.3681H148.117V60H133.155V36H148.117ZM164.048 46.8675H168.502C171.139 46.8675 172.624 45.42 172.624 43.1944C172.624 40.9688 171.139 39.5194 168.502 39.5194H164.048V46.8675ZM164.048 50.2612V60H160.085V36H168.577C173.419 36 176.552 38.4956 176.552 43.1944C176.552 47.2125 174.813 49.5206 171.109 50.1131L179.535 60H175.027L166.868 50.2631H164.05L164.048 50.2612ZM13.392 12.3563C15.1477 11.7131 16.5156 9.78375 16.5156 7.13062C16.5156 2.70937 13.392 0.418125 8.39456 0.418125H0V25.0987H9.17406C14.1714 25.0987 17.295 22.6462 17.295 18.0244C17.295 15.4106 15.6555 13.1194 13.392 12.3563ZM3.94245 10.7888V4.03688H8.35709C11.1303 4.03688 12.6125 5.04187 12.6125 7.3725C12.6125 9.70312 11.1284 10.7888 8.35709 10.7888H3.94245ZM3.94245 14.2463H9.09536C11.8311 14.2463 13.3133 15.6113 13.3133 17.8631C13.3133 20.0738 11.8292 21.4819 9.09723 21.4819H3.94432V14.2444L3.94245 14.2463ZM35.6113 25.5C41.3507 25.5 45.2163 22.0425 45.2163 15.2906V0.418125H41.1558V14.8069C41.1558 19.5506 39.2034 21.7631 35.6113 21.7631C32.0193 21.7631 30.0687 19.5506 30.0687 14.8069V0.418125H26.0082V15.2494C26.0082 22.0425 29.9113 25.5 35.6113 25.5ZM54.7764 23.3288C56.4553 24.5363 59.1892 25.5 62.3896 25.5C67.2708 25.5 70.979 23.0062 70.979 18.5062C70.979 14.9287 69.2626 12.7575 65.5132 11.3512L61.6494 9.90375C59.6576 9.18188 58.5258 8.45812 58.5258 6.64875C58.5258 4.63875 60.3209 3.675 62.7419 3.675C65.5525 3.675 67.7393 4.75875 69.7311 6.32812V2.025C67.818 0.740625 65.3577 0.016875 62.6632 0.016875C58.2523 0.016875 54.5815 2.38875 54.5815 6.72937C54.5815 10.7887 57.0025 12.5569 60.2029 13.7625L63.6788 15.0488C65.8261 15.8925 67.0366 16.6575 67.0366 18.5869C67.0366 20.7975 65.1235 21.8025 62.3896 21.8025C59.5789 21.8025 56.9631 20.7562 54.7764 18.9487V23.3288ZM85.4878 0.418125H81.4291V25.0969H85.4878V0.418125ZM97.0715 25.0669H100.984V9.01125L117.451 25.4494V0.380625H113.55V16.1625L97.0715 0V25.0669ZM142.824 0.42375V4.11938H132.282V10.0594H141.735V13.7138H132.282V21.3694H142.824V25.1044H128.302V0.42375H142.824ZM152.277 23.3119C153.956 24.5194 156.688 25.4831 159.89 25.4831C164.77 25.4831 168.48 22.9913 168.48 18.4894C168.48 14.9119 166.761 12.7425 163.014 11.3344L159.148 9.88875C157.156 9.165 156.025 8.44125 156.025 6.63187C156.025 4.62187 157.82 3.65812 160.241 3.65812C163.051 3.65812 165.238 4.74375 167.23 6.31125V2.01C165.317 0.72375 162.856 0 160.162 0C155.751 0 152.08 2.37187 152.08 6.7125C152.08 10.7719 154.501 12.54 157.702 13.7456L161.177 15.0319C163.325 15.8756 164.535 16.6406 164.535 18.57C164.535 20.7806 162.624 21.7856 159.888 21.7856C157.078 21.7856 154.462 20.7413 152.277 18.9319V23.3119ZM176.797 23.3119C178.476 24.5194 181.21 25.4831 184.411 25.4831C189.292 25.4831 193 22.9913 193 18.4894C193 14.9119 191.282 12.7425 187.534 11.3344L183.669 9.88875C181.679 9.165 180.545 8.44125 180.545 6.63187C180.545 4.62187 182.342 3.65812 184.761 3.65812C187.572 3.65812 189.76 4.74375 191.75 6.31125V2.01C189.839 0.72375 187.379 0 184.684 0C180.271 0 176.603 2.37187 176.603 6.7125C176.603 10.7719 179.023 12.54 182.224 13.7456L185.7 15.0319C187.847 15.8756 189.058 16.6406 189.058 18.57C189.058 20.7806 187.144 21.7856 184.411 21.7856C181.6 21.7856 178.984 20.7413 176.797 18.9319V23.3119Z" fill="white"/>
</g>
<defs>
<clipPath id="clip0_1_15">
<rect width="193" height="60" fill="white"/>
</clipPath>
</defs>
</svg>
