<svg width="330" height="48" viewBox="0 0 330 48" fill="none" xmlns="http://www.w3.org/2000/svg">
<path d="M39.8368 6.30887C38.5945 3.20809 35.5686 -0.158159 29.9014 0.318359C22.6822 1.10121 20.4323 8.02263 21.5232 12.1496C18.6301 10.2027 13.7577 9.34667 9.49112 13.0005C3.98053 18.5247 6.92814 25.9942 9.95743 27.7862C6.6184 27.4765 1.34266 29.7331 0.175194 35.6147C-1.06716 42.9412 4.51832 47.2128 9.95743 47.2128H70.2489C76.5372 47.2128 80.0277 41.772 79.6363 36.6409C79.0185 29.9442 72.8918 27.3744 69.5494 27.9275C72.3404 26.3686 76.0726 19.0506 70.4003 13.2967C65.8989 9.01481 60.1586 10.5737 58.1419 12.4406C59.2311 8.86335 57.4612 1.46881 50.1432 0.299636C49.6607 0.243828 49.1755 0.214847 48.6898 0.212837C43.1163 0.212837 40.6094 4.28877 39.8402 6.29184" fill="black"/>
<path d="M10.492 14.168C7.30952 17.051 6.14886 23.5792 11.8875 27.3999L34.7859 43.108L23.683 17.6721C21.3566 11.6697 14.9917 10.361 10.4903 14.1663" fill="white"/>
<path d="M30.2044 1.80067C26.4824 1.87725 20.8953 6.31057 23.397 13.0771L34.8811 40.1587L38.9144 11.6731C39.8505 4.59341 34.4896 1.32585 30.235 1.79897" fill="white"/>
<path d="M40.6876 10.589H42.8592C42.8592 10.589 44.0164 10.589 44.1764 11.1336C43.3221 11.8144 40.9939 11.9165 41.3054 15.6469L44.9558 40.1536L56.3582 13.0005C58.6898 6.93855 53.7952 1.87385 49.4487 1.71728L48.8309 1.69006C44.9167 1.69006 40.4647 4.52363 40.6825 10.5822" fill="white"/>
<path d="M55.9025 17.9036L45.1162 43.0348L68.0061 27.2416C73.2818 23.4976 72.4309 17.5156 69.4782 14.5577C68.2392 13.1656 65.9656 12.0901 63.5558 12.0901C60.7103 12.0901 57.6674 13.5996 55.8974 17.9036" fill="white"/>
<path d="M65.4443 30.8189L43.9465 45.836H70.4188C75.8647 45.836 79.3399 40.2199 77.7878 35.1144C76.7667 31.8843 73.6744 29.3485 70.1057 29.3281C68.6029 29.3281 67.0066 29.7808 65.4443 30.8189Z" fill="white"/>
<path d="M9.87413 45.8343H35.955L14.4521 30.8172C9.4827 27.6245 3.90064 29.4932 1.88224 34.7893C0.173583 40.853 4.44012 45.8514 9.87583 45.8514" fill="white"/>
<path d="M88.9155 21.4259C88.9155 29.1505 95.233 43.2128 119.347 43.2128C141.58 43.2128 148.603 33.0107 148.603 28.3314H131.39C131.39 28.3314 130.571 34.507 120.868 34.507C111.165 34.507 108.525 26.3972 108.525 21.7057C108.525 17.0142 111.152 9.3627 120.868 9.3627C130.583 9.3627 131.394 14.7435 131.394 14.7435H148.603C148.603 10.0601 143.454 0 119.347 0C95.2411 0 88.9155 14.9787 88.9155 21.4178M269.447 21.4219C269.447 29.1464 275.772 43.2087 299.879 43.2087C322.111 43.2087 329.134 33.0067 329.134 28.3274H311.934C311.934 28.3274 311.111 34.507 301.399 34.507C291.688 34.507 289.052 26.3972 289.052 21.7057C289.052 17.0142 291.688 9.3627 301.399 9.3627C311.111 9.3627 311.934 14.7435 311.934 14.7435H329.134C329.134 10.0601 323.985 0 299.879 0C275.772 0 269.447 14.9828 269.447 21.4219ZM195.656 0.770405V26.9244L175.625 0.770405H153.088V42.195H168.497V15.741L188.179 42.195H211.065V0.770405H195.656ZM245.126 32.2606V32.3133H232.296V24.7063H245.17V24.6942C247.919 24.6942 250.141 26.3851 250.141 28.4652C250.141 30.5454 247.919 32.2241 245.17 32.2241M232.418 8.7058H244.825V8.72201C246.926 8.72201 248.637 10.1007 248.637 11.8037C248.637 13.5068 246.934 14.8854 244.825 14.8854V14.9057H232.377L232.418 8.7058ZM257.813 20.0514C260.627 20.0514 266.507 16.7872 266.507 10.4616C266.507 1.45973 249.736 0.648764 247.165 0.648764H216.267V42.0734H247.165C262.026 42.0734 267.999 37.3778 267.999 29.5357C267.999 21.6936 257.862 20.0473 257.862 20.0473L257.813 20.0514Z" fill="white"/>
</svg>
