<svg width="281" height="60" viewBox="0 0 281 60" fill="none" xmlns="http://www.w3.org/2000/svg">
<path d="M67.9455 19.9632C66.2502 19.2324 64.4193 18.8688 62.5734 18.8965C58.0524 18.8965 54.6623 20.4573 52.4033 23.5789L52.2362 23.8145V19.719H43.1414V59.1529H52.2362V37.219C52.2362 33.8233 53.063 31.33 54.7166 29.7392C55.5544 28.9461 56.5413 28.3272 57.6201 27.9183C58.6989 27.5095 59.8481 27.3188 61.0012 27.3573C62.0418 27.3395 63.0774 27.5063 64.0599 27.85C64.9773 28.203 65.799 28.7665 66.4589 29.495L72.4008 23.4161C71.1871 21.9521 69.666 20.7732 67.9455 19.9632Z" fill="white"/>
<path d="M101.287 42.2312C101.287 45.13 100.573 47.3748 99.1454 48.9656C97.7659 50.4993 95.7539 51.2661 93.1093 51.2661C91.5541 51.3024 90.0161 50.9349 88.6454 50.1994C87.4294 49.4845 86.4517 48.4264 85.8351 47.1578C85.1898 45.5975 84.8789 43.9192 84.9226 42.2312V19.719H75.8278V42.6382C75.7662 45.7839 76.5031 48.8938 77.9698 51.6773C79.4253 54.2168 81.5387 56.3168 84.0873 57.7563C86.8439 59.2609 89.9434 60.0255 93.0836 59.9754C96.2158 60.0395 99.3126 59.3022 102.08 57.8334C104.618 56.408 106.709 54.3028 108.116 51.7545C109.644 48.9616 110.414 45.8169 110.348 42.6339V19.719H101.287V42.2312Z" fill="white"/>
<path d="M148.385 21.1884C146.03 19.6432 143.264 18.8417 140.447 18.8879C137.665 18.852 134.925 19.5605 132.509 20.94C131.031 21.7741 129.715 22.8667 128.623 24.1658V19.719H119.524V59.1528H128.619V36.3965C128.589 34.7615 128.988 33.1472 129.776 31.7141C130.527 30.3632 131.646 29.2524 133.001 28.5097C134.447 27.7254 136.07 27.3284 137.714 27.3573C140.361 27.3573 142.503 28.207 144.14 29.9063C144.99 30.754 145.657 31.7676 146.1 32.8842C146.542 34.0007 146.75 35.1962 146.71 36.3965V59.1528H155.805V34.4258C155.799 31.8305 155.115 29.2819 153.822 27.0317C152.536 24.6533 150.665 22.6421 148.385 21.1884Z" fill="white"/>
<path d="M188.633 50.2808C186.951 50.9527 185.153 51.2875 183.342 51.2661C181.236 51.3044 179.156 50.7952 177.306 49.7881C175.616 48.7657 174.219 47.3221 173.254 45.5984C172.292 43.6878 171.81 41.5722 171.848 39.4338C171.797 37.2954 172.28 35.178 173.254 33.2735C174.206 31.5615 175.607 30.1413 177.306 29.1652C179.144 28.1073 181.235 27.5711 183.355 27.6144C185.174 27.5914 186.978 27.955 188.646 28.6811C190.283 29.3274 191.732 30.373 192.861 31.7227L198.816 25.7251C196.956 23.5399 194.608 21.8229 191.962 20.7129C189.258 19.4922 186.322 18.8725 183.355 18.8965C179.623 18.8495 175.944 19.7847 172.688 21.6083C169.555 23.4002 166.96 25.9987 165.171 29.1335C163.383 32.2683 162.466 35.825 162.518 39.4338C162.464 43.1006 163.402 46.7139 165.234 49.8909C167.014 52.9726 169.582 55.5248 172.675 57.285C175.61 58.8825 178.865 59.8004 182.202 59.9709C185.539 60.1414 188.871 59.5603 191.953 58.2703C194.593 57.1111 196.936 55.3698 198.807 53.1767L192.853 47.1792C191.709 48.5302 190.264 49.5928 188.633 50.2808Z" fill="white"/>
<path d="M26.134 50.2808C24.452 50.9527 22.6544 51.2875 20.8433 51.2661C18.7372 51.3045 16.6573 50.7952 14.8072 49.7881C13.1166 48.7657 11.7202 47.3221 10.7546 45.5984C9.79387 43.6892 9.31165 41.5751 9.34945 39.4381V39.3738H0.00186344V39.4381C-0.0477754 43.1047 0.89514 46.7165 2.73074 49.8909C4.51063 52.9726 7.07904 55.5248 10.172 57.285C13.1064 58.8825 16.3621 59.8004 19.6988 59.9709C23.0354 60.1415 26.3678 59.5603 29.4498 58.2704C32.0894 57.1111 34.4327 55.3698 36.3041 53.1767L30.3494 47.1792C29.2073 48.5297 27.7632 49.5923 26.134 50.2808Z" fill="white"/>
<path d="M29.4368 20.7044C26.7352 19.4874 23.8019 18.8707 20.8389 18.8965C20.4662 18.8965 20.0935 18.8965 19.7251 18.9222V27.6487C20.0892 27.6187 20.4619 27.6058 20.8389 27.6058C22.6596 27.5823 24.4644 27.9459 26.1339 28.6725C27.7721 29.3187 29.2226 30.3643 30.3536 31.7141L36.304 25.7166C34.4404 23.5297 32.0878 21.8126 29.4368 20.7044Z" fill="white"/>
<path d="M234.218 20.8671C231.791 19.5245 229.053 18.8448 226.28 18.8965C223.499 18.8606 220.758 19.5691 218.342 20.9485C216.863 21.7865 215.547 22.8835 214.457 24.1872V0H205.362V59.1528H214.457V36.3965C214.427 34.7615 214.826 33.1472 215.613 31.7141C216.365 30.3632 217.483 29.2524 218.839 28.5097C220.284 27.7254 221.907 27.3284 223.551 27.3573C226.199 27.3573 228.349 28.207 230.003 29.9063C230.853 30.7545 231.52 31.7682 231.962 32.8846C232.404 34.001 232.612 35.1963 232.573 36.3965V59.1528H241.66V34.4259C241.725 31.6128 241.04 28.833 239.676 26.372C238.402 24.0671 236.512 22.1614 234.218 20.8671Z" fill="white"/>
<path d="M275.709 19.9632C274.008 19.2305 272.171 18.8669 270.319 18.8965C265.801 18.8965 262.411 20.4573 260.149 23.5789L259.987 23.8145V19.719H250.9V59.1528H259.999V37.219C259.999 33.8232 260.826 31.33 262.48 29.7392C263.317 28.9464 264.303 28.3277 265.381 27.9188C266.459 27.5099 267.608 27.3191 268.76 27.3573C269.802 27.3392 270.839 27.506 271.823 27.85C272.739 28.2043 273.559 28.7676 274.218 29.495L280.173 23.4161C278.956 21.952 277.432 20.7732 275.709 19.9632Z" fill="white"/>
<path d="M9.34514 18.768H0.00183105V28.077H9.34514V18.768Z" fill="white"/>
</svg>
