<svg width="243" height="60" viewBox="0 0 243 60" fill="none" xmlns="http://www.w3.org/2000/svg">
<path d="M240.869 29.3631L238.669 29.9632C236.553 22.7613 233.009 19.6494 228.005 19.6494C224.49 19.6494 222.017 21.9705 222.017 25.6511C222.017 29.174 224.933 31.0525 232.767 34.2454C239.998 36.9102 243 40.1751 243 45.8766C243 54.5565 236.197 60 225.033 60C219.644 60 213.571 58.7967 210.139 57.4223L209.711 45.362L211.827 44.9329C215.001 53.1851 219.058 56.306 224.348 56.306C228.922 56.306 231.325 53.1251 231.325 49.8602C231.325 46.5953 229.468 44.7033 222.321 42.1256C215.517 39.875 210.858 36.9687 210.858 29.7217C210.858 22.5887 217.116 16.5435 227.781 16.5435C232.811 16.5435 237.385 17.4033 240.387 18.7942L240.869 29.3631ZM194.815 33.1441C195.073 27.4726 193.929 19.2803 189.27 19.2803C184.479 19.2803 181.866 26.9294 181.781 33.4892L194.815 33.1441ZM190.414 16.5285C202.134 16.5285 207.781 25.1229 207.88 36.409H181.523C181.438 46.4063 186.726 53.9698 196.615 53.9698C200.931 53.9698 203.418 52.7665 206.047 50.876L207.275 52.2504C204.36 56.204 198.356 59.985 190.352 59.985C177.488 59.985 168.568 51.1326 168.568 38.6431C168.538 27.3555 175.859 16.527 190.408 16.527M152.393 37.4428C152.136 28.5048 148.878 21.4289 142.617 21.4289C141.13 21.4289 139.986 21.687 138.215 22.2886L138.73 56.6376C139.359 56.8957 140.845 57.0667 141.904 57.0667C147.993 57.0667 152.395 48.4438 152.395 37.4413M165.46 36.7541C165.46 50.8775 156.541 59.9865 141.474 59.9865C136.084 59.9865 130.525 59.1268 125.694 58.0105C126.122 52.3389 126.122 17.1992 125.694 10.5974C125.265 7.14647 124.292 5.52602 121.651 5.19593L119.879 5.02338V3.44795L138.471 0C138.386 2.9213 138.213 10.5989 138.213 19.6254C141.473 17.9929 144.472 17.0477 148.534 17.0477C158.225 17.0477 165.457 25.3 165.457 36.7571M118.091 29.078C112.345 25.297 106.17 26.9294 104.941 29.078C104.397 35.6798 104.513 45.8826 105.026 51.1086C105.284 54.5595 106.254 56.0074 108.914 56.2655L112.43 56.6106V58.8612H86.1584V56.6106L88.1886 56.2655C90.7338 56.0074 91.6322 54.546 91.7909 51.1086C92.4197 45.5225 92.5919 33.8058 91.7909 27.36C91.6187 23.6645 90.7338 22.2886 88.1886 21.9585L86.1584 21.7005V20.155L104.939 16.5451L104.682 26.1702C109.084 16.2015 117.832 14.9981 122.576 17.6629L118.091 29.078ZM56.4582 38.3025C56.4582 48.8159 59.3029 57.4103 64.9923 57.4103C71.1668 57.4103 72.9395 48.9885 72.9395 38.3025C72.9395 27.6166 70.2086 19.2803 64.4039 19.2803C58.201 19.2803 56.4582 27.4455 56.4582 38.3025ZM86.2437 38.13C86.2437 50.1903 78.2965 59.988 64.118 59.988C50.1685 59.988 43.1361 50.6779 43.1361 38.4721C43.1361 26.4988 51.0833 16.5285 65.2618 16.5285C79.2113 16.5285 86.2437 25.8971 86.2437 38.13ZM49.7403 17.4048L46.8252 18.2645C44.3668 9.8142 40.0219 5.00088 32.5314 5.00088H22.7546C22.2111 10.6154 21.9536 19.2953 22.2111 28.6624L28.7284 28.3173C33.1302 28.3173 34.9868 25.1364 36.0468 20.4971H38.5052V40.0325H36.0468C34.9898 35.3062 33.1317 32.0803 28.7284 31.8403L22.2111 31.7547C22.2111 38.7166 22.2964 44.6583 22.7546 48.2848C23.1828 53.4417 24.6111 55.7898 28.3841 56.2775L31.9295 56.6226V58.8732H0V56.6226L2.65904 56.2775C6.34667 55.7613 7.86184 53.4267 8.28855 48.2848C9.00272 39.863 9.1749 21.8715 8.28855 11.8743C7.86035 6.5478 6.34517 4.39771 2.65904 3.96709L0 3.53797V1.21533H49.6564L49.7403 17.4048Z" fill="white"/>
</svg>
