<svg width="184" height="60" viewBox="0 0 184 60" fill="none" xmlns="http://www.w3.org/2000/svg">
<path fill-rule="evenodd" clip-rule="evenodd" d="M114.707 23.6482C114.707 7.83186 109.332 0.000985298 98.5836 0.000985298C87.6816 0.000985298 82.3064 7.83284 82.3064 23.6482C82.3064 39.4636 87.6816 47.2964 98.5836 47.2964C109.332 47.2964 114.707 39.4636 114.707 23.6482ZM93.5156 7.67826C94.131 4.29995 95.8187 2.6103 98.5836 2.6103C101.194 2.6103 102.884 4.29995 103.496 7.67826C103.959 9.52054 104.111 14.8947 104.111 23.6482C104.111 32.5543 103.959 37.7739 103.496 39.7708C102.883 42.9965 101.193 44.6851 98.5836 44.6851C95.8187 44.6851 94.131 42.9955 93.5156 39.7708C93.0548 37.7739 92.9022 32.5533 92.9022 23.6482C92.9022 14.8947 93.0548 9.52054 93.5156 7.67826ZM16.2772 0C5.37419 0 0 7.83186 0 23.6472C0 39.4626 5.37517 47.2954 16.2772 47.2954C27.0265 47.2954 32.4007 39.4626 32.4007 23.6472C32.4007 7.83186 27.0255 0 16.2772 0ZM21.1905 7.67826C21.6523 9.52054 21.805 14.8947 21.805 23.6482C21.805 32.5543 21.6523 37.7739 21.1905 39.7708C20.5771 42.9965 18.8875 44.6851 16.2772 44.6851C13.5123 44.6851 11.8246 42.9955 11.2102 39.7708C10.7494 37.7739 10.5958 32.5533 10.5958 23.6482C10.5958 14.8957 10.7494 9.52151 11.2102 7.67826C11.8246 4.29995 13.5133 2.6103 16.2772 2.6103C18.8875 2.6103 20.5761 4.29995 21.1905 7.67826ZM70.4828 1.07426H67.1045V35.6235C66.9509 38.2357 66.3365 40.3852 64.8014 41.7667C63.5736 43.1481 62.0375 43.7635 60.1952 43.7635C56.5097 43.7635 54.6675 40.9986 54.6675 35.6235V2.45669C54.6675 1.53604 54.2066 1.07426 53.1314 1.07426H44.2253V33.3214C44.2253 42.6883 48.8315 47.4481 57.8912 47.4481C66.1839 47.4481 70.3292 43.4563 70.4838 35.6235L70.4828 1.07426ZM151.1 4.76076V1.07524H120.388V4.76076H130.522V44.9924C130.522 45.915 130.983 46.3758 131.751 46.3758H140.811V4.76076H151.1ZM170.448 24.2626H179.662V20.7307H170.448V4.76076H182.733V1.07524H160.16V44.9924C160.16 45.915 160.621 46.3758 161.389 46.3758H183.041V42.8429H170.449V24.2626H170.448ZM31.0183 59.119L32.7079 58.0448L32.5543 57.7376L18.4266 49.7521C16.8906 48.8315 15.3555 48.9861 13.6659 50.0593L9.05971 52.9768L19.3483 58.8128C21.805 59.8871 24.7225 60.1943 27.9472 59.8871L31.0183 59.119Z" fill="white"/>
</svg>
