<svg width="209" height="60" viewBox="0 0 209 60" fill="none" xmlns="http://www.w3.org/2000/svg">
<g clip-path="url(#clip0_1_20)">
<path d="M95.1765 40.2334H91.7376C91.4292 40.2334 91.3141 39.9489 91.1749 39.6728L87.1174 32.8585H86.4946C85.7593 32.8585 83.4825 32.7786 82.8348 32.7428V39.6728C82.8348 39.9797 82.6072 40.2334 82.2962 40.2334H79.4801C79.3313 40.2325 79.1889 40.1732 79.0837 40.0682C78.9785 39.9633 78.919 39.8212 78.9182 39.6728V21.2559C78.9182 20.692 79.2516 20.4957 79.8185 20.4125C81.2858 20.1871 84.4346 20.0482 86.4938 20.0482C90.8306 20.0482 94.8372 21.5944 94.8372 26.3993V26.6529C94.8372 29.6289 93.345 31.2574 91.0357 32.1515L95.455 39.6728C95.5134 39.7576 95.5134 39.8366 95.5134 39.8998C95.5142 40.0903 95.4016 40.2334 95.1765 40.2334ZM90.9506 26.3993C90.9506 24.2917 89.3116 23.3934 86.4946 23.3934C85.901 23.3934 83.3383 23.4491 82.8348 23.504V29.5989C83.2808 29.6264 86.0103 29.6838 86.4946 29.6838C89.3925 29.6838 90.9506 29.1248 90.9506 26.6529V26.3993ZM103.024 34.6974C103.024 37.0545 103.115 37.1161 105.245 37.1161H112.375C112.525 37.1165 112.668 37.1758 112.774 37.2811C112.88 37.3864 112.94 37.5292 112.941 37.6783V39.4732C112.941 39.8699 112.799 40.0105 112.375 40.0645C111.475 40.2059 109.64 40.4563 106.29 40.4563C101.615 40.4563 99.134 40.4887 99.134 34.6974V25.8063C99.134 20.0166 101.615 20.049 106.29 20.049C109.64 20.049 111.475 20.3027 112.375 20.4416C112.799 20.4957 112.941 20.6387 112.941 21.033V22.8287C112.941 23.1356 112.686 23.3942 112.375 23.3942H105.245C103.115 23.3942 103.024 23.4566 103.024 25.8063V28.3846H112.039C112.187 28.3852 112.33 28.4442 112.435 28.5488C112.541 28.6533 112.601 28.7951 112.603 28.9435V30.9721C112.602 31.1209 112.542 31.2632 112.436 31.3682C112.33 31.4733 112.188 31.5326 112.039 31.5335H103.024V34.6974ZM125.587 40.4563C121.056 40.4563 117.152 38.4909 117.152 32.5016V20.8076C117.152 20.4957 117.41 20.2719 117.719 20.2719H120.503C120.815 20.2719 121.067 20.4957 121.067 20.8076V32.5016C121.067 35.7071 122.552 37.2275 125.588 37.2275C128.633 37.2275 130.117 35.7071 130.117 32.5016V20.8076C130.117 20.4957 130.369 20.2719 130.678 20.2719H133.466C133.778 20.2719 134.033 20.4957 134.033 20.8076V32.5016C134.031 38.4901 130.125 40.4563 125.587 40.4563ZM152.552 23.5298H146.933V39.6728C146.931 39.8222 146.869 39.9646 146.763 40.0695C146.656 40.1743 146.512 40.2332 146.363 40.2334H143.575C143.426 40.2327 143.283 40.1735 143.177 40.0686C143.072 39.9637 143.012 39.8215 143.01 39.6728V23.5298H137.387C137.081 23.5298 136.827 23.3369 136.827 23.0275V20.8076C136.827 20.4957 137.081 20.2719 137.387 20.2719H152.551C152.855 20.2719 153.11 20.4957 153.11 20.8076V23.0275C153.11 23.3369 152.857 23.5298 152.552 23.5298ZM190.804 40.2334H187.365C187.055 40.2334 186.944 39.9489 186.804 39.6728L182.745 32.8585H182.117C181.389 32.8585 179.11 32.7786 178.458 32.7428V39.6728C178.458 39.9797 178.234 40.2334 177.927 40.2334H175.113C174.964 40.2332 174.82 40.1741 174.715 40.0691C174.609 39.9642 174.549 39.8217 174.548 39.6728V21.2559C174.548 20.692 174.881 20.4957 175.446 20.4125C176.91 20.1871 180.064 20.0482 182.116 20.0482C186.457 20.0482 190.461 21.5944 190.461 26.3993V26.6529C190.461 29.6289 188.966 31.2574 186.658 32.1515L191.085 39.6728C191.128 39.7404 191.148 39.82 191.142 39.8998C191.142 40.0903 191.027 40.2334 190.804 40.2334ZM186.578 26.3993C186.578 24.2917 184.939 23.3934 182.117 23.3934C181.529 23.3934 178.966 23.4491 178.458 23.504V29.5989C178.914 29.6264 181.646 29.6838 182.117 29.6838C185.023 29.6838 186.578 29.1248 186.578 26.6529V26.3993ZM201.554 40.4687C199.064 40.4687 196.542 40.0429 195.187 39.7327C194.909 39.6761 194.653 39.4807 194.653 39.1721V37.1477C194.653 36.8408 194.909 36.6129 195.187 36.6129H195.242C196.372 36.7543 199.009 37.1194 201.612 37.1194C204.117 37.1194 204.884 36.2244 204.884 34.5968C204.884 32.4883 199.841 31.3214 197.379 30.31C194.929 29.2987 194.061 27.3624 194.061 25.3979C194.061 22.3047 196.555 20.0565 201.793 20.0565C204.478 20.0565 206.937 20.5655 207.894 20.7951C208.177 20.8517 208.398 21.0488 208.398 21.3282V23.4076C208.398 23.6854 208.207 23.9124 207.92 23.9124H207.866C206.006 23.7452 204.077 23.4034 201.629 23.4034C199.541 23.4034 197.98 24.1337 197.98 25.3979C197.98 26.3228 199.039 27.1719 200.289 27.6677C201.54 28.1592 203.179 28.7955 205.054 29.5474C207.426 30.5047 208.964 31.8995 208.964 34.5968C208.964 37.4329 207.19 40.4687 201.554 40.4687ZM159.897 34.6974C159.897 37.0545 159.985 37.1161 162.12 37.1161H169.255C169.404 37.1182 169.545 37.1783 169.65 37.2834C169.754 37.3886 169.813 37.5303 169.814 37.6783V39.4732C169.814 39.8699 169.672 40.0105 169.255 40.0645C168.348 40.2059 166.517 40.4563 163.167 40.4563C158.483 40.4563 156.008 40.4887 156.008 34.6974V25.8063C156.008 20.0166 158.483 20.049 163.167 20.049C166.517 20.049 168.348 20.3027 169.255 20.4416C169.672 20.4957 169.814 20.6387 169.814 21.033V22.8287C169.814 23.1356 169.558 23.3942 169.255 23.3942H162.12C159.985 23.3942 159.897 23.4566 159.897 25.8063V28.3846H168.913C169.225 28.3846 169.471 28.6399 169.471 28.9435V30.9721C169.472 31.1204 169.413 31.2628 169.309 31.3681C169.204 31.4734 169.061 31.5329 168.913 31.5335H159.897V34.6974ZM45.1484 19.3238C44.7705 19.7214 44.25 19.9531 43.701 19.9681C43.152 19.983 42.6195 19.78 42.2205 19.4036C42.0221 19.2177 41.8625 18.9945 41.7509 18.7469C41.6394 18.4992 41.578 18.2319 41.5704 17.9605C41.5628 17.6891 41.6092 17.4188 41.7067 17.1653C41.8042 16.9118 41.9511 16.6801 42.1388 16.4834C42.3248 16.2856 42.548 16.1263 42.7958 16.0146C43.0436 15.903 43.311 15.8412 43.5828 15.8329C43.8546 15.8246 44.1253 15.8698 44.3795 15.966C44.6337 16.0622 44.8664 16.2075 45.0642 16.3936C45.4642 16.7714 45.6978 17.292 45.7136 17.8413C45.7294 18.3906 45.5261 18.9238 45.1484 19.3238ZM24.5023 14.6262C24.3046 14.4416 24.0417 14.3423 23.771 14.3501C23.5002 14.3579 23.2435 14.4721 23.0567 14.6678C22.8719 14.8645 22.7725 15.1262 22.7803 15.3958C22.7881 15.6654 22.9025 15.9209 23.0984 16.1067C23.2962 16.2915 23.5593 16.3907 23.8302 16.3826C24.1011 16.3745 24.3577 16.2597 24.544 16.0634C24.7288 15.8669 24.8281 15.6055 24.8203 15.3362C24.8125 15.0669 24.6982 14.8117 24.5023 14.6262ZM29.6786 12.6617C29.4347 12.4342 29.1105 12.3122 28.7767 12.3224C28.4429 12.3325 28.1267 12.4739 27.8971 12.7157C27.7834 12.8362 27.6945 12.9779 27.6357 13.1327C27.5769 13.2874 27.5492 13.4523 27.5542 13.6177C27.5593 13.7831 27.5969 13.946 27.665 14.0969C27.7332 14.2478 27.8304 14.3839 27.9513 14.4973C28.1957 14.7245 28.5203 14.846 28.8542 14.8354C29.1881 14.8248 29.5042 14.6829 29.7337 14.4407C29.9615 14.1968 30.0835 13.8731 30.0732 13.5399C30.0629 13.2067 29.9211 12.8911 29.6786 12.6617ZM35.2309 12.2566C34.9214 11.9669 34.5095 11.8113 34.0852 11.8236C33.661 11.8359 33.2588 12.0152 32.9667 12.3223C32.6901 12.6335 32.5458 13.0399 32.5644 13.4554C32.583 13.8708 32.763 14.2628 33.0662 14.5481C33.3695 14.8335 33.7722 14.9899 34.1891 14.9841C34.6059 14.9783 35.0041 14.8109 35.2993 14.5172C35.5899 14.208 35.7458 13.7965 35.733 13.3728C35.7202 12.9492 35.5396 12.5478 35.2309 12.2566ZM40.4839 13.5982C40.312 13.4357 40.1097 13.3086 39.8884 13.2243C39.6672 13.1401 39.4314 13.1002 39.1947 13.1071C38.9579 13.114 38.7249 13.1674 38.509 13.2644C38.293 13.3614 38.0984 13.5 37.9362 13.6722C37.7737 13.8437 37.6466 14.0455 37.5623 14.2661C37.4779 14.4866 37.4379 14.7215 37.4446 14.9575C37.4512 15.1934 37.5044 15.4258 37.6011 15.6412C37.6977 15.8566 37.836 16.051 38.0079 16.2131C38.3563 16.5396 38.8202 16.7151 39.2979 16.7012C39.7757 16.6874 40.2285 16.4852 40.5573 16.1391C40.8845 15.7921 41.0605 15.3298 41.0468 14.8535C41.033 14.3773 40.8306 13.9259 40.4839 13.5982ZM20.1139 18.0662C19.9665 17.929 19.7707 17.8553 19.5692 17.8612C19.3677 17.8672 19.1766 17.9522 19.0376 18.0978C18.9686 18.17 18.9147 18.2552 18.8788 18.3483C18.8429 18.4414 18.8259 18.5406 18.8286 18.6403C18.8313 18.74 18.8537 18.8382 18.8946 18.9293C18.9355 19.0203 18.994 19.1024 19.0668 19.1707C19.1391 19.2398 19.2244 19.2938 19.3177 19.3297C19.4111 19.3656 19.5107 19.3827 19.6108 19.3799C19.7108 19.3771 19.8093 19.3546 19.9005 19.3135C19.9917 19.2725 20.0739 19.2138 20.1422 19.1408C20.2811 18.9944 20.356 18.7991 20.3507 18.5977C20.3454 18.3962 20.2602 18.2051 20.1139 18.0662ZM46.6231 36.8116C46.4372 37.0087 46.3372 37.2713 46.345 37.5418C46.3528 37.8123 46.4678 38.0687 46.6648 38.2547C46.8643 38.4318 47.1252 38.5242 47.3919 38.5124C47.6587 38.5005 47.9103 38.3854 48.0933 38.1914C48.2762 37.9973 48.3761 37.7398 48.3717 37.4734C48.3673 37.2071 48.2589 36.9529 48.0696 36.7651C47.8712 36.5806 47.6078 36.482 47.3367 36.4907C47.0657 36.4994 46.8092 36.6148 46.6231 36.8116ZM47.932 31.5485C47.705 31.7922 47.5836 32.1156 47.5944 32.4482C47.6052 32.7807 47.7472 33.0956 47.9895 33.3242C48.1099 33.438 48.2516 33.5268 48.4066 33.5858C48.5615 33.6447 48.7265 33.6725 48.8923 33.6675C49.058 33.6626 49.2211 33.625 49.3722 33.5569C49.5233 33.4889 49.6594 33.3917 49.7728 33.271C49.8868 33.151 49.9758 33.0096 50.0348 32.8551C50.0937 32.7006 50.1214 32.5359 50.1162 32.3707C50.111 32.2054 50.0731 32.0428 50.0045 31.8923C49.936 31.7417 49.8382 31.6062 49.7169 31.4936C49.4724 31.2658 49.1475 31.1438 48.8131 31.1541C48.4788 31.1644 48.162 31.3061 47.932 31.5485ZM47.5302 26.0059C47.3857 26.1585 47.2729 26.338 47.1982 26.5343C47.1235 26.7305 47.0883 26.9395 47.0947 27.1493C47.1012 27.3591 47.1491 27.5655 47.2357 27.7568C47.3223 27.9481 47.4459 28.1205 47.5994 28.264C47.7524 28.408 47.9324 28.5205 48.1291 28.595C48.3257 28.6695 48.5352 28.7045 48.7455 28.6981C48.9557 28.6917 49.1627 28.6439 49.3544 28.5576C49.5461 28.4713 49.7189 28.348 49.8628 28.195C50.1449 27.8848 50.2937 27.4766 50.2771 27.0581C50.2605 26.6397 50.0799 26.2444 49.7741 25.9575C49.4684 25.6705 49.0619 25.5148 48.6423 25.5239C48.2226 25.5329 47.8232 25.706 47.5302 26.0059ZM45.5911 20.8691C45.3466 21.1282 45.1846 21.4538 45.1257 21.8047C45.0668 22.1556 45.1135 22.516 45.26 22.8404C45.4065 23.1648 45.6462 23.4386 45.9487 23.627C46.2512 23.8155 46.6029 23.9102 46.9594 23.8991C47.3159 23.888 47.661 23.7717 47.9512 23.5649C48.2414 23.358 48.4635 23.0699 48.5895 22.7371C48.7155 22.4042 48.7397 22.0416 48.659 21.695C48.5783 21.3484 48.3964 21.0335 48.1363 20.7901C47.4176 20.1098 46.2755 20.1489 45.5911 20.8691ZM43.8095 41.377C43.6719 41.5243 43.5982 41.7199 43.6044 41.9211C43.6107 42.1224 43.6964 42.313 43.8428 42.4516C43.9157 42.5197 44.0014 42.5727 44.095 42.6077C44.1885 42.6426 44.2881 42.6587 44.3879 42.6551C44.4877 42.6514 44.5858 42.6281 44.6765 42.5865C44.7673 42.5449 44.8489 42.4857 44.9166 42.4125C44.9859 42.341 45.0401 42.2564 45.076 42.1636C45.112 42.0709 45.1289 41.9719 45.1259 41.8725C45.1229 41.7731 45.0999 41.6753 45.0584 41.5849C45.0169 41.4946 44.9576 41.4134 44.8841 41.3462C44.8119 41.277 44.7267 41.2229 44.6333 41.187C44.54 41.151 44.4404 41.134 44.3403 41.1368C44.2403 41.1397 44.1418 41.1624 44.0507 41.2036C43.9595 41.2449 43.8776 41.3038 43.8095 41.377ZM21.8204 44.0335C22.1917 43.6334 22.3896 43.1032 22.3711 42.5583C22.3526 42.0134 22.1192 41.4978 21.7216 41.1237C21.3241 40.7495 20.7946 40.5471 20.2482 40.5604C19.7019 40.5738 19.1829 40.8018 18.8042 41.1948C18.4459 41.5971 18.2588 42.1228 18.2826 42.6604C18.3064 43.198 18.5391 43.7052 18.9315 44.0745C19.3238 44.4438 19.8449 44.646 20.3843 44.6384C20.9236 44.6307 21.4387 44.4138 21.8204 44.0335ZM17.3352 23.7045C17.4273 23.6071 17.4993 23.4925 17.5471 23.3673C17.5948 23.2421 17.6174 23.1088 17.6135 22.9749C17.6096 22.841 17.5793 22.7092 17.5243 22.587C17.4693 22.4648 17.3908 22.3546 17.2931 22.2627C17.1955 22.1708 17.0806 22.0989 16.9551 22.0513C16.8297 22.0037 16.696 21.9812 16.5618 21.9851C16.4276 21.989 16.2955 22.0192 16.173 22.074C16.0505 22.1289 15.9401 22.2073 15.8479 22.3047C15.4561 22.7122 15.4794 23.3552 15.8938 23.7444C16.2998 24.127 16.9451 24.1112 17.3352 23.7045ZM16.0213 28.9701C16.2496 28.7264 16.3723 28.4026 16.3626 28.0692C16.3529 27.7357 16.2117 27.4196 15.9697 27.1894C15.7246 26.9705 15.4037 26.8556 15.075 26.8693C14.7464 26.8829 14.4361 27.024 14.2102 27.2625C13.9843 27.501 13.8606 27.8181 13.8655 28.1462C13.8704 28.4743 14.0035 28.7875 14.2364 29.0192C14.4802 29.2477 14.8047 29.3708 15.139 29.3616C15.4734 29.3524 15.7905 29.2117 16.0213 28.9701ZM16.4257 34.5103C16.7176 34.2009 16.8745 33.7886 16.8618 33.3639C16.8492 32.9392 16.668 32.5369 16.3581 32.2455C16.0481 31.9552 15.6353 31.7994 15.2103 31.8125C14.7853 31.8256 14.3828 32.0065 14.0914 32.3153C13.8011 32.6247 13.6455 33.0361 13.6586 33.4597C13.6717 33.8832 13.8525 34.2843 14.1614 34.5751C14.8083 35.1848 15.8204 35.1524 16.4257 34.5103ZM18.3615 39.6487C18.6888 39.3015 18.8648 38.8389 18.8509 38.3625C18.837 37.886 18.6343 37.4345 18.2873 37.1069C18.1154 36.945 17.9132 36.8186 17.6922 36.7348C17.4713 36.6511 17.2359 36.6117 16.9996 36.619C16.7634 36.6263 16.5309 36.68 16.3155 36.7772C16.1001 36.8743 15.9061 37.0129 15.7446 37.1851C15.5815 37.3563 15.4539 37.5578 15.3691 37.7783C15.2843 37.9987 15.2439 38.2337 15.2502 38.4697C15.2566 38.7057 15.3095 38.9382 15.4061 39.1538C15.5027 39.3694 15.6409 39.5638 15.8129 39.726C16.1623 40.0506 16.626 40.2245 17.1031 40.21C17.5803 40.1956 18.0325 39.9938 18.3615 39.6487ZM39.4535 45.8899C39.5511 45.982 39.6659 46.0538 39.7913 46.1015C39.9168 46.1491 40.0505 46.1715 40.1847 46.1674C40.3189 46.1633 40.4509 46.1328 40.5732 46.0776C40.6955 46.0224 40.8057 45.9437 40.8974 45.8459C40.9895 45.7488 41.0614 45.6345 41.109 45.5096C41.1566 45.3847 41.179 45.2516 41.1749 45.1181C41.1708 44.9845 41.1403 44.8531 41.0851 44.7313C41.0299 44.6096 40.9511 44.4999 40.8533 44.4086C40.756 44.3166 40.6416 44.2447 40.5164 44.197C40.3912 44.1492 40.2578 44.1267 40.1239 44.1305C39.9899 44.1344 39.8581 44.1646 39.7359 44.2195C39.6137 44.2743 39.5036 44.3528 39.4118 44.4502C39.2261 44.6467 39.1262 44.9087 39.134 45.1787C39.1418 45.4487 39.2567 45.7045 39.4535 45.8899ZM34.2772 47.852C34.7858 48.3302 35.5828 48.2986 36.0605 47.7962C36.1742 47.6765 36.2632 47.5355 36.3222 47.3814C36.3812 47.2273 36.4091 47.063 36.4043 46.8981C36.3995 46.7332 36.3621 46.5708 36.2942 46.4203C36.2263 46.2699 36.1293 46.1343 36.0088 46.0213C35.7642 45.7926 35.4387 45.67 35.1037 45.6802C34.7686 45.6905 34.4513 45.8329 34.2214 46.0762C33.9939 46.3197 33.8721 46.6429 33.8826 46.9756C33.893 47.3082 34.0349 47.6233 34.2772 47.852ZM28.7216 48.252C29.3719 48.8634 30.3789 48.8334 30.985 48.1913C31.1298 48.0391 31.2431 47.8598 31.3183 47.6638C31.3935 47.4678 31.4292 47.2589 31.4233 47.0491C31.4175 46.8393 31.3701 46.6328 31.284 46.4413C31.1979 46.2498 31.0748 46.0771 30.9217 45.9332C30.6118 45.6425 30.1992 45.486 29.774 45.4978C29.3488 45.5096 28.9455 45.6889 28.6524 45.9964C28.5082 46.1489 28.3956 46.3283 28.3211 46.5243C28.2465 46.7203 28.2114 46.929 28.2178 47.1385C28.2243 47.3481 28.2721 47.5543 28.3585 47.7454C28.445 47.9364 28.5683 48.1086 28.7216 48.252ZM23.4794 46.9179C23.6511 47.08 23.8532 47.2066 24.074 47.2905C24.2949 47.3745 24.5301 47.4141 24.7664 47.4071C25.0026 47.4002 25.2351 47.3468 25.4506 47.25C25.6661 47.1532 25.8603 47.0149 26.0221 46.8431C26.1841 46.6712 26.3106 46.4692 26.3943 46.2486C26.478 46.028 26.5174 45.7931 26.5101 45.5573C26.5028 45.3215 26.4491 45.0894 26.3519 44.8744C26.2547 44.6593 26.116 44.4654 25.9438 44.3038C25.7715 44.1422 25.569 44.0161 25.3479 43.9325C25.1267 43.849 24.8913 43.8098 24.6549 43.817C24.4186 43.8243 24.186 43.8779 23.9704 43.9749C23.7549 44.0718 23.5605 44.2102 23.3986 44.382C23.2367 44.5537 23.1103 44.7555 23.0267 44.976C22.9431 45.1964 22.904 45.4311 22.9115 45.6667C22.919 45.9023 22.973 46.1341 23.0705 46.3488C23.1679 46.5635 23.3069 46.7569 23.4794 46.9179Z" fill="white"/>
<path d="M37.1226 18.2233C37.0628 18.4258 36.9635 18.6145 36.8306 18.7786C36.6976 18.9427 36.5336 19.0789 36.3479 19.1795C36.1621 19.2801 35.9583 19.343 35.7482 19.3647C35.5381 19.3864 35.3258 19.3664 35.1234 19.3058C34.9196 19.247 34.7295 19.1484 34.5641 19.0157C34.3986 18.883 34.2611 18.7189 34.1595 18.5328C34.0578 18.3466 33.9941 18.1422 33.972 17.9314C33.9498 17.7205 33.9697 17.5073 34.0305 17.3042C34.1524 16.8943 34.4322 16.5496 34.8084 16.346C34.9947 16.2452 35.199 16.182 35.4096 16.1601C35.6203 16.1382 35.8333 16.158 36.0363 16.2183C36.2393 16.2787 36.4285 16.3784 36.5929 16.5118C36.7574 16.6453 36.894 16.8098 36.9949 16.996C37.0957 17.1821 37.1589 17.3863 37.1808 17.5969C37.2028 17.8075 37.183 18.0204 37.1226 18.2233ZM21.6637 22.0292C21.4603 21.9726 21.2429 21.9978 21.0578 22.0993C20.8728 22.2008 20.7348 22.3706 20.6733 22.5725C20.6224 22.7723 20.6511 22.9841 20.7533 23.1632C20.8555 23.3422 21.0233 23.4747 21.2213 23.5326C21.4193 23.5905 21.632 23.5693 21.8147 23.4735C21.9973 23.3778 22.1357 23.2149 22.2006 23.0192C22.3323 22.6 22.0822 22.1592 21.6637 22.0292ZM24.4607 18.9542C24.3369 18.9177 24.2072 18.9061 24.0789 18.9199C23.9506 18.9338 23.8263 18.9728 23.7132 19.0349C23.6001 19.0969 23.5003 19.1807 23.4197 19.2814C23.3391 19.3821 23.2792 19.4977 23.2435 19.6217C23.2066 19.7454 23.1945 19.8753 23.208 20.0037C23.2215 20.1322 23.2603 20.2567 23.3222 20.3701C23.384 20.4835 23.4677 20.5835 23.5683 20.6644C23.669 20.7454 23.7847 20.8056 23.9088 20.8417C24.1592 20.9141 24.428 20.8846 24.6568 20.7598C24.8856 20.6349 25.0557 20.4247 25.1301 20.175C25.202 19.9244 25.172 19.6555 25.0466 19.4269C24.9213 19.1983 24.7107 19.0284 24.4607 18.9542ZM28.0447 16.7867C27.7266 16.6949 27.3852 16.732 27.0944 16.89C26.8035 17.048 26.5866 17.3142 26.4907 17.6308C26.399 17.9491 26.4371 18.2907 26.5966 18.5809C26.7561 18.8712 27.024 19.0866 27.3419 19.18C27.4991 19.227 27.664 19.2423 27.8272 19.2252C27.9904 19.2081 28.1485 19.1588 28.2926 19.0802C28.4366 19.0017 28.5636 18.8954 28.6663 18.7674C28.769 18.6395 28.8453 18.4926 28.8908 18.335C28.9806 18.0176 28.9423 17.6776 28.7841 17.3881C28.6259 17.0986 28.3604 16.8827 28.0447 16.7867ZM32.0138 15.8992C31.8367 15.8462 31.6509 15.8287 31.4671 15.8479C31.2832 15.867 31.105 15.9223 30.9426 16.0106C30.7802 16.0989 30.637 16.2185 30.5211 16.3624C30.4052 16.5063 30.3189 16.6718 30.2672 16.8492C30.2146 17.026 30.1974 17.2114 30.2167 17.3948C30.2359 17.5783 30.2913 17.7561 30.3795 17.9181C30.4677 18.0801 30.5871 18.2231 30.7308 18.3388C30.8745 18.4546 31.0397 18.5408 31.2168 18.5925C31.5738 18.6967 31.9575 18.6555 32.2841 18.4778C32.6108 18.3001 32.8538 18.0004 32.96 17.6442C33.0133 17.4675 33.0311 17.282 33.0124 17.0984C32.9936 16.9149 32.9386 16.7368 32.8507 16.5746C32.7627 16.4123 32.6434 16.2691 32.4998 16.1532C32.3562 16.0373 32.191 15.9509 32.0138 15.8992ZM19.8955 25.8358C19.8211 25.8138 19.743 25.8066 19.6659 25.8148C19.5887 25.8229 19.5139 25.8463 19.4458 25.8835C19.3777 25.9206 19.3176 25.9709 19.269 26.0314C19.2204 26.0919 19.1843 26.1613 19.1627 26.2358C19.1399 26.3109 19.1322 26.3896 19.1399 26.4676C19.1476 26.5456 19.1706 26.6213 19.2077 26.6904C19.2447 26.7596 19.2949 26.8207 19.3556 26.8704C19.4162 26.9201 19.4861 26.9573 19.5612 26.98C19.8796 27.0717 20.2081 26.8883 20.3006 26.5733C20.3227 26.4983 20.3297 26.4197 20.3213 26.342C20.3128 26.2642 20.2891 26.1889 20.2514 26.1204C20.2138 26.0518 20.163 25.9914 20.1019 25.9426C20.0408 25.8938 19.9706 25.8575 19.8955 25.8358ZM43.9779 29.4142C43.948 29.5145 43.9382 29.6198 43.9492 29.7239C43.9603 29.8281 43.9919 29.929 44.0422 30.0208C44.0925 30.1127 44.1606 30.1936 44.2424 30.259C44.3242 30.3244 44.4182 30.3729 44.519 30.4017C44.7215 30.4612 44.9394 30.4379 45.1248 30.3369C45.3101 30.2359 45.4477 30.0654 45.5073 29.8629C45.5669 29.6605 45.5436 29.4427 45.4425 29.2574C45.3414 29.0721 45.1709 28.9346 44.9683 28.875C44.7655 28.8158 44.5474 28.8393 44.3618 28.9403C44.1762 29.0413 44.0382 29.2117 43.9779 29.4142ZM43.0575 25.435C43.0202 25.5591 43.0079 25.6894 43.0213 25.8184C43.0347 25.9473 43.0736 26.0723 43.1356 26.1861C43.1976 26.3 43.2816 26.4004 43.3827 26.4816C43.4837 26.5628 43.5999 26.6231 43.7245 26.6592C44.2497 26.8142 44.7916 26.5142 44.945 25.9925C45.0984 25.4708 44.8024 24.9267 44.2814 24.7767C44.1578 24.7395 44.028 24.727 43.8996 24.74C43.7712 24.7529 43.6466 24.7911 43.5329 24.8522C43.4193 24.9134 43.3188 24.9963 43.2372 25.0963C43.1556 25.1963 43.0946 25.3114 43.0575 25.435ZM40.89 21.8558C40.8439 22.013 40.8292 22.1778 40.8468 22.3406C40.8644 22.5035 40.9139 22.6613 40.9926 22.8051C41.0712 22.9488 41.1773 23.0756 41.305 23.1784C41.4327 23.2811 41.5793 23.3577 41.7366 23.4038C41.8938 23.4498 42.0586 23.4645 42.2216 23.4469C42.3845 23.4293 42.5424 23.3798 42.6862 23.3012C42.83 23.2226 42.9569 23.1165 43.0597 22.9889C43.1624 22.8613 43.239 22.7147 43.2851 22.5575C43.3318 22.4006 43.3468 22.236 43.3294 22.0732C43.312 21.9104 43.2625 21.7527 43.1837 21.6092C43.105 21.4657 42.9985 21.3392 42.8705 21.2371C42.7425 21.1349 42.5956 21.0592 42.4381 21.0142C42.1212 20.9227 41.7809 20.9597 41.4912 21.1173C41.2014 21.2748 40.9854 21.5402 40.89 21.8558ZM37.8395 19.0758C37.7353 19.4332 37.7773 19.8174 37.9564 20.1437C38.1355 20.4701 38.437 20.712 38.7945 20.8163C39.152 20.9205 39.5363 20.8784 39.8629 20.6994C40.1894 20.5204 40.4314 20.219 40.5357 19.8617C40.5883 19.6851 40.6056 19.4999 40.5864 19.3166C40.5672 19.1334 40.512 18.9557 40.4239 18.7939C40.3358 18.632 40.2166 18.4892 40.0731 18.3735C39.9296 18.2579 39.7647 18.1717 39.5878 18.12C39.2291 18.0152 38.8436 18.057 38.5158 18.2363C38.188 18.4155 37.9447 18.7175 37.8395 19.0758ZM43.6553 33.4308C43.6123 33.5815 43.63 33.7431 43.7047 33.8809C43.7793 34.0187 43.9049 34.1219 44.0546 34.1683C44.1296 34.1909 44.2083 34.1983 44.2862 34.1901C44.3641 34.1819 44.4395 34.1583 44.5082 34.1207C44.5769 34.0831 44.6374 34.0322 44.6861 33.971C44.7349 33.9098 44.7711 33.8395 44.7924 33.7642C44.815 33.6894 44.8226 33.6108 44.8146 33.5331C44.8067 33.4554 44.7834 33.38 44.7461 33.3113C44.7088 33.2427 44.6582 33.1821 44.5974 33.1331C44.5365 33.0841 44.4665 33.0476 44.3914 33.0258C44.2401 32.9834 44.0782 33.0021 43.9405 33.0778C43.8028 33.1536 43.7004 33.2803 43.6553 33.4308ZM29.9296 42.7008C29.9901 42.4971 30.0096 42.2834 29.9873 42.072C29.9649 41.8607 29.901 41.6558 29.7992 41.4692C29.6974 41.2826 29.5598 41.118 29.3942 40.9847C29.2286 40.8514 29.0382 40.7521 28.8342 40.6925C28.6309 40.6327 28.4179 40.6136 28.2072 40.6362C27.9966 40.6588 27.7924 40.7227 27.6065 40.8243C27.4206 40.9258 27.2565 41.063 27.1237 41.228C26.9909 41.393 26.8919 41.5826 26.8325 41.7858C26.7722 41.9895 26.7527 42.203 26.7751 42.4142C26.7976 42.6254 26.8615 42.8301 26.9633 43.0166C27.0651 43.203 27.2027 43.3675 27.3682 43.5007C27.5338 43.6338 27.724 43.733 27.9279 43.7925C28.7833 44.04 29.6862 43.5483 29.9296 42.7008ZM19.978 30.5858C20.038 30.3835 20.0152 30.1656 19.9145 29.9801C19.8138 29.7946 19.6435 29.6567 19.4411 29.5967C19.2377 29.5391 19.0198 29.5636 18.8343 29.6649C18.6488 29.7662 18.5105 29.9362 18.449 30.1383C18.4198 30.2385 18.4107 30.3434 18.4221 30.447C18.4336 30.5507 18.4654 30.6511 18.5157 30.7425C18.5661 30.8338 18.634 30.9143 18.7155 30.9794C18.7971 31.0445 18.8906 31.0928 18.9909 31.1217C19.0909 31.1518 19.1959 31.1618 19.2998 31.1512C19.4037 31.1405 19.5045 31.1094 19.5963 31.0595C19.688 31.0097 19.769 30.9422 19.8346 30.8609C19.9001 30.7796 19.9488 30.6861 19.978 30.5858ZM20.9 34.5625C20.9367 34.4395 20.9487 34.3105 20.9351 34.1828C20.9215 34.0552 20.8828 33.9315 20.821 33.819C20.7593 33.7064 20.6759 33.6072 20.5755 33.5272C20.4752 33.4471 20.3599 33.3877 20.2364 33.3525C20.113 33.3139 19.983 33.3004 19.8543 33.3129C19.7255 33.3254 19.6006 33.3636 19.4869 33.4252C19.3731 33.4868 19.2729 33.5706 19.1922 33.6717C19.1114 33.7727 19.0518 33.8889 19.0168 34.0133C18.9439 34.263 18.9732 34.5313 19.0983 34.7593C19.2234 34.9873 19.434 35.1563 19.6837 35.2292C19.9334 35.302 20.2019 35.2727 20.43 35.1476C20.6581 35.0226 20.8272 34.8121 20.9 34.5625ZM23.0709 38.1467C23.1623 37.8273 23.1241 37.4849 22.9647 37.1935C22.8052 36.9021 22.5372 36.6853 22.2189 36.59C21.9009 36.4985 21.5595 36.5366 21.2695 36.696C20.9795 36.8555 20.7645 37.1233 20.6716 37.4408C20.6249 37.5979 20.6096 37.7627 20.6268 37.9257C20.644 38.0887 20.6932 38.2467 20.7717 38.3906C20.8502 38.5345 20.9564 38.6614 21.0841 38.7642C21.2119 38.8669 21.3587 38.9434 21.5161 38.9892C21.6736 39.0362 21.8387 39.0518 22.0022 39.0349C22.1656 39.018 22.3241 38.969 22.4686 38.8907C22.6131 38.8125 22.7406 38.7064 22.844 38.5787C22.9474 38.4511 23.0245 38.3042 23.0709 38.1467ZM26.1214 40.9308C26.2249 40.5727 26.1822 40.1882 26.0026 39.8614C25.8231 39.5347 25.5214 39.2923 25.1635 39.1875C24.9866 39.1353 24.8011 39.1187 24.6177 39.1386C24.4343 39.1586 24.2567 39.2146 24.0951 39.3036C23.9336 39.3926 23.7913 39.5127 23.6764 39.6569C23.5616 39.8012 23.4765 39.9668 23.4261 40.1442C23.3741 40.3206 23.3574 40.5055 23.377 40.6884C23.3966 40.8712 23.4521 41.0484 23.5403 41.2098C23.6285 41.3712 23.7477 41.5136 23.891 41.6289C24.0344 41.7442 24.199 41.8301 24.3756 41.8817C24.7333 41.9854 25.1174 41.9437 25.4444 41.7656C25.7714 41.5875 26.0147 41.2875 26.1214 40.9308ZM42.2897 37.9683C42.493 38.0286 42.7119 38.0058 42.8984 37.9049C43.0849 37.8039 43.2237 37.6331 43.2843 37.43C43.3424 37.2271 43.3185 37.0096 43.2175 36.8242C43.1166 36.6388 42.9469 36.5006 42.7449 36.4392C42.5421 36.3811 42.3245 36.4053 42.1393 36.5063C41.9541 36.6074 41.8162 36.7772 41.7553 36.9792C41.6959 37.1812 41.7187 37.3985 41.8188 37.5837C41.9189 37.769 42.0881 37.9072 42.2897 37.9683ZM39.4977 41.0475C39.7466 41.1209 40.0144 41.0925 40.2423 40.9686C40.4703 40.8447 40.6396 40.6354 40.7132 40.3867C40.751 40.263 40.7639 40.1331 40.7511 40.0045C40.7384 39.8758 40.7002 39.7509 40.6389 39.6371C40.5776 39.5233 40.4943 39.4227 40.3939 39.3413C40.2934 39.2598 40.1779 39.199 40.0538 39.1625C39.8028 39.0889 39.533 39.1176 39.3031 39.2422C39.0732 39.3667 38.9019 39.5772 38.8266 39.8275C38.7564 40.0782 38.7874 40.3464 38.9129 40.5745C39.0383 40.8027 39.2483 40.9725 39.4977 41.0475ZM35.9137 43.2158C36.0714 43.2628 36.2368 43.2781 36.4004 43.2609C36.5639 43.2436 36.7225 43.1942 36.8669 43.1154C37.0113 43.0366 37.1386 42.93 37.2416 42.8018C37.3446 42.6736 37.4211 42.5263 37.4669 42.3683C37.5129 42.2113 37.5274 42.0467 37.5097 41.8841C37.492 41.7214 37.4424 41.5638 37.3638 41.4203C37.2851 41.2768 37.1789 41.1503 37.0513 41.0478C36.9236 40.9454 36.777 40.8691 36.6199 40.8233C36.4627 40.777 36.298 40.762 36.135 40.7793C35.9721 40.7966 35.8141 40.8458 35.6702 40.9242C35.5263 41.0025 35.3992 41.1083 35.2963 41.2357C35.1933 41.3631 35.1164 41.5096 35.0701 41.6667C35.0237 41.8238 35.0087 41.9884 35.026 42.1513C35.0434 42.3142 35.0926 42.4721 35.1709 42.6159C35.2493 42.7598 35.3552 42.8868 35.4826 42.9897C35.6101 43.0927 35.7566 43.1695 35.9137 43.2158ZM31.9479 44.1C32.1242 44.1538 32.3095 44.1719 32.4928 44.1535C32.6762 44.1351 32.8541 44.0804 33.0162 43.9926C33.1782 43.9048 33.3212 43.7857 33.4368 43.6422C33.5524 43.4987 33.6383 43.3336 33.6895 43.1567C33.7414 42.9797 33.758 42.7941 33.7382 42.6107C33.7185 42.4273 33.6627 42.2496 33.5743 42.0877C33.3955 41.7608 33.0942 41.5182 32.7366 41.4133C32.379 41.3085 31.9943 41.3499 31.6672 41.5285C31.3401 41.7072 31.0975 42.0083 30.9925 42.3658C30.8901 42.7224 30.9331 43.105 31.1122 43.43C31.2912 43.755 31.5917 43.9959 31.9479 44.1Z" fill="white"/>
<path d="M28.6624 21.2167C28.9875 21.8225 28.7666 22.5825 28.158 22.9108C27.8644 23.0683 27.5203 23.1029 27.2013 23.007C26.8823 22.911 26.6144 22.6924 26.4564 22.3992C26.123 21.7942 26.3531 21.0325 26.96 20.7058C27.1052 20.627 27.2646 20.5777 27.4289 20.5607C27.5932 20.5438 27.7593 20.5595 27.9176 20.607C28.0758 20.6545 28.2231 20.7328 28.3509 20.8374C28.4788 20.9421 28.5846 21.071 28.6624 21.2167ZM22.469 31.0183C22.298 31.1133 22.1713 31.2716 22.1161 31.4592C22.0609 31.6467 22.0816 31.8484 22.1738 32.0208C22.2194 32.1062 22.2815 32.1816 22.3566 32.2426C22.4318 32.3035 22.5183 32.3489 22.6112 32.3759C22.7042 32.4029 22.8015 32.4111 22.8977 32.3999C22.9938 32.3887 23.0867 32.3585 23.1709 32.3108C23.2572 32.2665 23.3336 32.2052 23.3957 32.1306C23.4578 32.0561 23.5042 31.9698 23.5322 31.877C23.5602 31.7841 23.5692 31.6866 23.5587 31.5902C23.5482 31.4938 23.5184 31.4005 23.471 31.3158C23.3769 31.1443 23.2189 31.0168 23.0312 30.9611C22.8436 30.9054 22.6415 30.9259 22.469 31.0183ZM22.3439 28.005C22.1456 28.1137 21.9982 28.2963 21.9337 28.513C21.8692 28.7297 21.8929 28.9631 21.9996 29.1625C22.2305 29.5858 22.7491 29.7383 23.1684 29.515C23.5828 29.2883 23.7412 28.7592 23.5169 28.3483C23.463 28.2483 23.3897 28.1599 23.3014 28.0884C23.213 28.0168 23.1113 27.9635 23.0022 27.9316C22.8931 27.8997 22.7787 27.8897 22.6657 27.9023C22.5527 27.9149 22.4433 27.9498 22.3439 28.005ZM23.1259 25.105C22.8973 25.2295 22.7268 25.4387 22.6512 25.6877C22.5756 25.9366 22.6008 26.2053 22.7216 26.4358C22.9842 26.91 23.5803 27.0933 24.0555 26.8342C24.1696 26.7732 24.2706 26.6903 24.3527 26.5902C24.4347 26.4902 24.4962 26.3749 24.5336 26.251C24.571 26.1272 24.5836 25.9972 24.5707 25.8684C24.5577 25.7397 24.5195 25.6148 24.4581 25.5008C24.3325 25.2733 24.1224 25.1042 23.8731 25.0301C23.6239 24.9561 23.3555 24.983 23.1259 25.105ZM24.7216 22.5967C24.5924 22.6651 24.4781 22.7586 24.3853 22.8716C24.2925 22.9846 24.2231 23.1149 24.1812 23.2549C24.1392 23.3949 24.1255 23.5419 24.1409 23.6872C24.1562 23.8326 24.2003 23.9735 24.2705 24.1017C24.5623 24.6342 25.2243 24.8367 25.7612 24.5458C25.89 24.4783 26.0041 24.3858 26.0968 24.2739C26.1896 24.1619 26.2592 24.0326 26.3017 23.8936C26.3441 23.7545 26.3585 23.6084 26.344 23.4637C26.3295 23.3191 26.2864 23.1787 26.2172 23.0508C26.1492 22.9225 26.0565 22.8088 25.9444 22.7164C25.8323 22.624 25.703 22.5548 25.564 22.5125C25.4249 22.4703 25.2789 22.456 25.1344 22.4705C24.9898 22.4849 24.8495 22.5278 24.7216 22.5967ZM23.5002 33.8717C23.4286 33.9102 23.3653 33.9625 23.314 34.0255C23.2627 34.0885 23.2244 34.1611 23.2012 34.239C23.178 34.3169 23.1705 34.3986 23.179 34.4795C23.1876 34.5603 23.212 34.6386 23.251 34.71C23.3302 34.8526 23.4621 34.9586 23.6185 35.0053C23.7749 35.0521 23.9434 35.0358 24.088 34.96C24.2305 34.8798 24.336 34.7469 24.3816 34.5898C24.4273 34.4328 24.4096 34.2641 24.3322 34.12C24.2538 33.9778 24.1227 33.8722 23.9671 33.8257C23.8114 33.7793 23.6438 33.7958 23.5002 33.8717ZM37.7511 23.61C37.8463 23.7816 38.0046 23.9093 38.1925 23.9661C38.3804 24.0229 38.583 24.0043 38.7574 23.9142C38.9292 23.8189 39.0567 23.6602 39.1127 23.4719C39.1686 23.2837 39.1485 23.0811 39.0567 22.9075C39.0109 22.8221 38.9488 22.7466 38.8737 22.6854C38.7986 22.6241 38.7122 22.5783 38.6193 22.5507C38.5265 22.523 38.429 22.514 38.3327 22.5242C38.2363 22.5344 38.1429 22.5635 38.0579 22.61C37.972 22.6555 37.896 22.7174 37.8341 22.7923C37.7722 22.8672 37.7256 22.9536 37.6971 23.0464C37.6687 23.1393 37.6588 23.2369 37.668 23.3336C37.6773 23.4303 37.7055 23.5242 37.7511 23.61ZM35.2476 22.0175C35.4735 22.4358 36.0054 22.5883 36.4106 22.3608C36.8382 22.1342 36.9908 21.6142 36.7624 21.1975C36.6549 20.9975 36.4726 20.8482 36.2554 20.782C36.0382 20.7158 35.8035 20.7382 35.6027 20.8442C35.4014 20.9541 35.2514 21.1387 35.1849 21.3582C35.1185 21.5777 35.141 21.8144 35.2476 22.0175ZM32.3547 21.2425C32.415 21.3557 32.4973 21.4559 32.5966 21.5371C32.6959 21.6184 32.8104 21.6791 32.9334 21.7157C33.0564 21.7524 33.1855 21.7643 33.3131 21.7507C33.4407 21.7372 33.5644 21.6984 33.6769 21.6367C33.7912 21.5761 33.8923 21.4935 33.9745 21.3938C34.0567 21.294 34.1183 21.179 34.1559 21.0553C34.1935 20.9316 34.2062 20.8017 34.1934 20.6731C34.1806 20.5445 34.1425 20.4197 34.0813 20.3058C34.0205 20.1921 33.9377 20.0915 33.8376 20.0101C33.7376 19.9286 33.6224 19.8678 33.4986 19.8313C33.3749 19.7948 33.2451 19.7832 33.1168 19.7973C32.9886 19.8114 32.8644 19.8508 32.7516 19.9133C32.638 19.9744 32.5377 20.0573 32.4563 20.1572C32.3748 20.2571 32.314 20.3721 32.2771 20.4956C32.2402 20.6191 32.2281 20.7486 32.2414 20.8768C32.2547 21.0049 32.2932 21.1292 32.3547 21.2425ZM29.3343 21.3617C29.4029 21.4901 29.4962 21.6038 29.6089 21.6963C29.7215 21.7887 29.8512 21.858 29.9907 21.9002C30.1301 21.9425 30.2765 21.9569 30.4215 21.9425C30.5665 21.9282 30.7073 21.8854 30.8358 21.8167C31.0929 21.6748 31.2837 21.4374 31.3671 21.1559C31.4504 20.8744 31.4194 20.5714 31.2809 20.3125C31.1369 20.0637 30.9015 19.8807 30.6247 19.8024C30.348 19.7241 30.0516 19.7566 29.7984 19.8931C29.5453 20.0295 29.3552 20.2592 29.2686 20.5333C29.1819 20.8075 29.2055 21.1046 29.3343 21.3617ZM39.6319 25.8658C39.7903 26.165 40.1654 26.2733 40.4556 26.1133C40.527 26.0763 40.5902 26.0253 40.6416 25.9635C40.6931 25.9017 40.7316 25.8302 40.755 25.7532C40.7783 25.6763 40.7861 25.5954 40.7778 25.5155C40.7694 25.4355 40.7452 25.358 40.7065 25.2875C40.6296 25.143 40.4988 25.0345 40.3425 24.9855C40.1862 24.9366 40.0169 24.951 39.8712 25.0258C39.5852 25.1917 39.466 25.5733 39.6319 25.8658ZM37.506 37.5892C37.4286 37.4427 37.3228 37.3131 37.1947 37.2079C37.0667 37.1028 36.9189 37.0241 36.7601 36.9767C36.6014 36.9292 36.4347 36.9138 36.2699 36.9314C36.1051 36.949 35.9455 36.9992 35.8003 37.0792C35.6551 37.1566 35.5268 37.2622 35.4228 37.3896C35.3188 37.5171 35.2411 37.6639 35.1944 37.8216C35.1476 37.9793 35.1326 38.1447 35.1504 38.3082C35.1681 38.4718 35.2181 38.6301 35.2976 38.7742C35.6277 39.3808 36.3897 39.6025 37 39.2825C37.6061 38.9475 37.832 38.1833 37.506 37.5892ZM26.2047 36.3742C26.1106 36.2041 25.9535 36.0778 25.7672 36.0223C25.5809 35.9668 25.3803 35.9866 25.2084 36.0775C25.1233 36.1231 25.048 36.185 24.9868 36.2597C24.9257 36.3344 24.8799 36.4204 24.8521 36.5129C24.8243 36.6053 24.815 36.7023 24.8248 36.7984C24.8346 36.8944 24.8633 36.9876 24.9091 37.0725C24.9541 37.1583 25.0158 37.2343 25.0906 37.2958C25.1654 37.3574 25.2519 37.4032 25.3448 37.4308C25.4377 37.4583 25.5352 37.4669 25.6315 37.456C25.7278 37.4451 25.8209 37.415 25.9054 37.3675C25.9904 37.322 26.0656 37.2602 26.1266 37.1857C26.1877 37.1111 26.2335 37.0252 26.2613 36.9329C26.2891 36.8406 26.2984 36.7438 26.2887 36.6479C26.279 36.552 26.2504 36.459 26.2047 36.3742ZM28.7115 37.9675C28.6026 37.7681 28.4191 37.6199 28.2011 37.5554C27.9832 37.4909 27.7485 37.5153 27.5486 37.6233C27.4483 37.6759 27.3596 37.7479 27.2877 37.8353C27.2157 37.9226 27.162 38.0234 27.1296 38.1318C27.0972 38.2402 27.0868 38.354 27.0991 38.4664C27.1113 38.5789 27.146 38.6878 27.2009 38.7867C27.4177 39.2058 27.9437 39.3658 28.3606 39.1408C28.561 39.03 28.71 38.8451 28.7756 38.6258C28.8413 38.4064 28.8182 38.1701 28.7115 37.9675ZM31.6111 38.7425C31.3585 38.2667 30.7557 38.0975 30.2722 38.3442C30.0442 38.4696 29.8747 38.6797 29.8004 38.9291C29.7261 39.1784 29.7531 39.447 29.8754 39.6767C30.1371 40.1575 30.7332 40.335 31.2101 40.0783C31.325 40.0178 31.4267 39.935 31.5092 39.8348C31.5918 39.7345 31.6535 39.6188 31.6909 39.4945C31.7282 39.3701 31.7404 39.2396 31.7267 39.1105C31.713 38.9814 31.6737 38.8563 31.6111 38.7425ZM34.6273 38.6217C34.4869 38.3638 34.2501 38.1719 33.9687 38.0879C33.6872 38.0039 33.3839 38.0346 33.125 38.1733C32.5848 38.4592 32.3972 39.1283 32.6907 39.6725C32.7579 39.8007 32.8502 39.9141 32.962 40.0061C33.0738 40.098 33.2029 40.1667 33.3417 40.2079C33.4805 40.2492 33.6262 40.2622 33.7701 40.2462C33.914 40.2303 34.0533 40.1857 34.1796 40.115C34.7215 39.8317 34.9141 39.1558 34.6273 38.6217ZM41.4802 28.9767C41.8428 28.7683 41.9812 28.3183 41.792 27.9658C41.7459 27.8809 41.6836 27.8058 41.6085 27.7449C41.5335 27.684 41.4471 27.6384 41.3545 27.6109C41.2618 27.5833 41.1646 27.5743 41.0685 27.5843C40.9723 27.5943 40.8791 27.6231 40.794 27.6692C40.7076 27.7142 40.631 27.7761 40.5688 27.8512C40.5066 27.9263 40.4601 28.0131 40.432 28.1064C40.4039 28.1998 40.3947 28.2978 40.4051 28.3947C40.4154 28.4917 40.4451 28.5855 40.4922 28.6708C40.5841 28.8409 40.739 28.9682 40.9237 29.0254C41.1084 29.0826 41.3082 29.0651 41.4802 28.9767ZM41.6185 31.985C42.0371 31.7575 42.1871 31.235 41.9595 30.82C41.9064 30.7207 41.8342 30.633 41.7471 30.5617C41.6599 30.4904 41.5596 30.4371 41.4517 30.4047C41.3439 30.3723 41.2307 30.3616 41.1187 30.3731C41.0067 30.3846 40.8981 30.4181 40.799 30.4717C40.5986 30.582 40.4494 30.7665 40.3833 30.9855C40.3172 31.2045 40.3396 31.4406 40.4456 31.6433C40.6673 32.0542 41.2059 32.2058 41.6185 31.985ZM40.8307 34.8825C41.3193 34.62 41.4893 34.03 41.2401 33.5475C41.1155 33.3182 40.9052 33.1475 40.6551 33.0727C40.405 32.9979 40.1354 33.0251 39.9053 33.1483C39.6755 33.2736 39.5044 33.4844 39.4292 33.7349C39.354 33.9855 39.3807 34.2556 39.5035 34.4867C39.6283 34.7137 39.8375 34.8826 40.0859 34.9567C40.3343 35.0307 40.6018 35.0041 40.8307 34.8825ZM39.2459 37.38C39.7828 37.1017 39.9812 36.4192 39.6902 35.8867C39.3951 35.3517 38.7282 35.1442 38.1938 35.4392C38.066 35.5082 37.953 35.6017 37.8614 35.7143C37.7697 35.827 37.7012 35.9566 37.6597 36.0958C37.6182 36.2349 37.6046 36.3809 37.6195 36.5253C37.6345 36.6697 37.6778 36.8098 37.7469 36.9375C37.8153 37.0659 37.9086 37.1793 38.0214 37.2713C38.1341 37.3632 38.264 37.4318 38.4036 37.473C38.5431 37.5142 38.6895 37.5272 38.8341 37.5112C38.9787 37.4952 39.1187 37.4506 39.2459 37.38Z" fill="white"/>
<path d="M60.6956 33.2125C59.8431 33.2114 59.0259 32.8719 58.4237 32.2687C57.8215 31.6655 57.4836 30.848 57.4843 29.9958C57.4836 29.5738 57.5664 29.1558 57.7278 28.7658C57.8892 28.3758 58.1261 28.0216 58.4249 27.7234C58.7237 27.4252 59.0785 27.1889 59.4688 27.0282C59.8592 26.8674 60.2776 26.7853 60.6998 26.7867C61.122 26.7859 61.5402 26.8685 61.9304 27.0297C62.3207 27.1908 62.6752 27.4274 62.9737 27.7259C63.2722 28.0244 63.5088 28.3788 63.67 28.7689C63.8311 29.159 63.9136 29.5771 63.9128 29.9992C63.9123 30.8517 63.5732 31.6691 62.9698 32.2717C62.3665 32.8743 61.5485 33.2127 60.6956 33.2125ZM48.0754 5.49917C48.1244 5.27155 48.1279 5.0365 48.0857 4.80753C48.0435 4.57856 47.9565 4.36018 47.8296 4.16494C47.7027 3.96971 47.5384 3.80148 47.3463 3.66992C47.1541 3.53835 46.9378 3.44606 46.7098 3.39833C46.4822 3.34881 46.247 3.34476 46.0177 3.38643C45.7885 3.4281 45.5698 3.51466 45.3742 3.64113C45.1785 3.7676 45.0098 3.93149 44.8778 4.12336C44.7458 4.31524 44.653 4.53132 44.6048 4.75917C44.5066 5.21921 44.5953 5.69939 44.8513 6.09407C45.1073 6.48876 45.5097 6.76562 45.9699 6.86375C46.4302 6.96188 46.9105 6.87324 47.3054 6.61733C47.7002 6.36142 47.9772 5.95921 48.0754 5.49917ZM54.4097 10.0325C54.4542 9.754 54.4434 9.46945 54.3777 9.19515C54.3121 8.92085 54.1929 8.66219 54.0271 8.43398C53.8613 8.20578 53.6521 8.01251 53.4115 7.86526C53.1708 7.718 52.9035 7.61965 52.6248 7.57583C52.0679 7.50046 51.5035 7.64596 51.0526 7.9812C50.6016 8.31645 50.2999 8.81481 50.2118 9.36964C50.1238 9.92447 50.2565 10.4917 50.5816 10.95C50.9066 11.4082 51.3982 11.7211 51.9512 11.8217C52.5144 11.9095 53.0895 11.7704 53.5504 11.435C54.0112 11.0996 54.3203 10.5953 54.4097 10.0325ZM62.6781 22.72C62.6989 22.3327 62.643 21.9452 62.5137 21.5796C62.3844 21.2139 62.1841 20.8774 61.9244 20.5892C61.6648 20.3011 61.3507 20.067 61.0004 19.9004C60.65 19.7338 60.2702 19.638 59.8828 19.6183C59.4952 19.597 59.1073 19.6524 58.7412 19.7813C58.3752 19.9102 58.0382 20.1102 57.7496 20.3696C57.4611 20.6291 57.2266 20.943 57.0598 21.2933C56.8929 21.6436 56.7969 22.0234 56.7773 22.4108C56.7534 22.8002 56.8069 23.1904 56.9347 23.5589C57.0625 23.9275 57.262 24.2671 57.5218 24.5581C57.7816 24.8491 58.0965 25.0859 58.4484 25.2546C58.8002 25.4233 59.182 25.5207 59.5717 25.5411C59.9614 25.5615 60.3512 25.5046 60.7188 25.3735C61.0863 25.2425 61.4243 25.04 61.7131 24.7777C62.0019 24.5154 62.2359 24.1985 62.4015 23.8453C62.5671 23.4922 62.6611 23.1097 62.6781 22.72ZM33.2684 1.28833C33.2684 0.5725 32.689 0 31.9754 0C31.6414 0.0120071 31.325 0.153086 31.093 0.39354C30.8609 0.633993 30.7313 0.955064 30.7313 1.28917C30.7313 1.62327 30.8609 1.94434 31.093 2.18479C31.325 2.42525 31.6414 2.56633 31.9754 2.57833C32.689 2.57833 33.2684 2.0025 33.2684 1.28833ZM45.972 53.135C45.7439 53.1835 45.5276 53.2764 45.3354 53.4084C45.1432 53.5405 44.979 53.7091 44.852 53.9046C44.5955 54.2994 44.5064 54.7799 44.6044 55.2404C44.7023 55.7009 44.9793 56.1036 45.3743 56.36C45.7693 56.6164 46.25 56.7054 46.7107 56.6075C47.1713 56.5096 47.5742 56.2328 47.8307 55.8379C48.0872 55.4431 48.1763 54.9626 48.0783 54.5021C47.9804 54.0416 47.7034 53.6389 47.3084 53.3825C46.9134 53.1261 46.4327 53.0371 45.972 53.135ZM51.9512 48.18C51.6702 48.2214 51.4003 48.3181 51.1569 48.4645C50.9136 48.6108 50.7017 48.8039 50.5334 49.0326C50.3652 49.2613 50.244 49.5211 50.1768 49.7969C50.1096 50.0727 50.0977 50.3591 50.1419 50.6395C50.1861 50.9199 50.2854 51.1888 50.4341 51.4306C50.5829 51.6724 50.7781 51.8824 51.0085 52.0483C51.2389 52.2143 51.5 52.3329 51.7765 52.3974C52.0531 52.4619 52.3397 52.471 52.6198 52.4242C53.1784 52.3307 53.6775 52.0206 54.0087 51.5612C54.3398 51.1019 54.4761 50.5304 54.388 49.9711C54.2999 49.4118 53.9945 48.9099 53.5382 48.5745C53.0818 48.2391 52.5115 48.0973 51.9512 48.18ZM56.5689 41.6917C55.8625 41.7659 55.2145 42.1177 54.7675 42.6695C54.3205 43.2213 54.1111 43.928 54.1854 44.6342C54.2597 45.3403 54.6116 45.988 55.1636 46.4348C55.7157 46.8816 56.4227 47.0909 57.1291 47.0167C57.4792 46.9806 57.8188 46.8758 58.1282 46.7082C58.4377 46.5407 58.7111 46.3137 58.9326 46.0403C59.1541 45.767 59.3194 45.4525 59.4191 45.1151C59.5188 44.7777 59.5509 44.424 59.5134 44.0742C59.4389 43.368 59.0868 42.7203 58.5346 42.2736C57.9825 41.8268 57.2754 41.6175 56.5689 41.6917ZM59.5685 34.4825C58.787 34.5251 58.0544 34.8758 57.5312 35.4575C57.008 36.0392 56.7369 36.8046 56.7773 37.5858C56.7968 37.9733 56.8927 38.3532 57.0596 38.7035C57.2264 39.0539 57.4608 39.3678 57.7494 39.6273C58.038 39.8868 58.375 40.0867 58.7411 40.2156C59.1072 40.3445 59.4952 40.3998 59.8828 40.3783C60.2702 40.3586 60.6499 40.2627 61.0001 40.096C61.3504 39.9294 61.6643 39.6953 61.9239 39.4071C62.1835 39.119 62.3837 38.7825 62.5129 38.4169C62.6422 38.0513 62.698 37.6639 62.6773 37.2767C62.6348 36.4944 62.2837 35.7609 61.7009 35.237C61.1181 34.7132 60.3512 34.4418 59.5685 34.4825ZM31.9754 57.4208C31.6389 57.4294 31.3191 57.569 31.0841 57.8099C30.8492 58.0508 30.7177 58.374 30.7177 58.7104C30.7177 59.0469 30.8492 59.37 31.0841 59.6109C31.3191 59.8518 31.6389 59.9914 31.9754 60C32.3176 60 32.6457 59.8641 32.8877 59.6223C33.1296 59.3804 33.2655 59.0524 33.2655 58.7104C33.2655 58.3684 33.1296 58.0404 32.8877 57.7985C32.6457 57.5567 32.3176 57.4208 31.9754 57.4208ZM3.25354 33.2125C4.1057 33.2107 4.92232 32.871 5.52411 32.2679C6.12589 31.6648 6.46364 30.8476 6.4632 29.9958C6.46386 29.5743 6.38129 29.1567 6.22024 28.7672C6.05918 28.3776 5.8228 28.0236 5.52463 27.7254C5.22647 27.4273 4.87238 27.1909 4.48266 27.0298C4.09295 26.8688 3.67526 26.7861 3.25354 26.7867C2.83111 26.7861 2.41272 26.8688 2.02231 27.0301C1.63191 27.1914 1.27714 27.428 0.978325 27.7265C0.679507 28.0249 0.442502 28.3794 0.280871 28.7695C0.119241 29.1596 0.0361578 29.5777 0.0363774 30C0.0381422 30.852 0.377765 31.6686 0.980813 32.2708C1.58386 32.873 2.40114 33.2116 3.25354 33.2125ZM17.9788 6.8625C18.4392 6.7647 18.842 6.48807 19.0984 6.09346C19.3548 5.69885 19.4439 5.21859 19.346 4.75833C19.2978 4.53053 19.2051 4.31448 19.0731 4.12259C18.9411 3.93071 18.7726 3.76676 18.5771 3.64017C18.3816 3.51357 18.163 3.42682 17.9338 3.38489C17.7047 3.34296 17.4695 3.34668 17.2418 3.39583C17.0141 3.4442 16.7981 3.53693 16.6063 3.66873C16.4144 3.80053 16.2504 3.96881 16.1236 4.16397C15.9968 4.35912 15.9097 4.57734 15.8672 4.80614C15.8248 5.03495 15.8279 5.26988 15.8763 5.4975C15.9246 5.72512 16.0174 5.94099 16.1493 6.13278C16.2811 6.32457 16.4495 6.48852 16.6447 6.61527C16.8399 6.74202 17.0582 6.82909 17.2871 6.87151C17.5161 6.91393 17.7511 6.91087 17.9788 6.8625ZM12.0013 11.82C12.5648 11.7305 13.0698 11.421 13.4052 10.9596C13.7407 10.4982 13.8792 9.92258 13.7904 9.35917C13.7463 9.08029 13.6475 8.81284 13.4999 8.57216C13.3522 8.33148 13.1585 8.12228 12.9298 7.95654C12.7011 7.79081 12.4419 7.6718 12.1672 7.60633C11.8924 7.54086 11.6074 7.53021 11.3285 7.575C11.0499 7.61891 10.7826 7.71734 10.5421 7.86464C10.3015 8.01193 10.0924 8.20521 9.9267 8.43341C9.76098 8.6616 9.64192 8.92023 9.57633 9.19448C9.51074 9.46874 9.49992 9.75323 9.54447 10.0317C9.63307 10.5945 9.94167 11.099 10.4024 11.4344C10.8631 11.7698 11.4383 11.9085 12.0013 11.82ZM7.38024 18.3067C8.07407 18.2169 8.70527 17.8594 9.13902 17.3107C9.57278 16.762 9.7747 16.0655 9.70167 15.37C9.62864 14.6745 9.28645 14.0351 8.74817 13.5884C8.20989 13.1417 7.51821 12.923 6.82085 12.9792C6.47059 13.0153 6.13092 13.1203 5.82136 13.288C5.5118 13.4558 5.23843 13.683 5.01696 13.9566C4.7955 14.2303 4.63029 14.545 4.53082 14.8826C4.43135 15.2203 4.39959 15.5742 4.43736 15.9242C4.47387 16.2738 4.57899 16.6129 4.74669 16.9219C4.91439 17.231 5.1414 17.5039 5.41472 17.7252C5.68804 17.9465 6.00232 18.1117 6.33958 18.2115C6.67684 18.3113 7.03047 18.3436 7.38024 18.3067ZM4.38067 25.515C5.16315 25.4734 5.8971 25.123 6.42126 24.5408C6.94541 23.9586 7.21687 23.1922 7.17599 22.41C7.15628 22.0222 7.06009 21.642 6.89294 21.2915C6.7258 20.9409 6.491 20.6268 6.20204 20.3672C5.91307 20.1077 5.57564 19.9077 5.20914 19.7789C4.84263 19.6501 4.45427 19.595 4.06638 19.6167C3.679 19.6367 3.29938 19.7329 2.94923 19.8997C2.59907 20.0665 2.28525 20.3007 2.02571 20.5889C1.76617 20.877 1.566 21.2135 1.43665 21.579C1.30731 21.9445 1.25132 22.332 1.27189 22.7192C1.31347 23.5019 1.66429 24.2361 2.24725 24.7604C2.83021 25.2847 3.59758 25.5561 4.38067 25.515ZM15.8763 54.5C15.8278 54.7278 15.8247 54.9629 15.8672 55.1919C15.9096 55.4208 15.9968 55.6392 16.1237 55.8345C16.2505 56.0299 16.4147 56.1983 16.6067 56.3302C16.7987 56.4621 17.0148 56.5549 17.2427 56.6033C17.4705 56.6518 17.7057 56.6548 17.9348 56.6124C18.1639 56.57 18.3823 56.4829 18.5777 56.356C18.7731 56.2292 18.9416 56.0651 19.0736 55.8732C19.2056 55.6813 19.2984 55.4653 19.3469 55.2375C19.4442 54.7774 19.3549 54.2974 19.0986 53.9031C18.8422 53.5087 18.4398 53.2322 17.9796 53.1342C17.5196 53.0375 17.04 53.127 16.6458 53.383C16.2516 53.6389 15.9749 54.0406 15.8763 54.5ZM9.54531 49.965C9.50029 50.2435 9.51078 50.5282 9.57617 50.8027C9.64156 51.0772 9.76057 51.336 9.92636 51.5644C10.0921 51.7928 10.3014 51.9861 10.5422 52.1334C10.783 52.2807 11.0505 52.3789 11.3294 52.4225C11.749 52.4893 12.1791 52.4302 12.5651 52.2526C12.9512 52.075 13.2759 51.787 13.4982 51.425C13.7204 51.063 13.8303 50.6432 13.8139 50.2187C13.7975 49.7943 13.6555 49.3842 13.4059 49.0404C13.1563 48.6966 12.8104 48.4345 12.4118 48.2873C12.0132 48.1401 11.5798 48.1143 11.1666 48.2133C10.7533 48.3123 10.3787 48.5315 10.0901 48.8433C9.80153 49.1551 9.61193 49.5455 9.54531 49.965ZM4.43736 44.0758C4.39972 44.4255 4.43156 44.7792 4.53106 45.1165C4.63055 45.4539 4.79574 45.7682 5.01714 46.0416C5.23854 46.3149 5.51178 46.5419 5.82117 46.7093C6.13057 46.8768 6.47001 46.9815 6.82001 47.0175C7.16989 47.0549 7.52372 47.0229 7.86121 46.9234C8.19871 46.8239 8.51324 46.6588 8.78678 46.4375C9.06032 46.2163 9.28749 45.9432 9.45528 45.6341C9.62307 45.3249 9.72817 44.9857 9.76456 44.6358C9.8013 44.286 9.76875 43.9324 9.66876 43.5952C9.56878 43.2579 9.40332 42.9437 9.18184 42.6704C8.96036 42.3971 8.68719 42.17 8.37792 42.0022C8.06866 41.8345 7.72937 41.7292 7.37941 41.6925C7.0296 41.6554 6.67591 41.6877 6.33861 41.7875C6.0013 41.8873 5.687 42.0526 5.41371 42.274C5.14042 42.4954 4.91351 42.7685 4.74597 43.0777C4.57844 43.3869 4.47356 43.7261 4.43736 44.0758ZM1.27189 37.2758C1.2511 37.663 1.30694 38.0505 1.43621 38.4161C1.56549 38.7817 1.76565 39.1182 2.02525 39.4063C2.28484 39.6944 2.59875 39.9285 2.94901 40.0952C3.29926 40.2618 3.67897 40.3578 4.06638 40.3775C4.45428 40.3995 4.84271 40.3446 5.20931 40.216C5.57591 40.0874 5.91343 39.8875 6.20245 39.628C6.49148 39.3684 6.72629 39.0543 6.89337 38.7037C7.06045 38.3531 7.1565 37.9729 7.17599 37.585C7.21619 36.8031 6.94445 36.0373 6.42039 35.4555C5.89633 34.8737 5.16276 34.5235 4.38067 34.4817C3.59813 34.4417 2.83162 34.7133 2.24896 35.237C1.66631 35.7607 1.31497 36.4938 1.27189 37.2758ZM39.05 56.3942C38.695 56.4897 38.3923 56.722 38.2084 57.0402C38.0245 57.3584 37.9742 57.7365 38.0688 58.0917C38.1644 58.4463 38.3971 58.7484 38.7155 58.9317C39.0339 59.115 39.4121 59.1644 39.767 59.0692C39.9431 59.0227 40.1084 58.9419 40.2533 58.8315C40.3982 58.721 40.5198 58.5831 40.6112 58.4255C40.7026 58.2679 40.762 58.0939 40.7859 57.9133C40.8099 57.7328 40.7979 57.5493 40.7507 57.3733C40.655 57.0181 40.4221 56.7154 40.1032 56.5318C39.7842 56.3481 39.4054 56.2987 39.05 56.3942ZM24.8991 56.3942C24.5473 56.3081 24.1757 56.3632 23.864 56.5477C23.5523 56.7322 23.3253 57.0313 23.2315 57.3811C23.1378 57.7308 23.1848 58.1034 23.3625 58.4189C23.5402 58.7344 23.8344 58.9678 24.1822 59.0692C24.3593 59.1208 24.545 59.1365 24.7283 59.1154C24.9116 59.0943 25.0888 59.0369 25.2496 58.9464C25.4104 58.8559 25.5515 58.7343 25.6646 58.5886C25.7777 58.4429 25.8605 58.2761 25.9083 58.0979C25.956 57.9198 25.9677 57.7339 25.9426 57.5512C25.9175 57.3685 25.8562 57.1926 25.7622 57.0339C25.6682 56.8752 25.5434 56.7369 25.3952 56.627C25.247 56.5172 25.0784 56.438 24.8991 56.3942ZM40.7515 2.62583C40.7985 2.44986 40.8102 2.26636 40.7861 2.08583C40.7621 1.90531 40.7026 1.73131 40.6111 1.57379C40.5197 1.41627 40.398 1.27833 40.2532 1.16786C40.1083 1.05739 39.9431 0.976559 39.767 0.93C39.418 0.852511 39.0527 0.912709 38.7471 1.09803C38.4415 1.28335 38.2194 1.57947 38.127 1.9246C38.0346 2.26972 38.0791 2.63718 38.2512 2.95029C38.4234 3.26339 38.7098 3.49795 39.0508 3.605C39.2268 3.65252 39.4105 3.66488 39.5912 3.64137C39.772 3.61786 39.9464 3.55895 40.1043 3.468C40.2623 3.37705 40.4008 3.25585 40.5118 3.11134C40.6229 2.96683 40.7043 2.80185 40.7515 2.62583ZM25.8829 1.90667C25.8356 1.73076 25.7541 1.56591 25.643 1.42156C25.5319 1.27721 25.3933 1.1562 25.2353 1.06547C25.0773 0.974737 24.903 0.916066 24.7223 0.89282C24.5415 0.869573 24.358 0.882208 24.1822 0.93C24.0064 0.976639 23.8416 1.05746 23.6972 1.16784C23.5527 1.27822 23.4314 1.41599 23.3403 1.57327C23.2491 1.73055 23.1899 1.90425 23.166 2.08444C23.1421 2.26462 23.154 2.44774 23.2009 2.62333C23.248 2.79936 23.3293 2.96439 23.4402 3.10901C23.5511 3.25363 23.6894 3.375 23.8472 3.4662C24.005 3.55739 24.1792 3.61662 24.3599 3.64051C24.5407 3.6644 24.7243 3.65247 24.9004 3.60542C25.0765 3.55836 25.2416 3.47709 25.3863 3.36626C25.531 3.25542 25.6524 3.11718 25.7436 2.95944C25.8348 2.80169 25.8941 2.62753 25.918 2.4469C25.9419 2.26626 25.93 2.08269 25.8829 1.90667Z" fill="white"/>
<path d="M53.5618 23.4275C52.9501 23.6903 52.259 23.6996 51.6404 23.4534C51.0218 23.2071 50.5264 22.7254 50.263 22.1142C50.1322 21.8115 50.0625 21.4861 50.0578 21.1565C50.0531 20.8269 50.1135 20.4995 50.2355 20.1933C50.3576 19.8871 50.5389 19.6079 50.769 19.3718C50.9992 19.1357 51.2737 18.9474 51.5768 18.8175C52.1854 18.5708 52.8665 18.5723 53.474 18.8217C54.0815 19.071 54.5671 19.5483 54.8268 20.1513C55.0864 20.7543 55.0994 21.4349 54.8629 22.0473C54.6265 22.6598 54.1594 23.1552 53.5618 23.4275ZM35.9387 7.46C35.9037 7.2815 35.8338 7.11167 35.7329 6.9603C35.632 6.80893 35.5022 6.67901 35.3508 6.57801C35.1995 6.477 35.0297 6.40692 34.8511 6.3718C34.6726 6.33667 34.4889 6.33719 34.3105 6.37333C34.1318 6.40808 33.9618 6.47786 33.8102 6.57864C33.6586 6.67942 33.5285 6.80921 33.4273 6.96052C33.3262 7.11182 33.256 7.28165 33.2209 7.46021C33.1857 7.63876 33.1863 7.8225 33.2226 8.00083C33.3049 8.35031 33.5197 8.65418 33.8219 8.84837C34.124 9.04257 34.4897 9.1119 34.842 9.04176C35.1942 8.97162 35.5055 8.76748 35.7101 8.47239C35.9147 8.1773 35.9966 7.81433 35.9387 7.46ZM41.8837 8.7525C41.8296 8.53895 41.7339 8.33817 41.6019 8.16171C41.47 7.98525 41.3046 7.83657 41.115 7.72421C40.9254 7.61186 40.7156 7.53804 40.4974 7.507C40.2792 7.47596 40.057 7.48831 39.8436 7.54333C39.6298 7.59709 39.4287 7.6926 39.2519 7.82435C39.0751 7.9561 38.9262 8.1215 38.8136 8.31102C38.701 8.50054 38.627 8.71045 38.5959 8.92866C38.5648 9.14687 38.5772 9.36908 38.6323 9.5825C38.6868 9.7959 38.7829 9.99647 38.9149 10.1728C39.047 10.3491 39.2125 10.4976 39.402 10.61C39.5915 10.7224 39.8013 10.7963 40.0194 10.8276C40.2375 10.8589 40.4597 10.847 40.6732 10.7925C40.8866 10.738 41.0873 10.642 41.2637 10.51C41.44 10.378 41.5887 10.2125 41.7011 10.0231C41.8135 9.83367 41.8875 9.62396 41.9188 9.40595C41.9501 9.18794 41.9382 8.9659 41.8837 8.7525ZM47.3651 11.3967C47.2839 11.1343 47.1516 10.8906 46.9759 10.6795C46.8001 10.4685 46.5844 10.2942 46.341 10.1667C46.0977 10.0393 45.8316 9.96113 45.5579 9.9368C45.2843 9.91248 45.0085 9.94245 44.7465 10.025C44.484 10.1063 44.2401 10.2386 44.0288 10.4143C43.8176 10.59 43.6431 10.8057 43.5154 11.0489C43.3877 11.2922 43.3092 11.5582 43.2846 11.8318C43.2599 12.1054 43.2896 12.3812 43.3718 12.6433C43.5483 13.159 43.9191 13.5854 44.4054 13.8318C44.8917 14.0783 45.455 14.1252 45.9754 13.9628C46.4959 13.8003 46.9323 13.4412 47.1918 12.9619C47.4514 12.4827 47.5135 11.9211 47.3651 11.3967ZM51.7369 15.2917C51.6321 15.0076 51.4722 14.747 51.2665 14.5248C51.0607 14.3026 50.8132 14.1231 50.5379 13.9967C50.2627 13.8703 49.9652 13.7994 49.6625 13.7881C49.3598 13.7768 49.0579 13.8253 48.774 13.9308C48.4894 14.0351 48.2282 14.1945 48.0055 14.4C47.7827 14.6055 47.6028 14.853 47.476 15.1282C47.3493 15.4034 47.2782 15.701 47.2669 16.0038C47.2556 16.3066 47.3043 16.6086 47.4101 16.8925C47.6225 17.466 48.0541 17.9317 48.61 18.1872C49.1658 18.4426 49.8005 18.4669 50.3742 18.2546C50.948 18.0423 51.4139 17.6109 51.6695 17.0552C51.925 16.4996 51.9493 15.8652 51.7369 15.2917ZM24.0221 9.0175C23.9697 8.89583 23.8937 8.7857 23.7986 8.69342C23.7036 8.60115 23.5912 8.52854 23.468 8.47977C23.3447 8.43099 23.2131 8.40701 23.0806 8.4092C22.9481 8.41138 22.8173 8.43969 22.6957 8.4925C22.4505 8.59825 22.2574 8.79704 22.1588 9.04514C22.0602 9.29323 22.0643 9.57031 22.1701 9.81541C22.2759 10.0605 22.4748 10.2536 22.723 10.3521C22.9712 10.4506 23.2484 10.4466 23.4936 10.3408C24.0046 10.1208 24.243 9.5275 24.0221 9.0175ZM49.1675 42.2617C48.8768 42.4778 48.6822 42.7991 48.6255 43.1568C48.5688 43.5145 48.6544 43.8802 48.8641 44.1756C49.0737 44.4709 49.3907 44.6726 49.7472 44.7372C50.1037 44.8019 50.4714 44.7245 50.7715 44.5217C50.92 44.4164 51.0462 44.2829 51.143 44.1287C51.2398 43.9746 51.3052 43.8029 51.3355 43.6234C51.3657 43.444 51.3603 43.2604 51.3195 43.083C51.2786 42.9057 51.2032 42.7381 51.0975 42.59C50.9923 42.4417 50.859 42.3156 50.7051 42.2189C50.5512 42.1221 50.3798 42.0566 50.2005 42.0261C50.0213 41.9956 49.8378 42.0007 49.6606 42.0412C49.4833 42.0816 49.3158 42.1565 49.1675 42.2617ZM51.922 36.86C51.7312 36.9755 51.5654 37.1279 51.4342 37.3082C51.303 37.4885 51.2091 37.6932 51.1579 37.9102C51.1068 38.1272 51.0994 38.3522 51.1363 38.5721C51.1732 38.792 51.2535 39.0023 51.3727 39.1908C51.4918 39.3793 51.6473 39.5422 51.8302 39.6699C52.013 39.7976 52.2195 39.8876 52.4375 39.9346C52.6555 39.9816 52.8807 39.9847 53.1 39.9437C53.3192 39.9027 53.5281 39.8185 53.7144 39.6958C54.0815 39.4542 54.3391 39.0781 54.4319 38.6486C54.5246 38.2191 54.445 37.7703 54.2102 37.3988C53.9754 37.0273 53.6041 36.7628 53.1762 36.662C52.7483 36.5613 52.298 36.6323 51.922 36.86ZM53.225 30.7817C52.7414 31.0538 52.3855 31.5067 52.2356 32.0409C52.0857 32.5751 52.154 33.1469 52.4255 33.6308C52.56 33.8701 52.7405 34.0805 52.9564 34.2499C53.1724 34.4194 53.4197 34.5445 53.6842 34.6183C53.9487 34.6921 54.2251 34.713 54.4976 34.6798C54.7702 34.6466 55.0335 34.5601 55.2725 34.425C55.5125 34.2913 55.7236 34.1116 55.8938 33.8961C56.064 33.6806 56.1899 33.4336 56.2643 33.1693C56.3387 32.9049 56.3601 32.6285 56.3272 32.3559C56.2944 32.0833 56.2079 31.8199 56.0729 31.5808C55.9386 31.3412 55.7584 31.1304 55.5425 30.9605C55.3266 30.7906 55.0793 30.665 54.8148 30.5907C54.5503 30.5165 54.2737 30.4952 54.0009 30.5279C53.7281 30.5607 53.4644 30.6469 53.225 30.7817ZM53.1458 24.6867C52.5988 24.9583 52.1819 25.4357 51.9865 26.0142C51.7912 26.5927 51.8333 27.225 52.1037 27.7725C52.2376 28.0445 52.424 28.2874 52.6521 28.4871C52.8802 28.6869 53.1455 28.8396 53.4329 28.9365C53.7203 29.0333 54.0239 29.0725 54.3265 29.0516C54.629 29.0308 54.9245 28.9504 55.1958 28.815C55.4676 28.6813 55.7102 28.4953 55.9098 28.2676C56.1094 28.0399 56.262 27.775 56.3588 27.4882C56.4556 27.2014 56.4948 26.8982 56.4741 26.5962C56.4533 26.2942 56.3731 25.9992 56.2379 25.7283C55.9657 25.1807 55.4872 24.7634 54.9074 24.5682C54.3277 24.3729 53.6941 24.4155 53.1458 24.6867ZM40.4581 49.6608C40.3366 49.7132 40.2266 49.789 40.1345 49.8838C40.0423 49.9787 39.9697 50.0907 39.9209 50.2136C39.872 50.3365 39.8479 50.4678 39.8498 50.6C39.8517 50.7322 39.8796 50.8627 39.932 50.9842C40.0378 51.2294 40.2367 51.4225 40.485 51.5212C40.6079 51.57 40.7393 51.5941 40.8716 51.5922C41.0038 51.5903 41.1344 51.5624 41.2559 51.51C41.7669 51.29 42.0054 50.6975 41.7853 50.185C41.6787 49.9397 41.4791 49.7466 41.2302 49.6483C40.9813 49.5501 40.7036 49.5546 40.4581 49.6608ZM12.3773 41.1817C12.988 40.9171 13.4687 40.421 13.7136 39.8024C13.9586 39.1837 13.9478 38.4932 13.6837 37.8825C13.5537 37.5802 13.3654 37.3065 13.1294 37.0771C12.8935 36.8476 12.6146 36.667 12.3087 36.5454C12.0028 36.4239 11.6759 36.3639 11.3468 36.3688C11.0177 36.3738 10.6928 36.4435 10.3906 36.5742C10.0875 36.704 9.81303 36.8924 9.58289 37.1285C9.35275 37.3646 9.1715 37.6438 9.04951 37.9501C8.92753 38.2563 8.86722 38.5836 8.87204 38.9132C8.87686 39.2428 8.94672 39.5683 9.0776 39.8708C9.34168 40.4817 9.83749 40.9628 10.4562 41.2086C11.0748 41.4544 11.7658 41.4447 12.3773 41.1817ZM14.7833 17.7383C14.9316 17.6335 15.0578 17.5004 15.1547 17.3468C15.2515 17.1931 15.3172 17.0219 15.3478 16.8429C15.3785 16.664 15.3736 16.4807 15.3334 16.3036C15.2931 16.1265 15.2184 15.959 15.1134 15.8108C15.009 15.6619 14.8761 15.535 14.7224 15.4377C14.5687 15.3403 14.3972 15.2744 14.2178 15.2436C14.0385 15.2128 13.8548 15.2179 13.6774 15.2585C13.5 15.299 13.3324 15.3743 13.1843 15.48C13.0351 15.5847 12.9082 15.7178 12.8107 15.8718C12.7133 16.0258 12.6474 16.1975 12.6167 16.3771C12.586 16.5567 12.5912 16.7405 12.6319 16.9181C12.6727 17.0957 12.7482 17.2634 12.8542 17.4117C13.067 17.7102 13.3896 17.9123 13.7512 17.9735C14.1128 18.0348 14.484 17.9502 14.7833 17.7383ZM12.0313 23.1392C12.2179 23.0212 12.3794 22.8677 12.5066 22.6873C12.6338 22.5069 12.7242 22.3033 12.7726 22.088C12.821 21.8726 12.8264 21.6499 12.7887 21.4325C12.7509 21.2151 12.6706 21.0072 12.5524 20.8208C12.3141 20.4452 11.9364 20.1796 11.5022 20.0824C11.068 19.9852 10.613 20.0644 10.2372 20.3025C9.86148 20.5406 9.59574 20.9182 9.4985 21.3522C9.40125 21.7862 9.48046 22.2411 9.7187 22.6167C9.95606 22.9925 10.3331 23.2587 10.7668 23.3567C11.2005 23.4547 11.6553 23.3764 12.0313 23.1392ZM10.7241 29.2183C10.9717 29.0884 11.1908 28.9101 11.3683 28.694C11.5458 28.478 11.6781 28.2285 11.7575 27.9604C11.8369 27.6923 11.8616 27.4111 11.8303 27.1333C11.7991 26.8554 11.7124 26.5867 11.5754 26.343C11.4383 26.0992 11.2538 25.8854 11.0327 25.7142C10.8116 25.543 10.5584 25.4179 10.2881 25.3462C10.0177 25.2745 9.73574 25.2578 9.45881 25.2969C9.18188 25.3361 8.91561 25.4303 8.67577 25.5742C8.19427 25.8467 7.84048 26.2989 7.69191 26.8317C7.54335 27.3645 7.61212 27.9344 7.88315 28.4166C8.15419 28.8988 8.6054 29.2539 9.13791 29.4042C9.67042 29.5545 10.2408 29.4877 10.7241 29.2183ZM10.805 35.315C11.3531 35.0434 11.7708 34.5652 11.9662 33.9857C12.1617 33.4062 12.1188 32.7729 11.8471 32.225C11.7133 31.9528 11.5269 31.7098 11.2988 31.5099C11.0706 31.3101 10.8051 31.1573 10.5176 31.0605C10.2301 30.9637 9.92622 30.9247 9.62357 30.9457C9.32091 30.9668 9.02543 31.0476 8.75413 31.1833C8.48268 31.3174 8.24034 31.5037 8.04095 31.7315C7.84156 31.9593 7.68903 32.2241 7.5921 32.5108C7.49516 32.7976 7.45571 33.1006 7.47601 33.4026C7.4963 33.7046 7.57594 33.9996 7.71037 34.2708C7.98251 34.8192 8.46128 35.2372 9.04152 35.433C9.62176 35.6288 10.256 35.5863 10.805 35.315ZM28.0121 52.5433C28.0477 52.7219 28.1181 52.8918 28.2193 53.0432C28.3206 53.1946 28.4507 53.3245 28.6022 53.4257C28.7537 53.5268 28.9236 53.5971 29.1023 53.6326C29.281 53.6681 29.4649 53.6681 29.6436 53.6325C30.0041 53.5592 30.3207 53.346 30.5242 53.0396C30.7276 52.7333 30.8013 52.3589 30.729 51.9983C30.6558 51.6388 30.4432 51.3228 30.1377 51.1195C29.8321 50.9162 29.4585 50.8421 29.0984 50.9133C28.7383 50.9859 28.4218 51.1983 28.2181 51.5039C28.0145 51.8094 27.9404 52.1832 28.0121 52.5433ZM22.0705 51.2475C22.1244 51.4611 22.2199 51.662 22.3517 51.8386C22.4835 52.0151 22.6489 52.164 22.8383 52.2765C23.0278 52.389 23.2377 52.463 23.4558 52.4942C23.674 52.5254 23.8962 52.5132 24.1096 52.4583C24.5406 52.3483 24.9101 52.0716 25.137 51.6892C25.3638 51.3068 25.4294 50.8499 25.3193 50.4192C25.2092 49.9884 24.9324 49.619 24.5498 49.3923C24.1673 49.1655 23.7102 49.0999 23.2793 49.21C23.0661 49.2644 22.8657 49.3603 22.6895 49.4922C22.5134 49.624 22.365 49.7893 22.2527 49.9785C22.1405 50.1677 22.0666 50.3771 22.0353 50.5949C22.0041 50.8126 22.016 51.0344 22.0705 51.2475ZM16.5874 48.6025C16.668 48.865 16.7999 49.109 16.9754 49.3203C17.1509 49.5316 17.3665 49.706 17.6098 49.8336C17.8531 49.9611 18.1193 50.0392 18.393 50.0633C18.6666 50.0874 18.9424 50.0572 19.2043 49.9742C19.4669 49.8933 19.7109 49.7614 19.9223 49.586C20.1337 49.4106 20.3084 49.1952 20.4363 48.9521C20.5642 48.7091 20.6428 48.4432 20.6676 48.1696C20.6923 47.8961 20.6628 47.6204 20.5807 47.3583C20.4146 46.8289 20.0451 46.3871 19.5534 46.1297C19.0616 45.8724 18.4878 45.8207 17.9579 45.9858C17.6957 46.0672 17.4522 46.1995 17.2413 46.3752C17.0304 46.5509 16.8562 46.7665 16.7289 47.0096C16.6016 47.2527 16.5235 47.5186 16.4992 47.7919C16.4749 48.0653 16.5049 48.3408 16.5874 48.6025ZM12.2139 44.705C12.3182 44.9895 12.4777 45.2505 12.6833 45.4731C12.8889 45.6957 13.1365 45.8755 13.4119 46.002C13.6873 46.1286 13.985 46.1995 14.2879 46.2105C14.5908 46.2216 14.8929 46.1727 15.1768 46.0667C15.7384 45.8461 16.1911 45.4142 16.4379 44.8638C16.6846 44.3134 16.7056 43.6882 16.4965 43.1224C16.2874 42.5566 15.8647 42.0954 15.3192 41.8375C14.7737 41.5797 14.1488 41.5459 13.5786 41.7433C13.0052 41.9558 12.5395 42.3869 12.2836 42.9421C12.0278 43.4973 12.0027 44.1313 12.2139 44.705ZM45.2117 46.7375C44.997 46.9188 44.8613 47.1765 44.8333 47.4561C44.8053 47.7356 44.8873 48.0151 45.0618 48.2353C45.2363 48.4556 45.4897 48.5993 45.7683 48.6361C46.047 48.6729 46.329 48.5999 46.5548 48.4325C46.6712 48.3462 46.7691 48.2373 46.8426 48.1124C46.9162 47.9875 46.9639 47.8491 46.9828 47.7054C47.0018 47.5618 46.9917 47.4157 46.9532 47.276C46.9146 47.1363 46.8483 47.0058 46.7583 46.8922C46.6683 46.7786 46.5564 46.6842 46.4291 46.6147C46.3019 46.5452 46.162 46.5019 46.0178 46.4875C45.8735 46.473 45.7278 46.4877 45.5893 46.5307C45.4509 46.5736 45.3224 46.644 45.2117 46.7375ZM35.0667 51.1092C34.783 51.152 34.5278 51.3053 34.3569 51.5356C34.186 51.766 34.1133 52.0546 34.1546 52.3383C34.1751 52.4789 34.2232 52.6139 34.296 52.7359C34.3688 52.8578 34.4649 52.9642 34.5789 53.049C34.6929 53.1337 34.8225 53.1952 34.9602 53.2298C35.098 53.2645 35.2413 53.2716 35.3818 53.2508C35.5226 53.2306 35.6581 53.1828 35.7804 53.1102C35.9027 53.0376 36.0095 52.9415 36.0946 52.8276C36.1797 52.7136 36.2415 52.584 36.2764 52.4461C36.3113 52.3083 36.3187 52.1649 36.298 52.0242C36.2774 51.8832 36.2292 51.7477 36.1561 51.6254C36.0831 51.5031 35.9866 51.3964 35.8722 51.3114C35.7578 51.2264 35.6278 51.1648 35.4896 51.1301C35.3514 51.0954 35.2076 51.0883 35.0667 51.1092ZM29.8003 7.6625C29.7796 7.52169 29.7313 7.38636 29.6582 7.26426C29.5851 7.14217 29.4885 7.03571 29.3741 6.951C29.2597 6.8663 29.1297 6.80501 28.9915 6.77066C28.8534 6.73631 28.7098 6.72957 28.569 6.75083C28.2852 6.7926 28.0296 6.94535 27.8585 7.17547C27.6874 7.4056 27.6147 7.69424 27.6565 7.97791C27.6983 8.26159 27.8511 8.51704 28.0813 8.68809C28.3116 8.85914 28.6003 8.93177 28.8841 8.89C29.1684 8.84857 29.4246 8.696 29.5964 8.46583C29.7682 8.23565 29.8416 7.9467 29.8003 7.6625ZM18.9175 11.7433C18.7388 11.5186 18.4783 11.3737 18.193 11.3405C17.9077 11.3072 17.6209 11.3882 17.3952 11.5658C17.2271 11.6988 17.1022 11.8785 17.0363 12.0824C16.9704 12.2863 16.9664 12.5052 17.025 12.7113C17.0835 12.9174 17.2018 13.1016 17.3651 13.2404C17.5283 13.3793 17.7291 13.4667 17.942 13.4915C18.1549 13.5164 18.3704 13.4775 18.5612 13.3799C18.7521 13.2823 18.9096 13.1303 19.0141 12.9432C19.1185 12.7561 19.165 12.5422 19.1478 12.3286C19.1307 12.1151 19.0505 11.9114 18.9175 11.7433Z" fill="white"/>
</g>
<defs>
<clipPath id="clip0_1_20">
<rect width="209" height="60" fill="white"/>
</clipPath>
</defs>
</svg>
