<svg width="300" height="60" viewBox="0 0 300 60" fill="none" xmlns="http://www.w3.org/2000/svg">
<path d="M253.045 9.3164V50.7894H273.481C279.191 50.7894 282.497 49.8878 284.901 47.7841C287.907 45.0793 289.409 40.2709 289.409 30.0529C289.409 19.8349 287.907 15.0264 284.901 12.3217C282.497 10.218 279.191 9.3164 273.481 9.3164H253.045ZM280.995 30.0529C280.995 39.0688 280.394 41.1725 278.59 42.3746C277.388 43.2762 275.886 43.5767 272.88 43.5767H261.46V16.2286H272.88C275.886 16.2286 277.388 16.2286 278.59 17.4307C280.394 18.9333 280.995 21.037 280.995 30.0529ZM299.928 59.9567H239.971V0H299.928V59.9567ZM190.987 16.2286V9.3164H226.45V22.5397H218.934V16.2286H204.509V26.146H215.929V32.7577H204.509V43.8772H219.237V36.6645H226.748V50.7894H190.99V43.8772H196.697V16.2286H190.987ZM158.831 39.9703C158.831 44.4783 159.129 47.7841 159.73 50.4889H167.847C167.544 48.3852 167.246 44.4783 167.246 39.3693C166.943 33.3587 165.139 32.4571 160.932 31.5555C165.741 30.654 167.847 28.5502 167.847 21.037C167.847 15.0264 166.943 12.6222 165.139 11.1196C163.937 9.91746 161.836 9.3164 158.528 9.3164H133.283V50.7894H141.698V34.5608H153.421C155.825 34.5608 156.725 34.8614 157.629 35.4624C158.533 36.0635 158.831 36.9651 158.831 39.9703ZM141.698 27.9492V16.5291H155.224C157.028 16.5291 157.629 16.8296 157.927 17.1301C158.528 17.7312 159.129 18.6328 159.129 22.2391C159.129 25.8455 158.528 27.0476 157.927 27.6487C157.629 27.9492 157.028 28.2497 155.224 28.2497L141.698 27.9492ZM179.868 59.9567H119.762V0H179.716V59.9567H179.868ZM104.134 43.8772V50.7894H75.5818V43.8772H85.7998V16.2286H75.5818V9.3164H104.132V16.2286H93.9141V43.8772H104.134ZM55.8984 9.3164H48.0846L42.3746 42.0741L35.7629 11.7206C35.4624 9.61693 34.5608 9.3164 32.7577 9.3164H28.5502C26.7471 9.3164 25.8455 9.91746 25.545 11.7206L18.9333 42.0741L13.2233 9.3164H4.80846L12.9227 48.6857C13.2233 50.4889 13.8243 50.7894 15.928 50.7894H21.6381C23.4413 50.7894 24.0423 50.4889 24.6434 48.6857L30.9545 20.1354L37.2656 48.6857C37.5661 50.4889 38.1672 50.7894 40.2709 50.7894H45.6804C47.4836 50.7894 48.3852 50.4889 48.6857 48.6857L55.8984 9.3164ZM60.1058 59.9567H0V0H59.9567V59.9567H60.1058Z" fill="white"/>
</svg>
