<svg width="50" height="50" viewBox="0 0 50 50" fill="none" xmlns="http://www.w3.org/2000/svg">
<path d="M18.9604 49.4459V32.7597H13.8062V25.092H18.9604V21.7882C18.9604 13.2465 22.8104 9.28822 31.1646 9.28822C32 9.28822 33.1542 9.37605 34.2229 9.5036C35.0234 9.58627 35.8176 9.72249 36.6 9.91134V16.8639C36.1476 16.8216 35.6938 16.7965 35.2396 16.7886C34.7307 16.7754 34.2216 16.7691 33.7125 16.7698C32.2396 16.7698 31.0896 16.9706 30.2229 17.4159C29.6403 17.7093 29.1505 18.1597 28.8083 18.7165C28.2708 19.5948 28.0292 20.7971 28.0292 22.38V25.092H36.1937L35.3896 29.4894L34.7917 32.7597H28.0292V50C40.4083 48.4987 50 37.9203 50 25.092C50 11.2349 38.8062 0 25 0C11.1937 0 0 11.2349 0 25.092C0 36.8602 8.07083 46.7339 18.9604 49.4459Z" fill="white"/>
</svg>
