<svg width="50" height="50" viewBox="0 0 50 50" fill="none" xmlns="http://www.w3.org/2000/svg">
<path d="M14.6461 0.175034C11.9861 0.300451 10.1696 0.725033 8.58146 1.34878C6.93812 1.9894 5.54499 2.84878 4.15894 4.23981C2.7731 5.63085 1.91935 7.02481 1.28351 8.67105C0.66809 10.2623 0.251005 12.0804 0.133504 14.7419C0.0160034 17.4033 -0.0100384 18.2589 0.00308666 25.0481C0.0160034 31.8368 0.0460035 32.6879 0.174962 35.3549C0.302046 38.0143 0.724965 39.8303 1.34893 41.4189C1.9906 43.0624 2.84893 44.4549 4.24061 45.8414C5.63207 47.2278 7.025 48.0795 8.675 48.7164C10.265 49.3309 12.0836 49.7499 14.7446 49.8663C17.4057 49.983 18.2621 50.0101 25.0493 49.997C31.8364 49.9841 32.691 49.9538 35.3572 49.8274C38.0239 49.7009 39.8302 49.2749 41.4193 48.6539C43.0629 48.0109 44.4564 47.1539 45.8419 45.762C47.2273 44.3699 48.0804 42.9749 48.7158 41.3278C49.3319 39.7378 49.7504 37.9195 49.8658 35.2603C49.9825 32.5918 50.01 31.7399 49.9971 24.952C49.984 18.1639 49.9533 17.3129 49.8269 14.6469C49.7004 11.9808 49.2769 10.1704 48.6533 8.58084C48.0108 6.93731 47.1533 5.54585 45.7625 4.15836C44.3714 2.77086 42.9752 1.91836 41.3289 1.28441C39.7377 0.668783 37.9204 0.249409 35.2593 0.13441C32.5982 0.0194099 31.7418 -0.0103817 24.9522 0.00295164C18.1626 0.0158683 17.3125 0.0450348 14.6461 0.175034ZM14.9382 45.3689C12.5006 45.2628 11.1771 44.8578 10.295 44.5189C9.12709 44.0689 8.295 43.5249 7.41604 42.6543C6.53687 41.7839 5.99707 40.9489 5.54103 39.7835C5.19853 38.9014 4.78603 37.5793 4.67207 35.1418C4.54811 32.5074 4.52207 31.7164 4.50748 25.0418C4.4929 18.3675 4.51853 17.5773 4.63394 14.9419C4.73811 12.5065 5.14561 11.1815 5.48395 10.2998C5.93395 9.13043 6.47603 8.2998 7.34854 7.42147C8.22104 6.54293 9.05355 6.00189 10.22 5.54585C11.1013 5.20189 12.4231 4.79294 14.8596 4.6769C17.4961 4.5519 18.2861 4.5269 24.9597 4.51231C31.6332 4.49773 32.4253 4.52273 35.0628 4.63898C37.4983 4.74481 38.8239 5.14835 39.7045 5.48898C40.8729 5.93898 41.7045 6.47939 42.5829 7.35356C43.4614 8.2273 44.0029 9.05688 44.4589 10.2258C44.8033 11.1044 45.2125 12.4258 45.3275 14.8639C45.4529 17.5004 45.4814 18.291 45.4933 24.9639C45.5054 31.6368 45.4818 32.4293 45.3662 35.0639C45.26 37.5014 44.8558 38.8253 44.5162 39.7085C44.0662 40.876 43.5239 41.7085 42.6508 42.5864C41.7779 43.4645 40.9464 44.0053 39.7793 44.4614C38.8993 44.8049 37.5758 45.2149 35.1414 45.3309C32.5047 45.4549 31.7147 45.4809 25.0386 45.4955C18.3626 45.5101 17.5746 45.483 14.9382 45.3689ZM35.3189 11.6383C35.3199 12.2317 35.4968 12.8115 35.8273 13.3043C36.1579 13.7971 36.6271 14.1809 37.1757 14.407C37.7244 14.6331 38.3277 14.6914 38.9095 14.5746C39.4913 14.4578 40.0254 14.171 40.4442 13.7507C40.863 13.3303 41.1477 12.7951 41.2624 12.2129C41.377 11.6307 41.3164 11.0276 41.0883 10.4798C40.8601 9.93202 40.4746 9.46422 39.9805 9.13555C39.4865 8.80688 38.906 8.63211 38.3126 8.63334C37.5172 8.635 36.755 8.95249 36.1936 9.516C35.6322 10.0795 35.3176 10.8429 35.3189 11.6383ZM12.1636 25.025C12.1775 32.1149 17.9357 37.8493 25.024 37.836C32.1128 37.8224 37.8512 32.0649 37.8379 24.975C37.8243 17.885 32.0649 12.149 24.9753 12.1629C17.8857 12.1769 12.1502 17.9358 12.1636 25.025ZM16.6667 25.016C16.6635 23.3678 17.149 21.7557 18.062 20.3835C18.9749 19.0113 20.2743 17.9407 21.7958 17.3069C23.3172 16.6732 24.9925 16.5048 26.6096 16.8232C28.2268 17.1415 29.7132 17.9322 30.8809 19.0953C32.0487 20.2584 32.8453 21.7417 33.1701 23.3575C33.4948 24.9734 33.3331 26.6493 32.7054 28.1732C32.0778 29.6972 31.0123 31.0008 29.6437 31.9192C28.2751 32.8376 26.6649 33.3296 25.0168 33.3329C23.9223 33.3352 22.8382 33.1218 21.8263 32.7051C20.8143 32.2884 19.8944 31.6764 19.119 30.904C18.3436 30.1317 17.7279 29.2142 17.3071 28.204C16.8864 27.1937 16.6688 26.1104 16.6667 25.016Z" fill="white"/>
</svg>
