<svg width="62" height="44" viewBox="0 0 62 44" fill="none" xmlns="http://www.w3.org/2000/svg">
<path d="M61.3473 9.48444C61.3473 9.48444 60.742 5.18222 58.8779 3.27556C56.5295 0.782222 53.8906 0.782222 52.6558 0.635556C44.0143 0 31.0132 0 31.0132 0H30.989C30.989 0 17.9881 0 9.29669 0.635556C8.0862 0.782222 5.44723 0.782222 3.07468 3.27556C1.23472 5.18222 0.629467 9.48444 0.629467 9.48444C0.629467 9.48444 0 14.5689 0 19.6289V24.3711C0 29.4311 0.629467 34.4911 0.629467 34.4911C0.629467 34.4911 1.23472 38.7933 3.0989 40.7C5.44723 43.1933 8.54613 43.12 9.92616 43.3644C14.8892 43.8533 30.989 44 30.989 44C30.989 44 44.014 43.9756 52.6813 43.34C53.8918 43.1933 56.5307 43.1933 58.9033 40.7C60.7675 38.7933 61.3727 34.4911 61.3727 34.4911C61.3727 34.4911 62 29.4311 62 24.3711V19.6289C61.9758 14.5689 61.3463 9.48444 61.3463 9.48444H61.3473ZM24.5965 30.1156V12.54L41.3496 21.3644L24.5965 30.1156Z" fill="#FEFEFE"/>
</svg>
